<?xml version="1.0" encoding="UTF-8"?>
<svg id="Layer_2" data-name="Layer 2" xmlns="http://www.w3.org/2000/svg" viewBox="0 0 66.64 64.99">
  <defs>
    <style>
      .cls-1 {
        fill: #fff;
        stroke-width: 0px;
      }
    </style>
  </defs>
  <g id="Calque_1" data-name="Calque 1">
    <g>
      <path class="cls-1" d="m55.69,3.81v37.55c0,1.64-.17,3.24-.49,4.78-.52,2.46-1.42,4.78-2.65,6.89-4.04,6.95-11.57,11.63-20.17,11.63-12.85,0-23.31-10.45-23.31-23.31,0-2.39.36-4.69,1.03-6.85,1.26-4.08,3.61-7.69,6.71-10.48,1.33-1.2,2.8-2.24,4.38-3.11l-.02-.04,17.31-9.45v16.56c-1.86-.85-3.93-1.33-6.1-1.33-1.99,0-3.89.4-5.62,1.12-2.89,1.2-5.32,3.3-6.93,5.94-1.37,2.23-2.15,4.85-2.15,7.65,0,8.11,6.59,14.7,14.7,14.7,7.18,0,13.17-5.17,14.45-11.98.17-.88.25-1.79.25-2.72V6.73l7.04-3.84c.71-.38,1.57.13,1.57.93Z"/>
      <path class="cls-1" d="m23.45,41.6c.13,4.82,4.08,8.7,8.93,8.7s8.91-3.97,8.94-8.87c-2.64-.83-5.57-1.28-8.66-1.28-3.3,0-6.43.53-9.21,1.46Z"/>
      <g>
        <path class="cls-1" d="m24.66,18.28c-3.12-6-9.02-8.83-14.07-12.6,3.47,3.95,8.51,6.25,11.69,11.02-2.46-1.34-4.61-2.59-6.83-3.7C10.16,10.37,6.91,6.02,4.91.61c-.06-.16-.09-.33-.16-.61,4.38,1.94,9.16,2.67,12.97,5.75,4.03,3.27,6.2,7.48,6.94,12.53Z"/>
        <path class="cls-1" d="m6.96,22.04c4.43-.77,8.57-3.27,13.41-2.32-2.97,1.46-5.8,2.98-8.74,4.25-3.88,1.67-7.7.98-11.63-.69,3.43-2.04,5.98-5.05,9.85-6.05,3.86-.99,7.44-.4,10.93,1.44-5.05-.64-9.37,1.62-13.82,3.36Z"/>
      </g>
      <path class="cls-1" d="m61.76,58.74c-2.28-2.44-4.56-4.87-6.81-7.28,2.76.86,5.2,2.39,7.1,4.72,1.46,1.79,2.61,3.76,3.35,5.96.32.95.79,1.84,1.24,2.86-.27-.04-.48-.05-.68-.12-3.19-1.11-5.79-2.96-7.56-5.91-1.14-1.9-2.36-3.76-3.54-5.65-.08-.13-.13-.28-.3-.65,2.81,1.82,4.91,4.03,6.93,6.34.09-.09.18-.18.28-.27Z"/>
    </g>
  </g>
</svg>