<?xml version="1.0" encoding="UTF-8"?>
<svg id="Layer_2" data-name="Layer 2" xmlns="http://www.w3.org/2000/svg" viewBox="0 0 504 500">
  <defs>
    <style>
      .cls-1 {
        stroke: #0d5d2f;
        stroke-width: 35px;
      }

      .cls-1, .cls-2 {
        fill: #fff;
        fill-rule: evenodd;
        stroke-miterlimit: 10;
      }

      .cls-2 {
        stroke: #a8cb38;
        stroke-width: 85px;
      }
    </style>
  </defs>
  <g id="Layer_1-2" data-name="Layer 1">
    <path class="cls-2" d="m172.17,289.04C67.15,240.75,42.09,142.58,42.5,86.55c.05-6.9,7.7-10.55,13.56-6.9,59.64,37.16,165.25,85.79,215.57,67.43,16.6-6.05,28.71-24.99,41.58-45.11,27.57-43.08,58.66-91.61,144.54-30.97,6.29,4.43,4.21,14.3-2.9,17.24-45.31,18.78-47.82,62.9-50.52,110.53-2.24,39.51-4.64,81.45-31.71,113.31-26.24,30.88-59.82,39.58-93.25,48.26-45.51,11.81-90.8,23.55-117.04,91.09-2.01,5.18-8.09,7.74-12.85,4.87-44.28-26.93-67.09-75.88-76.15-108.56-1.99-7.22,5.74-13.04,13.08-11.51,34.2,7.2,68.63-14.43,88.6-32.85,4.64-4.29,2.93-11.72-2.83-14.34h-.02Z"/>
    <path class="cls-1" d="m172.17,289.04C67.15,240.75,42.09,142.58,42.5,86.55c.05-6.9,7.7-10.55,13.56-6.9,59.64,37.16,165.25,85.79,215.57,67.43,16.6-6.05,28.71-24.99,41.58-45.11,27.57-43.08,58.66-91.61,144.54-30.97,6.29,4.43,4.21,14.3-2.9,17.24-45.31,18.78-47.82,62.9-50.52,110.53-2.24,39.51-4.64,81.45-31.71,113.31-26.24,30.88-59.82,39.58-93.25,48.26-45.51,11.81-90.8,23.55-117.04,91.09-2.01,5.18-8.09,7.74-12.85,4.87-44.28-26.93-67.09-75.88-76.15-108.56-1.99-7.22,5.74-13.04,13.08-11.51,34.2,7.2,68.63-14.43,88.6-32.85,4.64-4.29,2.93-11.72-2.83-14.34h-.02Z"/>
  </g>
</svg>