<svg width="100" height="100" viewBox="0 0 100 100" xmlns="http://www.w3.org/2000/svg">
  <defs>
    <pattern id="leaf-pattern" x="0" y="0" width="100" height="100" patternUnits="userSpaceOnUse">
      <!-- Small leaf -->
      <path d="M20 30 C30 10, 50 10, 50 30 C50 50, 30 50, 20 30 M35 30 L50 30" fill="none" stroke="#064018" stroke-width="1" opacity="0.5" />

      <!-- Medium leaf -->
      <path d="M60 60 C75 35, 90 45, 80 65 C70 85, 50 80, 60 60 M70 62 L80 65" fill="none" stroke="#064018" stroke-width="1" opacity="0.5" />

      <!-- Stem with leaf -->
      <path d="M80 20 C70 30, 85 40, 95 30 M80 20 L75 50" fill="none" stroke="#064018" stroke-width="1" opacity="0.5" />

      <!-- Small oval leaf -->
      <path d="M15 70 C25 55, 35 65, 25 80 M20 75 L15 90" fill="none" stroke="#064018" stroke-width="1" opacity="0.5" />
    </pattern>
  </defs>

  <rect x="0" y="0" width="100" height="100" fill="url(#leaf-pattern)" />
</svg>