<svg width="1169" height="394" viewBox="0 0 1169 394" fill="none" xmlns="http://www.w3.org/2000/svg">
<path fill-rule="evenodd" clip-rule="evenodd" d="M1153.63 96.7329C1163.8 110.573 1168.74 128.163 1168.74 150.523C1168.74 174.253 1163.42 200.283 1152.47 230.103C1143.98 253.223 1133.05 277.143 1119.95 301.313C1121.34 309.163 1123.05 316.973 1125.04 324.603C1126.69 330.303 1127.52 336.243 1127.52 342.263C1127.52 358.193 1121.07 372.253 1109.34 381.863C1099.67 389.773 1087.59 393.783 1073.44 393.783C1063.36 393.783 1054.03 391.563 1045.88 387.293C1037.16 390.583 1027.69 392.253 1017.63 392.253C998.687 392.253 981.747 385.833 968.137 373.603C952.367 385.823 933.837 392.253 914.157 392.253C895.897 392.253 879.517 387.463 865.487 378.023L865.337 377.923L865.197 377.833L865.067 377.733C861.927 375.573 858.967 373.233 856.177 370.713C839.667 384.813 819.827 392.253 798.657 392.253C780.787 392.253 764.717 387.663 750.887 378.623L750.727 378.543L749.557 377.733C736.417 368.653 726.317 356.553 719.547 341.773C718.057 338.513 716.747 335.193 715.607 331.813C710.147 344.163 703.257 354.533 694.847 363.093C684.907 373.293 672.997 381.013 659.437 386.043C646.977 390.663 633.087 393.013 618.147 393.013C600.237 393.013 583.377 389.053 568.017 381.253L567.687 381.083L567.627 381.053L567.507 380.983C566.417 380.413 565.347 379.823 564.287 379.223C554.187 388.763 540.497 393.783 524.477 393.783C516.567 393.783 509.217 392.563 502.527 390.133C495.517 392.563 488.037 393.783 480.187 393.783C469.477 393.783 459.217 391.493 449.947 387.103C439.297 391.543 427.707 393.783 415.327 393.783C398.787 393.783 383.667 389.913 370.767 382.483C361.347 389.823 349.297 393.783 335.967 393.783C327.357 393.783 319.257 392.003 311.997 388.573C303.037 392.033 293.907 393.783 284.737 393.783C260.157 393.783 239.707 383.263 227.107 364.143L226.997 364.003L226.777 363.643L226.637 363.433L226.497 363.213C225.097 360.963 223.797 358.643 222.607 356.233C214.927 362.583 206.527 368.213 197.447 373.113C172.007 386.833 142.017 393.783 108.307 393.783C96.7073 393.783 83.6673 392.803 69.5673 390.883C53.3873 388.823 40.5873 382.873 31.5273 373.213C24.4273 365.643 16.2173 352.063 17.4373 330.303L17.4673 329.873V329.783C17.4673 329.753 17.4698 329.725 17.4723 329.698C17.4748 329.67 17.4773 329.643 17.4773 329.613C18.7673 311.403 21.7873 288.993 26.4473 263.043C28.7773 249.953 31.3773 237.013 34.2073 224.383C24.9973 221.133 16.9373 215.103 10.9973 206.803L10.8073 206.533L10.6973 206.373L10.6773 206.343L10.5473 206.153L10.2473 205.713C4.1973 196.613 0.987305 185.763 0.987305 174.333C0.987305 163.813 3.1773 154.283 7.4873 146.003C11.9173 137.333 18.6073 129.903 27.3573 123.913L28.5073 123.123L28.5673 123.093C43.8173 112.923 61.5173 105.173 81.2173 100.063C100.337 94.9429 119.187 92.3429 137.237 92.3429C163.977 92.3429 187.967 97.3629 208.537 107.273C227.617 116.323 243.197 129.253 254.967 145.793C265.257 139.603 277.127 136.373 289.857 136.373C295.697 136.373 301.327 137.033 306.667 138.343C309.107 132.753 311.707 127.403 314.447 122.323L314.497 122.223L314.657 121.933C322.547 107.423 331.997 95.8429 342.737 87.5129C355.047 77.9629 368.817 72.7429 383.737 71.9629C383.307 67.1929 383.177 62.9829 383.207 59.4729C383.297 46.7629 388.377 35.3329 397.497 27.2729C405.537 20.1729 416.037 16.2629 427.057 16.2629C435.387 16.2629 443.427 18.5329 450.297 22.8129C463.027 30.7529 478.397 38.3029 491.407 43.0129C498.147 45.4529 503.057 46.7029 506.397 47.3429C506.867 46.6336 507.346 45.8783 507.843 45.0947L507.907 44.9929L508.137 44.6329L508.167 44.5929L508.187 44.5529L508.277 44.4229C511.317 39.6629 515.497 33.1529 520.697 26.9629C528.657 17.5129 537.307 10.7429 547.157 6.28289C555.697 2.42289 564.747 0.462891 574.067 0.462891C591.187 0.462891 609.307 7.13289 627.927 20.2929C641.857 30.1329 648.857 47.3729 645.757 64.1929C643.267 77.7829 634.797 89.2629 622.747 95.6529C622.367 97.9029 622.077 100.913 621.837 104.373C646.027 97.4929 675.897 94.1329 712.347 94.1329C742.997 94.1329 770.627 95.8029 794.507 99.1029L794.637 99.1229L794.807 99.1429C809.467 101.233 819.227 107.203 825.517 113.113C831.847 103.123 839.877 92.6829 850.067 82.3029C876.257 55.6429 910.627 35.5929 952.227 22.7129C957.027 21.2229 962.007 20.4629 967.027 20.4629C979.997 20.4629 992.297 25.4129 1001.63 34.3829C1014.76 46.9629 1020.02 65.7029 1015.36 83.2729C1011.74 96.9529 1004.07 112.703 992.567 130.093C992.474 130.233 992.381 130.373 992.289 130.514C992.105 130.793 991.92 131.073 991.727 131.353C1002.74 134.723 1013.69 139.303 1024.55 145.073C1025.91 140.853 1027.35 136.743 1028.86 132.733L1028.89 132.613L1029.22 131.773C1035.81 114.683 1044.33 100.893 1054.54 90.7829C1068.06 77.4029 1084.87 70.3329 1103.14 70.3329C1123.37 70.3329 1141.29 79.7129 1153.63 96.7329ZM1137.47 108.523C1146.06 120.173 1148.74 135.273 1148.74 150.523C1148.74 172.413 1143.4 196.773 1133.69 223.213C1124.75 247.553 1113.19 272.403 1099.08 297.763C1100.76 308.603 1102.98 319.323 1105.76 329.943C1106.95 333.973 1107.52 338.103 1107.52 342.263C1107.52 350.363 1104.85 359.683 1096.67 366.383C1089.25 372.453 1080.35 373.783 1073.44 373.783C1064.72 373.783 1055.25 371.373 1047.71 364.253C1046.77 364.823 1045.81 365.363 1044.85 365.863C1036.39 370.343 1027.12 372.253 1017.63 372.253C1001.59 372.253 987.507 366.033 976.827 354.013C976.717 353.903 976.617 353.783 976.517 353.663C973.877 350.543 971.617 347.243 969.727 343.783C966.877 347.513 963.687 351.003 960.137 354.233C960.087 354.283 960.037 354.323 959.997 354.363C946.997 365.973 931.487 372.253 914.157 372.253C900.577 372.253 887.747 368.913 876.607 361.403L876.427 361.283C868.307 355.673 861.747 348.593 856.787 340.233C853.327 345.323 849.287 350.003 844.637 354.233C844.611 354.26 844.585 354.283 844.56 354.306C844.537 354.326 844.516 354.345 844.497 354.363C831.497 365.973 815.987 372.253 798.657 372.253C785.077 372.253 772.247 368.913 761.107 361.403C761.057 361.373 761.017 361.343 760.967 361.303L760.927 361.283C750.697 354.213 742.927 344.793 737.727 333.443C732.707 322.483 730.277 310.743 730.277 298.493C730.277 293.533 730.577 288.673 731.197 283.933H708.237C704.077 310.873 695.677 333.723 680.557 349.093C664.367 365.733 642.677 373.013 618.147 373.013C603.587 373.013 589.787 369.883 577.077 363.423C576.987 363.373 576.907 363.333 576.827 363.293C570.297 359.853 564.307 355.833 559.077 351.113C557.627 355.423 555.357 359.663 551.847 363.383C543.767 371.993 532.767 373.783 524.477 373.783C517.637 373.783 509.787 372.513 502.837 368.193C495.867 372.023 488.157 373.783 480.187 373.783C469.097 373.783 459.087 370.533 450.687 364.353C440.057 370.783 428.057 373.783 415.327 373.783C398.157 373.783 382.337 368.763 369.907 357.123C369.167 356.423 368.447 355.713 367.747 354.993C366.307 357.843 364.577 360.533 362.507 362.893C354.847 371.623 343.997 373.783 335.967 373.783C327.937 373.783 319.867 371.403 313.407 365.873C304.497 370.813 294.917 373.783 284.737 373.783C268.327 373.783 253.197 367.553 243.667 352.933C243.637 352.883 243.607 352.833 243.567 352.783C243.547 352.753 243.527 352.713 243.497 352.673C236.687 341.863 233.657 329.103 233.097 315.563C221.557 332.203 206.417 345.553 187.947 355.513C164.837 367.973 138.047 373.783 108.307 373.783C97.3273 373.783 85.2573 372.843 72.1673 371.053C64.1473 370.043 53.5773 367.493 46.1073 359.523C37.9973 350.883 36.9373 339.663 37.3973 331.423C37.4023 331.373 37.4048 331.323 37.4073 331.273C37.4098 331.223 37.4123 331.173 37.4173 331.123C38.6773 313.273 41.6173 291.693 46.1273 266.553C49.8373 245.743 54.1873 225.523 59.1973 205.923C56.4073 206.713 53.4873 207.133 50.4573 207.133C41.0073 207.133 32.6773 202.743 27.2673 195.173C27.1742 195.034 27.0751 194.894 26.9793 194.759C26.9516 194.72 26.9242 194.682 26.8973 194.643C22.6673 188.283 20.9873 181.193 20.9873 174.333C20.9873 168.293 21.9473 161.503 25.2573 155.173C28.5173 148.763 33.4473 143.973 38.6473 140.413L38.6873 140.393C52.6073 130.913 68.5873 123.993 86.3173 119.403C103.647 114.753 120.647 112.343 137.237 112.343C160.347 112.343 181.427 116.413 199.877 125.303C218.527 134.133 233.297 147.413 243.587 164.993C246.087 169.273 248.257 173.713 250.117 178.313C252.387 174.223 255.437 170.523 259.197 167.323C268.007 159.773 278.667 156.373 289.857 156.373C299.427 156.373 309.257 158.743 317.547 165.233C317.565 165.251 317.587 165.269 317.609 165.287C317.625 165.299 317.641 165.311 317.657 165.323C321.807 153.093 326.637 141.823 332.187 131.553L332.217 131.493C344.347 109.193 362.327 91.8634 387.677 91.8634C395.787 91.8634 403.127 93.9534 409.457 97.7734C404.757 83.6434 403.117 70.1534 403.197 59.6234C403.357 38.8234 425.757 31.0834 439.707 39.7834C451.797 47.3234 468.607 56.0334 484.607 61.8234C492.607 64.7134 499.867 66.6834 505.907 67.5434C511.547 68.3534 514.737 67.9834 516.127 67.6234C516.397 67.3934 516.947 66.8834 517.797 65.8634C519.747 63.5334 521.777 60.4334 524.767 55.7534L525.027 55.3434L525.114 55.2082C527.952 50.7762 531.632 45.0305 535.997 39.8434C540.617 34.3534 546.887 28.3634 555.407 24.5034C574.397 15.9034 595.017 21.5334 616.387 36.6334C625.127 42.8034 627.527 52.7234 626.077 60.5934C624.687 68.1834 619.577 75.5334 611.237 78.9934C607.417 80.5734 605.797 82.5534 604.457 86.4634C602.627 91.8034 602.077 98.8734 601.437 110.043L601.429 110.216C601.402 110.772 601.373 111.344 601.337 111.923L601.327 112.11C600.959 118.705 600.513 126.703 598.967 135.163C602.107 133.333 605.387 131.673 608.797 130.173L608.847 130.153C634.447 118.953 669.547 114.133 712.347 114.133C742.027 114.133 768.577 115.703 791.897 118.943H791.977C798.347 119.853 807.897 122.333 814.427 130.513C819.807 137.053 821.697 144.753 821.697 151.803C821.697 155.373 821.317 159.203 820.317 163.013C820.377 163.003 820.437 162.993 820.497 162.973L821.395 162.789C822.699 162.521 823.992 162.256 825.277 162.003C836.537 121.003 873.867 67.9134 958.147 41.8134C968.567 38.5834 979.917 41.2634 987.787 48.8234C995.667 56.3734 998.817 67.6034 996.017 78.1534C992.507 91.4134 984.557 105.943 975.887 119.053C970.307 127.483 963.847 136.203 956.817 144.783C981.847 146.903 1008.58 156.293 1036.7 176.003C1039.76 162.933 1043.46 150.613 1047.83 139.093L1047.85 139.043L1047.87 138.973C1057.8 113.233 1074.81 90.3334 1103.14 90.3334C1117.69 90.3334 1129.44 97.4134 1137.47 108.523Z" fill="#AACC00"/>
<path fill-rule="evenodd" clip-rule="evenodd" d="M479.917 148.414C433.977 127.274 423.017 84.2938 423.197 59.7638C423.217 56.7437 426.567 55.1437 429.127 56.7437C455.217 73.0137 501.417 94.3038 523.427 86.2638C530.687 83.6138 535.987 75.3238 541.617 66.5138C553.677 47.6538 567.277 26.4038 604.847 52.9538C607.597 54.8938 606.687 59.2138 603.577 60.5038C583.757 68.7238 582.657 88.0438 581.477 108.894C580.497 126.194 579.447 144.554 567.607 158.504C556.127 172.024 541.437 175.834 526.817 179.634C506.907 184.804 487.097 189.944 475.617 219.514C474.737 221.784 472.077 222.904 469.997 221.644C450.627 209.854 440.647 188.424 436.687 174.114C435.817 170.954 439.197 168.404 442.407 169.074C457.367 172.224 472.427 162.754 481.167 154.694C483.197 152.814 482.447 149.564 479.927 148.414H479.917ZM973.947 63.2338C976.567 65.7538 977.617 69.4938 976.687 73.0138C974.007 83.1138 967.487 95.4838 959.207 108.004C950.797 120.724 940.097 134.314 928.417 146.944C919.687 156.384 910.297 165.404 900.787 173.154C914.377 167.874 930.697 163.694 949.517 164.354C973.607 165.194 1000.82 173.904 1030.93 196.504C1034.09 198.874 1035.55 202.874 1034.68 206.724C1033.8 210.574 1030.75 213.544 1026.87 214.314C1025.43 214.604 1023.94 214.894 1022.4 215.214C992.687 221.214 945.237 230.794 899.197 202.134C896.737 212.494 897.947 224.104 904.537 232.934C904.857 233.354 905.127 233.794 905.367 234.254C910.807 232.354 916.547 231.404 922.607 231.404C935.577 231.404 945.987 235.924 953.837 244.974C961.857 253.844 966.117 264.094 967.917 277.994C969.267 288.434 967.917 296.174 965.867 304.874C962.627 319.214 956.227 330.734 946.667 339.434C937.107 347.964 926.267 352.234 914.157 352.234C903.917 352.234 895.127 349.754 887.787 344.814C880.617 339.864 875.157 333.294 871.407 325.104C867.647 316.914 865.777 308.034 865.777 298.484C865.777 285.514 868.247 273.994 873.197 263.924C877.027 256.004 881.977 249.454 888.057 244.294C877.317 229.454 876.137 211.374 880.107 196.134C872.847 196.224 863.427 196.774 852.617 198.114C846.137 198.924 839.227 200.004 832.057 201.424C827.667 207.094 824.627 214.684 822.737 222.714C821.867 226.424 821.277 230.064 820.897 233.404C827.677 235.544 833.487 239.404 838.327 244.974C846.347 253.844 850.607 264.094 852.407 277.994C853.757 288.434 852.327 296.174 850.357 304.874C847.117 319.214 840.717 330.734 831.157 339.434C821.597 347.964 810.757 352.234 798.647 352.234C788.407 352.234 779.617 349.754 772.277 344.814C765.107 339.864 759.647 333.294 755.897 325.104C752.137 316.914 750.267 308.034 750.267 298.484C750.267 285.514 752.737 273.994 757.687 263.924C762.637 253.684 769.467 245.744 778.167 240.114C785.157 235.454 792.757 232.664 800.957 231.744C801.417 227.484 802.147 222.864 803.257 218.144C804.037 214.824 805.027 211.354 806.277 207.864C791.817 212.274 777.267 218.174 763.857 225.964C759.077 228.734 752.957 227.114 750.187 222.344C747.417 217.574 749.037 211.444 753.807 208.674C776.617 195.424 801.857 187.334 824.607 182.534C830.597 181.274 836.437 180.234 842.037 179.384C846.667 145.334 876.407 88.0437 964.037 60.9037C967.507 59.8237 971.297 60.7237 973.917 63.2437L973.947 63.2338ZM916.287 188.914C926.077 185.874 936.897 183.934 948.827 184.344C963.267 184.844 979.867 188.834 998.637 199.244C973.857 203.114 944.917 204.134 916.287 188.904V188.914ZM863.497 173.954C868.407 171.614 873.787 168.384 879.527 164.274C890.877 156.154 902.707 145.284 913.727 133.364C924.737 121.464 934.757 108.714 942.517 96.9738C944.597 93.8238 946.487 90.8038 948.167 87.9238C891.557 111.814 869.767 149.544 863.497 173.954ZM1086.5 335.344C1082.91 321.694 1080.18 307.864 1078.3 293.874C1093.49 267.254 1105.7 241.394 1114.91 216.304C1124.13 191.214 1128.74 169.284 1128.74 150.514C1128.74 137.034 1126.26 126.964 1121.31 120.304C1116.53 113.644 1110.47 110.324 1103.13 110.324C1087.95 110.324 1075.74 122.274 1066.53 146.164C1057.48 170.054 1051.34 198.134 1048.09 230.384C1035.64 231.924 1024.37 236.444 1014.3 243.954C1004.23 251.294 996.287 260.764 990.487 272.374C984.687 283.984 981.787 296.604 981.787 310.264C981.787 322.724 985.117 332.874 991.767 340.724C998.597 348.404 1007.22 352.244 1017.63 352.244C1024.46 352.244 1030.43 350.874 1035.55 348.144C1040.84 345.414 1046.73 340.034 1053.21 332.014L1053.47 333.034C1055.86 341.054 1058.42 346.514 1061.15 349.414C1064.05 352.314 1068.15 353.764 1073.44 353.764C1082.83 353.764 1087.52 349.924 1087.52 342.244C1087.52 339.854 1087.18 337.554 1086.5 335.334V335.344ZM1086.24 173.294C1090.68 148.034 1095.37 135.404 1100.32 135.404C1101.85 135.404 1103.13 137.194 1104.16 140.784C1105.35 144.364 1105.95 149.404 1105.95 155.884C1105.95 181.484 1096.48 214.764 1077.54 255.724C1079.07 226.024 1081.97 198.554 1086.24 173.294ZM1036.32 322.544C1033.25 325.104 1030 326.384 1026.59 326.384C1018.06 326.384 1013.79 320.154 1013.79 307.694C1013.79 295.914 1016.86 285.164 1023.01 275.434C1029.15 265.704 1036.92 259.474 1046.3 256.744C1046.13 259.644 1046.05 263.744 1046.05 269.034C1046.05 282.344 1046.9 295.234 1048.61 307.694C1043.66 315.034 1039.56 319.984 1036.32 322.544ZM453.087 337.224C454.057 339.004 455.157 340.674 456.387 342.254C462.527 349.934 470.467 353.774 480.197 353.774C493.167 353.774 502.297 346.434 507.587 331.754L507.327 335.854C507.327 342.164 508.697 346.774 511.427 349.674C514.327 352.404 518.677 353.774 524.487 353.774C530.297 353.774 534.727 352.404 537.287 349.674C540.017 346.774 541.387 342.074 541.387 335.594C541.387 323.814 541.897 313.234 542.927 303.854C543.947 294.294 545.407 284.314 547.277 273.904C548.987 264.174 549.837 257.344 549.837 253.424C549.837 249.504 549.297 247.334 546.977 244.494C538.077 233.614 523.307 233.004 515.787 232.694H515.537C503.757 232.694 492.577 236.434 481.997 243.944C471.587 251.284 463.227 261.094 456.907 273.384C450.877 284.954 447.727 297.224 447.457 310.194C443.797 314.114 440.597 317.204 437.867 319.464C432.917 323.564 427.797 325.604 422.507 325.604C417.557 325.604 413.287 324.234 409.707 321.504C406.297 318.604 404.247 314.844 403.567 310.244C415.177 304.104 423.367 297.104 428.147 289.254C432.927 281.404 435.317 272.784 435.317 263.394C435.317 254.864 432.667 247.694 427.377 241.894C422.257 236.094 415.427 233.194 406.897 233.194C397.677 233.194 387.787 238.054 377.197 247.784C366.617 257.344 357.227 272.784 349.037 294.124C349.037 284.734 349.297 275.604 349.807 266.734C372.507 241.984 388.887 220.394 398.957 201.964C409.027 183.364 414.057 165.444 414.057 148.204C414.057 137.454 411.577 128.744 406.637 122.094C401.857 115.264 395.547 111.854 387.697 111.854C373.017 111.854 360.387 121.584 349.807 141.034C339.397 160.324 331.457 184.214 325.997 212.714C320.707 241.214 318.057 268.604 318.057 294.894C318.057 298.324 318.077 301.574 318.117 304.634C312.627 311.014 308.067 315.874 304.467 319.214C299.857 323.484 296.017 325.614 292.947 325.614C289.707 325.614 287.397 324.244 286.037 321.514C284.677 318.784 283.987 314.854 283.987 309.734C283.987 303.074 286.037 290.364 290.127 271.594C293.367 256.064 294.987 246.164 294.987 241.894C294.987 236.094 290.637 233.194 281.927 233.194C276.297 233.194 272.197 234.214 269.637 236.264C267.077 238.314 265.027 242.064 263.497 247.524C260.427 257.934 257.867 269.194 255.817 281.314C253.937 293.264 252.997 303.074 252.997 310.754C252.997 323.724 255.477 334.134 260.417 341.984C265.537 349.834 273.647 353.764 284.737 353.764C295.827 353.764 307.677 347.804 320.117 335.884C321.047 341.114 322.407 345.194 324.187 348.134C326.747 351.884 330.667 353.764 335.967 353.764C341.267 353.764 345.097 352.394 347.487 349.664C350.047 346.764 352.267 341.304 354.147 333.284C356.877 322.194 360.627 311.434 365.407 301.024C370.187 290.444 375.307 281.824 380.767 275.164C386.397 268.504 391.517 265.184 396.127 265.184C398.007 265.184 399.537 265.954 400.737 267.484C402.107 269.024 402.787 271.324 402.787 274.394C402.787 279.684 401.167 284.204 397.927 287.964C394.687 291.544 389.307 294.964 381.797 298.204C374.967 301.104 371.557 305.884 371.557 312.544C371.557 325.004 375.567 334.984 383.587 342.494C391.607 350.004 402.187 353.754 415.327 353.754C426.077 353.754 435.377 350.934 443.227 345.304C446.527 342.934 449.817 340.234 453.087 337.204V337.224ZM382.297 137.194C379.227 137.194 375.807 141.634 372.057 150.504C368.307 159.204 364.637 171.064 361.047 186.084C357.637 200.934 354.817 217.144 352.597 234.724C363.177 222.264 371.887 208.694 378.707 194.024C385.707 179.344 389.207 166.034 389.207 154.084C389.207 148.624 388.607 144.444 387.417 141.544C386.217 138.644 384.517 137.194 382.297 137.194ZM74.7773 351.214C87.2373 352.924 98.4173 353.774 108.317 353.774C135.457 353.774 158.837 348.484 178.457 337.904C198.087 327.324 213.017 312.474 223.257 293.364C233.497 274.074 238.617 251.554 238.617 225.784C238.617 205.984 234.517 189.094 226.327 175.094C218.137 161.104 206.447 150.514 191.257 143.354C176.067 136.014 158.067 132.344 137.237 132.344C122.557 132.344 107.287 134.474 91.4173 138.744C75.5473 142.844 61.7173 148.894 49.9473 156.924C46.7073 159.144 44.3973 161.614 43.0373 164.344C41.6673 166.904 40.9873 170.234 40.9873 174.324C40.9873 177.904 41.8373 180.984 43.5473 183.544C45.2573 185.934 47.5573 187.124 50.4573 187.124C53.0173 187.124 55.4073 186.354 57.6273 184.824C68.3773 177.824 80.4073 172.194 93.7273 167.924C107.207 163.654 120.777 161.524 134.427 161.524C155.587 161.524 171.977 167.074 183.577 178.164C195.187 189.254 200.987 204.954 200.987 225.264C200.987 255.474 193.567 279.624 178.717 297.714C164.037 315.804 141.767 324.854 111.897 324.854C105.407 324.854 99.6073 324.594 94.4873 324.084C96.3673 303.264 99.5173 281.414 103.957 258.544C108.397 235.504 112.827 217.154 117.267 203.504C118.287 200.434 118.807 197.704 118.807 195.314C118.807 189.514 113.597 186.614 103.187 186.614C97.3873 186.614 92.6873 187.464 89.1073 189.174C85.5273 190.884 83.1373 193.864 81.9373 198.134C75.6273 221.174 70.2473 245.154 65.8073 270.074C61.3673 294.824 58.5573 315.644 57.3573 332.534C57.0173 338.674 58.1273 343.114 60.6873 345.844C63.2473 348.574 67.9373 350.364 74.7673 351.224L74.7773 351.214ZM270.657 211.434C274.237 214.674 279.617 216.294 286.787 216.294C293.957 216.294 300.017 214.334 304.447 210.404C308.887 206.304 311.107 200.844 311.107 194.024C311.107 188.394 309.147 184.044 305.217 180.964C301.297 177.894 296.177 176.354 289.857 176.354C282.857 176.354 276.967 178.404 272.197 182.494C267.587 186.414 265.287 191.364 265.287 197.344C265.287 203.324 267.077 208.014 270.667 211.424L270.657 211.434ZM503.237 317.934C499.317 324.594 494.957 327.914 490.177 327.914C486.937 327.914 484.287 326.634 482.237 324.074C480.357 321.344 479.417 317.414 479.417 312.294C479.417 302.734 481.207 293.694 484.797 285.154C488.377 276.624 493.157 269.794 499.137 264.674C505.107 259.384 511.597 256.654 518.597 256.484L513.737 282.344C510.667 299.414 507.167 311.274 503.237 317.924V317.934ZM789.157 138.734C793.937 139.414 797.177 140.864 798.887 143.084C800.767 145.304 801.707 148.204 801.707 151.784C801.707 163.564 795.387 169.024 782.767 168.164L773.807 167.394C763.737 166.544 753.667 165.854 743.597 165.344C733.697 164.834 723.287 164.574 712.367 164.574H700.847C698.797 189.834 696.667 212.874 694.447 233.694L738.477 232.924C744.797 232.924 748.977 234.034 751.017 236.254C753.237 238.474 754.347 241.464 754.347 245.214C754.347 251.014 752.637 255.624 749.227 259.034C745.817 262.274 740.947 263.894 734.637 263.894H690.857L689.317 274.904C685.737 303.064 678.057 323.114 666.277 335.064C654.667 347.014 638.627 352.984 618.147 352.984C606.547 352.984 595.877 350.504 586.147 345.564C576.417 340.444 569.247 334.304 564.647 327.134C562.767 324.234 561.827 320.734 561.827 316.634C561.827 312.534 562.767 308.954 564.647 305.884C566.697 302.814 569.167 301.274 572.067 301.274C574.117 301.274 576.077 301.954 577.957 303.324C580.007 304.684 582.567 307.334 585.637 311.264C593.827 322.014 603.987 327.394 616.097 327.394C625.827 327.394 633.937 323.464 640.417 315.614C647.077 307.594 651.337 295.044 653.217 277.984L654.757 263.904H642.467C638.547 263.904 635.127 262.794 632.227 260.574C629.497 258.354 628.127 255.194 628.127 251.104C628.127 245.814 629.487 241.804 632.227 239.074C634.957 236.174 638.967 234.724 644.257 234.724C649.037 234.724 653.727 234.634 658.337 234.464C660.387 215.694 662.607 192.904 664.997 166.114C646.567 167.824 633.597 170.804 626.087 175.074C618.577 179.344 614.827 185.654 614.827 194.014C614.827 199.814 616.537 205.364 619.947 210.654C620.967 212.194 621.487 213.724 621.487 215.264C621.487 218.334 619.777 221.064 616.367 223.454C612.957 225.674 609.117 226.784 604.847 226.784C600.237 226.784 596.317 225.414 593.067 222.684C591.017 220.974 589.057 217.474 587.177 212.184C585.297 206.894 584.357 201.004 584.357 194.524C584.357 173.364 595.197 158.004 616.867 148.444C638.707 138.884 670.537 134.104 712.357 134.104C741.367 134.104 766.967 135.644 789.157 138.714V138.734ZM825.307 295.114C822.937 314.084 810.487 328.264 797.497 326.794C784.507 325.324 775.897 308.764 778.267 289.794C780.637 270.824 793.087 256.644 806.077 258.114C819.067 259.584 827.677 276.144 825.307 295.114ZM941.697 295.114C939.327 314.084 926.877 328.264 913.887 326.794C900.897 325.324 892.287 308.764 894.657 289.794C897.027 270.824 909.477 256.644 922.467 258.114C935.457 259.584 944.067 276.144 941.697 295.114Z" fill="white"/>
</svg>
