<svg width="24" height="24" viewBox="0 0 24 24" fill="none" xmlns="http://www.w3.org/2000/svg">
<path d="M12.0009 0.00146484C8.74485 0.00146484 8.3354 0.016463 7.05606 0.0734558C5.77672 0.133448 4.90533 0.334423 4.14192 0.631386C3.34079 0.931837 2.61533 1.40439 2.01669 2.01571C1.40536 2.61435 0.932813 3.33981 0.632363 4.14095C0.3354 4.90285 0.132925 5.77574 0.0744324 7.05058C0.0174395 8.33292 0.00244141 8.74087 0.00244141 12.0015C0.00244141 15.2591 0.0174395 15.667 0.0744324 16.9463C0.134425 18.2242 0.3354 19.0956 0.632363 19.859C0.939824 20.6479 1.34927 21.3168 2.01669 21.9842C2.68261 22.6516 3.35152 23.0626 4.14042 23.3685C4.90533 23.6655 5.77522 23.868 7.05306 23.9265C8.3339 23.9835 8.74185 23.9985 12.0009 23.9985C15.26 23.9985 15.6665 23.9835 16.9473 23.9265C18.2237 23.8665 19.0981 23.6655 19.8615 23.3685C20.6621 23.0679 21.387 22.5954 21.9852 21.9842C22.6526 21.3168 23.0621 20.6479 23.3695 19.859C23.665 19.0956 23.8675 18.2242 23.9275 16.9463C23.9844 15.667 23.9994 15.2591 23.9994 12C23.9994 8.74087 23.9844 8.33292 23.9275 7.05208C23.8675 5.77574 23.665 4.90285 23.3695 4.14095C23.0691 3.33981 22.5965 2.61435 21.9852 2.01571C21.3866 1.40439 20.6611 0.931837 19.86 0.631386C19.0951 0.334423 18.2222 0.131949 16.9458 0.0734558C15.665 0.016463 15.2585 0.00146484 11.9979 0.00146484H12.0009ZM10.9256 2.16419H12.0024C15.206 2.16419 15.5855 2.17469 16.8498 2.23319C18.0197 2.28568 18.6556 2.48215 19.0786 2.64563C19.638 2.86311 20.0384 3.12407 20.4584 3.54402C20.8783 3.96397 21.1378 4.36292 21.3553 4.92385C21.5203 5.3453 21.7152 5.98122 21.7677 7.15107C21.8262 8.41541 21.8382 8.79487 21.8382 11.997C21.8382 15.1991 21.8262 15.58 21.7677 16.8444C21.7152 18.0142 21.5188 18.6486 21.3553 19.0716C21.1615 19.5919 20.8547 20.0626 20.4569 20.4499C20.0369 20.8699 19.638 21.1293 19.0771 21.3468C18.6571 21.5118 18.0212 21.7068 16.8498 21.7607C15.5855 21.8177 15.206 21.8312 12.0024 21.8312C8.79884 21.8312 8.41789 21.8177 7.15355 21.7607C5.98369 21.7068 5.34927 21.5118 4.92633 21.3468C4.40564 21.1537 3.93435 20.8474 3.5465 20.4499C3.14796 20.0624 2.84058 19.591 2.64661 19.0701C2.48313 18.6486 2.28666 18.0127 2.23416 16.8429C2.17717 15.5785 2.16517 15.1991 2.16517 11.994C2.16517 8.78887 2.17717 8.41241 2.23416 7.14807C2.28816 5.97822 2.48313 5.3423 2.64811 4.91935C2.86558 4.35992 3.12655 3.95947 3.5465 3.53952C3.96645 3.11958 4.3654 2.86011 4.92633 2.64263C5.34927 2.47766 5.98369 2.28268 7.15355 2.22869C8.26041 2.17769 8.68935 2.16269 10.9256 2.16119V2.16419ZM18.4066 4.15595C18.2176 4.15595 18.0303 4.19319 17.8556 4.26555C17.681 4.3379 17.5222 4.44396 17.3885 4.57766C17.2548 4.71136 17.1488 4.87008 17.0764 5.04477C17.0041 5.21946 16.9668 5.40669 16.9668 5.59577C16.9668 5.78485 17.0041 5.97207 17.0764 6.14676C17.1488 6.32145 17.2548 6.48017 17.3885 6.61387C17.5222 6.74757 17.681 6.85363 17.8556 6.92599C18.0303 6.99834 18.2176 7.03559 18.4066 7.03559C18.7885 7.03559 19.1547 6.88389 19.4247 6.61387C19.6948 6.34385 19.8465 5.97763 19.8465 5.59577C19.8465 5.2139 19.6948 4.84768 19.4247 4.57766C19.1547 4.30764 18.7885 4.15595 18.4066 4.15595ZM12.0024 5.83874C11.1852 5.82598 10.3735 5.97595 9.61471 6.27989C8.85593 6.58384 8.16519 7.03569 7.58272 7.60915C7.00025 8.18261 6.53767 8.86621 6.22193 9.62015C5.90618 10.3741 5.74357 11.1833 5.74357 12.0007C5.74357 12.8181 5.90618 13.6273 6.22193 14.3813C6.53767 15.1352 7.00025 15.8188 7.58272 16.3923C8.16519 16.9657 8.85593 17.4176 9.61471 17.7215C10.3735 18.0255 11.1852 18.1754 12.0024 18.1627C13.6201 18.1375 15.1629 17.4771 16.2979 16.3243C17.4329 15.1714 18.069 13.6185 18.069 12.0007C18.069 10.3829 17.4329 8.82998 16.2979 7.67713C15.1629 6.52428 13.6201 5.86397 12.0024 5.83874ZM12.0024 7.99997C12.5277 7.99997 13.0479 8.10343 13.5332 8.30445C14.0185 8.50547 14.4594 8.8001 14.8309 9.17154C15.2023 9.54297 15.4969 9.98393 15.698 10.4692C15.899 10.9545 16.0024 11.4747 16.0024 12C16.0024 12.5253 15.899 13.0454 15.698 13.5307C15.4969 14.016 15.2023 14.457 14.8309 14.8284C14.4594 15.1998 14.0185 15.4945 13.5332 15.6955C13.0479 15.8965 12.5277 16 12.0024 16C10.9416 16 9.92416 15.5785 9.17401 14.8284C8.42387 14.0782 8.00244 13.0608 8.00244 12C8.00244 10.9391 8.42387 9.92168 9.17401 9.17154C9.92416 8.42139 10.9416 7.99997 12.0024 7.99997Z" fill="#A3F5BE"/>
</svg>
