<svg width="402" height="396" viewBox="0 0 402 396" fill="none" xmlns="http://www.w3.org/2000/svg">
<path d="M323.505 247.172C323.505 316.053 267.094 371.891 197.505 371.891C127.917 371.891 71.5054 316.053 71.5054 247.172C71.5054 157.603 160.911 99.3146 197.505 27.8906C234.099 99.3146 323.505 157.603 323.505 247.172Z" fill="#006600"/>
<path d="M323.506 247.172C323.506 316.053 267.094 371.891 197.506 371.891C127.917 371.891 71.5059 316.053 71.5059 247.172C71.5059 157.603 160.912 99.3146 197.506 27.8906C234.1 99.3146 323.506 157.603 323.506 247.172Z" fill="#006600"/>
<g style="mix-blend-mode:overlay" filter="url(#filter0_if_64_336)">
<path fill-rule="evenodd" clip-rule="evenodd" d="M197.506 355.891C258.412 355.891 307.506 307.062 307.506 247.172C307.506 207.969 288.041 174.623 261.588 140.536C253.824 130.531 246.11 121.242 238.255 111.784C232.324 104.642 226.313 97.403 220.138 89.6853C212.255 79.8331 204.529 69.6916 197.506 59.1855C190.482 69.6916 182.756 79.8331 174.874 89.6853C168.699 97.403 162.687 104.642 156.756 111.784C148.902 121.242 141.188 130.531 133.423 140.536C106.971 174.623 87.5059 207.969 87.5059 247.172C87.5059 307.062 136.599 355.891 197.506 355.891Z" fill="#808080"/>
</g>
<path fill-rule="evenodd" clip-rule="evenodd" d="M151.063 21.3938L132.375 51.3458L139.543 157.33C139.714 158.866 140.482 159.804 141.847 160.146C143.212 160.316 144.236 159.804 144.919 158.61L163.863 128.914L156.695 22.6738C156.524 21.1378 155.756 20.2844 154.391 20.1138C153.026 19.7724 151.916 20.1991 151.063 21.3938ZM101.863 84.6258C100.839 84.4551 99.9858 84.9671 99.3031 86.1618L80.3591 114.066C80.1884 114.236 80.0178 114.663 79.8471 115.346C79.6765 115.858 79.6765 116.284 79.8471 116.626C80.8711 119.186 81.8098 121.831 82.6631 124.562C83.5165 127.292 84.3698 130.108 85.2231 133.01C85.5645 134.716 85.9058 136.508 86.2471 138.386C86.7591 140.092 87.1004 141.884 87.2711 143.762C80.6151 146.663 73.1911 149.223 64.9991 151.442C56.9778 153.66 48.9565 155.452 40.9351 156.818C39.9111 157.33 39.1431 157.842 38.6311 158.354L20.4551 191.122C19.7724 192.487 19.8578 193.682 20.7111 194.706C21.5644 195.73 22.5884 196.071 23.7831 195.73C28.0498 194.535 32.3164 193.426 36.5831 192.402C40.8498 191.378 45.3724 190.268 50.1511 189.074C61.0738 186.343 69.5218 183.356 75.4951 180.114C82.6631 176.359 89.1484 171.154 94.9511 164.498C98.3644 160.402 101.351 156.135 103.911 151.698C106.642 147.09 108.604 141.97 109.799 136.338C110.482 132.924 110.994 129.682 111.335 126.61C111.676 123.538 111.847 120.636 111.847 117.906C111.847 113.127 111.42 108.604 110.567 104.338C109.884 99.9005 108.86 96.2311 107.495 93.3298L104.423 86.4178C103.911 85.2231 103.058 84.6258 101.863 84.6258ZM220.327 127.634C219.303 126.439 218.45 125.159 217.767 123.794C217.084 122.428 216.743 120.722 216.743 118.674C216.743 115.602 217.511 112.53 219.047 109.458C220.754 106.215 222.204 103.399 223.399 101.01C225.447 96.5724 227.495 92.3058 229.543 88.2098C231.591 83.9431 234.151 80.1031 237.223 76.6898C239.442 74.4711 241.66 73.3618 243.879 73.3618C246.268 73.3618 248.402 73.9591 250.279 75.1538C252.327 76.3484 253.948 77.5431 255.143 78.7378C263.335 87.1004 267.431 97.1698 267.431 108.946V110.482C267.26 117.308 266.236 123.794 264.359 129.938C262.482 135.911 260.263 141.372 257.703 146.322C253.948 153.319 249.17 160.146 243.367 166.802C237.735 173.287 231.335 179.004 224.167 183.954C216.999 188.732 209.148 191.975 200.615 193.682C196.86 194.364 193.106 194.876 189.351 195.218C185.596 195.559 181.586 195.73 177.319 195.73H174.759C169.639 195.73 164.519 195.474 159.399 194.962C154.279 194.45 149.244 194.023 144.295 193.682C141.564 193.34 140.199 191.89 140.199 189.33C140.199 187.282 140.967 185.746 142.503 184.722C155.474 177.554 169.298 171.154 183.975 165.522C198.652 159.89 213.074 154.172 227.239 148.37C234.236 145.468 240.039 141.458 244.647 136.338V136.082H244.391V134.034C244.22 133.522 243.964 132.924 243.623 132.242C241.404 132.754 238.93 133.01 236.199 133.01C228.69 133.01 223.399 131.132 220.327 127.378V127.634ZM212.967 297.138C214.332 298.332 215.868 298.93 217.575 298.93C219.111 298.93 220.391 298.503 221.415 297.65C222.439 296.796 223.207 295.772 223.719 294.578C227.986 285.532 232.082 275.89 236.007 265.65C240.103 255.41 243.772 245.34 247.015 235.442C247.015 234.247 246.844 233.479 246.503 233.138C246.332 232.626 245.906 232.114 245.223 231.602C244.882 231.431 244.455 231.26 243.943 231.09C243.602 230.919 243.175 230.834 242.663 230.834C241.81 230.834 241.042 231.175 240.359 231.858C237.97 235.954 232.935 239.452 225.255 242.354C211.943 247.644 197.778 251.996 182.759 255.41C167.74 258.652 152.551 261.895 137.191 265.138H135.911C133.692 265.138 132.156 264.114 131.303 262.066C130.45 259.506 129.511 257.031 128.487 254.642C127.463 252.082 126.354 249.522 125.159 246.962C124.476 245.596 123.538 244.999 122.343 245.17C121.148 245.17 120.295 245.852 119.783 247.218L106.215 280.754C107.751 285.703 109.116 290.738 110.311 295.858C111.676 300.807 112.359 306.524 112.359 313.01V313.778C110.482 315.484 108.519 317.106 106.471 318.642C104.423 320.178 102.204 321.628 99.8151 322.994C94.8658 325.895 89.0631 328.54 82.4071 330.93C75.9218 333.148 68.8391 334.258 61.1591 334.258C58.9405 334.258 56.6364 334.172 54.2471 334.002C52.0284 333.831 49.5538 333.49 46.8231 332.978C42.8978 331.271 40.1671 329.308 38.6311 327.09C37.0951 324.7 36.3271 321.287 36.3271 316.85C36.3271 315.484 36.4124 314.034 36.5831 312.498C36.7538 310.791 37.0098 309.255 37.3511 307.89C38.3751 303.111 39.9111 298.674 41.9591 294.578C44.1778 290.311 46.2258 286.3 48.1031 282.546C48.9565 280.668 49.8951 278.876 50.9191 277.17C51.9431 275.292 52.4551 273.159 52.4551 270.77C52.4551 267.698 51.0045 266.162 48.1031 266.162C46.3964 266.162 44.7751 267.442 43.2391 270.002C39.6551 276.487 36.4978 282.802 33.7671 288.946C31.0364 294.919 28.7325 300.636 26.8551 306.098C22.9298 317.362 20.9671 326.834 20.9671 334.514V336.562C20.9671 336.903 21.0524 337.244 21.2231 337.586V338.354C22.0764 346.034 23.9538 352.86 26.8551 358.834C29.9271 364.807 34.1938 369.159 39.6551 371.89C42.3858 373.084 45.1164 373.852 47.8471 374.706C50.7484 375.388 53.6498 375.73 56.5511 375.73C59.7938 375.73 63.1218 375.388 66.5351 374.706C69.9485 373.852 73.5324 372.828 77.2871 371.634C84.2845 369.244 90.8551 365.575 96.9991 360.626C100.583 357.724 104.167 354.226 107.751 350.13C111.335 345.863 114.578 341.34 117.479 336.562C120.551 331.783 122.855 327.26 124.391 322.994L131.815 303.538C139.495 301.148 146.919 299.015 154.087 297.138C161.255 295.26 168.935 293.383 177.127 291.506C183.954 289.97 190.524 288.263 196.839 286.386C203.324 284.338 209.468 282.119 215.271 279.73C213.906 282.119 212.882 284.594 212.199 287.154C212.028 287.836 211.772 288.69 211.431 289.714C211.26 290.567 211.175 291.42 211.175 292.274C211.175 294.151 211.772 295.772 212.967 297.138ZM276.357 231.09L292.485 201.394C293.168 200.028 294.192 199.516 295.557 199.858C297.093 200.199 297.946 201.052 298.117 202.418L307.007 335.285C310.874 334.41 314.518 333.556 317.937 332.722C325.105 330.844 331.42 329.052 336.881 327.346C342.342 325.639 346.95 324.018 350.705 322.482C354.63 320.946 357.702 319.495 359.921 318.13L357.873 311.474C357.532 310.279 357.19 309.34 356.849 308.658C356.508 307.804 356.337 307.207 356.337 306.866C354.63 308.231 352.412 309.596 349.681 310.962C346.95 312.156 343.964 312.754 340.721 312.754C336.625 312.754 333.212 311.815 330.481 309.938C327.75 307.89 326.385 304.732 326.385 300.466C326.385 296.711 327.153 293.554 328.689 290.994C331.59 285.703 334.236 280.498 336.625 275.378C339.185 270.087 342.172 265.052 345.585 260.274C348.828 256.007 352.326 253.874 356.081 253.874C357.617 253.874 358.897 254.215 359.921 254.898C361.116 255.41 362.225 256.007 363.249 256.69C368.198 260.274 372.465 265.308 376.049 271.794C379.633 278.279 381.425 285.532 381.425 293.554C381.425 296.284 381.169 299.015 380.657 301.746C380.316 304.306 379.804 306.78 379.121 309.17C377.414 315.826 375.281 322.055 372.721 327.858C370.161 333.49 366.918 338.439 362.993 342.706C359.409 346.802 355.654 350.13 351.729 353.202C347.804 356.274 343.793 358.919 339.697 361.138C331.535 365.389 314.986 370.233 290.051 375.67C290.035 375.674 290.019 375.677 290.004 375.681C289.992 375.683 289.981 375.685 289.97 375.688L289.777 375.73C288.947 375.848 288.24 375.761 287.657 375.467C287.435 375.363 287.241 375.231 287.076 375.07C287.037 375.035 286.999 374.999 286.961 374.962C286.278 374.279 286.022 373.34 286.193 372.146L286.26 371.767L276.357 231.09Z" fill="#AACC00"/>
<path d="M375.995 201.537C377.19 202.732 377.36 204.097 376.507 205.633C374.8 207.852 373.094 209.985 371.387 212.033C369.68 214.081 367.974 216.129 366.267 218.177C364.56 220.225 363.28 221.761 362.427 222.785C361.574 223.809 360.72 224.833 359.867 225.857C359.184 227.052 357.99 228.673 356.283 230.721C355.771 231.404 355.088 231.745 354.235 231.745C353.382 231.916 352.614 231.66 351.931 230.977L334.779 214.849C333.584 213.654 333.499 212.374 334.523 211.009C337.936 206.742 341.35 202.561 344.763 198.465C348.006 194.369 351.248 190.188 354.491 185.921C355.003 185.238 355.686 184.812 356.539 184.641C357.563 184.47 358.416 184.726 359.099 185.409L375.995 201.537Z" fill="#B20000"/>
<g style="mix-blend-mode:overlay" filter="url(#filter1_if_64_336)">
<path fill-rule="evenodd" clip-rule="evenodd" d="M338.713 212.392L354.21 226.964C355.467 225.411 356.263 224.284 356.69 223.535L356.865 223.23L368.565 209.19C370.03 207.431 371.498 205.606 372.967 203.713L357.438 188.891C354.378 192.909 351.317 196.851 348.255 200.719L348.224 200.758L348.192 200.797C345.033 204.588 341.873 208.453 338.713 212.392Z" fill="#808080"/>
</g>
<g style="mix-blend-mode:overlay" filter="url(#filter2_if_64_336)">
<path fill-rule="evenodd" clip-rule="evenodd" d="M156.926 126.486L144.167 146.486L137.798 52.3178L150.543 31.8906L156.926 126.486ZM100.654 93.3279L85.6504 115.428C86.453 117.545 87.2001 119.711 87.892 121.925C88.7526 124.679 89.6123 127.516 90.4712 130.436C90.5213 130.607 90.5638 130.779 90.5985 130.953C90.9269 132.594 91.2544 134.309 91.5811 136.097C92.1572 138.099 92.5369 140.168 92.7303 142.296C92.9644 144.871 91.5227 147.306 89.1525 148.339C82.2181 151.362 74.5464 154.002 66.1562 156.275C58.3954 158.422 50.6282 160.178 42.8553 161.543L28.7458 186.98C30.7858 186.452 32.8261 185.943 34.8666 185.453C39.096 184.438 43.5824 183.337 48.3261 182.151C58.9908 179.485 66.8519 176.658 72.1628 173.775C72.1889 173.76 72.2151 173.746 72.2414 173.733C78.646 170.378 84.5145 165.696 89.8381 159.601C93.0093 155.79 95.7713 151.838 98.1322 147.745C98.1439 147.725 98.1557 147.705 98.1676 147.685C100.525 143.707 102.252 139.238 103.318 134.233C103.964 130.995 104.443 127.949 104.761 125.092C105.079 122.224 105.234 119.557 105.234 117.085C105.234 112.682 104.841 108.574 104.076 104.747C104.058 104.659 104.042 104.571 104.029 104.483C103.404 100.423 102.509 97.3684 101.47 95.1607C101.452 95.1215 101.434 95.0822 101.416 95.0427L100.654 93.3279ZM240.464 80.17C237.847 83.1012 235.65 86.4045 233.875 90.1024C233.865 90.1231 233.855 90.1438 233.845 90.1644C233.841 90.1727 233.837 90.181 233.833 90.1893C231.822 94.2097 229.809 98.4031 227.794 102.77C227.768 102.827 227.741 102.883 227.713 102.939C226.506 105.352 225.051 108.176 223.352 111.406C222.207 113.712 221.716 115.842 221.716 117.85C221.716 119.262 221.957 119.974 222.103 120.266C222.372 120.805 222.684 121.329 223.041 121.839C223.363 122.098 223.661 122.392 223.93 122.72C225.343 124.447 228.422 126.129 235.096 126.129C237.448 126.129 239.451 125.908 241.141 125.518C243.842 124.895 246.618 126.202 247.857 128.681C248.277 129.52 248.659 130.388 248.947 131.252C249.151 131.864 249.255 132.504 249.255 133.149V133.453C249.421 134.003 249.51 134.586 249.51 135.189V135.444C249.51 136.927 248.962 138.356 247.97 139.458C242.725 145.286 236.181 149.774 228.469 152.971L228.445 152.981C214.293 158.778 199.887 164.49 185.227 170.115C172.228 175.103 159.932 180.698 148.335 186.898C151.913 187.178 155.534 187.501 159.196 187.867C164.098 188.357 168.999 188.602 173.898 188.602H176.448C180.54 188.602 184.352 188.438 187.889 188.117C191.432 187.795 194.977 187.312 198.526 186.668C206.23 185.121 213.287 182.203 219.743 177.907C226.458 173.265 232.441 167.916 237.705 161.854L237.713 161.845C243.218 155.53 247.704 149.111 251.206 142.592C253.568 138.021 255.642 132.927 257.414 127.293C259.104 121.754 260.042 115.868 260.205 109.614V108.16C260.205 98.0016 256.741 89.4901 249.703 82.2944C248.989 81.5856 247.84 80.7008 246.097 79.6842C246.057 79.6611 246.018 79.6376 245.979 79.6136C245.952 79.5971 245.926 79.5804 245.899 79.5635C245.063 79.0317 244.072 78.7166 242.745 78.7166C242.689 78.7166 241.949 78.7181 240.464 80.17ZM216.998 287.172C217.54 285.155 218.354 283.183 219.46 281.248C220.731 279.022 220.449 276.235 218.757 274.309C217.064 272.384 214.336 271.747 211.966 272.723C206.369 275.027 200.426 277.175 194.133 279.164C187.995 280.987 181.598 282.649 174.94 284.147L174.916 284.152C166.704 286.034 158.994 287.919 151.787 289.806C144.553 291.701 137.07 293.851 129.341 296.256C127.583 296.803 126.174 298.126 125.518 299.846L118.123 319.225C118.117 319.241 118.111 319.257 118.105 319.273C118.098 319.293 118.09 319.312 118.083 319.332C116.739 323.066 114.671 327.164 111.797 331.634C111.769 331.677 111.742 331.721 111.715 331.765C108.994 336.247 105.956 340.487 102.599 344.488C99.2301 348.333 95.9184 351.554 92.671 354.183C87.0798 358.685 81.1688 361.976 74.9298 364.114C71.3708 365.246 67.9902 366.212 64.7862 367.016C61.7951 367.606 58.9207 367.892 56.1561 367.892C53.809 367.892 51.4483 367.624 49.0662 367.08C46.6332 366.311 44.1885 365.39 41.7316 364.316C41.3805 364.162 41.0191 364.044 40.6526 363.961C37.1059 361.858 34.1973 358.738 31.9438 354.379C29.4532 349.231 27.7664 343.238 26.9674 336.325V335.899C26.9674 335.311 26.881 334.728 26.7124 334.168V332.839C26.7124 327.583 27.7751 321.096 30.0589 313.298C30.0277 313.956 30.0118 314.605 30.0118 315.245C30.0118 320.22 30.8494 324.939 33.2597 328.689C33.2967 328.746 33.3346 328.803 33.3736 328.859C35.8102 332.379 39.6867 334.904 44.0741 336.811C44.4868 336.991 44.9184 337.123 45.3607 337.206C48.2442 337.747 50.9292 338.121 53.401 338.311L53.4337 338.314C55.9448 338.493 58.3827 338.584 60.7459 338.584C68.9776 338.584 76.6969 337.394 83.8523 334.946C83.8807 334.936 83.9091 334.926 83.9373 334.916C90.8273 332.443 96.9481 329.665 102.256 326.557C104.825 325.088 107.235 323.513 109.479 321.829C111.669 320.187 113.769 318.452 115.78 316.624C117.031 315.487 117.744 313.875 117.744 312.185V311.42C117.744 304.604 117.033 298.393 115.521 292.858C114.47 288.368 113.291 283.939 111.983 279.572L121.978 254.867C122.065 255.081 122.152 255.296 122.238 255.51C122.246 255.53 122.254 255.55 122.262 255.57C122.272 255.595 122.283 255.62 122.294 255.645C123.246 257.867 124.122 260.176 124.921 262.574C124.967 262.712 125.019 262.849 125.075 262.984C125.862 264.874 127.135 266.674 129.07 267.964C131.005 269.254 133.156 269.736 135.203 269.736H136.478C136.895 269.736 137.31 269.693 137.717 269.607C153.026 266.375 168.164 263.143 183.133 259.912C183.154 259.907 183.175 259.902 183.196 259.898C198.418 256.438 212.81 252.021 226.364 246.637C230.408 245.106 234.078 243.308 237.163 241.157C234.759 248.024 232.15 254.977 229.334 262.018C229.327 262.034 229.321 262.05 229.315 262.065C229.311 262.077 229.306 262.088 229.302 262.099C225.441 272.172 221.419 281.638 217.238 290.501C217.208 290.565 217.178 290.631 217.15 290.697C217.042 290.948 216.895 291.171 216.663 291.392C216.632 291.394 216.592 291.395 216.545 291.395C216.461 291.395 216.378 291.395 216.261 291.342C216.201 291.199 216.17 291.023 216.17 290.765C216.17 290.416 216.198 290.061 216.254 289.698C216.553 288.781 216.807 287.931 216.998 287.172Z" fill="#808080"/>
<path d="M337.17 331.426C331.62 333.16 325.237 334.971 318.032 336.858C317.999 336.867 317.966 336.875 317.933 336.883C314.491 337.722 310.829 338.581 306.948 339.459C305.237 339.846 303.443 339.465 302.038 338.416C300.632 337.368 299.755 335.757 299.638 334.007L291.489 212.21L281.204 231.148L290.784 367.237C313.742 362.123 328.37 357.692 335.371 354.059C339.122 352.024 342.822 349.584 346.472 346.728C350.06 343.92 353.53 340.615 356.874 336.792C357.206 336.413 357.578 336.083 357.98 335.806C360.984 332.319 363.529 328.313 365.603 323.757C368.004 318.31 370.02 312.43 371.642 306.104C371.656 306.051 371.67 305.999 371.685 305.946C372.282 303.858 372.734 301.679 373.037 299.407C373.051 299.302 373.067 299.198 373.087 299.094C373.53 296.732 373.749 294.383 373.749 292.04C373.749 284.979 372.182 278.767 369.143 273.268C365.937 267.466 362.265 263.205 358.224 260.253C357.55 259.811 356.8 259.409 355.966 259.051C355.652 258.917 355.35 258.755 355.063 258.569C355.002 258.553 354.829 258.517 354.505 258.517C353.357 258.517 351.459 259.085 348.879 262.454C345.707 266.904 342.93 271.589 340.545 276.512C338.111 281.725 335.423 287.012 332.482 292.375C332.445 292.443 332.406 292.511 332.366 292.577C331.523 293.983 330.926 295.995 330.926 298.925C330.926 301.707 331.713 302.852 332.517 303.491C334.016 304.485 336.128 305.164 339.206 305.164C341.624 305.164 343.729 304.733 345.593 303.94C347.997 302.729 349.768 301.61 351.012 300.615C352.813 299.174 355.28 298.893 357.359 299.892C359.196 300.775 360.443 302.52 360.707 304.505C360.725 304.554 360.746 304.612 360.771 304.679C361.277 305.748 361.689 306.954 362.042 308.181L364.065 314.755C364.869 317.369 363.804 320.196 361.475 321.629C358.842 323.249 355.426 324.839 351.379 326.425C347.44 328.034 342.693 329.7 337.17 331.426Z" fill="#808080"/>
</g>
<defs>
<filter id="filter0_if_64_336" x="71.5059" y="43.1855" width="252" height="328.705" filterUnits="userSpaceOnUse" color-interpolation-filters="sRGB">
<feFlood flood-opacity="0" result="BackgroundImageFix"/>
<feBlend mode="normal" in="SourceGraphic" in2="BackgroundImageFix" result="shape"/>
<feColorMatrix in="SourceAlpha" type="matrix" values="0 0 0 0 0 0 0 0 0 0 0 0 0 0 0 0 0 0 127 0" result="hardAlpha"/>
<feOffset dx="8" dy="-4"/>
<feComposite in2="hardAlpha" operator="arithmetic" k2="-1" k3="1"/>
<feColorMatrix type="matrix" values="0 0 0 0 1 0 0 0 0 1 0 0 0 0 1 0 0 0 1 0"/>
<feBlend mode="normal" in2="shape" result="effect1_innerShadow_64_336"/>
<feGaussianBlur stdDeviation="8" result="effect2_foregroundBlur_64_336"/>
</filter>
<filter id="filter1_if_64_336" x="332.713" y="182.891" width="46.2539" height="50.0737" filterUnits="userSpaceOnUse" color-interpolation-filters="sRGB">
<feFlood flood-opacity="0" result="BackgroundImageFix"/>
<feBlend mode="normal" in="SourceGraphic" in2="BackgroundImageFix" result="shape"/>
<feColorMatrix in="SourceAlpha" type="matrix" values="0 0 0 0 0 0 0 0 0 0 0 0 0 0 0 0 0 0 127 0" result="hardAlpha"/>
<feOffset dx="4" dy="4"/>
<feComposite in2="hardAlpha" operator="arithmetic" k2="-1" k3="1"/>
<feColorMatrix type="matrix" values="0 0 0 0 1 0 0 0 0 1 0 0 0 0 1 0 0 0 1 0"/>
<feBlend mode="normal" in2="shape" result="effect1_innerShadow_64_336"/>
<feGaussianBlur stdDeviation="3" result="effect2_foregroundBlur_64_336"/>
</filter>
<filter id="filter2_if_64_336" x="20.7124" y="25.8906" width="359.037" height="348.002" filterUnits="userSpaceOnUse" color-interpolation-filters="sRGB">
<feFlood flood-opacity="0" result="BackgroundImageFix"/>
<feBlend mode="normal" in="SourceGraphic" in2="BackgroundImageFix" result="shape"/>
<feColorMatrix in="SourceAlpha" type="matrix" values="0 0 0 0 0 0 0 0 0 0 0 0 0 0 0 0 0 0 127 0" result="hardAlpha"/>
<feOffset dx="4" dy="4"/>
<feComposite in2="hardAlpha" operator="arithmetic" k2="-1" k3="1"/>
<feColorMatrix type="matrix" values="0 0 0 0 1 0 0 0 0 1 0 0 0 0 1 0 0 0 1 0"/>
<feBlend mode="normal" in2="shape" result="effect1_innerShadow_64_336"/>
<feGaussianBlur stdDeviation="3" result="effect2_foregroundBlur_64_336"/>
</filter>
</defs>
</svg>
