<?xml version="1.0" encoding="UTF-8"?>
<svg id="Layer_2" data-name="Layer 2" xmlns="http://www.w3.org/2000/svg" xmlns:xlink="http://www.w3.org/1999/xlink" viewBox="0 0 195.5 350.8">
  <defs>
    <style>
      .cls-1 {
        fill: url(#Dégradé_sans_nom_2-4);
      }

      .cls-1, .cls-2, .cls-3, .cls-4, .cls-5, .cls-6, .cls-7, .cls-8, .cls-9, .cls-10, .cls-11, .cls-12, .cls-13, .cls-14, .cls-15, .cls-16, .cls-17, .cls-18, .cls-19, .cls-20, .cls-21 {
        stroke-width: 0px;
      }

      .cls-2 {
        fill: url(#linear-gradient-12);
      }

      .cls-3 {
        fill: url(#linear-gradient);
      }

      .cls-4 {
        fill: url(#linear-gradient-6);
      }

      .cls-5 {
        fill: url(#Dégradé_sans_nom_2-3);
      }

      .cls-6 {
        fill: #fff;
        opacity: .05;
      }

      .cls-7 {
        fill: url(#linear-gradient-15);
      }

      .cls-8 {
        fill: url(#linear-gradient-11);
      }

      .cls-9 {
        fill: url(#linear-gradient-5);
      }

      .cls-10 {
        fill: url(#linear-gradient-13);
      }

      .cls-11 {
        fill: url(#linear-gradient-16);
      }

      .cls-12 {
        fill: url(#Dégradé_sans_nom_2-2);
      }

      .cls-13 {
        fill: url(#linear-gradient-14);
      }

      .cls-14 {
        fill: url(#linear-gradient-2);
      }

      .cls-15 {
        fill: url(#linear-gradient-7);
      }

      .cls-16 {
        fill: url(#Dégradé_sans_nom_2);
      }

      .cls-17 {
        fill: url(#linear-gradient-3);
      }

      .cls-18 {
        fill: url(#linear-gradient-9);
      }

      .cls-19 {
        fill: url(#linear-gradient-8);
      }

      .cls-20 {
        fill: url(#linear-gradient-10);
      }

      .cls-21 {
        fill: url(#linear-gradient-4);
      }
    </style>
    <linearGradient id="linear-gradient" x1="349.04" y1="-131.68" x2="-191.93" y2="405.1" gradientUnits="userSpaceOnUse">
      <stop offset="0" stop-color="#fff16c"/>
      <stop offset="1" stop-color="#c7a40f"/>
    </linearGradient>
    <linearGradient id="Dégradé_sans_nom_2" data-name="Dégradé sans nom 2" x1="208.88" y1="-32.27" x2="7.59" y2="247.3" gradientUnits="userSpaceOnUse">
      <stop offset="0" stop-color="#b0b35a"/>
      <stop offset=".75" stop-color="#6e7646"/>
      <stop offset="1" stop-color="#58623f"/>
    </linearGradient>
    <linearGradient id="linear-gradient-2" x1="385.19" y1="-95.25" x2="-155.78" y2="441.53" xlink:href="#linear-gradient"/>
    <linearGradient id="linear-gradient-3" x1="411.7" y1="-68.54" x2="-129.28" y2="468.24" xlink:href="#linear-gradient"/>
    <linearGradient id="linear-gradient-4" x1="435.53" y1="-44.52" x2="-105.44" y2="492.26" xlink:href="#linear-gradient"/>
    <linearGradient id="linear-gradient-5" x1="468.16" y1="-11.64" x2="-72.82" y2="525.14" xlink:href="#linear-gradient"/>
    <linearGradient id="linear-gradient-6" x1="445.64" y1="-34.32" x2="-95.33" y2="502.45" xlink:href="#linear-gradient"/>
    <linearGradient id="linear-gradient-7" x1="428.8" y1="-51.3" x2="-112.17" y2="485.48" xlink:href="#linear-gradient"/>
    <linearGradient id="linear-gradient-8" x1="440.12" y1="-39.89" x2="-100.85" y2="496.89" xlink:href="#linear-gradient"/>
    <linearGradient id="linear-gradient-9" x1="445.21" y1="-34.76" x2="-95.76" y2="502.02" xlink:href="#linear-gradient"/>
    <linearGradient id="linear-gradient-10" x1="450.94" y1="-28.99" x2="-90.03" y2="507.79" xlink:href="#linear-gradient"/>
    <linearGradient id="linear-gradient-11" x1="453.91" y1="-26" x2="-87.06" y2="510.78" xlink:href="#linear-gradient"/>
    <linearGradient id="linear-gradient-12" x1="459.01" y1="-20.85" x2="-81.96" y2="515.93" xlink:href="#linear-gradient"/>
    <linearGradient id="linear-gradient-13" x1="465.17" y1="-14.64" x2="-75.8" y2="522.13" xlink:href="#linear-gradient"/>
    <linearGradient id="linear-gradient-14" x1="470.58" y1="-9.19" x2="-70.39" y2="527.59" xlink:href="#linear-gradient"/>
    <linearGradient id="linear-gradient-15" x1="477.82" y1="-1.89" x2="-63.15" y2="534.88" xlink:href="#linear-gradient"/>
    <linearGradient id="linear-gradient-16" x1="484.04" y1="4.38" x2="-56.93" y2="541.16" xlink:href="#linear-gradient"/>
    <linearGradient id="Dégradé_sans_nom_2-2" data-name="Dégradé sans nom 2" x1="130.1" y1="-88.99" x2="-71.19" y2="190.58" xlink:href="#Dégradé_sans_nom_2"/>
    <linearGradient id="Dégradé_sans_nom_2-3" data-name="Dégradé sans nom 2" x1="138.32" y1="-83.08" x2="-62.97" y2="196.5" xlink:href="#Dégradé_sans_nom_2"/>
    <linearGradient id="Dégradé_sans_nom_2-4" data-name="Dégradé sans nom 2" x1="282.86" y1="20.99" x2="81.57" y2="300.56" xlink:href="#Dégradé_sans_nom_2"/>
  </defs>
  <g id="Calque_1" data-name="Calque 1">
    <g>
      <path class="cls-3" d="m164.01,10.86v106.93c0,4.66-.48,9.22-1.41,13.62-1.47,7.02-4.05,13.63-7.55,19.64-11.5,19.79-32.94,33.12-57.44,33.12-36.6,0-66.38-29.77-66.38-66.38,0-6.8,1.02-13.35,2.93-19.52,3.58-11.63,10.28-21.91,19.11-29.85,3.79-3.41,7.97-6.39,12.47-8.85l-.07-.12,49.31-26.92v47.17c-5.31-2.43-11.18-3.78-17.38-3.78-5.67,0-11.08,1.14-16.01,3.19-8.23,3.41-15.14,9.39-19.74,16.92-3.89,6.35-6.13,13.8-6.13,21.78,0,23.09,18.78,41.87,41.87,41.87,20.45,0,37.52-14.71,41.17-34.11.47-2.52.72-5.11.72-7.76V19.16l20.05-10.95c2.01-1.09,4.46.36,4.46,2.65Z"/>
      <path class="cls-16" d="m72.18,118.48c.36,13.74,11.61,24.77,25.44,24.77s25.36-11.3,25.45-25.27c-7.52-2.35-15.86-3.66-24.65-3.66-9.41,0-18.31,1.5-26.24,4.17Z"/>
      <g>
        <path class="cls-14" d="m18.09,251.31c14.45,0,21.79,6.91,22.01,20.73.3,13.74-6.88,20.71-21.53,20.91l-18.47.12-.09-41.4,18.09-.36Zm-.65,32.02c6.81-.02,10.23-3.71,10.25-11.08h.03c-.81-7.23-4.27-10.98-10.36-11.26l-5.52.03.48,22.39,5.14-.09Z"/>
        <path class="cls-17" d="m74.42,251.08l.21,42.14h-12.27l.12-42.56,11.94.42Z"/>
        <path class="cls-21" d="m109.38,282.02l.15,11.2h-12.56l.12-42.56,11.94.42.18,14.52,12.41-14.23,14.2-.06-15.95,18.56,16.27,23.31-14.23-.15-9.53-14.46-3,3.45Z"/>
        <path class="cls-9" d="m168.15,287.55l-1.72,5.52h-12.86l14.85-41.67,12.41-.15,14.67,42.02-12.32-.09-1.75-5.41-13.28-.24Zm10.22-9.15l-3.8-11.61-3.56,11.49,7.36.12Z"/>
      </g>
      <path class="cls-4" d="m194.57,309.4c-63.27,2.09-127.38,2.11-190.65,0,63.27-2.11,127.38-2.09,190.65,0h0Z"/>
      <g>
        <path class="cls-15" d="m40.54,339.73c-.64-.08-1.08-.25-1.32-.5-.24-.25-.34-.67-.31-1.25.11-1.58.38-3.54.79-5.86.42-2.33.92-4.57,1.51-6.72.11-.4.34-.68.67-.84.34-.16.78-.24,1.32-.24.97,0,1.46.27,1.46.81,0,.22-.05.48-.14.77-.42,1.28-.83,2.99-1.25,5.14-.42,2.15-.71,4.2-.89,6.15.48.05,1.02.07,1.63.07,2.8,0,4.89-.85,6.27-2.54,1.38-1.69,2.07-3.95,2.07-6.78,0-1.9-.54-3.37-1.63-4.41-1.09-1.04-2.62-1.56-4.6-1.56-1.28,0-2.55.2-3.8.6-1.25.4-2.39.93-3.39,1.58-.21.14-.43.22-.67.22-.27,0-.49-.12-.65-.35-.16-.23-.24-.51-.24-.85,0-.38.06-.7.19-.95.13-.25.34-.47.65-.68,1.1-.75,2.4-1.32,3.88-1.71,1.49-.39,2.92-.59,4.29-.59,1.95,0,3.64.34,5.06,1.02,1.42.68,2.52,1.67,3.28,2.98.77,1.31,1.15,2.89,1.15,4.75,0,2.41-.48,4.52-1.44,6.32-.96,1.8-2.36,3.19-4.2,4.18-1.84.99-4.03,1.49-6.57,1.49-.93,0-1.97-.08-3.14-.24Z"/>
        <path class="cls-19" d="m68.67,334.79c.12.19.18.46.18.79,0,.64-.15,1.14-.46,1.49-.59.72-1.43,1.38-2.5,1.99-1.08.61-2.23.91-3.46.91-1.68,0-2.98-.46-3.91-1.37-.93-.91-1.39-2.16-1.39-3.74,0-1.1.23-2.13.7-3.08.46-.95,1.11-1.71,1.93-2.27.82-.56,1.75-.84,2.79-.84.93,0,1.67.28,2.23.83.56.55.84,1.3.84,2.24,0,1.1-.4,2.05-1.19,2.84-.79.79-2.13,1.42-4.02,1.88.4.74,1.16,1.1,2.28,1.1.72,0,1.54-.25,2.46-.76.92-.5,1.71-1.16,2.39-1.98.19-.22.41-.34.65-.34.21,0,.37.1.49.29Zm-8.03-2.73c-.41.69-.61,1.52-.61,2.49v.05c.94-.22,1.69-.56,2.23-1.01.54-.45.82-.97.82-1.56,0-.3-.08-.55-.25-.73-.17-.18-.4-.28-.68-.28-.59,0-1.09.34-1.5,1.03Z"/>
        <path class="cls-18" d="m80.68,334.79c.12.19.18.46.18.79,0,.64-.15,1.14-.46,1.49-.69.85-1.43,1.54-2.22,2.09-.79.54-1.69.82-2.7.82-.85,0-1.53-.3-2.06-.91-.91.59-1.86.9-2.85.91-.21,3.08-.68,5.66-1.41,7.73-.74,2.07-1.81,3.1-3.24,3.1-.86,0-1.5-.31-1.92-.93-.42-.62-.62-1.49-.62-2.59,0-1.57.36-3.39,1.08-5.48.72-2.09,1.83-4.38,3.33-6.89,0-2.33-.02-3.96-.05-4.87-.01-.46.17-.83.55-1.1.38-.27.86-.41,1.44-.41.34,0,.58.07.73.2.15.14.24.4.25.8,0,.4,0,.7.02.89.51-.64,1.02-1.1,1.51-1.38.49-.28,1.02-.42,1.58-.42.89,0,1.63.36,2.19,1.08.57.72.85,1.66.85,2.83,0,.85-.14,1.67-.41,2.47-.27.8-.65,1.53-1.13,2.18.34.1.62.14.84.14.53,0,1.03-.19,1.51-.58.48-.38,1.09-1.02,1.85-1.92.19-.22.41-.34.65-.34.21,0,.37.1.49.29Zm-13.48,10.85c.29-1.88.47-4.21.55-7.01-.69,1.6-1.23,3.12-1.63,4.58-.4,1.45-.6,2.68-.6,3.67,0,.51.06.9.18,1.18.12.27.26.41.42.41.43,0,.79-.94,1.08-2.82Zm5.09-8.92c.49-.5.88-1.13,1.16-1.87.29-.74.43-1.52.43-2.34,0-.48-.1-.84-.29-1.09-.19-.25-.45-.37-.77-.37-.57,0-1.27.61-2.09,1.82-.02.7-.02,1.73-.02,3.09,0,.74,0,1.3-.02,1.7.57-.13,1.11-.44,1.59-.95Z"/>
        <path class="cls-20" d="m79.6,338.97c-.46-.66-.68-1.49-.68-2.48,0-1.2.08-2.3.24-3.3.16-1,.42-2.06.79-3.18.16-.48.38-.82.67-1.03.29-.21.74-.31,1.37-.31.35,0,.6.06.73.17s.2.28.2.5c0,.13-.09.56-.26,1.29-.16.59-.29,1.13-.38,1.61-.32,1.68-.48,2.8-.48,3.36,0,.34.04.57.12.71.08.14.21.2.38.2.24,0,.54-.24.9-.72.36-.48.74-1.21,1.15-2.18.41-.97.8-2.17,1.19-3.6.13-.48.32-.82.59-1.03.26-.21.66-.31,1.19-.31.37,0,.62.04.77.13.14.09.22.25.22.49,0,.4-.2,1.49-.6,3.28-.45,2.04-.67,3.31-.67,3.79,0,.3.06.54.19.71.13.17.3.25.5.25.32,0,.7-.2,1.14-.59.44-.39,1.03-1.03,1.76-1.91.19-.22.41-.34.65-.34.21,0,.37.1.49.29.12.19.18.46.18.79,0,.64-.15,1.14-.46,1.49-.69.85-1.43,1.54-2.22,2.09-.79.54-1.69.82-2.7.82-.77,0-1.33-.3-1.69-.89-.36-.59-.54-1.42-.54-2.49-.27,1.09-.68,1.92-1.22,2.51s-1.13.88-1.75.88c-.72,0-1.31-.33-1.76-1Z"/>
        <path class="cls-8" d="m90.68,338.87c-.47-.74-.71-1.71-.71-2.92,0-.72.09-1.64.28-2.77.18-1.13.42-2.18.71-3.15.14-.51.33-.86.57-1.06.24-.19.62-.29,1.15-.29.82,0,1.22.27,1.22.82,0,.4-.15,1.33-.46,2.78-.38,1.76-.58,2.95-.58,3.57,0,.48.06.85.19,1.1s.34.38.65.38c.29,0,.65-.2,1.08-.6.43-.4,1.01-1.03,1.72-1.89.19-.22.41-.34.65-.34.21,0,.37.1.49.29.12.19.18.46.18.79,0,.64-.15,1.14-.46,1.49-1.58,1.93-3.06,2.9-4.43,2.9-1.04,0-1.79-.37-2.27-1.1Zm.95-12.24c-.34-.31-.5-.75-.5-1.31s.22-1.03.66-1.4c.44-.38.99-.56,1.64-.56.59,0,1.07.14,1.44.43.37.29.55.7.55,1.22,0,.64-.21,1.15-.62,1.52-.42.38-.97.56-1.66.56s-1.17-.16-1.51-.47Z"/>
        <path class="cls-2" d="m98.45,339.92c-.44-.38-.66-.81-.66-1.29,0-.42.15-.78.46-1.08s.75-.46,1.34-.46c.21,0,.45.02.73.06.28.04.49.07.63.08-.01-.42-.11-.81-.28-1.17s-.38-.72-.64-1.07c-.26-.34-.5-.64-.72-.9-.5.94-.99,1.73-1.47,2.35-.49.62-1.02,1.21-1.6,1.77-.29.29-.59.43-.91.43-.25,0-.46-.09-.62-.28-.16-.18-.24-.41-.24-.68,0-.32.11-.61.33-.89l.31-.38c.88-1.09,1.54-1.98,1.99-2.68.29-.46.58-1.02.88-1.66.3-.64.68-1.51,1.16-2.61.3-.7.94-1.06,1.89-1.06.45,0,.76.04.93.12.18.08.26.21.26.38,0,.1-.03.25-.1.46-.06.21-.15.42-.26.62-.29.58-.43,1.06-.43,1.46,0,.24.08.5.25.79s.43.65.78,1.08c.51.67.9,1.24,1.16,1.71.26.47.4.99.4,1.54,0,.67-.15,1.31-.47,1.91-.31.6-.75,1.08-1.31,1.45-.56.37-1.2.55-1.92.55-.83,0-1.47-.19-1.91-.58Z"/>
        <path class="cls-10" d="m114.18,339.61c-.3-.24-.46-.61-.46-1.13l.03-.26c.18-1.65.39-3.36.63-5.14.25-1.78.46-3.15.64-4.11l-1.87.53-.29.05c-.3,0-.54-.12-.72-.36-.18-.24-.26-.51-.26-.81l.02-.22c.03-.3.13-.55.29-.74.16-.19.47-.38.92-.58s1.14-.4,2.05-.62l1.01-.24c.37-.08.67-.12.91-.12.46,0,.81.12,1.04.36s.35.58.35,1.01c0,.19-.02.4-.07.62-.26,1.25-.74,4.8-1.46,10.64-.13.99-.7,1.49-1.7,1.49-.4,0-.75-.12-1.06-.36Z"/>
        <path class="cls-13" d="m130.35,327.39c.87,1.03,1.31,2.46,1.31,4.28,0,1.63-.28,3.07-.83,4.33-.55,1.25-1.34,2.23-2.35,2.92-1.02.7-2.2,1.04-3.56,1.04-1.23,0-2.24-.28-3.03-.85-.79-.57-1.24-1.31-1.35-2.24l-.02-.26c0-.42.13-.74.39-.97.26-.23.64-.35,1.11-.35.35,0,.64.09.85.28s.4.5.56.95c.13.34.34.6.63.79.3.19.67.29,1.11.29.93,0,1.68-.36,2.27-1.09.58-.73.95-1.81,1.09-3.25-.42.48-.89.82-1.41,1.02-.53.2-1.11.3-1.75.3-.8,0-1.51-.17-2.14-.5-.63-.33-1.12-.8-1.47-1.4s-.53-1.27-.53-2c0-.91.21-1.73.64-2.46.42-.73,1.04-1.3,1.85-1.73.81-.42,1.76-.63,2.87-.63,1.64,0,2.9.51,3.77,1.55Zm-2.65,4.21c.38-.38.57-.89.57-1.53,0-.57-.16-1.03-.48-1.37-.32-.33-.77-.5-1.34-.5-.64,0-1.15.2-1.55.61s-.59.94-.59,1.59c0,.54.16.97.48,1.29.32.32.75.48,1.29.48.69,0,1.22-.19,1.61-.58Z"/>
        <path class="cls-7" d="m145.76,335.53c0,.57-.16.97-.48,1.2-.32.22-.82.34-1.51.34h-.5l-.1,1.27c-.05.74-.2,1.23-.47,1.49-.26.26-.69.38-1.28.38-.85,0-1.27-.52-1.27-1.56,0-.18,0-.31.02-.41l.12-1.17c-2.32,0-4.08,0-5.27-.02-.35,0-.66-.16-.93-.48-.27-.32-.41-.73-.41-1.25,0-.3.06-.62.17-.96.7-2.05,1.76-4.37,3.16-6.98.3-.56.61-.95.92-1.19.31-.23.79-.35,1.45-.35.35,0,.62.08.8.24.18.16.28.37.28.62,0,.27-.08.54-.24.82-1.57,2.86-2.67,5.17-3.31,6.93h3.69c.19-1.49.46-2.9.79-4.24.13-.5.33-.88.62-1.14.29-.26.69-.4,1.2-.4.81,0,1.22.35,1.22,1.06,0,.21-.02.37-.05.48-.29,1.36-.54,2.77-.77,4.24h.86c.85,0,1.27.36,1.27,1.08Z"/>
        <path class="cls-11" d="m157.77,335.94c0,.8-.23,1.5-.68,2.11-.46.61-1.1,1.08-1.93,1.41-.83.34-1.8.5-2.9.5-1.55,0-2.76-.3-3.63-.91-.87-.61-1.31-1.45-1.31-2.54,0-.69.21-1.32.62-1.89.42-.58,1.09-1.11,2.01-1.61-.58-.38-1.01-.84-1.31-1.38-.3-.53-.44-1.1-.44-1.69,0-1.28.48-2.28,1.44-3.01.96-.73,2.26-1.09,3.91-1.09,1.36,0,2.45.29,3.27.89.82.59,1.23,1.39,1.23,2.4,0,.74-.21,1.39-.62,1.98s-1.09,1.12-2.01,1.62c1.57.8,2.35,1.87,2.35,3.21Zm-3.62,1.32c.43-.25.65-.61.65-1.05,0-.35-.19-.69-.56-1.01-.38-.32-1.07-.7-2.07-1.15-.74.34-1.25.68-1.53,1.03s-.43.74-.43,1.15c0,.45.19.79.59,1.04.39.25.92.37,1.59.37.75,0,1.34-.13,1.77-.38Zm-2.4-8.67c-.4.28-.6.68-.6,1.21,0,.72.61,1.36,1.82,1.92.82-.4,1.39-.78,1.71-1.13s.49-.72.49-1.1c0-.88-.61-1.32-1.82-1.32-.67,0-1.21.14-1.61.42Z"/>
      </g>
      <path class="cls-6" d="m155.06,151.05c-11.5,19.79-32.94,33.12-57.44,33.12-36.6,0-66.38-29.77-66.38-66.38,0-6.8,1.02-13.35,2.93-19.52,3.58-11.63,10.28-21.91,19.11-29.85,9.84,2.69,19.32,6.27,28.32,10.68-8.23,3.41-15.14,9.39-19.74,16.92-3.89,6.35-6.13,13.8-6.13,21.78,0,23.09,18.78,41.87,41.87,41.87,20.45,0,37.52-14.71,41.17-34.11,6.18,7.94,11.63,16.48,16.27,25.49Z"/>
      <path class="cls-6" d="m162.61,131.41c-1.47,7.02-4.05,13.63-7.55,19.64-11.5,19.79-32.94,33.12-57.44,33.12-36.6,0-66.38-29.77-66.38-66.38,0-6.8,1.02-13.35,2.93-19.52,8.83-1.49,17.9-2.26,27.14-2.26.19,0,.37,0,.56,0-3.89,6.35-6.13,13.8-6.13,21.78,0,23.09,18.78,41.87,41.87,41.87,20.45,0,37.52-14.71,41.17-34.11.47-2.52.72-5.11.72-7.76v-1.78c8.15,4.48,15.88,9.64,23.1,15.4Z"/>
      <g>
        <path class="cls-12" d="m75.64,52.06c-8.9-17.08-25.69-25.14-40.08-35.87,9.89,11.26,24.23,17.79,33.29,31.38-7-3.81-13.12-7.38-19.44-10.53C34.33,29.53,25.09,17.16,19.39,1.73c-.17-.45-.25-.94-.46-1.73,12.48,5.53,26.09,7.6,36.93,16.39,11.48,9.3,17.64,21.31,19.78,35.67Z"/>
        <path class="cls-5" d="m25.22,62.78c12.63-2.18,24.4-9.31,38.19-6.61-8.46,4.15-16.51,8.5-24.89,12.1-11.04,4.75-21.92,2.78-33.11-1.95,9.78-5.81,17.04-14.39,28.05-17.22,10.99-2.83,21.2-1.13,31.12,4.11-14.37-1.81-26.68,4.63-39.36,9.57Z"/>
      </g>
      <path class="cls-1" d="m181.31,167.29c-6.49-6.94-12.98-13.88-19.38-20.73,7.87,2.45,14.8,6.82,20.22,13.43,4.17,5.08,7.42,10.7,9.54,16.98.91,2.7,2.26,5.25,3.53,8.14-.76-.12-1.38-.14-1.93-.33-9.09-3.16-16.5-8.44-21.54-16.84-3.26-5.42-6.73-10.72-10.09-16.08-.23-.37-.37-.79-.86-1.86,8,5.17,13.98,11.49,19.73,18.05.26-.25.52-.51.79-.76Z"/>
    </g>
  </g>
</svg>