<?xml version="1.0" encoding="UTF-8"?>
<svg xmlns="http://www.w3.org/2000/svg" width="200" height="200" viewBox="0 0 200 200">
  <rect width="200" height="200" fill="#ffffff"/>
  <!-- QR Code pattern -->
  <g fill="#005BAA">
    <!-- Position markers -->
    <rect x="20" y="20" width="40" height="40"/>
    <rect x="140" y="20" width="40" height="40"/>
    <rect x="20" y="140" width="40" height="40"/>

    <!-- Inner squares for position markers -->
    <rect x="30" y="30" width="20" height="20" fill="#ffffff"/>
    <rect x="150" y="30" width="20" height="20" fill="#ffffff"/>
    <rect x="30" y="150" width="20" height="20" fill="#ffffff"/>

    <!-- Innermost squares -->
    <rect x="35" y="35" width="10" height="10"/>
    <rect x="155" y="35" width="10" height="10"/>
    <rect x="35" y="155" width="10" height="10"/>

    <!-- QR Code data pattern - simplified for visualization but different from Attijariwafa -->
    <rect x="80" y="20" width="10" height="10"/>
    <rect x="100" y="20" width="10" height="10"/>
    <rect x="110" y="40" width="10" height="10"/>
    <rect x="30" y="60" width="10" height="10"/>
    <rect x="50" y="80" width="10" height="10"/>
    <rect x="80" y="60" width="10" height="10"/>
    <rect x="100" y="70" width="10" height="10"/>
    <rect x="140" y="70" width="10" height="10"/>
    <rect x="120" y="100" width="10" height="10"/>
    <rect x="100" y="120" width="10" height="10"/>
    <rect x="80" y="140" width="10" height="10"/>
    <rect x="110" y="150" width="10" height="10"/>
    <rect x="140" y="130" width="10" height="10"/>
    <rect x="160" y="120" width="10" height="10"/>
    <rect x="170" y="80" width="10" height="10"/>
    <rect x="60" y="100" width="10" height="10"/>
    <rect x="90" y="80" width="10" height="10"/>
    <rect x="130" y="50" width="10" height="10"/>
  </g>

  <!-- Bank logo overlay -->
  <text x="100" y="100" font-family="Arial" font-size="12" text-anchor="middle" fill="#005BAA" font-weight="bold">BMCE QR</text>
</svg>