<svg width="1169" height="394" viewBox="0 0 1169 394" fill="none" xmlns="http://www.w3.org/2000/svg">
<path fill-rule="evenodd" clip-rule="evenodd" d="M1153.4 96.7427C1163.57 110.583 1168.51 128.173 1168.51 150.533C1168.51 174.263 1163.19 200.293 1152.24 230.113C1143.75 253.233 1132.82 277.153 1119.72 301.323C1121.11 309.173 1122.82 316.983 1124.81 324.613C1126.46 330.313 1127.29 336.253 1127.29 342.273C1127.29 358.203 1120.84 372.263 1109.11 381.873C1099.44 389.783 1087.36 393.793 1073.21 393.793C1063.13 393.793 1053.8 391.573 1045.65 387.303C1036.93 390.593 1027.46 392.263 1017.4 392.263C998.465 392.263 981.525 385.843 967.915 373.613C952.145 385.833 933.615 392.263 913.935 392.263C895.675 392.263 879.295 387.473 865.265 378.033L865.115 377.933L864.975 377.843L864.845 377.743C861.705 375.583 858.745 373.243 855.955 370.723C839.445 384.823 819.605 392.263 798.435 392.263C780.565 392.263 764.495 387.673 750.665 378.633L750.505 378.553L749.335 377.743C736.195 368.663 726.095 356.563 719.325 341.783C717.835 338.523 716.525 335.203 715.385 331.823C709.925 344.173 703.035 354.543 694.625 363.103C684.685 373.303 672.775 381.023 659.215 386.053C646.755 390.673 632.865 393.023 617.925 393.023C600.015 393.023 583.155 389.063 567.795 381.263L567.465 381.093L567.405 381.063L567.285 380.993C566.195 380.423 565.125 379.833 564.065 379.233C553.965 388.773 540.275 393.793 524.255 393.793C516.345 393.793 508.995 392.573 502.305 390.143C495.295 392.573 487.815 393.793 479.965 393.793C469.255 393.793 458.995 391.503 449.725 387.113C439.075 391.553 427.485 393.793 415.105 393.793C398.565 393.793 383.445 389.923 370.545 382.493C361.125 389.833 349.075 393.793 335.745 393.793C327.135 393.793 319.035 392.013 311.775 388.583C302.815 392.043 293.685 393.793 284.515 393.793C259.935 393.793 239.485 383.273 226.885 364.153L226.775 364.013L226.555 363.653L226.415 363.443L226.275 363.223C224.875 360.973 223.575 358.653 222.385 356.243C214.705 362.593 206.305 368.223 197.225 373.123C171.785 386.843 141.795 393.793 108.085 393.793C96.4846 393.793 83.4446 392.813 69.3447 390.893C53.1646 388.833 40.3647 382.883 31.3046 373.223C24.2046 365.653 15.9946 352.073 17.2146 330.313L17.2446 329.883V329.793C17.2446 329.763 17.2471 329.735 17.2496 329.708C17.2521 329.68 17.2546 329.653 17.2546 329.623C18.5446 311.413 21.5646 289.003 26.2246 263.053C28.5546 249.963 31.1546 237.023 33.9846 224.393C24.7747 221.143 16.7146 215.113 10.7746 206.813L10.5846 206.543L10.4746 206.383L10.4546 206.353L10.3246 206.163L10.0246 205.723C3.97465 196.623 0.764648 185.773 0.764648 174.343C0.764648 163.823 2.95465 154.293 7.26465 146.013C11.6946 137.343 18.3846 129.913 27.1346 123.923L28.2846 123.133L28.3446 123.103C43.5947 112.933 61.2947 105.183 80.9947 100.073C100.115 94.9527 118.965 92.3527 137.015 92.3527C163.755 92.3527 187.745 97.3727 208.315 107.283C227.395 116.333 242.975 129.263 254.745 145.803C265.035 139.613 276.905 136.383 289.635 136.383C295.475 136.383 301.105 137.043 306.445 138.353C308.885 132.763 311.485 127.413 314.225 122.333L314.275 122.233L314.435 121.943C322.325 107.433 331.775 95.8527 342.515 87.5227C354.825 77.9727 368.595 72.7527 383.515 71.9727C383.085 67.2027 382.955 62.9927 382.985 59.4827C383.075 46.7727 388.155 35.3427 397.275 27.2827C405.315 20.1827 415.815 16.2727 426.835 16.2727C435.165 16.2727 443.205 18.5427 450.075 22.8227C462.805 30.7627 478.175 38.3127 491.185 43.0227C497.925 45.4627 502.835 46.7127 506.175 47.3527C506.644 46.6433 507.123 45.8881 507.62 45.1045L507.685 45.0027L507.915 44.6427L507.945 44.6027L507.965 44.5627L508.055 44.4327C511.095 39.6727 515.275 33.1627 520.475 26.9727C528.435 17.5227 537.085 10.7527 546.935 6.29266C555.475 2.43266 564.525 0.472656 573.845 0.472656C590.965 0.472656 609.085 7.14266 627.705 20.3027C641.635 30.1427 648.635 47.3827 645.535 64.2027C643.045 77.7927 634.575 89.2727 622.525 95.6627C622.145 97.9127 621.855 100.923 621.615 104.383C645.805 97.5027 675.675 94.1427 712.125 94.1427C742.775 94.1427 770.405 95.8127 794.285 99.1127L794.415 99.1327L794.585 99.1527C809.245 101.243 819.005 107.213 825.295 113.123C831.625 103.133 839.655 92.6926 849.845 82.3127C876.035 55.6527 910.405 35.6027 952.005 22.7227C956.805 21.2327 961.785 20.4727 966.805 20.4727C979.775 20.4727 992.075 25.4227 1001.4 34.3927C1014.53 46.9727 1019.79 65.7127 1015.13 83.2827C1011.51 96.9627 1003.84 112.713 992.345 130.103C992.251 130.243 992.159 130.383 992.066 130.524C991.882 130.803 991.698 131.083 991.505 131.363C1002.51 134.733 1013.46 139.313 1024.32 145.083C1025.68 140.863 1027.12 136.753 1028.63 132.743L1028.66 132.623L1028.99 131.783C1035.58 114.693 1044.1 100.903 1054.31 90.7927C1067.83 77.4127 1084.64 70.3427 1102.91 70.3427C1123.14 70.3427 1141.06 79.7227 1153.4 96.7427ZM1137.24 108.533C1145.83 120.183 1148.51 135.283 1148.51 150.533C1148.51 172.423 1143.17 196.783 1133.46 223.223C1124.52 247.563 1112.96 272.413 1098.85 297.773C1100.53 308.613 1102.75 319.333 1105.53 329.953C1106.72 333.983 1107.29 338.113 1107.29 342.273C1107.29 350.373 1104.62 359.693 1096.44 366.393C1089.02 372.463 1080.12 373.793 1073.21 373.793C1064.49 373.793 1055.02 371.383 1047.48 364.263C1046.54 364.833 1045.58 365.373 1044.62 365.873C1036.16 370.353 1026.89 372.263 1017.4 372.263C1001.36 372.263 987.285 366.043 976.605 354.023C976.495 353.913 976.395 353.793 976.295 353.673C973.655 350.553 971.395 347.253 969.505 343.793C966.655 347.523 963.465 351.013 959.915 354.243C959.865 354.293 959.815 354.333 959.775 354.373C946.775 365.983 931.265 372.263 913.935 372.263C900.355 372.263 887.525 368.923 876.385 361.413L876.205 361.293C868.085 355.683 861.525 348.603 856.565 340.243C853.105 345.333 849.065 350.013 844.415 354.243C844.388 354.27 844.362 354.293 844.337 354.315C844.315 354.335 844.294 354.354 844.275 354.373C831.275 365.983 815.765 372.263 798.435 372.263C784.855 372.263 772.025 368.923 760.885 361.413C760.835 361.383 760.795 361.353 760.745 361.313L760.705 361.293C750.475 354.223 742.705 344.803 737.505 333.453C732.485 322.493 730.055 310.753 730.055 298.503C730.055 293.543 730.355 288.683 730.975 283.943H708.015C703.855 310.883 695.455 333.733 680.335 349.103C664.145 365.743 642.455 373.023 617.925 373.023C603.365 373.023 589.565 369.893 576.855 363.433C576.765 363.383 576.685 363.343 576.605 363.303C570.075 359.863 564.085 355.843 558.855 351.123C557.405 355.433 555.135 359.673 551.625 363.393C543.545 372.003 532.545 373.793 524.255 373.793C517.415 373.793 509.565 372.523 502.615 368.203C495.645 372.033 487.935 373.793 479.965 373.793C468.875 373.793 458.865 370.543 450.465 364.363C439.835 370.793 427.835 373.793 415.105 373.793C397.935 373.793 382.115 368.773 369.685 357.133C368.945 356.433 368.225 355.723 367.525 355.003C366.085 357.853 364.355 360.543 362.285 362.903C354.625 371.633 343.775 373.793 335.745 373.793C327.715 373.793 319.645 371.413 313.185 365.883C304.275 370.823 294.695 373.793 284.515 373.793C268.105 373.793 252.975 367.563 243.445 352.943C243.415 352.893 243.385 352.843 243.345 352.793C243.325 352.763 243.305 352.723 243.275 352.683C236.465 341.873 233.435 329.113 232.875 315.573C221.335 332.213 206.195 345.563 187.725 355.523C164.615 367.983 137.825 373.793 108.085 373.793C97.1046 373.793 85.0347 372.853 71.9446 371.063C63.9246 370.053 53.3546 367.503 45.8846 359.533C37.7746 350.893 36.7146 339.673 37.1746 331.433C37.1796 331.383 37.1821 331.333 37.1846 331.283C37.1871 331.233 37.1897 331.183 37.1946 331.133C38.4546 313.283 41.3946 291.703 45.9046 266.563C49.6146 245.753 53.9646 225.533 58.9746 205.933C56.1846 206.723 53.2646 207.143 50.2346 207.143C40.7846 207.143 32.4546 202.753 27.0446 195.183C26.9516 195.044 26.8524 194.904 26.7567 194.769C26.729 194.73 26.7016 194.691 26.6746 194.653C22.4446 188.293 20.7646 181.203 20.7646 174.343C20.7646 168.303 21.7246 161.513 25.0346 155.183C28.2946 148.773 33.2246 143.983 38.4246 140.423L38.4646 140.403C52.3847 130.923 68.3647 124.003 86.0947 119.413C103.425 114.763 120.425 112.353 137.015 112.353C160.125 112.353 181.205 116.423 199.655 125.313C218.305 134.143 233.075 147.423 243.365 165.003C245.865 169.283 248.035 173.723 249.895 178.323C252.165 174.233 255.215 170.533 258.975 167.333C267.785 159.783 278.445 156.383 289.635 156.383C299.205 156.383 309.035 158.753 317.325 165.243C317.342 165.261 317.364 165.279 317.387 165.297C317.402 165.309 317.418 165.321 317.435 165.333C321.585 153.103 326.415 141.833 331.965 131.563L331.995 131.503C344.125 109.203 362.105 91.8732 387.455 91.8732C395.565 91.8732 402.905 93.9632 409.235 97.7832C404.535 83.6532 402.895 70.1632 402.975 59.6332C403.135 38.8332 425.535 31.0932 439.485 39.7932C451.575 47.3332 468.385 56.0432 484.385 61.8332C492.385 64.7232 499.645 66.6932 505.685 67.5532C511.325 68.3632 514.515 67.9932 515.905 67.6332C516.175 67.4032 516.725 66.8932 517.575 65.8732C519.525 63.5432 521.555 60.4432 524.545 55.7632L524.805 55.3532L524.891 55.218C527.73 50.7859 531.409 45.0403 535.775 39.8532C540.395 34.3632 546.665 28.3732 555.185 24.5132C574.175 15.9132 594.795 21.5432 616.165 36.6432C624.905 42.8132 627.305 52.7332 625.855 60.6032C624.465 68.1932 619.355 75.5432 611.015 79.0032C607.195 80.5832 605.575 82.5632 604.235 86.4732C602.405 91.8132 601.855 98.8832 601.215 110.053L601.206 110.226C601.179 110.782 601.151 111.353 601.115 111.933L601.104 112.12C600.736 118.714 600.29 126.713 598.745 135.173C601.885 133.343 605.165 131.683 608.575 130.183L608.625 130.163C634.225 118.963 669.325 114.143 712.125 114.143C741.805 114.143 768.355 115.713 791.675 118.953H791.755C798.125 119.863 807.675 122.343 814.205 130.523C819.585 137.063 821.475 144.763 821.475 151.813C821.475 155.383 821.095 159.213 820.095 163.023C820.155 163.013 820.215 163.003 820.275 162.983L821.173 162.799C822.477 162.531 823.769 162.265 825.055 162.013C836.315 121.013 873.645 67.9232 957.925 41.8232C968.345 38.5932 979.695 41.2732 987.565 48.8332C995.445 56.3832 998.595 67.6132 995.795 78.1632C992.285 91.4232 984.335 105.953 975.665 119.063C970.085 127.493 963.625 136.213 956.595 144.793C981.625 146.913 1008.35 156.303 1036.47 176.013C1039.53 162.943 1043.23 150.623 1047.6 139.103L1047.62 139.053L1047.64 138.983C1057.57 113.243 1074.58 90.3432 1102.91 90.3432C1117.46 90.3432 1129.21 97.4232 1137.24 108.533Z" fill="#AACC00"/>
<path fill-rule="evenodd" clip-rule="evenodd" d="M479.695 148.424C433.755 127.284 422.795 84.3035 422.975 59.7735C422.995 56.7535 426.345 55.1535 428.905 56.7535C454.995 73.0235 501.195 94.3135 523.205 86.2735C530.465 83.6235 535.765 75.3335 541.395 66.5235C553.455 47.6635 567.055 26.4135 604.625 52.9635C607.375 54.9035 606.465 59.2235 603.355 60.5135C583.535 68.7335 582.435 88.0535 581.255 108.904C580.275 126.204 579.225 144.564 567.385 158.514C555.905 172.034 541.215 175.844 526.595 179.644C506.685 184.814 486.875 189.954 475.395 219.524C474.515 221.794 471.855 222.913 469.775 221.654C450.405 209.864 440.425 188.434 436.465 174.124C435.595 170.964 438.975 168.414 442.185 169.084C457.145 172.234 472.205 162.764 480.945 154.704C482.975 152.824 482.225 149.574 479.705 148.424H479.695ZM973.725 63.2435C976.345 65.7635 977.395 69.5035 976.465 73.0235C973.785 83.1235 967.265 95.4935 958.985 108.014C950.575 120.734 939.875 134.324 928.195 146.954C919.465 156.394 910.075 165.414 900.565 173.164C914.155 167.884 930.475 163.704 949.295 164.364C973.385 165.204 1000.59 173.913 1030.7 196.514C1033.86 198.883 1035.32 202.883 1034.45 206.734C1033.57 210.584 1030.52 213.554 1026.64 214.324C1025.2 214.614 1023.71 214.904 1022.17 215.224C992.465 221.224 945.015 230.804 898.975 202.144C896.515 212.504 897.725 224.114 904.315 232.944C904.635 233.364 904.905 233.803 905.145 234.264C910.585 232.364 916.325 231.414 922.385 231.414C935.355 231.414 945.765 235.934 953.615 244.984C961.635 253.854 965.895 264.104 967.695 278.004C969.045 288.444 967.695 296.184 965.645 304.884C962.405 319.224 956.005 330.743 946.445 339.444C936.885 347.974 926.045 352.243 913.935 352.243C903.695 352.243 894.905 349.764 887.565 344.824C880.395 339.874 874.935 333.304 871.185 325.114C867.425 316.924 865.555 308.043 865.555 298.493C865.555 285.523 868.025 274.004 872.975 263.934C876.805 256.014 881.755 249.464 887.835 244.304C877.095 229.464 875.915 211.384 879.885 196.144C872.625 196.234 863.205 196.784 852.395 198.124C845.915 198.934 839.005 200.014 831.835 201.434C827.445 207.104 824.405 214.694 822.515 222.724C821.645 226.434 821.055 230.074 820.675 233.414C827.455 235.554 833.265 239.413 838.105 244.984C846.125 253.854 850.385 264.104 852.185 278.004C853.535 288.444 852.105 296.184 850.135 304.884C846.895 319.224 840.495 330.743 830.935 339.444C821.375 347.974 810.535 352.243 798.425 352.243C788.185 352.243 779.395 349.764 772.055 344.824C764.885 339.874 759.425 333.304 755.675 325.114C751.915 316.924 750.045 308.043 750.045 298.493C750.045 285.523 752.515 274.004 757.465 263.934C762.415 253.693 769.245 245.754 777.945 240.124C784.935 235.464 792.535 232.674 800.735 231.754C801.195 227.494 801.925 222.874 803.035 218.154C803.815 214.833 804.805 211.364 806.055 207.874C791.595 212.284 777.045 218.184 763.635 225.974C758.855 228.744 752.735 227.124 749.965 222.354C747.195 217.584 748.815 211.454 753.585 208.684C776.395 195.434 801.635 187.344 824.385 182.544C830.375 181.284 836.215 180.244 841.815 179.394C846.445 145.344 876.185 88.0535 963.815 60.9135C967.285 59.8335 971.075 60.7335 973.695 63.2535L973.725 63.2435ZM916.065 188.924C925.855 185.884 936.675 183.944 948.605 184.354C963.045 184.854 979.645 188.844 998.415 199.254C973.635 203.124 944.695 204.144 916.065 188.914V188.924ZM863.275 173.964C868.185 171.624 873.565 168.394 879.305 164.284C890.655 156.164 902.485 145.294 913.505 133.374C924.515 121.474 934.535 108.724 942.295 96.9835C944.375 93.8335 946.265 90.8135 947.945 87.9335C891.335 111.824 869.545 149.554 863.275 173.964ZM1086.27 335.354C1082.68 321.704 1079.95 307.874 1078.07 293.884C1093.26 267.264 1105.47 241.404 1114.68 216.314C1123.9 191.224 1128.51 169.294 1128.51 150.524C1128.51 137.044 1126.03 126.974 1121.08 120.314C1116.3 113.654 1110.24 110.334 1102.9 110.334C1087.72 110.334 1075.51 122.284 1066.3 146.174C1057.25 170.064 1051.11 198.144 1047.86 230.394C1035.41 231.934 1024.14 236.454 1014.07 243.964C1004 251.304 996.065 260.774 990.265 272.384C984.465 283.994 981.565 296.613 981.565 310.273C981.565 322.733 984.895 332.884 991.545 340.734C998.375 348.414 1006.99 352.254 1017.4 352.254C1024.23 352.254 1030.2 350.884 1035.32 348.154C1040.61 345.423 1046.5 340.043 1052.98 332.023L1053.24 333.044C1055.63 341.064 1058.19 346.524 1060.92 349.424C1063.82 352.324 1067.92 353.773 1073.21 353.773C1082.6 353.773 1087.29 349.934 1087.29 342.254C1087.29 339.863 1086.95 337.564 1086.27 335.344V335.354ZM1086.01 173.304C1090.45 148.044 1095.14 135.414 1100.09 135.414C1101.62 135.414 1102.9 137.204 1103.93 140.794C1105.12 144.374 1105.72 149.414 1105.72 155.894C1105.72 181.494 1096.25 214.773 1077.31 255.734C1078.84 226.034 1081.74 198.564 1086.01 173.304ZM1036.09 322.553C1033.02 325.113 1029.77 326.394 1026.36 326.394C1017.83 326.394 1013.56 320.164 1013.56 307.704C1013.56 295.924 1016.63 285.174 1022.78 275.444C1028.92 265.714 1036.69 259.484 1046.07 256.754C1045.9 259.654 1045.82 263.754 1045.82 269.044C1045.82 282.354 1046.67 295.244 1048.38 307.704C1043.43 315.044 1039.33 319.993 1036.09 322.553ZM452.865 337.234C453.835 339.014 454.935 340.684 456.165 342.264C462.305 349.944 470.245 353.784 479.975 353.784C492.945 353.784 502.075 346.444 507.365 331.764L507.105 335.864C507.105 342.174 508.475 346.784 511.205 349.684C514.105 352.414 518.455 353.784 524.265 353.784C530.075 353.784 534.505 352.414 537.065 349.684C539.795 346.784 541.165 342.084 541.165 335.604C541.165 323.824 541.675 313.244 542.705 303.864C543.725 294.304 545.185 284.324 547.055 273.914C548.765 264.184 549.615 257.354 549.615 253.434C549.615 249.514 549.075 247.344 546.755 244.504C537.855 233.624 523.085 233.014 515.565 232.704H515.315C503.535 232.704 492.355 236.444 481.775 243.954C471.365 251.294 463.005 261.104 456.685 273.394C450.655 284.964 447.505 297.234 447.235 310.204C443.575 314.124 440.375 317.214 437.645 319.474C432.695 323.574 427.575 325.614 422.285 325.614C417.335 325.614 413.065 324.244 409.485 321.514C406.075 318.614 404.025 314.854 403.345 310.254C414.955 304.113 423.145 297.114 427.925 289.264C432.705 281.414 435.095 272.794 435.095 263.404C435.095 254.874 432.445 247.704 427.155 241.904C422.035 236.104 415.205 233.204 406.675 233.204C397.455 233.204 387.565 238.064 376.975 247.794C366.395 257.354 357.005 272.794 348.815 294.134C348.815 284.744 349.075 275.613 349.585 266.743C372.285 241.993 388.665 220.404 398.735 201.974C408.805 183.374 413.835 165.454 413.835 148.214C413.835 137.464 411.355 128.754 406.415 122.104C401.635 115.274 395.325 111.864 387.475 111.864C372.795 111.864 360.165 121.594 349.585 141.044C339.175 160.334 331.235 184.224 325.775 212.724C320.485 241.224 317.835 268.613 317.835 294.904C317.835 298.333 317.855 301.584 317.895 304.644C312.405 311.024 307.845 315.884 304.245 319.224C299.635 323.493 295.795 325.624 292.725 325.624C289.485 325.624 287.175 324.254 285.815 321.523C284.455 318.793 283.765 314.863 283.765 309.743C283.765 303.083 285.815 290.374 289.905 271.604C293.145 256.074 294.765 246.174 294.765 241.904C294.765 236.104 290.415 233.204 281.705 233.204C276.075 233.204 271.975 234.224 269.415 236.274C266.855 238.324 264.805 242.074 263.275 247.534C260.205 257.944 257.645 269.204 255.595 281.324C253.715 293.274 252.775 303.084 252.775 310.764C252.775 323.734 255.255 334.143 260.195 341.993C265.315 349.844 273.425 353.773 284.515 353.773C295.605 353.773 307.455 347.814 319.895 335.894C320.825 341.124 322.185 345.204 323.965 348.144C326.525 351.894 330.445 353.773 335.745 353.773C341.045 353.773 344.875 352.404 347.265 349.674C349.825 346.774 352.045 341.314 353.925 333.294C356.655 322.204 360.405 311.444 365.185 301.034C369.965 290.454 375.085 281.834 380.545 275.174C386.175 268.514 391.295 265.194 395.905 265.194C397.785 265.194 399.315 265.964 400.515 267.493C401.885 269.033 402.565 271.333 402.565 274.404C402.565 279.693 400.945 284.214 397.705 287.974C394.465 291.554 389.085 294.973 381.575 298.214C374.745 301.113 371.335 305.893 371.335 312.553C371.335 325.013 375.345 334.993 383.365 342.504C391.385 350.014 401.965 353.764 415.105 353.764C425.855 353.764 435.155 350.944 443.005 345.314C446.305 342.944 449.595 340.243 452.865 337.214V337.234ZM382.075 137.204C379.005 137.204 375.585 141.644 371.835 150.514C368.085 159.214 364.415 171.074 360.825 186.094C357.415 200.944 354.595 217.154 352.375 234.734C362.955 222.273 371.665 208.704 378.485 194.034C385.485 179.354 388.985 166.044 388.985 154.094C388.985 148.634 388.385 144.454 387.195 141.554C385.995 138.654 384.295 137.204 382.075 137.204ZM74.5546 351.224C87.0146 352.934 98.1946 353.784 108.095 353.784C135.235 353.784 158.615 348.493 178.235 337.914C197.865 327.334 212.795 312.484 223.035 293.374C233.275 274.083 238.395 251.564 238.395 225.794C238.395 205.994 234.295 189.104 226.105 175.104C217.915 161.114 206.225 150.524 191.035 143.364C175.845 136.024 157.845 132.354 137.015 132.354C122.335 132.354 107.065 134.484 91.1946 138.754C75.3246 142.854 61.4946 148.904 49.7246 156.934C46.4846 159.154 44.1746 161.624 42.8146 164.354C41.4446 166.914 40.7646 170.244 40.7646 174.334C40.7646 177.914 41.6146 180.994 43.3246 183.554C45.0346 185.944 47.3346 187.134 50.2346 187.134C52.7946 187.134 55.1846 186.364 57.4046 184.834C68.1546 177.834 80.1846 172.204 93.5046 167.934C106.985 163.664 120.555 161.534 134.205 161.534C155.365 161.534 171.755 167.084 183.355 178.174C194.965 189.264 200.765 204.964 200.765 225.274C200.765 255.484 193.345 279.634 178.495 297.724C163.815 315.814 141.545 324.864 111.675 324.864C105.185 324.864 99.3846 324.604 94.2646 324.094C96.1446 303.273 99.2947 281.423 103.735 258.553C108.175 235.513 112.605 217.163 117.045 203.514C118.065 200.443 118.585 197.714 118.585 195.324C118.585 189.524 113.375 186.624 102.965 186.624C97.1646 186.624 92.4647 187.474 88.8847 189.184C85.3046 190.894 82.9146 193.874 81.7146 198.144C75.4046 221.184 70.0246 245.163 65.5846 270.083C61.1446 294.833 58.3346 315.654 57.1346 332.544C56.7946 338.684 57.9046 343.124 60.4646 345.854C63.0246 348.584 67.7146 350.374 74.5446 351.234L74.5546 351.224ZM270.435 211.444C274.015 214.684 279.395 216.304 286.565 216.304C293.735 216.304 299.795 214.344 304.225 210.414C308.665 206.314 310.885 200.854 310.885 194.034C310.885 188.404 308.925 184.054 304.995 180.974C301.075 177.904 295.955 176.364 289.635 176.364C282.635 176.364 276.745 178.414 271.975 182.504C267.365 186.424 265.065 191.374 265.065 197.354C265.065 203.334 266.855 208.024 270.445 211.434L270.435 211.444ZM503.015 317.944C499.095 324.604 494.735 327.924 489.955 327.924C486.715 327.924 484.065 326.643 482.015 324.083C480.135 321.353 479.195 317.423 479.195 312.303C479.195 302.743 480.985 293.704 484.575 285.164C488.155 276.634 492.935 269.803 498.915 264.684C504.885 259.394 511.375 256.663 518.375 256.493L513.515 282.354C510.445 299.424 506.945 311.284 503.015 317.934V317.944ZM788.935 138.744C793.715 139.424 796.955 140.874 798.665 143.094C800.545 145.314 801.485 148.214 801.485 151.794C801.485 163.574 795.165 169.034 782.545 168.174L773.585 167.404C763.515 166.554 753.445 165.864 743.375 165.354C733.475 164.844 723.065 164.584 712.145 164.584H700.625C698.575 189.844 696.445 212.884 694.225 233.704L738.255 232.934C744.575 232.934 748.755 234.044 750.795 236.264C753.015 238.484 754.125 241.474 754.125 245.224C754.125 251.024 752.415 255.634 749.005 259.044C745.595 262.284 740.725 263.904 734.415 263.904H690.635L689.095 274.914C685.515 303.074 677.835 323.124 666.055 335.074C654.445 347.024 638.405 352.993 617.925 352.993C606.325 352.993 595.655 350.514 585.925 345.574C576.195 340.454 569.025 334.314 564.425 327.144C562.545 324.244 561.605 320.744 561.605 316.644C561.605 312.544 562.545 308.964 564.425 305.894C566.475 302.824 568.945 301.284 571.845 301.284C573.895 301.284 575.855 301.964 577.735 303.333C579.785 304.693 582.345 307.344 585.415 311.273C593.605 322.023 603.765 327.404 615.875 327.404C625.605 327.404 633.715 323.474 640.195 315.624C646.855 307.604 651.115 295.053 652.995 277.993L654.535 263.914H642.245C638.325 263.914 634.905 262.803 632.005 260.583C629.275 258.363 627.905 255.204 627.905 251.114C627.905 245.824 629.265 241.814 632.005 239.084C634.735 236.184 638.745 234.734 644.035 234.734C648.815 234.734 653.505 234.644 658.115 234.474C660.165 215.704 662.385 192.914 664.775 166.124C646.345 167.834 633.375 170.814 625.865 175.084C618.355 179.354 614.605 185.664 614.605 194.024C614.605 199.824 616.315 205.374 619.725 210.664C620.745 212.204 621.265 213.734 621.265 215.274C621.265 218.344 619.555 221.074 616.145 223.464C612.735 225.684 608.895 226.794 604.625 226.794C600.015 226.794 596.095 225.424 592.845 222.694C590.795 220.984 588.835 217.484 586.955 212.194C585.075 206.904 584.135 201.014 584.135 194.534C584.135 173.374 594.975 158.014 616.645 148.454C638.485 138.894 670.315 134.114 712.135 134.114C741.145 134.114 766.745 135.654 788.935 138.724V138.744ZM825.085 295.124C822.715 314.094 810.265 328.273 797.275 326.803C784.285 325.333 775.675 308.773 778.045 289.803C780.415 270.833 792.865 256.654 805.855 258.124C818.845 259.594 827.455 276.154 825.085 295.124ZM941.475 295.124C939.105 314.094 926.655 328.273 913.665 326.803C900.675 325.333 892.065 308.773 894.435 289.803C896.805 270.833 909.255 256.654 922.245 258.124C935.235 259.594 943.845 276.154 941.475 295.124Z" fill="#0A5C26"/>
</svg>
