<svg width="176" height="176" viewBox="0 0 176 176" fill="none" xmlns="http://www.w3.org/2000/svg">
<g clip-path="url(#clip0_201_1144)">
<path d="M165 110H11" stroke="#EBEB47" stroke-width="1.6" stroke-linecap="round" stroke-linejoin="round"/>
<path d="M143 137.5H33" stroke="#EBEB47" stroke-width="1.6" stroke-linecap="round" stroke-linejoin="round"/>
<path d="M45.375 110C43.7112 103.502 43.5552 96.7094 44.9187 90.1418C46.2822 83.5742 49.1293 77.4053 53.2422 72.1066C57.3552 66.8079 62.6252 62.5197 68.6493 59.5697C74.6735 56.6198 81.2923 55.0862 88 55.0862C94.7077 55.0862 101.327 56.6198 107.351 59.5697C113.375 62.5197 118.645 66.8079 122.758 72.1066C126.871 77.4053 129.718 83.5742 131.081 90.1418C132.445 96.7094 132.289 103.502 130.625 110" stroke="#EBEB47" stroke-width="1.6" stroke-linecap="round" stroke-linejoin="round"/>
<path d="M55 27.5L60.5 38.5" stroke="#EBEB47" stroke-width="1.6" stroke-linecap="round" stroke-linejoin="round"/>
<path d="M16.5 66L27.5 71.5" stroke="#EBEB47" stroke-width="1.6" stroke-linecap="round" stroke-linejoin="round"/>
<path d="M159.5 66L148.5 71.5" stroke="#EBEB47" stroke-width="1.6" stroke-linecap="round" stroke-linejoin="round"/>
<path d="M121 27.5L115.5 38.5" stroke="#EBEB47" stroke-width="1.6" stroke-linecap="round" stroke-linejoin="round"/>
</g>
<defs>
<clipPath id="clip0_201_1144">
<rect width="176" height="176" fill="white"/>
</clipPath>
</defs>
</svg>
