<svg width="24" height="24" viewBox="0 0 24 24" fill="none" xmlns="http://www.w3.org/2000/svg">
<path d="M0.00292969 1.72025C0.00292969 0.770869 0.791831 0.00146484 1.76521 0.00146484H22.2376C23.211 0.00146484 23.9999 0.770869 23.9999 1.72025V22.2797C23.9999 23.2291 23.211 23.9985 22.2376 23.9985H1.76521C0.791831 23.9985 0.00292969 23.2291 0.00292969 22.2797V1.72025ZM7.4165 20.09V9.25381H3.81545V20.09H7.4165ZM5.61673 7.77349C6.87207 7.77349 7.65347 6.9426 7.65347 5.90173C7.63098 4.83836 6.87357 4.02996 5.64073 4.02996C4.40788 4.02996 3.60248 4.83986 3.60248 5.90173C3.60248 6.9426 4.38388 7.77349 5.59273 7.77349H5.61673ZM12.9778 20.09V14.0382C12.9778 13.7143 13.0018 13.3903 13.0978 13.1593C13.3573 12.5129 13.9497 11.8425 14.9456 11.8425C16.2489 11.8425 16.7693 12.8354 16.7693 14.2932V20.09H20.3704V13.8747C20.3704 10.5451 18.5946 8.99734 16.2249 8.99734C14.3141 8.99734 13.4577 10.0472 12.9778 10.7866V10.8241H12.9538L12.9778 10.7866V9.25381H9.37826C9.42325 10.2707 9.37826 20.09 9.37826 20.09H12.9778Z" fill="#A3F5BE"/>
</svg>
