<svg width="32" height="32" viewBox="0 0 32 32" fill="none" xmlns="http://www.w3.org/2000/svg">
<path d="M4.00019 15.9999C4.00019 16.2652 4.10555 16.5195 4.29308 16.7071C4.48062 16.8946 4.73497 16.9999 5.00019 16.9999H18.0002C18.2654 16.9999 18.5198 16.8946 18.7073 16.7071C18.8948 16.5195 19.0002 16.2652 19.0002 15.9999C19.0002 15.7347 18.8948 15.4804 18.7073 15.2928C18.5198 15.1053 18.2654 14.9999 18.0002 14.9999H5.00019C4.73497 14.9999 4.48062 15.1053 4.29308 15.2928C4.10555 15.4804 4.00019 15.7347 4.00019 15.9999ZM18.0002 8.99995H5.00019C4.73497 8.99995 4.48062 8.89459 4.29308 8.70705C4.10555 8.51952 4.00019 8.26516 4.00019 7.99995C4.00019 7.73473 4.10555 7.48038 4.29308 7.29284C4.48062 7.1053 4.73497 6.99995 5.00019 6.99995H18.0002C18.2654 6.99995 18.5198 7.1053 18.7073 7.29284C18.8948 7.48038 19.0002 7.73473 19.0002 7.99995C19.0002 8.26516 18.8948 8.51952 18.7073 8.70705C18.5198 8.89459 18.2654 8.99995 18.0002 8.99995ZM5.00019 22.9999H27.0002C27.2654 22.9999 27.5198 23.1053 27.7073 23.2928C27.8948 23.4804 28.0002 23.7347 28.0002 23.9999C28.0002 24.2652 27.8948 24.5195 27.7073 24.7071C27.5198 24.8946 27.2654 24.9999 27.0002 24.9999H5.00019C4.73497 24.9999 4.48062 24.8946 4.29308 24.7071C4.10555 24.5195 4.00019 24.2652 4.00019 23.9999C4.00019 23.7347 4.10555 23.4804 4.29308 23.2928C4.48062 23.1053 4.73497 22.9999 5.00019 22.9999ZM23.0002 17.9999C22.8023 18.0001 22.6088 17.9415 22.4442 17.8317C22.2796 17.7218 22.1513 17.5656 22.0756 17.3827C21.9998 17.1999 21.98 16.9987 22.0187 16.8046C22.0573 16.6106 22.1527 16.4323 22.2927 16.2924L26.5864 11.9999L22.2927 7.70745C22.105 7.5198 21.9996 7.26531 21.9996 6.99995C21.9996 6.73458 22.105 6.48009 22.2927 6.29245C22.4803 6.1048 22.7348 5.99939 23.0002 5.99939C23.2656 5.99939 23.52 6.1048 23.7077 6.29245L28.7077 11.2924C28.8007 11.3853 28.8744 11.4956 28.9247 11.617C28.9751 11.7384 29.001 11.8685 29.001 11.9999C29.001 12.1314 28.9751 12.2615 28.9247 12.3829C28.8744 12.5043 28.8007 12.6146 28.7077 12.7074L23.7077 17.7074C23.6148 17.8003 23.5044 17.8739 23.383 17.9241C23.2616 17.9743 23.1316 18 23.0002 17.9999Z" fill="#FAFAD1"/>
</svg>
