<svg width="13" height="13" viewBox="0 0 13 13" fill="none" xmlns="http://www.w3.org/2000/svg">
<path d="M8.27438 8.08398C8.34362 8.0379 8.42327 8.00983 8.5061 8.0023C8.58893 7.99477 8.67233 8.00802 8.74875 8.04085L11.6963 9.36148C11.7956 9.40394 11.8785 9.47742 11.9326 9.57093C11.9867 9.66445 12.009 9.77296 11.9963 9.88023C11.8991 10.6059 11.5418 11.2716 10.9907 11.7535C10.4395 12.2354 9.73212 12.5008 9 12.5002C6.74566 12.5002 4.58365 11.6047 2.98959 10.0106C1.39553 8.41658 0.500001 6.25457 0.500001 4.00023C0.499441 3.26811 0.7648 2.5607 1.24673 2.00956C1.72865 1.45843 2.39435 1.10108 3.12 1.00398C3.22727 0.991237 3.33578 1.01358 3.4293 1.06766C3.52281 1.12174 3.5963 1.20465 3.63875 1.30398L4.95938 4.25398C4.99182 4.32975 5.00504 4.41236 4.99784 4.49447C4.99064 4.57658 4.96326 4.65564 4.91813 4.7246L3.5825 6.31273C3.53512 6.38422 3.50711 6.46678 3.50119 6.55234C3.49528 6.6379 3.51166 6.72353 3.54875 6.80086C4.06563 7.85898 5.15938 8.9396 6.22063 9.45148C6.29836 9.48841 6.38439 9.50443 6.47021 9.49796C6.55602 9.49149 6.63867 9.46276 6.71 9.41461L8.27438 8.08398Z" stroke="#08451C" stroke-linecap="round" stroke-linejoin="round"/>
</svg>
