<?xml version="1.0" standalone="no"?>
<!DOCTYPE svg PUBLIC "-//W3C//DTD SVG 20010904//EN"
 "http://www.w3.org/TR/2001/REC-SVG-20010904/DTD/svg10.dtd">
<svg version="1.0" xmlns="http://www.w3.org/2000/svg"
 width="2000.000000pt" height="2000.000000pt" viewBox="0 0 2000.000000 2000.000000"
 preserveAspectRatio="xMidYMid meet">

<g transform="translate(0.000000,2000.000000) scale(0.100000,-0.100000)"
fill="#000000" stroke="none">
<path d="M14185 18936 c-68 -31 -93 -79 -125 -241 -28 -142 -89 -343 -243
-805 -261 -782 -398 -1139 -558 -1460 -250 -501 -419 -746 -698 -1015 -264
-253 -543 -537 -841 -855 -257 -274 -698 -711 -773 -767 -25 -19 -34 -21 -40
-11 -9 15 -116 207 -164 293 -38 70 -41 100 -11 132 l21 23 -43 0 c-43 0 -44
1 -244 203 -341 345 -526 479 -886 640 -347 155 -576 221 -990 286 -492 78
-835 85 -1297 25 -92 -12 -165 -32 -410 -113 -351 -117 -508 -180 -773 -312
-418 -209 -827 -476 -1188 -777 -203 -168 -338 -290 -365 -329 -15 -21 -94
-105 -177 -188 -176 -175 -417 -478 -617 -775 -114 -170 -332 -589 -390 -750
-19 -52 -43 -117 -53 -145 -48 -131 -100 -508 -100 -726 0 -126 45 -440 85
-592 116 -441 354 -884 729 -1353 264 -331 400 -448 693 -597 370 -188 530
-220 1093 -220 426 0 688 33 1125 143 370 93 797 265 1035 417 52 33 147 85
210 116 285 137 953 611 1355 961 347 303 703 686 877 946 77 115 304 563 314
620 3 19 17 51 30 70 54 82 182 505 224 739 38 217 39 233 50 521 5 135 14
263 20 285 7 23 36 66 72 105 75 82 436 432 892 864 595 565 882 870 1146
1221 117 156 172 242 275 438 43 81 79 146 81 144 16 -16 -266 -884 -421
-1297 -237 -630 -591 -1363 -1083 -2245 -153 -274 -255 -452 -537 -935 -241
-412 -550 -951 -630 -1100 -37 -69 -87 -152 -110 -185 -23 -33 -75 -116 -115
-185 -155 -268 -442 -691 -752 -1108 -158 -212 -225 -291 -465 -552 -147 -160
-194 -206 -216 -208 -21 -3 -53 13 -125 61 -113 75 -132 85 -312 162 -166 71
-279 104 -507 149 -268 52 -350 60 -573 53 -659 -20 -1410 -233 -1925 -546
-393 -239 -1003 -700 -1505 -1136 -1070 -931 -1664 -1758 -1844 -2567 -50
-221 -59 -316 -60 -578 -1 -373 45 -635 171 -960 70 -182 151 -315 318 -521
248 -306 449 -466 800 -639 260 -128 381 -163 685 -195 357 -37 710 -46 796
-20 27 8 83 15 124 15 148 1 592 79 818 145 138 40 360 119 532 189 283 116
476 232 835 503 455 342 625 511 938 924 227 301 385 551 492 776 93 195 90
193 91 39 1 -211 47 -670 85 -856 56 -273 193 -677 312 -915 196 -394 618
-779 1042 -950 50 -20 155 -54 236 -75 80 -22 250 -73 378 -115 380 -123 523
-154 746 -162 412 -15 758 74 1255 322 380 190 711 403 926 596 93 83 364 392
472 538 47 63 102 133 122 155 103 114 427 732 525 1002 19 52 46 119 61 147
74 148 191 753 243 1262 37 356 44 564 26 815 -23 328 -55 530 -135 835 -107
414 -208 669 -429 1084 -143 271 -337 520 -624 804 -173 171 -214 206 -301
258 -131 78 -336 178 -453 220 -90 32 -91 33 -87 63 2 17 15 191 29 386 64
913 68 994 69 1425 0 552 -19 810 -99 1320 -74 471 -105 789 -112 1145 l-5
275 31 155 c43 211 114 483 210 801 44 147 101 342 127 435 51 187 81 274 94
274 31 0 191 -820 240 -1230 15 -128 55 -377 84 -530 30 -156 50 -319 76 -620
28 -330 56 -574 90 -795 16 -104 34 -241 40 -304 16 -174 47 -308 131 -569 22
-68 49 -162 60 -210 11 -48 44 -152 73 -232 30 -80 81 -233 116 -340 87 -275
236 -668 345 -915 51 -115 105 -246 121 -290 56 -160 355 -700 522 -945 290
-424 1524 -2079 1649 -2210 l61 -65 94 0 c74 0 100 4 122 18 56 37 123 238
133 398 4 71 3 98 -7 104 -17 11 -25 -5 -50 -104 -50 -198 -71 -254 -106 -289
-33 -33 -37 -34 -85 -29 -67 8 -128 45 -179 109 -24 29 -125 177 -225 328
-165 250 -203 310 -289 463 -15 26 -105 150 -199 275 -458 608 -540 719 -649
877 -332 484 -515 823 -761 1410 -176 418 -199 482 -436 1190 -201 603 -237
724 -265 890 -20 119 -101 660 -121 805 -47 356 -106 990 -92 990 4 0 46 -80
95 -177 91 -184 184 -351 377 -678 232 -394 339 -607 588 -1170 160 -360 314
-690 454 -970 45 -88 115 -236 158 -330 181 -397 257 -518 279 -447 9 27 -36
191 -87 317 -105 259 -546 1157 -927 1890 -236 452 -342 670 -506 1036 -65
145 -169 365 -232 489 -206 406 -250 521 -337 879 -79 322 -159 629 -215 826
-62 214 -139 467 -144 472 -6 6 -54 -102 -75 -171 -10 -33 -40 -151 -66 -261
-52 -224 -67 -278 -95 -350 -10 -27 -33 -102 -51 -165 -17 -63 -58 -200 -91
-305 -112 -359 -171 -634 -190 -892 -19 -243 -1 -453 107 -1273 108 -824 125
-1003 125 -1353 0 -244 -8 -394 -40 -797 -11 -135 -24 -303 -29 -374 -6 -71
-15 -134 -21 -140 -12 -12 -13 -6 -11 134 2 105 -9 151 -28 121 -5 -8 -19 -65
-31 -128 -13 -62 -25 -111 -28 -109 -10 10 26 866 49 1176 17 230 -2 496 -67
910 -19 124 -48 281 -65 350 -43 177 -156 695 -174 795 -19 108 -33 682 -17
711 13 25 -2 56 -24 47 -25 -9 -53 -76 -79 -189 -61 -257 -195 -533 -703
-1449 -619 -1116 -1091 -1894 -1465 -2414 -207 -288 -1154 -1531 -1167 -1531
-4 0 -12 6 -18 13 -17 20 19 85 127 227 187 246 224 296 286 390 72 109 129
219 120 229 -9 8 -53 -43 -173 -199 -196 -254 -449 -530 -486 -530 -34 0 -13
34 87 141 182 195 268 292 374 419 329 392 890 1215 1176 1724 49 89 142 251
205 361 63 110 182 324 265 475 177 325 247 447 293 507 19 25 34 49 34 54 0
21 357 653 544 962 159 263 161 267 298 552 335 697 407 864 619 1442 201 546
256 713 324 978 30 116 77 287 106 380 158 519 242 851 218 865 -7 5 -17 6
-21 4 -16 -10 -51 -89 -98 -219 -85 -234 -245 -573 -408 -865 -322 -578 -747
-1061 -1697 -1932 -99 -91 -273 -255 -387 -366 -184 -179 -238 -223 -238 -194
0 28 89 127 351 388 162 162 289 294 282 294 -6 0 -93 -61 -193 -135 -183
-136 -220 -161 -220 -149 0 3 96 101 213 218 117 116 298 305 402 421 105 115
330 352 500 525 451 459 592 625 734 863 204 345 371 706 547 1187 31 85 97
247 146 360 142 326 201 502 324 965 32 121 58 221 59 222 1 2 43 -14 94 -34
80 -32 92 -40 88 -58 -12 -56 -278 -990 -338 -1187 -158 -516 -205 -766 -216
-1159 -6 -235 -4 -262 53 -570 89 -487 204 -967 313 -1302 92 -285 123 -357
249 -577 103 -180 146 -243 397 -580 92 -124 240 -333 328 -465 194 -290 275
-402 562 -785 568 -756 857 -1206 1010 -1570 15 -36 80 -186 145 -335 124
-286 151 -359 279 -765 202 -638 360 -1367 416 -1910 28 -276 79 -605 96 -615
48 -30 32 395 -37 985 -35 296 -76 533 -140 810 -80 345 -121 489 -243 850
-165 491 -305 827 -510 1225 -222 430 -282 522 -808 1225 -268 359 -350 473
-693 965 -84 121 -201 285 -260 365 -263 358 -502 766 -600 1025 -115 303
-211 602 -235 735 -9 47 -42 191 -75 320 -118 471 -144 636 -143 890 1 336 63
635 333 1605 51 182 116 427 146 545 30 118 62 226 72 240 12 19 17 53 20 136
5 148 -9 214 -54 253 -69 61 -152 84 -209 57z m116 -107 c59 -42 24 -144 -43
-124 -38 12 -68 46 -68 78 0 63 56 86 111 46z m-6096 -3632 c62 -13 139 -60
132 -81 -5 -14 -189 -70 -317 -96 -110 -22 -176 -25 -235 -9 -47 12 -195 79
-195 88 0 10 116 49 212 71 161 38 305 48 403 27z m388 -42 c-2 -5 -15 -14
-29 -19 -31 -10 -108 9 -98 25 8 13 130 7 127 -6z m-1218 -34 c-2 -5 -58 -32
-122 -61 -65 -29 -147 -67 -183 -85 -36 -18 -79 -36 -97 -39 -38 -6 -182 9
-230 25 -45 14 -33 28 25 28 30 0 79 12 137 34 98 38 305 93 400 105 62 9 79
7 70 -7z m296 -122 l94 -46 -80 -40 c-44 -22 -139 -63 -212 -92 l-131 -52
-127 58 c-70 32 -127 63 -127 68 0 9 191 93 312 136 88 31 157 23 271 -32z
m1248 26 c30 -9 64 -23 75 -30 26 -17 59 -72 49 -78 -18 -11 -133 -37 -164
-37 -35 0 -99 32 -99 49 0 9 -107 85 -132 93 -7 3 -8 9 -3 18 11 18 199 7 274
-15z m298 -20 c86 -21 161 -54 145 -64 -35 -21 -227 40 -239 76 -4 12 -3 12
94 -12z m-702 -4 c41 -18 183 -131 197 -156 9 -15 -19 -28 -220 -96 -153 -52
-204 -59 -254 -33 -28 14 -237 162 -262 185 -43 39 236 115 429 118 48 0 83
-5 110 -18z m-514 -196 c130 -91 189 -141 189 -160 0 -7 -8 -19 -17 -27 -29
-26 -318 -178 -350 -184 -27 -5 -51 10 -214 130 -101 75 -185 141 -187 146 -2
6 7 14 20 19 13 6 111 46 218 90 107 44 200 79 206 77 6 -3 67 -43 135 -91z
m-1271 52 l85 -12 -180 -101 c-419 -237 -382 -219 -460 -218 -38 0 -112 11
-163 23 -80 20 -90 25 -75 36 23 16 375 204 428 229 118 56 201 65 365 43z
m2805 -23 c39 -9 106 -26 150 -40 90 -28 267 -113 273 -131 6 -20 -76 -25
-223 -14 -202 16 -230 26 -325 118 -44 41 -77 80 -74 85 8 12 97 4 199 -18z
m-2419 -65 c131 -55 149 -37 -216 -217 -179 -89 -337 -164 -351 -167 -18 -5
-53 7 -127 42 l-103 48 163 92 c90 51 231 133 313 181 l150 89 50 -19 c28 -11
82 -33 121 -49z m2081 26 c46 -27 176 -171 170 -189 -2 -5 -23 -15 -48 -21
-24 -7 -68 -24 -97 -39 -38 -19 -57 -24 -70 -17 -38 21 -248 258 -238 268 10
11 85 20 165 22 63 1 81 -3 118 -24z m-330 -82 c68 -54 194 -204 191 -226 -3
-23 -166 -114 -252 -141 -64 -20 -99 -11 -170 43 -81 62 -226 206 -226 223 0
18 98 67 218 109 114 39 184 37 239 -8z m-1514 -90 c51 -26 168 -115 241 -184
47 -44 66 -68 64 -83 -2 -14 -47 -47 -153 -111 -167 -100 -275 -174 -275 -186
0 -28 94 13 336 147 l174 96 57 -43 c80 -61 252 -228 290 -282 l32 -45 -94
-71 c-51 -40 -108 -88 -126 -109 -31 -35 -32 -37 -12 -40 27 -4 93 30 206 106
l87 59 93 -96 c135 -139 144 -145 133 -83 -9 48 -55 147 -94 201 -17 23 -28
49 -25 57 12 32 353 224 398 224 25 0 45 -15 111 -82 159 -163 174 -191 134
-248 -11 -16 -83 -80 -159 -144 -174 -144 -235 -216 -186 -216 17 0 133 92
294 234 l114 100 36 -43 c73 -87 212 -288 247 -357 44 -88 43 -92 -64 -168
-96 -67 -152 -127 -152 -161 0 -39 30 -31 117 30 84 59 174 115 185 115 4 0
13 -10 19 -22 16 -29 160 -410 157 -413 -2 -1 -61 -37 -131 -81 -71 -43 -172
-112 -225 -151 -53 -40 -100 -72 -103 -70 -4 1 -47 52 -97 113 -110 135 -192
205 -192 163 0 -6 25 -47 55 -91 118 -167 130 -217 69 -279 -65 -67 -24 -87
69 -35 l38 21 25 -30 c35 -43 124 -222 124 -249 0 -13 -9 -35 -21 -50 -18 -23
-198 -149 -291 -203 -21 -12 -38 -27 -38 -33 0 -24 52 -4 227 86 102 52 187
93 190 91 2 -3 28 -74 57 -158 l53 -153 -91 -64 c-105 -73 -156 -120 -156
-140 0 -26 57 -5 134 49 108 75 141 60 153 -71 5 -55 4 -59 -28 -94 -19 -20
-86 -78 -149 -129 -106 -86 -153 -137 -138 -152 8 -9 72 25 178 95 105 68 125
76 147 59 24 -20 13 -179 -15 -235 -31 -60 -269 -248 -330 -260 -27 -5 -33 -2
-50 25 -10 17 -29 77 -41 134 -12 56 -40 166 -62 244 -95 348 -242 670 -280
613 -13 -21 -3 -56 36 -120 122 -203 274 -783 245 -938 -9 -49 -40 -86 -140
-165 -139 -109 -220 -181 -220 -194 0 -18 66 16 221 113 65 41 126 77 134 80
21 8 20 -48 -5 -211 -11 -71 -20 -133 -20 -137 0 -9 -288 -221 -367 -271 -34
-21 -69 -37 -77 -34 -12 5 -13 35 -9 179 6 169 -5 316 -28 375 -20 53 -31 4
-39 -183 -10 -215 -31 -364 -61 -435 -29 -66 -84 -113 -194 -164 -51 -24 -96
-49 -100 -56 -10 -16 30 -49 59 -49 11 0 54 16 94 36 109 54 117 30 36 -107
-101 -170 -385 -333 -1027 -588 -714 -284 -1395 -330 -2047 -139 -252 74 -437
196 -696 460 -146 149 -231 249 -356 418 -174 236 -281 409 -348 560 -163 371
-259 844 -248 1228 4 140 9 172 42 299 39 153 118 392 160 485 14 31 38 71 53
90 16 18 34 56 41 83 24 95 244 447 450 720 122 162 315 381 353 400 34 18 78
9 123 -26 21 -16 24 -25 19 -56 l-6 -37 27 18 c23 15 40 16 100 11 80 -8 103
4 92 48 -4 18 4 32 37 64 64 62 205 156 219 147 7 -4 54 -41 104 -81 102 -81
199 -143 226 -143 29 0 22 42 -16 91 -38 50 -78 83 -190 158 l-78 53 153 100
c166 108 288 179 345 200 33 12 40 10 92 -17 81 -42 236 -161 312 -239 63 -65
93 -80 103 -52 18 45 -111 191 -278 315 -55 41 -104 77 -108 81 -10 9 217 158
323 213 68 36 80 39 130 33 30 -3 79 -12 108 -21 74 -22 71 -44 -15 -91 -195
-106 -239 -133 -284 -172 -27 -24 -49 -49 -49 -54 0 -7 17 -9 44 -6 44 5 191
83 349 184 46 30 79 44 101 44 117 0 544 -308 720 -519 102 -122 177 -201 192
-201 25 0 23 18 -10 86 -46 95 -108 174 -224 285 -127 123 -242 208 -405 302
-189 109 -179 99 -126 133 76 49 461 239 529 262 79 26 92 26 133 5z m1101
-180 c140 -112 184 -159 170 -180 -6 -9 -78 -56 -160 -103 -82 -47 -169 -98
-194 -113 l-45 -26 -175 170 -175 170 30 24 c33 27 267 147 330 169 37 13 43
12 79 -8 21 -11 84 -58 140 -103z m1313 102 c51 -26 140 -108 174 -162 17 -27
18 -32 4 -43 -8 -7 -36 -15 -61 -18 l-46 -5 -77 80 c-90 95 -124 149 -101 163
24 16 53 12 107 -15z m312 -10 c60 -18 161 -104 161 -136 0 -41 -124 -33 -218
15 -54 28 -172 114 -172 126 0 5 6 11 13 14 21 10 160 -3 216 -19z m-498 -122
c151 -148 149 -160 -39 -244 -48 -21 -91 -39 -97 -38 -12 0 -249 308 -243 315
3 2 43 20 89 39 56 23 100 35 133 35 49 0 49 0 157 -107z m-3574 75 c57 -12
102 -25 101 -29 -6 -15 -173 -152 -237 -195 -95 -63 -158 -72 -343 -48 -76 9
-138 20 -138 24 0 9 319 220 375 249 52 26 113 26 242 -1z m3224 -200 c104
-137 122 -168 113 -192 -6 -17 -90 -73 -162 -110 -86 -44 -104 -39 -197 57
-120 122 -178 195 -171 212 4 11 293 163 313 165 1 0 48 -60 104 -132z m1099
-7 c50 -39 130 -148 130 -176 0 -25 -54 -75 -81 -75 -33 0 -209 217 -209 257
0 18 7 23 38 26 55 6 83 -1 122 -32z m-250 -30 c25 -18 210 -247 210 -259 -1
-8 -184 -150 -202 -157 -8 -3 -25 23 -48 72 -19 43 -63 122 -97 178 -35 55
-63 105 -63 111 0 26 39 57 85 69 55 15 78 12 115 -14z m-283 -133 c86 -135
183 -311 183 -334 0 -21 -42 -64 -62 -64 -5 0 -41 -21 -80 -46 -39 -25 -76
-43 -84 -40 -7 3 -23 24 -35 48 -12 24 -66 120 -120 214 -55 94 -99 175 -99
180 0 5 10 16 23 23 22 15 206 90 220 91 4 0 28 -33 54 -72z m-4300 26 c59 -9
113 -19 120 -23 15 -8 -283 -218 -389 -275 -68 -35 -77 -38 -133 -33 -64 6
-120 21 -145 37 -12 9 -5 20 43 65 79 75 248 202 300 225 51 24 68 24 204 4z
m3988 -244 c166 -255 203 -340 157 -354 -11 -4 -76 -43 -143 -87 -68 -44 -129
-78 -137 -77 -16 3 -208 397 -218 446 -5 27 -2 38 17 59 23 24 215 143 232
143 4 0 46 -59 92 -130z m1082 93 c47 -51 75 -114 67 -150 -8 -32 -61 -153
-67 -153 -9 0 -137 241 -137 258 0 25 64 81 94 82 4 0 24 -17 43 -37z m-178
-149 c32 -49 75 -150 85 -199 5 -23 1 -40 -16 -65 -32 -48 -156 -142 -182
-138 -14 2 -31 26 -57 78 -76 153 -85 216 -37 268 31 33 139 102 161 102 10 0
30 -19 46 -46z m-5379 -88 c20 -6 36 -19 38 -29 4 -21 -46 -70 -140 -134 -80
-55 -141 -66 -198 -36 -53 27 -51 55 4 109 110 105 181 127 296 90z m5713
-132 c-3 -72 -33 -186 -51 -192 -16 -5 -42 57 -42 103 0 37 17 77 52 128 30
42 43 29 41 -39z m-693 26 c24 -24 113 -199 130 -257 11 -37 11 -45 -8 -75
-22 -36 -122 -121 -185 -158 l-37 -22 -25 55 c-13 30 -43 110 -66 177 -42 125
-46 172 -18 206 12 14 164 94 180 94 5 0 18 -9 29 -20z m524 -220 c20 -43 36
-91 36 -106 0 -32 -53 -103 -143 -193 -55 -53 -66 -60 -71 -45 -16 53 -56 211
-56 222 0 13 177 202 190 202 4 0 24 -36 44 -80z m-756 -133 c40 -100 75 -187
78 -192 7 -17 -219 -204 -248 -205 -29 0 -69 60 -144 219 -41 85 -74 155 -74
157 0 6 186 142 238 175 25 16 53 29 61 29 11 0 39 -57 89 -183z m472 -153
c29 -94 32 -109 21 -144 -12 -42 -82 -111 -179 -177 -64 -44 -67 -42 -107 70
-40 110 -37 148 11 198 37 38 199 159 214 159 3 0 22 -48 40 -106z m375 -73
c17 -81 10 -127 -30 -190 -36 -58 -127 -153 -137 -143 -15 15 -40 155 -35 199
4 36 16 54 88 132 46 49 87 86 92 82 4 -4 14 -40 22 -80z m2156 -306 c11 -66
44 -223 74 -350 88 -377 148 -677 197 -985 20 -127 23 -179 22 -420 -1 -384
-30 -814 -59 -884 -10 -24 -11 -43 -3 -81 8 -37 6 -139 -6 -400 -10 -192 -16
-363 -14 -380 l3 -30 -115 5 c-256 11 -521 5 -625 -14 -242 -45 -523 -176
-880 -411 -361 -238 -725 -551 -928 -799 -45 -55 -122 -146 -172 -203 -159
-183 -349 -444 -481 -663 l-39 -65 -3 35 c-18 249 -93 503 -208 704 -45 80
-45 81 -29 111 28 53 190 274 380 520 264 341 693 914 818 1090 114 163 375
570 452 706 82 144 183 305 343 549 267 405 436 698 725 1255 89 171 186 353
216 406 31 53 110 211 176 353 l120 257 8 -93 c4 -51 17 -147 28 -213z m-2869
175 c9 -19 24 -63 33 -98 22 -79 13 -116 -45 -185 -51 -62 -180 -171 -190
-160 -4 4 -14 28 -23 53 -9 25 -32 89 -51 143 l-35 97 85 68 c174 136 196 144
226 82z m422 -67 c22 -45 58 -203 52 -233 -3 -17 -50 -74 -124 -151 l-120
-124 -11 40 c-17 62 -34 215 -28 259 5 33 20 54 104 138 54 54 101 98 105 98
4 0 14 -12 22 -27z m346 -57 c0 -43 -39 -149 -93 -250 -28 -54 -56 -99 -61
-100 -15 -2 -34 65 -35 117 -1 45 3 52 52 105 30 31 68 78 86 105 35 52 51 59
51 23z m-1130 -91 c0 -7 71 -275 76 -290 3 -6 -39 -45 -93 -87 -54 -41 -139
-107 -189 -146 l-91 -70 -60 131 c-86 188 -84 171 -25 226 60 56 198 151 297
203 68 37 85 43 85 33z m499 -239 c44 -169 44 -168 -36 -240 -38 -34 -98 -92
-135 -131 -47 -50 -68 -66 -72 -55 -3 8 -19 89 -36 179 -26 135 -29 166 -18
177 53 51 253 203 259 197 4 -5 21 -61 38 -127z m631 -17 c-23 -70 -126 -288
-153 -324 -24 -31 -31 -11 -19 50 17 82 50 158 122 275 71 115 87 115 50 -1z
m-269 -137 c-6 -24 -25 -63 -41 -86 -43 -64 -167 -192 -176 -183 -14 13 -23
129 -15 200 l7 68 110 110 109 110 9 -88 c6 -62 5 -101 -3 -131z m-750 -69 c6
-16 22 -77 35 -138 14 -60 27 -117 30 -126 3 -12 -33 -45 -128 -117 -73 -55
-147 -107 -165 -116 -39 -20 -37 -24 -86 124 -49 144 -51 159 -29 195 34 54
264 205 315 205 10 0 22 -12 28 -27z m452 -183 c1 -46 -4 -75 -17 -100 -20
-37 -219 -240 -236 -240 -18 0 -32 52 -37 145 l-5 90 38 43 c22 23 84 80 139
126 l100 83 8 -41 c4 -23 9 -70 10 -106z m333 36 c8 -34 -22 -97 -93 -191 -78
-102 -110 -132 -124 -118 -19 19 -23 97 -6 129 22 42 116 149 156 179 43 31
59 32 67 1z m140 -22 c-11 -43 -68 -164 -78 -164 -16 0 24 112 60 168 19 29
26 28 18 -4z m-855 -300 c12 -117 -2 -146 -113 -235 -108 -86 -137 -104 -148
-93 -15 15 -34 147 -26 179 4 16 26 46 49 66 60 54 221 178 226 173 2 -1 7
-42 12 -90z m669 -27 c-6 -37 -17 -84 -25 -105 -19 -45 -147 -242 -157 -242
-12 0 -9 139 2 182 6 20 25 57 43 81 70 97 131 167 138 160 5 -5 4 -39 -1 -76z
m-264 30 c9 -24 -13 -97 -42 -138 -39 -57 -134 -158 -206 -220 l-61 -54 7 70
c4 38 15 88 25 110 20 42 123 148 204 209 53 39 65 43 73 23z m-12 -289 c-2
-13 -8 -63 -15 -112 -8 -64 -21 -106 -45 -155 -45 -90 -240 -311 -274 -311
-28 0 3 227 41 302 19 37 272 298 290 298 3 0 5 -10 3 -22z m-384 -34 c17 -44
12 -124 -10 -160 -11 -18 -64 -72 -118 -121 -150 -137 -136 -135 -129 -15 8
129 26 173 98 234 60 51 118 88 137 88 7 0 17 -12 22 -26z m-20 -321 c0 -50
-40 -256 -58 -294 -22 -50 -34 -62 -152 -153 -52 -40 -86 -61 -88 -53 -6 28
49 274 71 317 16 31 53 69 118 122 52 43 97 78 102 78 4 0 7 -8 7 -17z m290
-211 c0 -5 -18 -37 -40 -72 -42 -63 -276 -308 -286 -298 -10 11 25 121 52 159
15 22 66 70 113 108 140 109 161 123 161 103z m-660 -136 c0 -59 -26 -178 -49
-230 -24 -53 -88 -113 -233 -220 -87 -63 -118 -82 -118 -69 0 46 41 347 47
353 26 22 222 155 266 180 74 42 87 40 87 -14z m260 -211 c-36 -104 -83 -178
-176 -274 l-91 -95 9 73 c9 73 24 114 60 161 22 28 199 189 210 189 4 1 -2
-24 -12 -54z m-385 -358 c-43 -132 -71 -161 -287 -300 -174 -112 -164 -112
-115 -5 81 175 112 209 292 322 135 84 142 83 110 -17z m-475 -270 c0 -20 -35
-117 -58 -162 -28 -55 -80 -102 -192 -176 -52 -34 -137 -93 -187 -131 -51 -37
-93 -64 -93 -60 0 22 81 206 108 244 51 75 358 298 409 298 7 0 13 -6 13 -13z
m4489 -730 c1 -57 -3 -86 -9 -82 -6 4 -9 63 -9 148 2 114 3 130 9 82 4 -33 8
-100 9 -148z m-547 -213 l38 -7 -22 -39 c-13 -22 -35 -46 -50 -54 -29 -15
-154 -18 -243 -5 l-50 7 45 24 c66 36 99 50 155 65 58 16 76 17 127 9z m334
-52 c39 -29 141 -147 164 -191 12 -23 12 -24 -25 -17 -59 12 -159 44 -180 59
-30 22 -36 177 -7 177 5 0 27 -13 48 -28z m-170 -98 c-7 -19 -42 -18 -50 2 -6
16 16 77 37 102 10 13 13 6 15 -38 2 -29 1 -59 -2 -66z m464 5 c92 -47 253
-177 294 -237 16 -23 27 -44 25 -47 -9 -9 -203 77 -240 106 -36 28 -169 195
-169 211 0 13 9 10 90 -33z m-1462 -31 c-7 -21 -92 -81 -96 -69 -6 17 26 61
51 71 32 13 49 12 45 -2z m590 2 c52 -5 96 -11 99 -13 7 -8 -134 -239 -168
-275 l-30 -32 -195 0 c-153 0 -194 3 -188 13 23 37 199 238 230 262 35 26 106
53 144 54 8 0 57 -4 108 -9z m-453 -114 c-93 -144 -201 -330 -295 -511 -40
-77 -74 -141 -74 -142 -1 0 -64 -12 -142 -26 -259 -46 -280 -79 -48 -75 103 2
138 0 141 -9 3 -7 9 -13 14 -13 13 0 189 100 189 107 0 3 -7 11 -16 17 -14 11
-14 18 5 71 28 80 106 208 162 267 l45 48 70 0 c76 0 285 -18 293 -25 2 -3
-10 -37 -27 -76 -38 -84 -38 -89 -12 -89 35 0 73 25 127 84 28 30 64 58 78 62
46 11 257 -1 296 -18 46 -20 59 -55 59 -159 0 -44 4 -79 8 -79 22 0 92 100 92
131 0 7 7 21 17 31 25 28 84 22 217 -23 203 -69 241 -95 266 -183 12 -44 44
-85 57 -73 3 4 11 28 18 54 15 58 30 63 100 33 88 -38 240 -128 271 -162 19
-19 38 -56 48 -89 17 -59 51 -113 67 -104 5 4 9 42 9 85 l0 79 99 -79 c111
-90 104 -77 161 -292 41 -156 60 -268 60 -357 l0 -73 -32 40 c-37 45 -83 76
-98 67 -13 -8 -13 -51 1 -78 31 -58 138 -157 171 -157 44 0 285 -338 369 -517
40 -84 55 -107 87 -127 56 -35 87 -77 111 -148 39 -119 58 -330 46 -510 l-7
-112 -28 54 c-23 44 -30 51 -35 37 -11 -27 3 -124 22 -160 34 -64 14 -300 -29
-361 -19 -26 -21 -45 -23 -195 -2 -133 -8 -189 -27 -281 -38 -172 -60 -214
-96 -178 -8 8 -15 9 -23 1 -7 -7 -6 -34 5 -92 20 -102 12 -145 -70 -401 -61
-193 -104 -346 -104 -372 0 -32 28 -19 61 28 46 68 102 192 155 347 26 76 50
135 55 130 13 -14 47 -125 54 -178 9 -68 -7 -131 -64 -255 -27 -58 -67 -149
-91 -202 -113 -260 -435 -776 -661 -1058 -130 -163 -379 -405 -529 -517 -270
-200 -514 -349 -815 -498 -299 -148 -431 -191 -745 -241 -167 -27 -420 -41
-514 -30 -32 4 -56 9 -54 11 1 2 54 8 115 14 117 12 143 18 143 31 0 14 -30
20 -164 35 -513 59 -818 141 -1161 312 -403 201 -660 469 -894 933 -118 233
-179 396 -253 675 -65 247 -64 245 -79 415 -21 234 -17 600 9 840 47 438 121
870 167 979 13 31 51 151 85 266 37 129 81 254 114 325 29 63 71 163 92 222
l39 106 120 32 c179 47 255 90 230 130 -13 22 -123 4 -274 -45 -21 -6 -16 8
54 141 92 176 118 216 178 271 59 54 81 65 212 102 241 69 343 160 164 147
-36 -2 -94 -12 -130 -21 -89 -23 -159 -34 -164 -24 -7 11 106 178 154 227 22
23 59 51 83 63 45 23 391 148 396 144 2 -2 -17 -43 -42 -93 -25 -49 -46 -97
-46 -106 0 -49 76 22 123 116 29 56 35 116 15 136 -34 34 -164 4 -321 -75
-117 -58 -130 -55 -79 22 84 124 182 236 387 440 270 271 538 499 773 659 135
92 105 46 -128 -198 -194 -203 -267 -306 -216 -306 7 0 84 75 171 166 229 240
474 439 652 531 46 24 88 43 93 43 5 0 -24 -52 -65 -114z m823 43 c17 -6 33
-18 37 -27 9 -22 19 -236 12 -255 -4 -11 -31 -9 -165 12 -88 14 -163 29 -166
32 -9 9 86 149 130 191 58 55 95 67 152 47z m329 -80 c105 -34 144 -62 177
-128 30 -58 76 -208 76 -245 0 -27 -2 -28 -33 -22 -19 3 -112 37 -208 74
l-174 68 -7 54 c-3 30 -6 97 -7 148 l-1 94 43 -7 c23 -4 83 -20 134 -36z m427
-156 c131 -65 195 -122 235 -207 33 -69 95 -255 89 -262 -3 -2 -86 35 -185 82
l-179 86 -53 170 c-29 93 -55 176 -58 185 -8 22 19 12 151 -54z m-5934 -4
c-31 -13 -268 -25 -257 -13 11 12 95 21 197 22 67 1 80 -1 60 -9z m516 -40
c199 -19 381 -64 372 -91 -2 -6 -41 -24 -86 -39 -46 -14 -105 -40 -133 -58
-67 -41 -121 -42 -206 -1 -36 16 -63 36 -63 44 0 16 54 35 105 37 43 1 78 13
83 27 5 15 -54 16 -129 2 -126 -25 -315 -9 -394 32 l-29 15 24 8 c104 33 274
42 456 24z m-874 -27 c24 -24 -135 -72 -242 -72 -59 0 -126 15 -135 30 -24 38
341 78 377 42z m302 -87 c48 -8 101 -21 119 -28 l31 -13 -104 -51 c-135 -66
-177 -77 -232 -62 -56 14 -219 99 -213 109 14 22 168 55 276 59 20 0 75 -6
123 -14z m1066 -26 c85 -19 343 -164 399 -223 31 -33 26 -77 -11 -90 -32 -11
-58 0 -158 69 -35 25 -109 68 -165 96 -187 96 -225 128 -172 149 29 12 53 12
107 -1z m5328 -43 c45 -39 172 -297 172 -351 0 -32 -16 -31 -71 3 -57 36 -93
102 -125 228 -37 146 -33 167 24 120z m-7175 3 c40 -6 76 -14 80 -19 8 -7
-141 -104 -243 -156 l-55 -29 -313 0 -314 0 136 66 c138 68 249 108 366 133
79 18 246 20 343 5z m1153 -54 c67 -19 88 -36 80 -62 -8 -25 -93 -85 -210
-148 l-89 -49 -51 27 c-76 40 -168 115 -164 135 8 40 214 110 329 111 30 1 78
-6 105 -14z m-833 -20 c84 -22 157 -61 157 -85 0 -29 -57 -79 -233 -202 -170
-120 -348 -258 -485 -376 -96 -83 -119 -90 -236 -73 -187 29 -196 27 -196 -35
0 -51 22 -58 208 -62 l163 -4 40 46 c44 50 118 112 297 249 l112 87 53 -26
c122 -62 200 -129 214 -183 5 -21 -1 -32 -39 -66 -52 -46 -83 -90 -73 -105 10
-16 20 -13 97 40 41 28 84 50 99 50 16 0 60 -23 108 -56 45 -30 101 -64 124
-75 50 -22 97 -25 97 -5 0 8 -57 69 -126 135 -70 67 -123 126 -118 130 7 6
240 185 332 254 9 8 68 -27 217 -128 113 -76 205 -142 205 -146 0 -4 -15 -19
-32 -34 -60 -49 -185 -175 -198 -200 -7 -14 -10 -28 -7 -31 11 -11 59 26 168
133 l107 104 93 -101 c52 -56 106 -120 122 -142 43 -65 38 -89 -49 -198 -77
-97 -134 -185 -134 -207 0 -7 11 -13 24 -13 18 0 55 33 148 134 l123 135 43
-67 c23 -37 68 -117 98 -178 l56 -110 -16 -37 c-41 -99 -169 -254 -214 -259
-24 -3 -27 -8 -30 -45 -4 -53 11 -83 43 -83 19 0 28 11 48 53 24 53 135 225
181 281 34 41 43 31 110 -119 66 -147 81 -199 72 -247 -12 -63 -155 -283 -180
-275 -6 2 -22 24 -36 49 -27 50 -58 88 -71 88 -5 0 -13 -9 -19 -20 -15 -27 2
-78 46 -146 39 -58 42 -86 15 -121 -27 -34 -45 -122 -31 -157 13 -36 29 -29
58 22 13 23 27 42 32 42 15 0 51 -131 57 -205 4 -67 3 -72 -33 -130 -83 -133
-93 -165 -57 -179 29 -12 52 5 91 65 22 33 42 57 45 52 11 -18 19 -133 13
-177 -5 -31 -26 -73 -65 -133 -69 -105 -177 -243 -191 -243 -17 0 -25 52 -24
148 2 101 -8 113 -39 50 -34 -68 -49 -174 -42 -286 l6 -102 -44 -43 c-55 -54
-93 -118 -118 -199 -10 -35 -19 -66 -19 -71 0 -4 35 31 78 77 l77 85 6 -62
c11 -110 -5 -184 -56 -270 -50 -82 -101 -133 -195 -193 -33 -21 -62 -46 -66
-56 -3 -10 6 -37 20 -61 31 -52 33 -85 7 -135 -10 -20 -23 -59 -30 -87 -14
-56 -57 -126 -142 -231 -66 -81 -174 -184 -193 -184 -16 0 -26 30 -26 76 0 40
-19 55 -73 61 -51 6 -80 -12 -224 -139 -126 -111 -209 -196 -200 -204 11 -11
142 58 276 146 l124 81 -5 -65 c-4 -46 -14 -79 -33 -112 -15 -25 -123 -144
-239 -263 -117 -119 -218 -226 -224 -238 -14 -25 -6 -53 15 -53 22 0 72 37
197 150 119 107 144 126 153 117 2 -3 7 -24 10 -46 10 -73 -3 -84 -432 -373
-277 -187 -360 -233 -550 -308 -394 -156 -869 -277 -1200 -305 -44 -4 -107
-16 -139 -27 -49 -16 -64 -17 -88 -7 -23 9 -50 9 -129 -1 -111 -15 -511 -9
-659 10 -243 31 -450 94 -685 210 -200 97 -343 192 -463 305 -196 184 -402
464 -525 710 -120 241 -178 528 -178 885 0 390 71 691 246 1045 193 389 404
719 652 1018 223 268 749 797 1064 1067 331 285 892 717 1107 853 157 99 211
126 296 144 122 25 586 21 586 -5 0 -4 -51 -39 -112 -77 -114 -71 -178 -120
-178 -136 0 -32 101 21 228 119 40 31 82 63 92 71 17 12 37 8 161 -34 77 -25
143 -44 147 -41 3 3 3 7 1 9 -2 2 -34 24 -70 50 -37 25 -70 54 -73 63 -11 29
33 64 170 130 178 86 212 94 307 69z m1352 0 c76 -20 230 -93 273 -129 17 -15
32 -37 32 -48 0 -26 -48 -70 -112 -102 -88 -44 -92 -42 -246 105 -75 72 -139
135 -140 140 -5 12 76 49 108 49 14 0 53 -7 85 -15z m5805 -175 c40 -64 200
-372 221 -427 18 -50 -103 80 -154 165 -58 96 -115 234 -123 298 -8 58 -3 55
56 -36z m-6054 34 c94 -64 260 -231 252 -254 -2 -5 -65 -56 -141 -115 -96 -74
-142 -104 -150 -97 -7 5 -95 73 -197 152 -102 78 -189 146 -193 150 -4 4 47
39 115 78 213 123 246 132 314 86z m-770 -31 c113 -78 137 -93 148 -93 7 0 21
-9 31 -20 18 -20 18 -21 -16 -56 -47 -50 -271 -224 -288 -224 -17 0 -281 139
-281 148 0 17 289 244 331 261 34 14 32 14 75 -16z m1722 -89 c3 -58 -11 -104
-32 -104 -46 0 -62 86 -25 134 33 41 53 30 57 -30z m-265 15 c30 -14 49 -52
39 -78 -12 -34 -175 -232 -183 -224 -4 4 -37 46 -73 93 -44 57 -61 87 -53 91
7 4 61 34 122 68 60 34 113 61 117 61 4 0 18 -5 31 -11z m5654 -183 c58 -88
131 -242 177 -374 41 -119 43 -132 17 -108 -25 23 -69 106 -145 278 -35 79
-84 188 -110 243 -45 98 -45 99 -15 65 17 -19 52 -66 76 -104z m-5508 9 c40
-34 65 -112 58 -179 -7 -56 -77 -286 -87 -286 -4 0 -20 24 -35 53 -16 28 -51
88 -78 132 -43 70 -48 83 -40 110 10 31 130 195 144 195 4 0 21 -11 38 -25z
m340 -62 c51 -102 92 -302 90 -445 -2 -143 -22 -65 -116 455 -7 38 3 34 26
-10z m-116 -26 c20 -62 21 -87 6 -87 -15 0 -39 64 -39 105 0 51 14 43 33 -18z
m-701 7 c55 -39 108 -107 108 -141 0 -32 -71 -131 -143 -202 -34 -32 -50 -41
-65 -37 -11 4 -71 59 -133 123 -106 110 -111 117 -93 131 79 57 242 152 263
152 14 0 42 -12 63 -26z m5920 -204 c83 -86 129 -187 184 -404 45 -180 60
-305 38 -313 -31 -11 -193 180 -225 266 -11 30 -31 127 -45 217 -14 89 -33
192 -43 228 -10 36 -16 68 -13 71 13 13 51 -11 104 -65z m-5240 -38 c43 -78
68 -166 68 -233 0 -79 -66 -299 -91 -299 -11 0 -71 101 -116 196 -56 116 -53
141 27 287 35 64 67 117 70 117 3 0 22 -31 42 -68z m-428 -102 c95 -126 105
-155 77 -234 -23 -67 -97 -190 -136 -226 l-26 -25 -20 25 c-42 54 -132 206
-147 248 -21 64 -6 101 88 215 44 53 82 97 84 97 3 0 39 -45 80 -100z m586
-290 c8 -38 11 -91 7 -143 -8 -116 -69 -317 -96 -317 -10 0 -37 69 -52 138
-10 39 -10 67 -1 113 11 62 104 269 120 269 5 0 15 -27 22 -60z m5409 -5 c27
-72 63 -215 100 -403 32 -159 38 -212 22 -212 -16 0 -61 66 -81 117 -47 125
-102 553 -71 553 5 0 19 -25 30 -55z m-5770 -108 c87 -168 88 -185 30 -300
-23 -45 -59 -110 -81 -145 -49 -76 -46 -78 -118 67 -99 198 -101 221 -31 356
57 109 99 167 117 163 7 -2 44 -65 83 -141z m531 -35 c0 -22 -26 -59 -35 -50
-6 6 21 68 30 68 3 0 5 -8 5 -18z m5520 -457 c24 -105 50 -280 50 -341 -1 -49
-1 -49 -15 -22 -33 59 -117 503 -114 595 1 33 50 -111 79 -232z m-5890 87 c11
-35 20 -76 20 -91 0 -44 -29 -131 -71 -211 -51 -98 -75 -128 -89 -114 -24 24
-54 131 -54 195 -1 59 4 76 43 153 24 48 58 106 74 129 28 39 30 40 44 21 7
-10 23 -47 33 -82z m175 -158 c-9 -41 -19 -74 -22 -74 -10 0 5 122 19 160 11
31 13 32 16 12 2 -13 -4 -57 -13 -98z m-402 -232 c47 -155 35 -223 -70 -390
-53 -85 -58 -84 -98 16 -33 81 -37 161 -11 212 41 80 141 250 147 250 3 0 18
-40 32 -88z m311 17 c-2 -105 -93 -359 -129 -359 -30 0 -38 49 -21 129 18 84
121 304 139 298 8 -2 12 -28 11 -68z m-215 -419 c24 -111 11 -154 -92 -308
l-62 -93 -9 71 c-10 82 1 145 40 230 36 77 84 150 99 150 8 0 18 -21 24 -50z
m6085 -55 c22 -68 26 -97 25 -190 -1 -61 -6 -162 -13 -225 l-11 -115 -33 84
c-20 50 -36 110 -39 150 -5 66 13 367 24 384 9 15 19 -4 47 -88z m-6109 -382
c-26 -70 -59 -150 -74 -178 -25 -49 -26 -49 -29 -21 -4 34 26 122 76 221 79
158 90 149 27 -22z m6072 -198 c34 -94 30 -204 -8 -289 -16 -34 -25 -33 -48 5
-44 72 -45 152 -4 384 l6 40 15 -35 c8 -19 26 -66 39 -105z m-6283 -121 c12
-30 6 -65 -24 -142 -35 -92 -160 -309 -220 -384 l-42 -53 4 95 c4 65 12 112
27 150 22 55 225 350 241 350 4 0 11 -7 14 -16z m6227 -328 c10 -54 10 -88 1
-160 -15 -114 -53 -283 -82 -360 -18 -48 -24 -56 -35 -45 -25 26 -45 121 -45
213 0 112 10 177 57 374 l37 153 27 -53 c15 -29 33 -84 40 -122z m-6211 -29
c0 -63 -120 -278 -263 -470 -57 -76 -77 -77 -58 -1 17 66 62 161 116 246 66
101 184 258 196 258 5 0 9 -15 9 -33z m-50 -325 c0 -34 -251 -452 -272 -452
-4 0 -10 9 -13 21 -5 14 5 45 28 93 77 155 257 392 257 338z m-398 -290 c-26
-102 -72 -192 -129 -253 -57 -61 -73 -63 -73 -6 0 51 46 152 98 217 58 71 115
131 119 126 3 -2 -4 -40 -15 -84z m-35 -334 c2 -43 -3 -63 -29 -108 -66 -118
-167 -250 -190 -250 -22 0 2 86 52 187 34 68 71 125 107 164 30 32 56 59 57
59 0 0 2 -24 3 -52z m-330 -358 c-7 -51 -62 -169 -117 -250 -60 -88 -200 -260
-211 -260 -28 0 25 191 73 267 37 59 236 283 251 283 5 0 7 -17 4 -40z"/>
<path d="M4502 12586 c-33 -30 -37 -40 -37 -81 0 -39 5 -51 28 -71 30 -26 83
-32 118 -14 51 28 66 134 24 175 -37 37 -86 34 -133 -9z"/>
<path d="M7510 12550 c-11 -11 -20 -28 -20 -38 0 -22 30 -52 53 -52 19 0 57
46 57 69 0 42 -56 55 -90 21z"/>
<path d="M7653 12372 c-31 -5 -109 -77 -121 -112 -23 -65 61 -105 138 -65 71
37 56 189 -17 177z"/>
<path d="M5893 12358 c-24 -12 -53 -64 -53 -96 0 -94 96 -137 161 -73 18 18
29 40 29 57 0 36 -35 91 -70 109 -33 17 -37 17 -67 3z"/>
<path d="M7650 11909 c0 -5 13 -37 28 -72 53 -115 113 -133 157 -46 15 28 14
31 -8 53 -25 25 -177 81 -177 65z"/>
<path d="M6443 11631 c-15 -19 -40 -33 -83 -44 -97 -27 -95 -64 4 -74 36 -4
60 -11 63 -20 3 -7 -2 -54 -11 -102 -26 -142 -20 -194 18 -152 23 25 42 92 51
174 4 36 13 74 19 82 8 11 35 19 74 24 102 12 103 40 3 55 -59 9 -81 22 -93
57 -12 35 -17 35 -45 0z"/>
<path d="M5243 11594 c-37 -19 -48 -41 -31 -61 9 -12 26 -14 67 -10 60 7 106
34 106 63 0 16 -9 19 -55 22 -35 1 -67 -4 -87 -14z"/>
<path d="M5698 11599 c-36 -13 -42 -35 -15 -54 29 -20 154 -20 206 1 49 20 59
41 25 54 -32 13 -181 12 -216 -1z"/>
<path d="M4302 11552 c-14 -39 -5 -77 25 -107 51 -50 113 -29 113 38 0 40 -57
97 -98 97 -24 0 -32 -6 -40 -28z"/>
<path d="M6881 11387 c-20 -25 -62 -130 -77 -193 -24 -105 -30 -117 -60 -110
-36 9 -119 -32 -100 -51 3 -3 26 -9 52 -14 73 -14 75 -18 68 -123 l-6 -91 33
40 c19 22 60 69 91 105 32 36 58 71 58 78 0 8 -9 26 -20 40 -20 24 -20 34 -14
172 7 145 1 178 -25 147z"/>
<path d="M5007 11233 c-73 -112 -84 -143 -48 -143 47 0 119 97 124 166 4 64
-24 56 -76 -23z"/>
<path d="M5390 11180 l-61 -81 31 -29 c22 -21 30 -37 30 -63 0 -20 4 -38 9
-41 9 -6 88 75 138 141 21 27 23 36 13 48 -7 8 -21 15 -31 15 -28 0 -61 37
-54 60 15 46 -19 24 -75 -50z"/>
<path d="M6007 11119 c-21 -5 -47 -14 -58 -19 -41 -22 -79 -133 -99 -290 -6
-47 -13 -97 -16 -112 l-6 -28 -104 0 c-114 0 -188 -19 -182 -48 4 -19 37 -30
100 -31 88 -2 146 -20 172 -54 24 -30 26 -31 44 -14 39 36 74 184 95 412 11
116 15 130 31 128 10 0 72 -7 137 -14 92 -10 124 -10 144 -1 38 18 30 53 -15
69 -41 14 -188 15 -243 2z"/>
<path d="M4683 10716 c-15 -13 -25 -27 -22 -31 9 -8 57 15 63 31 9 25 -12 25
-41 0z"/>
<path d="M6365 10689 c-45 -50 -69 -106 -89 -201 -20 -99 -32 -288 -18 -288
32 0 109 134 135 233 9 33 18 62 21 65 3 3 31 9 62 13 57 8 92 28 80 47 -3 6
-31 16 -61 22 -70 14 -86 35 -78 101 7 60 -3 62 -52 8z"/>
<path d="M5070 10702 c-45 -22 -97 -100 -105 -157 -8 -51 5 -99 28 -103 23 -5
40 34 46 108 l6 65 40 6 c47 6 73 19 100 49 19 22 19 22 0 36 -26 19 -73 18
-115 -4z"/>
<path d="M6923 10524 c-44 -20 29 -40 205 -56 126 -11 202 -6 202 12 0 6 -1
10 -2 10 -2 0 -41 7 -88 15 -91 16 -297 29 -317 19z"/>
<path d="M5392 10432 c-10 -10 -27 -50 -36 -88 -40 -159 -31 -144 -84 -144
-26 0 -67 -9 -91 -20 -55 -25 -125 -80 -114 -91 12 -11 311 -23 378 -14 41 5
65 14 81 30 32 32 22 53 -33 67 -25 6 -47 18 -51 26 -3 8 -6 67 -6 130 -1 122
-8 140 -44 104z"/>
<path d="M6787 10351 c-51 -67 -76 -120 -88 -189 -17 -95 -15 -92 -70 -92 -42
0 -55 -5 -80 -29 -42 -42 -39 -68 9 -76 20 -4 55 -12 77 -18 37 -11 40 -15 37
-46 -2 -33 11 -61 30 -61 5 0 30 20 56 44 56 52 77 63 119 64 48 1 128 50 111
68 -3 3 -48 12 -100 21 l-94 15 18 152 c10 83 17 161 16 174 -3 21 -7 18 -41
-27z"/>
<path d="M4340 10271 c-15 -29 -12 -77 6 -92 14 -11 20 -9 45 19 32 35 38 76
13 86 -29 11 -53 6 -64 -13z"/>
<path d="M4713 10221 c-18 -11 -39 -34 -48 -52 -15 -28 -15 -33 -2 -46 21 -22
70 -8 108 29 60 61 16 114 -58 69z"/>
<path d="M5925 10121 c-34 -15 -106 -100 -132 -156 -28 -62 -28 -122 -1 -139
26 -16 45 9 67 88 12 42 29 79 47 97 27 29 67 38 79 19 8 -13 86 -13 118 -1
27 11 57 38 57 52 0 28 -189 60 -235 40z"/>
<path d="M7229 9951 l-24 -19 26 -10 c57 -22 382 -42 423 -26 44 17 -5 39
-127 59 -51 8 -133 15 -183 15 -76 0 -96 -3 -115 -19z"/>
<path d="M12867 8053 c-4 -3 -7 -17 -7 -30 0 -29 2 -29 -220 3 -184 26 -251
28 -257 8 -6 -19 69 -42 250 -78 178 -36 217 -52 217 -89 0 -13 6 -32 14 -42
13 -18 14 -17 32 10 22 34 31 155 15 198 -10 26 -30 35 -44 20z"/>
<path d="M10991 7955 c-35 -31 -117 -150 -133 -195 -8 -26 -8 -35 5 -47 21
-22 47 -4 90 59 96 147 118 250 38 183z"/>
<path d="M12152 7926 c-8 -19 -46 -167 -67 -261 -4 -19 -12 -20 -252 -20 -136
0 -257 -4 -268 -9 -18 -7 -15 -10 20 -22 37 -13 358 -64 408 -64 54 -1 55 -8
20 -157 -13 -57 87 16 101 73 10 40 20 44 111 44 82 0 128 14 133 41 2 10 -23
23 -90 44 -112 36 -114 41 -64 154 41 90 45 137 15 175 -25 32 -52 33 -67 2z"/>
<path d="M13536 7935 c-12 -13 -16 -37 -16 -111 0 -109 -2 -111 -92 -69 -54
25 -93 32 -102 17 -7 -12 49 -63 116 -105 31 -20 62 -46 69 -59 8 -14 15 -79
19 -160 3 -88 9 -141 17 -149 7 -7 15 -10 19 -7 13 14 24 87 24 168 1 142 -8
139 138 53 142 -83 196 -104 215 -84 18 18 -57 82 -186 159 -140 83 -154 100
-161 199 -12 151 -25 183 -60 148z"/>
<path d="M10998 7653 c-42 -11 2 -66 53 -66 33 0 84 32 84 54 0 10 -16 14 -60
16 -33 0 -68 -1 -77 -4z"/>
<path d="M12834 7585 c-9 -14 -21 -47 -25 -73 -5 -26 -18 -60 -30 -75 -25 -34
-19 -74 17 -108 19 -18 37 -24 77 -25 37 -1 91 -16 182 -52 159 -62 189 -70
183 -51 -2 8 -86 52 -186 99 l-181 85 6 113 c5 99 4 112 -10 112 -9 0 -24 -11
-33 -25z"/>
<path d="M11335 7369 c-44 -91 -55 -141 -34 -155 26 -16 85 99 96 187 10 80
-13 69 -62 -32z"/>
<path d="M10855 7090 c-12 -19 22 -51 70 -66 28 -9 91 -18 141 -21 76 -5 92
-3 97 10 8 20 -7 31 -68 50 -110 34 -227 48 -240 27z"/>
<path d="M14006 7054 c-9 -23 -7 -87 3 -103 17 -27 41 -4 41 39 0 62 -29 104
-44 64z"/>
<path d="M13581 7009 c40 -60 234 -158 260 -132 8 8 3 18 -16 36 -46 42 -172
108 -217 115 l-43 5 16 -24z"/>
<path d="M11436 7001 c-17 -27 105 -71 196 -71 97 0 57 33 -80 64 -80 18 -108
20 -116 7z"/>
<path d="M11165 6944 c-40 -97 -73 -234 -55 -234 25 0 100 180 100 243 0 39
-27 34 -45 -9z"/>
<path d="M14466 6829 c-23 -37 -34 -108 -37 -246 -2 -128 4 -153 41 -153 30 0
40 54 40 225 0 120 -3 166 -14 180 -13 18 -14 17 -30 -6z"/>
<path d="M14052 6670 c-39 -16 -71 -124 -92 -311 -12 -101 -6 -142 19 -137 22
4 47 84 60 197 17 134 30 190 53 213 15 15 17 22 7 34 -13 16 -15 16 -47 4z"/>
<path d="M14337 6494 c-13 -13 -7 -41 14 -68 22 -28 59 -35 59 -11 0 20 -63
89 -73 79z"/>
<path d="M14557 6193 c-23 -22 35 -128 101 -186 45 -40 52 14 11 94 -38 75
-88 117 -112 92z"/>
<path d="M14433 6073 c-18 -41 -26 -234 -10 -249 21 -21 47 85 50 202 2 90
-13 108 -40 47z"/>
<path d="M14070 5957 c0 -27 19 -47 68 -71 61 -31 63 -1 3 62 -35 39 -71 43
-71 9z"/>
<path d="M10802 5730 c-46 -19 -57 -106 -17 -145 31 -32 56 -31 93 0 53 45 68
126 24 139 -44 12 -79 14 -100 6z"/>
<path d="M11532 5710 c-42 -26 -56 -62 -41 -107 14 -43 53 -89 91 -109 109
-57 146 133 42 215 -33 26 -50 26 -92 1z"/>
<path d="M9811 5526 c-24 -26 -46 -90 -36 -107 15 -23 75 58 75 100 0 30 -15
33 -39 7z"/>
<path d="M14560 5527 c0 -27 94 -137 117 -137 8 0 13 12 13 29 0 31 -43 77
-100 106 -25 13 -30 13 -30 2z"/>
<path d="M14389 5473 c-17 -46 -31 -182 -20 -201 8 -14 12 -11 27 23 21 49 32
205 15 205 -6 0 -16 -12 -22 -27z"/>
<path d="M10577 5333 c-23 -23 10 -83 45 -83 37 0 28 59 -12 80 -22 12 -25 12
-33 3z"/>
<path d="M13261 4933 c-5 -10 -25 -65 -45 -121 -46 -134 -48 -212 -5 -212 37
0 99 166 99 268 0 68 -27 104 -49 65z"/>
<path d="M11830 4913 c-44 -16 -52 -67 -15 -107 30 -32 39 -32 70 -1 53 52 13
132 -55 108z"/>
<path d="M14474 4895 c-14 -36 69 -150 104 -143 30 6 26 57 -7 111 -26 39 -36
47 -61 47 -18 0 -33 -6 -36 -15z"/>
<path d="M13387 4473 c-95 -191 -124 -283 -88 -283 17 0 52 43 81 100 56 111
99 290 70 290 -5 0 -34 -48 -63 -107z"/>
<path d="M10532 4548 c-42 -42 43 -158 116 -158 25 0 33 5 38 24 7 28 -16 78
-54 119 -28 29 -78 37 -100 15z"/>
<path d="M13777 4323 c-12 -21 -83 -197 -109 -273 -35 -104 -49 -210 -26 -210
50 0 109 166 133 374 12 107 13 127 2 109z"/>
<path d="M11655 3544 c-22 -8 -131 -40 -243 -69 -250 -67 -273 -78 -221 -106
45 -24 221 13 442 92 125 45 148 59 127 83 -15 20 -52 19 -105 0z"/>
<path d="M11515 3210 c-293 -76 -512 -150 -501 -169 10 -15 109 -22 181 -12
195 28 482 147 493 204 5 23 0 22 -173 -23z"/>
<path d="M11560 2774 c-306 -53 -573 -94 -617 -94 -44 0 -84 -20 -81 -39 5
-26 267 -21 431 8 235 41 538 122 583 156 18 13 16 14 -21 14 -22 0 -155 -20
-295 -45z"/>
<path d="M11985 2565 c-44 -7 -168 -31 -275 -53 -338 -70 -604 -106 -995 -133
-195 -14 -258 -26 -263 -52 -6 -29 71 -55 204 -69 117 -11 124 -11 364 26 285
44 474 81 690 137 252 65 410 125 395 149 -7 12 -18 12 -120 -5z"/>
<path d="M5809 7545 c-101 -71 -113 -72 -222 -34 -88 32 -99 33 -237 34 -115
0 -157 -4 -202 -19 -61 -20 -125 -66 -115 -83 13 -21 71 -23 141 -6 60 14 92
15 248 7 98 -6 182 -14 188 -20 19 -19 -26 -59 -304 -266 l-280 -209 -61 8
c-33 5 -121 8 -195 8 -151 -1 -241 -20 -350 -75 -67 -34 -130 -85 -130 -106 0
-18 -8 -18 155 6 96 15 174 20 266 18 l131 -3 -139 -111 c-76 -61 -175 -143
-220 -183 -77 -68 -153 -154 -153 -173 0 -36 92 31 404 295 121 102 230 191
243 198 20 11 28 10 53 -4 28 -17 31 -17 102 8 40 15 109 33 152 40 43 8 80
16 81 17 13 17 25 53 25 77 0 27 -3 31 -28 31 -16 0 -68 -13 -117 -30 -49 -16
-90 -28 -92 -27 -5 5 542 457 593 490 24 16 57 29 72 29 55 0 104 43 71 64 -6
3 -9 19 -5 35 3 16 2 29 -2 29 -5 0 -37 -20 -73 -45z"/>
<path d="M6162 7224 c-29 -20 -26 -58 4 -62 28 -4 56 24 52 52 -4 27 -27 31
-56 10z"/>
<path d="M6885 7171 c-92 -43 -297 -251 -247 -251 29 0 314 214 325 244 12 31
-20 34 -78 7z"/>
<path d="M7616 7079 c-46 -40 -82 -97 -69 -110 6 -6 32 6 71 35 82 60 106 106
57 106 -13 0 -40 -14 -59 -31z"/>
<path d="M7920 7064 c0 -33 107 -111 137 -100 12 5 12 10 -4 37 -34 59 -133
106 -133 63z"/>
<path d="M5496 6980 c-86 -11 -95 -72 -15 -104 51 -21 276 -66 326 -66 51 0
63 14 63 73 0 45 -2 49 -33 62 -56 23 -263 44 -341 35z"/>
<path d="M8232 6804 c-28 -19 -28 -30 0 -70 29 -43 58 -60 69 -42 16 25 10 87
-11 108 -24 24 -29 24 -58 4z"/>
<path d="M7352 6768 c-63 -44 -185 -239 -167 -268 11 -18 40 6 104 89 104 135
119 135 250 6 94 -92 121 -110 121 -81 0 47 -219 276 -264 276 -6 0 -26 -10
-44 -22z"/>
<path d="M8069 6748 c-83 -65 -228 -214 -235 -243 -16 -65 24 -72 89 -15 76
67 212 237 219 274 6 33 -18 28 -73 -16z"/>
<path d="M7895 6210 c-8 -13 15 -53 79 -138 31 -41 56 -79 56 -85 0 -33 23
-88 41 -97 45 -25 99 32 99 103 0 37 -1 38 -29 32 -25 -5 -33 -1 -62 36 -58
73 -145 159 -162 159 -9 0 -19 -4 -22 -10z"/>
<path d="M8600 5741 c-83 -26 -151 -81 -193 -155 -12 -22 -27 -41 -34 -43 -7
-3 -21 13 -32 35 -19 38 -43 57 -55 45 -9 -9 -7 -73 5 -121 7 -34 6 -50 -5
-73 -14 -29 -14 -30 10 -39 66 -25 104 4 155 118 45 99 96 170 145 198 24 14
41 30 38 35 -3 5 -6 9 -7 8 -1 0 -13 -4 -27 -8z"/>
<path d="M5051 5491 c-27 -25 -30 -33 -21 -50 25 -47 85 -53 109 -10 12 22 12
29 0 55 -19 40 -49 41 -88 5z"/>
<path d="M6900 5415 c-17 -21 -7 -41 27 -52 33 -12 73 0 73 21 0 40 -74 63
-100 31z"/>
<path d="M7152 5364 c-50 -35 -68 -122 -34 -164 12 -15 33 -24 63 -27 38 -4
50 -1 77 22 74 62 39 185 -53 185 -17 0 -41 -7 -53 -16z"/>
<path d="M5925 5255 c-40 -20 -92 -80 -100 -115 -12 -56 55 -160 103 -160 20
0 84 40 125 78 35 33 35 66 -2 123 -26 41 -74 89 -90 89 -3 0 -19 -7 -36 -15z"/>
<path d="M8031 5141 c-22 -22 -19 -51 5 -51 18 0 38 50 25 63 -5 5 -17 1 -30
-12z"/>
<path d="M8298 4933 c-35 -36 -42 -78 -13 -78 24 0 48 45 43 81 l-3 26 -27
-29z"/>
<path d="M6310 4760 c0 -33 39 -189 55 -221 17 -32 22 -34 48 -15 37 28 16
110 -55 214 -31 45 -48 53 -48 22z"/>
<path d="M4607 4734 c-4 -4 -5 -40 -1 -80 8 -83 7 -84 -84 -103 -29 -6 -66
-18 -82 -26 -28 -15 -60 -60 -60 -86 0 -32 217 34 268 82 26 24 28 64 7 135
-16 56 -37 89 -48 78z"/>
<path d="M5085 4653 c-16 -2 -54 -9 -84 -14 l-54 -11 7 -87 c9 -115 26 -185
48 -189 25 -5 33 41 20 108 -7 31 -12 68 -12 83 0 28 0 28 127 57 53 12 80 31
68 50 -6 10 -58 11 -120 3z"/>
<path d="M8053 4600 c-88 -50 -214 -193 -191 -216 16 -15 85 23 148 82 37 35
72 64 77 64 5 0 17 -40 27 -89 17 -85 37 -131 56 -131 23 0 43 68 48 166 5
100 4 103 -21 128 -35 35 -78 34 -144 -4z"/>
<path d="M3926 4549 c-3 -17 -6 -42 -6 -56 0 -39 -28 -82 -68 -102 -20 -10
-45 -28 -55 -39 -18 -20 -18 -21 5 -36 63 -41 163 -24 193 35 21 39 19 49 -17
137 -39 96 -44 101 -52 61z"/>
<path d="M5264 4309 c-66 -20 -90 -40 -80 -64 8 -21 46 -19 120 9 70 27 116
53 116 67 0 16 -93 9 -156 -12z"/>
<path d="M4306 4298 c-10 -13 -16 -43 -16 -74 0 -49 -2 -53 -34 -72 -39 -23
-71 -66 -61 -82 11 -17 86 -11 131 10 49 24 78 63 71 94 -9 38 -56 141 -65
144 -6 2 -17 -7 -26 -20z"/>
<path d="M7277 4313 c-22 -21 4 -146 39 -184 38 -42 124 -11 124 44 0 28 -45
94 -85 125 -27 21 -65 29 -78 15z"/>
<path d="M4807 4246 c-79 -29 -114 -89 -104 -179 15 -120 87 -132 87 -13 0 24
3 51 6 60 3 9 40 37 81 62 89 56 94 78 18 81 -28 2 -67 -4 -88 -11z"/>
<path d="M5066 4074 c-3 -9 -6 -34 -6 -57 0 -50 -6 -59 -46 -80 -17 -9 -34
-23 -37 -31 -9 -22 19 -39 49 -32 38 10 65 -12 103 -84 43 -81 59 -70 45 31
-9 67 -9 72 11 79 102 38 120 47 123 64 3 16 -4 17 -84 14 l-89 -3 -11 47 c-7
26 -15 52 -19 58 -9 15 -32 12 -39 -6z"/>
<path d="M7923 4069 c-56 -36 -56 -79 1 -79 46 0 88 34 84 69 -4 34 -41 39
-85 10z"/>
<path d="M3745 4071 c-12 -5 -27 -17 -35 -26 -13 -15 -12 -19 5 -31 43 -32
100 -9 93 38 -3 25 -29 33 -63 19z"/>
<path d="M4586 3875 c-124 -44 -192 -168 -148 -268 24 -54 39 -65 60 -43 21
21 22 117 2 163 -13 29 -12 34 4 51 9 11 37 23 62 27 46 7 119 58 108 76 -8
13 -43 10 -88 -6z"/>
<path d="M4044 3823 c-16 -21 -34 -44 -41 -51 -28 -29 40 -81 89 -68 22 5 59
51 74 90 6 15 4 17 -15 11 -17 -5 -25 0 -39 24 -9 17 -22 31 -28 31 -7 0 -24
-17 -40 -37z"/>
<path d="M7644 3805 c-30 -30 -68 -111 -59 -125 3 -6 20 -10 36 -10 21 0 32
-7 41 -24 12 -28 55 -49 89 -44 23 3 23 5 20 103 -1 55 -7 106 -13 113 -19 22
-86 15 -114 -13z"/>
<path d="M7972 3750 c-70 -47 -142 -122 -142 -148 0 -24 31 -52 57 -52 37 0
183 181 183 228 0 23 -37 12 -98 -28z"/>
<path d="M5540 3723 c-121 -19 -228 -61 -214 -84 20 -33 334 44 334 81 0 10
-69 11 -120 3z"/>
<path d="M4831 3663 c-9 -35 -25 -59 -57 -90 -25 -23 -43 -47 -39 -53 10 -17
83 -11 200 15 136 31 167 43 163 64 -3 13 -19 16 -98 16 l-95 0 -23 48 c-12
26 -26 47 -30 47 -4 0 -14 -21 -21 -47z"/>
<path d="M4375 3495 c-65 -15 -117 -38 -134 -58 -12 -15 -10 -17 26 -17 57 0
136 26 162 54 29 30 13 37 -54 21z"/>
<path d="M3767 3374 c-36 -11 -47 -19 -45 -32 2 -12 15 -18 46 -20 91 -7 201
34 161 59 -21 13 -108 10 -162 -7z"/>
<path d="M4482 2640 c-12 -5 -66 -9 -120 -8 -108 1 -162 -16 -162 -52 0 -45
95 -52 266 -19 120 23 187 46 181 63 -7 22 -122 33 -165 16z"/>
<path d="M4605 2385 c-261 -27 -308 -38 -313 -74 -6 -39 21 -51 115 -51 92 0
193 18 323 56 165 50 223 87 139 90 -19 1 -137 -9 -264 -21z"/>
<path d="M16210 9474 c0 -27 83 -295 163 -524 120 -347 245 -641 482 -1140
129 -273 167 -360 206 -471 26 -76 183 -463 281 -691 12 -27 27 -48 36 -48 31
0 -5 131 -193 690 -174 517 -314 883 -454 1187 -66 144 -496 992 -510 1006 -8
8 -11 5 -11 -9z"/>
</g>
</svg>
