<?xml version="1.0" standalone="no"?>
<!DOCTYPE svg PUBLIC "-//W3C//DTD SVG 20010904//EN"
 "http://www.w3.org/TR/2001/REC-SVG-20010904/DTD/svg10.dtd">
<svg version="1.0" xmlns="http://www.w3.org/2000/svg"
 width="3000.000000pt" height="2000.000000pt" viewBox="0 0 3000.000000 2000.000000"
 preserveAspectRatio="xMidYMid meet">

<g transform="translate(0.000000,2000.000000) scale(0.100000,-0.100000)"
fill="#000000" stroke="none">
<path d="M19155 16775 c-49 -13 -173 -53 -275 -88 -616 -214 -1028 -403 -1605
-736 -344 -199 -560 -342 -1085 -717 -817 -582 -1031 -758 -1475 -1211 -448
-457 -1045 -1054 -1160 -1158 -175 -160 -364 -295 -595 -425 -122 -69 -213
-125 -435 -270 -172 -113 -315 -197 -315 -187 0 3 46 45 103 93 158 136 430
408 636 635 203 224 559 604 771 824 146 151 519 548 639 679 176 194 308 361
433 549 147 223 183 307 153 353 -27 42 -75 33 -258 -50 -89 -41 -191 -86
-227 -101 -272 -114 -622 -359 -901 -632 -187 -183 -620 -635 -696 -728 -82
-98 -310 -407 -448 -605 -261 -374 -747 -1008 -976 -1272 -162 -186 -265 -279
-434 -394 -311 -211 -540 -336 -1024 -559 -723 -334 -974 -476 -1821 -1034
-239 -158 -478 -313 -530 -345 -74 -46 -529 -327 -1050 -649 l-35 -22 20 26
c11 15 69 85 129 155 205 244 339 435 511 734 114 197 164 259 239 294 28 14
131 44 227 66 520 125 1004 282 1295 420 206 97 395 216 683 428 129 95 403
357 487 467 30 39 70 90 90 115 40 51 146 235 223 388 40 79 62 142 95 275 55
215 77 358 77 500 1 294 -55 481 -212 713 -94 138 -155 203 -292 312 -150 119
-192 146 -300 196 -177 82 -382 122 -577 111 -276 -15 -490 -79 -815 -245
-437 -222 -648 -410 -917 -819 -59 -89 -201 -374 -258 -516 -92 -229 -198
-530 -224 -632 -77 -307 -123 -820 -96 -1078 24 -237 79 -505 126 -617 46
-109 33 -145 -152 -434 -58 -91 -137 -218 -176 -282 -86 -143 -235 -359 -322
-468 -94 -118 -330 -359 -491 -502 -175 -156 -435 -364 -815 -652 -162 -123
-371 -284 -465 -359 -168 -133 -867 -729 -1038 -884 -48 -44 -89 -78 -91 -76
-2 2 25 47 59 99 76 115 173 283 341 592 151 276 209 370 261 419 43 41 51 47
613 466 509 379 550 414 824 683 351 345 638 683 886 1045 53 77 132 192 177
255 94 133 183 298 183 338 0 29 -24 72 -41 72 -33 0 -705 -478 -964 -685
-205 -165 -524 -494 -805 -830 -92 -110 -187 -218 -211 -240 l-42 -40 25 45
c211 372 380 694 427 810 16 41 45 109 64 150 19 41 51 127 71 190 20 63 43
135 52 160 8 25 41 124 73 220 86 257 202 587 259 735 27 72 53 141 57 155 4
14 17 48 30 75 34 73 176 460 224 607 41 126 50 193 31 227 -26 49 -75 31
-128 -46 -22 -32 -111 -143 -198 -248 -429 -517 -901 -1131 -963 -1252 -11
-23 -26 -45 -32 -48 -26 -17 -197 -311 -301 -520 -31 -61 -89 -209 -131 -335
-114 -339 -153 -505 -332 -1420 -102 -525 -152 -703 -255 -919 -156 -323 -385
-596 -956 -1141 -164 -157 -458 -445 -654 -641 -195 -196 -483 -477 -640 -625
-157 -147 -475 -457 -706 -689 -323 -322 -433 -438 -473 -498 -61 -94 -66
-116 -18 -90 17 10 266 250 552 534 286 283 642 630 790 770 149 139 446 425
661 634 215 209 439 423 499 475 264 230 600 570 730 740 48 62 71 69 41 12
-8 -15 -85 -127 -171 -248 -196 -274 -224 -325 -161 -296 31 14 171 131 329
275 70 64 209 185 310 269 100 83 227 191 282 238 268 231 647 533 990 790
565 422 716 547 1022 843 89 86 164 157 167 157 3 0 3 -7 0 -15 -10 -25 16
-47 48 -41 16 3 117 55 226 114 108 60 258 142 332 182 251 135 1079 643 1310
804 144 101 467 304 740 466 151 90 316 188 365 217 96 58 427 223 560 280 86
37 255 124 510 263 88 48 214 115 280 149 120 60 197 109 436 273 179 123 260
169 654 363 383 190 612 316 895 493 102 64 230 140 285 170 140 75 337 208
479 323 173 140 345 306 731 704 696 717 969 984 1218 1185 302 245 982 739
1392 1011 150 100 581 361 760 461 159 89 513 268 646 326 319 141 906 362
962 362 29 0 16 -31 -46 -101 -21 -24 -72 -87 -114 -139 -42 -52 -178 -197
-302 -321 -168 -167 -262 -253 -366 -331 -296 -222 -850 -609 -1073 -748 -57
-36 -261 -169 -454 -297 -385 -255 -486 -310 -688 -373 -247 -76 -621 -236
-711 -303 -54 -39 -39 -10 24 49 127 119 525 418 935 702 262 181 223 156
1059 677 348 217 677 423 732 459 97 64 216 164 207 173 -7 7 -145 -72 -468
-269 -156 -94 -537 -324 -848 -511 -311 -187 -617 -373 -680 -415 -267 -173
-654 -459 -1085 -802 -143 -114 -395 -310 -560 -436 -281 -214 -644 -508 -660
-534 -28 -45 67 9 295 168 147 103 179 120 139 76 -15 -16 -43 -55 -63 -86
-40 -63 -94 -104 -386 -291 -167 -107 -311 -220 -468 -368 -48 -45 -148 -127
-222 -183 -158 -119 -752 -492 -1003 -630 -80 -44 -132 -88 -153 -127 -39 -76
-5 -88 158 -54 161 33 211 50 503 175 132 56 350 146 485 200 135 54 310 125
390 158 80 33 156 62 170 66 59 16 -69 -42 -510 -229 -374 -158 -772 -339
-800 -362 -11 -10 28 -23 62 -21 21 1 41 -1 44 -5 4 -4 -9 -7 -28 -7 -51 0
-314 -53 -476 -95 -276 -73 -519 -165 -908 -343 -283 -130 -883 -421 -954
-462 -207 -120 -570 -346 -872 -544 -372 -244 -716 -458 -998 -621 -422 -245
-753 -464 -758 -504 -6 -37 11 -44 60 -28 94 32 506 80 1008 117 372 27 748
58 845 70 44 5 150 14 235 20 293 21 591 51 643 66 13 4 17 -1 17 -21 0 -23 8
-30 62 -53 l62 -27 -44 -7 c-25 -3 -97 -7 -160 -7 -64 -1 -192 -7 -285 -15
-94 -8 -316 -17 -495 -21 -522 -9 -923 -33 -1370 -80 -267 -29 -503 -76 -647
-130 -89 -34 -413 -207 -598 -320 -82 -51 -206 -125 -275 -166 -372 -220
-1473 -985 -2352 -1635 -587 -435 -939 -722 -1312 -1072 -194 -183 -229 -224
-218 -265 7 -26 60 -47 119 -47 67 0 281 33 528 80 222 43 691 115 836 129 71
7 93 13 130 38 24 17 59 38 77 47 32 16 32 16 32 -7 0 -19 -13 -30 -72 -58
-56 -26 -79 -44 -104 -79 -35 -50 -24 -48 -189 -35 -69 6 -126 2 -245 -14
-188 -26 -596 -94 -740 -122 -166 -33 -451 -108 -499 -132 -48 -24 -660 -480
-786 -586 -44 -37 -150 -123 -235 -191 -214 -170 -480 -413 -822 -749 -109
-107 -200 -192 -203 -190 -2 3 16 36 41 74 52 76 527 556 762 769 176 160 228
214 214 228 -20 20 -79 -26 -233 -181 -85 -86 -202 -195 -260 -243 -57 -49
-158 -148 -225 -220 -67 -75 -173 -176 -240 -231 -174 -142 -224 -193 -224
-228 0 -31 27 -49 73 -49 17 0 -3 -26 -95 -120 -117 -122 -176 -195 -165 -206
6 -6 103 65 228 167 78 64 209 181 461 414 213 198 507 462 652 588 422 366
982 820 1086 880 94 54 551 149 1070 222 266 38 410 46 448 26 12 -6 47 -44
78 -84 83 -106 128 -151 236 -237 187 -150 484 -339 561 -356 18 -3 44 -17 59
-29 15 -12 44 -26 65 -29 21 -4 72 -18 113 -31 142 -47 453 -99 775 -131 282
-28 768 -6 1025 46 215 43 491 127 562 170 18 11 43 20 55 20 36 0 328 152
463 241 284 186 578 447 695 617 28 40 76 109 108 155 172 242 256 526 226
768 -29 239 -143 458 -352 676 -97 101 -219 178 -366 230 -53 19 -110 40 -128
49 -51 23 -239 62 -405 83 -536 69 -1045 44 -1470 -73 -158 -43 -225 -70 -419
-167 -261 -130 -487 -268 -816 -497 -255 -178 -317 -228 -454 -368 -204 -210
-361 -409 -482 -610 -37 -61 -72 -116 -79 -121 -7 -6 -74 -18 -148 -28 -205
-25 -640 -93 -775 -121 -286 -59 -385 -77 -392 -71 -10 11 26 45 292 280 295
258 717 600 970 783 1789 1296 2944 2054 3410 2239 202 80 412 120 860 163
214 21 364 30 525 31 532 4 1089 28 1180 50 19 5 89 9 155 10 66 0 177 6 247
12 70 6 142 9 160 5 51 -9 451 -242 826 -480 755 -478 834 -512 1553 -665 203
-43 822 -219 904 -256 76 -35 583 -164 765 -195 310 -53 434 -59 1325 -65 325
-2 688 -7 807 -10 119 -4 242 -4 272 0 53 6 86 24 86 46 0 20 -110 59 -335
119 -126 34 -351 95 -500 135 -581 159 -1131 287 -1995 465 -390 81 -591 128
-847 201 -241 68 -657 208 -943 316 -129 50 -295 111 -367 138 -73 26 -133 50
-133 52 0 2 15 1 33 -1 735 -123 1515 -247 1662 -265 264 -33 746 -44 940 -21
44 6 148 14 230 20 83 5 168 16 191 23 22 8 51 13 65 11 13 -3 49 2 79 11 30
8 102 26 160 40 58 15 168 41 245 60 159 39 505 115 829 181 120 24 226 48
235 53 9 5 59 18 113 30 197 42 592 142 619 157 49 25 33 53 -45 75 -17 5
-170 25 -341 45 -170 19 -452 55 -625 79 -298 42 -602 79 -860 107 -159 16
-941 17 -1130 0 -177 -15 -493 -62 -950 -141 -819 -142 -1007 -169 -1225 -181
-218 -11 -497 2 -820 39 -148 16 -322 33 -385 37 -136 8 -178 19 -110 28 290
37 746 74 1440 116 184 11 355 22 380 25 68 8 266 34 340 45 135 19 517 146
1090 363 124 47 313 115 420 152 572 196 782 287 873 378 16 16 17 21 6 28
-19 12 -357 11 -619 -1 -1041 -49 -1370 -85 -1805 -197 -141 -36 -605 -189
-855 -281 -238 -88 -988 -341 -1205 -407 -609 -184 -721 -202 -1665 -265 -250
-17 -507 -35 -570 -40 -63 -6 -185 -15 -270 -20 -262 -18 -594 -53 -800 -86
l-35 -6 35 25 c57 40 479 292 550 328 165 84 565 328 1160 708 468 299 552
349 795 479 353 187 1131 549 1375 640 158 58 480 162 595 190 196 49 324 66
505 66 162 0 186 -2 315 -32 122 -28 784 -130 1240 -191 211 -29 384 -75 462
-124 57 -36 144 -79 268 -132 61 -25 133 -57 160 -70 28 -13 125 -57 217 -99
366 -166 909 -458 1484 -799 246 -145 505 -288 738 -406 300 -152 549 -271
565 -271 7 0 64 -24 125 -54 305 -149 730 -293 1005 -341 117 -21 168 -20 180
3 14 26 -4 48 -97 124 -42 34 -160 132 -262 218 -307 260 -593 467 -858 624
-208 123 -678 351 -1007 489 -154 64 -593 229 -790 297 -77 26 -268 93 -425
148 -260 92 -734 240 -870 272 -30 7 -73 21 -95 31 l-40 18 80 -5 c44 -3 132
-9 195 -14 260 -21 747 -33 852 -21 57 6 179 16 272 21 92 6 205 18 250 26 44
8 110 18 146 20 l65 6 165 -124 c361 -268 551 -381 1399 -832 151 -80 284
-146 295 -146 12 0 45 -11 74 -25 123 -57 549 -181 907 -264 222 -51 1062
-220 1574 -316 222 -42 487 -93 590 -114 235 -49 284 -56 310 -41 26 13 27 51
4 72 -10 8 -76 45 -146 82 -70 36 -171 93 -225 125 -100 61 -346 195 -582 319
-280 147 -678 308 -977 397 -156 46 -357 92 -658 150 -325 63 -564 116 -785
175 -102 27 -198 52 -215 56 -16 4 -36 11 -43 17 -7 5 -63 25 -125 43 -136 39
-909 299 -1137 382 -248 90 -280 103 -280 112 0 30 543 64 805 50 220 -11 489
-68 746 -155 365 -125 760 -250 904 -285 88 -22 293 -66 455 -99 588 -119 880
-184 1135 -251 592 -155 994 -236 1299 -261 67 -5 353 -12 636 -14 950 -10
1639 30 2072 120 102 21 263 72 321 101 48 25 79 66 61 84 -5 5 -65 31 -134
58 -69 28 -173 70 -231 95 -121 52 -671 263 -739 284 -154 48 -518 116 -735
138 -83 8 -251 27 -375 41 l-224 26 -686 -6 c-377 -2 -755 -9 -840 -14 -722
-45 -938 -54 -1300 -52 -386 1 -480 10 -900 81 -129 22 -345 58 -480 79 -660
103 -837 123 -899 102 -20 -7 -40 -8 -54 -2 -12 5 -18 9 -12 9 5 1 86 12 180
25 93 14 211 29 260 36 50 6 203 29 340 50 138 22 309 50 380 61 72 11 193 37
270 56 l139 36 66 -17 c36 -9 102 -27 146 -40 148 -44 695 -147 944 -178 167
-20 702 -17 873 5 75 10 162 25 192 32 42 11 72 12 132 5 43 -5 260 -24 483
-41 l405 -31 615 5 c709 6 900 19 1235 83 531 102 905 228 1625 547 372 165
575 250 742 310 163 59 516 168 638 197 128 31 149 39 167 67 30 46 17 48
-325 48 -315 0 -469 -5 -777 -25 -146 -10 -231 -18 -635 -66 -74 -8 -223 -31
-330 -51 -107 -19 -250 -43 -317 -54 -381 -60 -720 -148 -1298 -339 -384 -126
-625 -197 -960 -282 -247 -62 -482 -118 -500 -117 -5 0 44 28 111 62 196 101
342 205 480 342 131 131 195 219 274 380 90 185 95 205 94 415 0 159 -3 196
-22 265 -33 121 -86 220 -154 287 -60 60 -67 73 -45 81 6 3 352 3 767 0 722
-5 1237 4 1535 27 66 4 197 14 290 20 242 16 901 76 1155 106 412 48 651 94
980 189 102 30 231 65 286 79 156 39 329 94 674 214 399 139 473 168 510 199
53 44 42 53 -90 82 -107 23 -572 76 -795 91 -477 31 -1026 41 -1505 27 -303
-9 -393 -16 -760 -58 -470 -53 -752 -101 -1305 -219 -176 -38 -358 -76 -405
-85 -198 -39 -500 -119 -706 -189 -267 -90 -366 -131 -593 -247 -95 -49 -181
-89 -191 -89 -10 0 -23 7 -30 15 -38 46 -403 223 -575 279 -95 31 -397 100
-510 116 -44 7 -87 14 -95 17 -28 10 104 40 1135 260 143 30 298 66 345 80 47
14 130 35 186 48 55 13 282 71 505 129 222 58 692 176 1044 262 352 85 656
164 676 174 19 10 71 28 115 39 151 42 721 264 874 341 174 88 320 191 340
241 12 29 12 33 -8 49 -31 26 -129 33 -356 25 -412 -13 -881 -47 -1308 -95
-472 -54 -978 -171 -1443 -337 -38 -13 -113 -38 -165 -55 -121 -39 -840 -320
-985 -386 -583 -262 -1088 -506 -1295 -624 -152 -86 -156 -87 -347 -89 -230
-1 -425 -15 -638 -45 -247 -35 -339 -56 -561 -129 -440 -146 -721 -286 -1019
-509 -149 -112 -385 -346 -488 -484 -62 -83 -187 -278 -199 -312 -2 -5 -65
-16 -140 -24 -77 -9 -205 -33 -288 -55 -82 -21 -150 -37 -150 -35 0 2 18 33
40 69 66 109 128 240 157 332 26 83 27 99 27 288 1 177 -2 210 -22 283 -38
141 -75 206 -179 315 -126 132 -126 139 12 185 55 19 249 86 430 149 632 222
862 291 1340 403 99 23 209 50 245 60 36 11 135 37 220 59 177 46 506 156 719
240 308 123 893 362 1041 426 284 123 395 190 388 237 -5 37 -50 50 -192 56
-136 5 -698 -11 -986 -29 -278 -17 -669 -74 -954 -139 -385 -88 -988 -289
-1406 -468 -313 -133 -356 -153 -592 -270 -199 -98 -267 -139 -543 -324 l-316
-211 -114 27 c-188 44 -314 58 -532 60 -111 1 -205 4 -208 8 -12 12 274 193
587 372 320 182 459 271 738 471 504 360 855 652 1071 887 103 110 323 383
351 433 25 44 23 100 -4 119 -28 20 -24 20 -133 -9z m8095 -912 c-1 -13 -122
-100 -205 -147 -191 -109 -876 -362 -1195 -441 -80 -19 -208 -53 -285 -75 -77
-21 -214 -55 -305 -75 -91 -20 -185 -43 -210 -52 -25 -8 -128 -33 -230 -54
-203 -43 -401 -96 -820 -219 -151 -45 -313 -90 -360 -100 -47 -10 -164 -38
-260 -63 -96 -25 -267 -65 -380 -88 -113 -22 -308 -65 -434 -95 -214 -51 -378
-84 -414 -84 -23 0 132 74 286 136 73 30 150 63 170 73 50 26 734 250 962 316
102 29 282 82 400 118 583 178 845 245 1600 407 418 90 732 165 760 181 28 16
-55 10 -202 -16 -158 -27 -621 -120 -793 -160 -60 -14 -208 -45 -328 -70 -120
-24 -221 -47 -225 -49 -5 -3 -64 -16 -132 -30 -298 -61 -1008 -262 -1520 -431
-485 -160 -612 -207 -772 -281 -76 -35 -189 -85 -252 -110 -63 -25 -147 -65
-188 -90 -40 -24 -85 -44 -100 -44 -75 0 -55 15 144 112 276 135 1035 480
1293 588 269 112 869 343 960 369 39 11 136 43 216 70 731 249 1496 372 2504
400 160 4 296 9 303 9 6 1 12 -1 12 -5z m-5117 -119 c20 -4 37 -10 37 -14 0
-3 -42 -22 -92 -42 -51 -20 -271 -112 -490 -206 -682 -293 -1212 -484 -1623
-583 -115 -29 -337 -82 -492 -120 -315 -77 -550 -151 -973 -306 -439 -161
-518 -189 -612 -212 -47 -11 -92 -23 -100 -26 -8 -3 -27 4 -42 16 -23 18 -25
24 -14 34 29 28 1033 526 1158 575 206 81 667 231 935 305 132 36 308 86 390
110 83 24 285 78 450 121 165 42 307 81 315 86 74 46 -984 -198 -1380 -317
-443 -135 -718 -233 -1010 -362 -253 -111 -795 -379 -881 -434 -66 -43 -97
-47 -147 -20 l-33 17 114 82 c137 98 345 229 493 312 259 145 798 393 1096
504 755 281 1247 396 1958 457 221 18 872 34 943 23z m-7384 -806 c-150 -223
-483 -639 -547 -684 -12 -8 -29 -30 -38 -47 -10 -18 -85 -102 -168 -187 -84
-85 -210 -218 -281 -295 -72 -77 -202 -216 -290 -310 -266 -282 -282 -300
-550 -621 -142 -170 -311 -361 -375 -425 -252 -249 -615 -532 -800 -624 -54
-26 -50 -22 121 152 166 167 384 409 704 778 76 88 198 225 270 305 72 80 201
224 286 320 259 292 657 715 1006 1071 90 91 163 170 163 177 0 23 -19 20 -61
-10 -97 -69 -1277 -1263 -1505 -1523 -43 -49 -146 -164 -228 -255 -82 -91
-219 -255 -306 -365 -194 -246 -271 -338 -368 -438 -166 -170 -63 -13 144 218
152 171 505 643 704 940 242 363 611 791 988 1146 100 94 182 175 182 180 0
10 152 126 325 246 77 54 161 104 205 121 41 17 154 66 250 109 185 85 203 92
208 87 2 -1 -15 -31 -39 -66z m13881 -315 c189 -4 362 -17 645 -48 259 -29
278 -32 270 -45 -8 -13 -177 -67 -690 -220 -640 -192 -657 -196 -960 -254
-290 -55 -861 -131 -1285 -171 -80 -8 -233 -23 -340 -34 -209 -22 -644 -49
-880 -56 -697 -19 -1658 -16 -1645 5 3 5 24 11 48 15 23 4 143 36 267 72 496
143 979 236 1770 342 398 53 1287 117 1955 141 301 11 359 16 349 31 -10 17
-975 2 -1314 -21 -438 -29 -614 -43 -734 -56 -72 -8 -171 -19 -221 -24 -302
-29 -848 -106 -1155 -161 -395 -72 -969 -228 -1124 -306 -75 -38 -128 -55
-124 -40 7 21 276 153 398 196 63 22 192 66 285 99 246 87 821 224 1560 373
234 47 691 112 975 138 100 9 363 24 610 35 78 4 1089 -5 1340 -11z m-11636
-264 c231 -34 475 -103 611 -172 82 -41 154 -98 264 -208 134 -135 178 -235
201 -449 28 -268 0 -406 -127 -618 -147 -249 -418 -514 -698 -685 -108 -65
-281 -153 -402 -203 -248 -103 -641 -208 -933 -249 -320 -44 -825 5 -1267 125
-46 12 -83 26 -83 30 0 14 102 52 156 57 46 5 53 8 51 26 -4 37 109 87 128 57
3 -5 16 -15 27 -21 19 -11 21 -9 15 18 -3 18 0 41 9 57 8 16 14 30 14 33 0 10
-88 43 -117 43 -32 0 -43 -12 -23 -25 20 -13 9 -36 -32 -66 -30 -21 -50 -29
-65 -25 -81 21 -76 22 -69 -12 7 -28 4 -32 -35 -55 l-42 -25 -45 69 c-44 66
-66 87 -76 71 -3 -5 11 -43 31 -86 37 -82 35 -104 -9 -92 -42 11 -87 45 -122
93 l-34 48 46 25 c80 44 64 67 -21 31 l-45 -19 -31 67 c-17 37 -31 73 -31 79
0 16 104 67 122 60 8 -3 20 -24 26 -46 7 -22 19 -45 27 -52 13 -10 15 -9 15
11 0 13 -5 40 -10 59 -10 34 -9 36 35 75 25 22 45 44 45 49 0 9 -62 3 -92 -9
-13 -5 -19 2 -27 32 -24 85 -11 134 40 152 40 14 48 9 55 -39 4 -22 13 -48 21
-57 13 -16 13 -10 8 54 -6 71 -6 72 24 99 37 33 42 60 9 50 -49 -15 -53 -13
-56 33 -5 71 4 87 85 150 82 64 93 64 93 3 0 -50 25 -100 53 -107 30 -8 87 19
87 40 0 20 -44 19 -75 -1 l-25 -16 0 77 c0 76 1 78 36 110 19 18 51 41 70 51
l35 19 19 -25 c17 -21 21 -23 30 -10 5 8 10 30 10 47 0 29 6 36 55 64 62 35
72 46 56 62 -9 9 -23 8 -57 -5 l-45 -16 6 41 c16 103 30 120 149 186 58 32 58
32 53 9 -19 -83 -19 -85 9 -111 44 -41 69 -42 140 -5 51 26 66 30 73 20 7 -11
9 -11 14 2 4 9 4 23 1 31 -12 29 -44 27 -120 -9 l-74 -35 6 99 7 100 -25 0
c-13 0 -61 -18 -107 -40 -65 -31 -82 -36 -76 -23 4 10 14 38 23 63 9 27 34 63
62 90 48 47 147 107 158 96 3 -4 -4 -29 -15 -56 -12 -28 -18 -52 -14 -55 13
-7 53 41 86 103 32 60 91 110 135 114 21 3 25 -1 22 -22 -2 -14 -14 -49 -27
-78 -19 -41 -35 -59 -75 -84 -48 -30 -50 -33 -33 -46 10 -7 30 -12 45 -9 23 3
27 -1 30 -22 5 -45 36 -38 58 13 15 36 29 51 71 73 74 40 101 65 90 82 -8 12
-16 13 -49 3 -61 -19 -65 -17 -57 25 12 68 38 106 96 144 53 36 101 89 79 89
-6 0 -27 -7 -47 -15 -19 -8 -39 -15 -44 -15 -30 0 24 108 74 147 33 25 155 78
163 70 7 -7 -40 -102 -72 -144 -13 -17 -24 -34 -24 -37 0 -14 62 -3 140 24 47
16 90 30 96 30 8 0 10 -22 6 -72 -4 -61 -2 -73 13 -85 25 -18 80 -17 95 2 11
13 8 15 -19 15 -34 0 -36 4 -45 99 -4 36 -12 62 -25 75 -20 19 -22 19 -77 2
-30 -10 -58 -15 -62 -12 -18 19 90 146 151 177 27 15 38 17 35 7 -23 -62 -39
-120 -34 -125 11 -11 45 29 78 93 28 54 39 65 76 80 24 9 60 18 82 21 l38 5
-8 -33 c-20 -84 -38 -105 -112 -129 -46 -14 -48 -24 -9 -40 21 -8 35 -9 49 -1
24 13 27 9 37 -37 9 -45 34 -38 52 13 7 22 27 53 43 70 35 37 36 41 10 48 -25
6 -25 30 0 85 21 46 50 63 93 55 l27 -5 1 -127 c1 -129 19 -234 32 -181 3 14
9 91 13 172 l6 147 52 10 c28 6 62 13 76 15 47 8 255 -5 384 -25z m4306 -126
c0 -4 -10 -17 -22 -30 l-21 -23 29 0 c16 0 61 12 99 25 55 20 90 25 160 25
245 0 681 -71 1046 -170 293 -80 457 -160 658 -320 180 -143 214 -182 280
-322 76 -160 85 -203 79 -369 -6 -152 -22 -206 -111 -384 -130 -260 -312 -445
-606 -615 -148 -85 -401 -190 -591 -245 -63 -18 -127 -38 -143 -44 -35 -14
-468 -85 -617 -102 -231 -27 -590 -14 -920 32 -427 60 -936 195 -1182 316 -76
37 -138 70 -138 73 0 4 42 12 94 18 107 13 129 20 119 34 -4 7 -55 9 -154 4
-167 -8 -187 -2 -292 85 -5 3 37 12 92 19 56 7 104 16 107 21 3 5 -6 14 -21
21 -19 9 -44 9 -103 0 -125 -19 -139 -17 -184 28 -58 58 -51 81 30 99 34 8 62
18 62 22 0 4 -7 15 -17 24 -17 17 -18 17 -149 0 -46 -7 -53 -5 -68 16 -18 26
-21 81 -6 109 12 22 81 45 165 55 54 7 58 6 90 -25 29 -28 35 -31 41 -17 3 10
3 28 0 42 -5 21 -3 25 17 25 31 0 62 23 52 40 -5 8 -20 10 -42 7 -33 -6 -35
-4 -54 40 -11 26 -18 52 -15 59 2 6 53 23 113 37 190 45 167 47 195 -24 39
-104 63 -111 310 -95 l128 9 20 -45 c11 -25 21 -56 22 -69 3 -22 -2 -25 -65
-35 -37 -6 -71 -14 -75 -18 -4 -4 4 -16 17 -27 18 -15 39 -19 95 -19 l72 0 37
-89 c21 -49 44 -97 52 -107 14 -18 14 -18 14 6 0 14 -13 59 -29 100 -17 41
-30 80 -30 86 0 6 20 19 45 28 64 25 60 46 -8 46 -63 0 -73 9 -106 91 -43 109
-75 120 -279 95 -72 -9 -135 -16 -141 -16 -11 0 -31 54 -31 86 0 28 19 39 82
48 26 4 50 11 53 16 7 11 -36 32 -105 52 -51 15 -90 63 -90 109 0 37 24 49 97
49 32 0 96 7 142 15 46 8 87 12 91 10 5 -3 11 -29 15 -58 17 -129 46 -145 215
-119 63 9 125 16 137 14 27 -4 46 -58 41 -117 -3 -35 -6 -40 -26 -38 -13 2
-32 -2 -43 -8 -35 -18 -4 -40 52 -38 27 2 51 1 53 -2 3 -2 13 -27 23 -54 14
-37 24 -50 38 -50 13 0 18 5 15 15 -2 8 -4 35 -5 60 l0 45 58 9 c31 4 57 12
57 17 0 5 -31 9 -69 9 l-69 0 -7 48 c-11 80 -25 121 -48 143 -20 19 -30 21
-117 15 -52 -3 -125 -8 -162 -12 l-68 -7 -15 36 c-8 20 -15 54 -15 76 0 38 2
41 40 51 56 15 58 27 6 50 -28 12 -56 34 -74 59 -33 46 -42 39 -42 -30 0 -32
-4 -40 -22 -44 -13 -3 -61 -14 -108 -25 -47 -11 -101 -20 -121 -20 -34 0 -37
3 -42 34 -12 75 4 85 228 137 50 11 122 29 160 39 39 11 113 29 165 40 52 11
103 23 112 26 16 5 18 -2 18 -56 0 -86 -7 -94 -90 -110 -39 -7 -73 -17 -76
-21 -11 -18 57 -40 102 -33 l44 6 21 -50 c21 -51 46 -73 59 -51 4 6 10 34 13
61 4 28 8 52 10 54 7 7 286 48 290 44 2 -3 7 -42 10 -88 6 -100 10 -97 -134
-117 -56 -7 -104 -16 -107 -20 -3 -3 0 -11 7 -18 8 -8 54 -13 132 -15 117 -4
120 -4 137 -30 l17 -26 5 39 c5 39 6 40 49 45 80 9 56 40 -31 40 l-38 0 3 86
c2 79 0 87 -21 104 -46 37 -219 51 -310 24 -23 -7 -23 -5 -17 37 4 24 2 56 -4
70 -5 15 -7 36 -4 47 9 36 47 44 187 36 115 -6 132 -10 148 -28 18 -21 18 -21
33 -1 18 25 25 32 50 50 17 13 18 16 5 25 -15 11 -104 9 -297 -6 -82 -6 -83
-6 -83 17 0 50 59 137 102 151 7 3 7 10 -2 24 -16 27 -9 55 32 124 43 71 81
96 171 110 109 17 140 29 126 46 -8 10 -35 14 -90 14 -44 0 -79 4 -79 8 0 15
63 73 107 99 24 14 65 31 91 39 55 17 292 57 299 51 2 -3 -25 -25 -60 -50 -68
-49 -93 -74 -84 -83 12 -12 57 7 120 50 78 53 122 77 162 87 39 9 225 11 225
2z m-890 -108 c0 -15 -99 -109 -130 -125 -29 -14 -187 -56 -290 -75 -23 -5
-23 -3 10 26 59 52 119 82 260 131 141 49 150 51 150 43z m-4925 -149 c-28
-59 -71 -100 -117 -111 -21 -5 -28 -3 -28 7 0 19 51 98 81 124 32 29 83 54 87
44 2 -5 -9 -34 -23 -64z m-165 -53 c0 -29 -37 -80 -78 -110 -47 -34 -140 -79
-148 -71 -8 9 31 80 58 106 24 22 145 91 161 92 4 0 7 -8 7 -17z m4554 -14
c-10 -12 -45 -34 -76 -50 -58 -30 -158 -70 -158 -64 0 2 41 29 92 61 132 81
186 102 142 53z m351 -21 c-19 -67 -61 -134 -95 -150 -47 -23 -318 -93 -327
-85 -7 8 27 74 64 124 20 28 44 39 176 82 176 58 191 61 182 29z m-10759 -83
c133 -24 267 -72 344 -124 228 -154 440 -373 526 -543 88 -174 119 -351 104
-588 -9 -150 -35 -322 -66 -444 -20 -76 -117 -318 -149 -371 -13 -22 -35 -62
-49 -90 -40 -79 -249 -351 -355 -460 -53 -56 -112 -119 -132 -142 -75 -83
-550 -408 -727 -497 -158 -79 -387 -173 -582 -239 -224 -75 -719 -220 -734
-214 -8 3 -17 44 -23 106 -12 106 -18 125 -35 115 -10 -7 -3 -178 8 -209 4 -9
-41 -28 -152 -64 -136 -45 -161 -50 -185 -41 -44 19 -62 44 -54 79 11 51 28
56 76 22 23 -17 50 -31 61 -31 31 0 32 -2 -74 150 -56 81 -68 116 -68 201 0
72 11 91 38 65 23 -20 35 -56 66 -189 28 -116 62 -207 79 -207 9 0 7 59 -10
199 -6 51 -5 53 15 42 22 -12 43 -63 64 -155 19 -87 38 -85 38 4 0 39 4 79 10
89 5 11 6 30 1 49 -10 32 1 155 19 220 8 33 14 39 30 35 24 -6 26 13 4 42 -9
13 -12 30 -8 50 l6 30 -25 -24 -25 -23 -56 58 c-31 33 -56 66 -55 74 0 8 19
66 43 128 l42 113 45 -34 c53 -41 89 -60 96 -53 7 7 -44 68 -79 96 -37 29 -36
67 3 181 17 49 29 94 27 100 -2 7 -24 -24 -48 -67 -31 -55 -51 -79 -64 -79
-22 0 -69 78 -87 145 -11 42 -10 50 23 128 l34 84 70 -83 c38 -45 75 -85 83
-87 22 -7 7 48 -49 174 -28 62 -50 116 -50 121 0 13 84 203 90 202 3 0 30 -35
60 -77 65 -91 77 -78 25 29 -26 55 -35 87 -35 125 0 42 -4 53 -18 56 -25 7
-93 176 -99 248 -4 45 0 69 26 135 17 44 38 91 47 104 20 28 25 22 55 -69 26
-78 83 -192 109 -215 38 -34 40 -5 6 63 -40 80 -91 220 -101 279 -4 26 -2 58
5 80 18 55 112 224 123 220 5 -1 18 -25 29 -52 11 -28 26 -56 33 -64 25 -25
28 10 11 124 -32 216 -19 313 52 382 25 24 49 43 53 43 3 0 9 -25 11 -56 3
-38 11 -62 25 -76 l21 -20 11 20 c6 12 14 56 17 99 9 108 23 133 107 191 282
192 664 352 932 391 100 14 296 12 391 -4z m5544 -68 c0 -8 -13 -32 -29 -53
-31 -44 -210 -218 -216 -212 -7 7 14 72 34 105 18 29 187 173 203 173 5 0 8
-6 8 -13z m4735 -43 c-14 -31 -25 -58 -25 -60 0 -7 -43 -25 -149 -63 l-110
-39 18 37 c11 20 28 44 38 53 24 22 223 127 240 128 9 0 5 -18 -12 -56z m-257
24 c-16 -23 -96 -88 -210 -168 l-63 -44 43 51 c65 79 197 183 230 183 13 0 13
-3 0 -22z m636 -75 c-4 -16 -15 -51 -26 -80 -19 -52 -19 -52 -76 -63 -31 -6
-101 -21 -155 -32 -66 -15 -101 -18 -108 -11 -12 12 -2 86 15 107 9 12 306
103 344 105 9 1 10 -7 6 -26z m-434 -158 l0 -54 -67 -20 c-38 -11 -92 -27
-122 -35 -59 -17 -101 -21 -101 -8 0 23 45 74 82 93 42 21 185 78 201 79 4 0
7 -25 7 -55z m-4985 -32 c-14 -48 -28 -68 -86 -125 -59 -57 -69 -64 -69 -44 0
38 45 114 106 179 33 34 60 59 62 55 2 -4 -4 -33 -13 -65z m4634 42 c-13 -13
-42 -32 -64 -41 -47 -19 -43 -13 28 37 57 41 75 43 36 4z m-4413 2 c-21 -83
-56 -125 -148 -177 -57 -31 -58 -31 -58 -10 0 39 33 81 115 146 43 35 83 64
88 64 5 0 7 -10 3 -23z m4081 -144 c-25 -32 -57 -69 -72 -83 -26 -23 -27 -24
-16 -3 11 22 119 143 128 143 2 0 -16 -26 -40 -57z m307 0 c-9 -38 -21 -48
-84 -68 -30 -10 -72 -26 -93 -37 -21 -11 -46 -18 -55 -16 -22 4 28 43 134 103
93 53 107 56 98 18z m-4634 -76 c0 -16 -124 -138 -158 -156 -21 -11 -23 -11
-14 6 12 22 109 133 131 150 21 16 41 16 41 0z m185 2 c4 -6 4 -31 0 -57 -8
-53 -55 -106 -125 -142 l-40 -20 0 47 c0 60 24 101 87 147 51 37 68 43 78 25z
m4443 -73 c7 -60 -2 -71 -77 -90 -38 -10 -93 -29 -121 -42 -63 -29 -70 -30
-70 -3 0 49 45 86 169 140 79 34 95 33 99 -5z m-4872 -74 c-9 -17 -21 -34 -27
-37 -6 -4 -1 12 11 35 12 23 24 40 26 37 3 -3 -2 -19 -10 -35z m224 -41 c0
-48 -23 -78 -101 -130 -73 -49 -89 -51 -89 -14 0 22 18 46 80 105 44 43 87 78
95 78 11 0 15 -11 15 -39z m-366 2 c-76 -117 -270 -477 -309 -575 -48 -120
-69 -132 -670 -371 -214 -85 -484 -195 -600 -245 -139 -59 -238 -96 -293 -107
-46 -9 -86 -14 -89 -12 -11 11 283 195 603 377 329 188 602 381 866 613 73 65
174 146 223 182 86 61 260 165 279 165 4 0 0 -12 -10 -27z m5022 -50 c4 -14 7
-42 8 -62 l1 -36 -105 -22 c-134 -28 -167 -29 -175 -3 -15 47 28 80 153 121
109 35 110 35 118 2z m-356 7 c0 -12 -21 -33 -81 -82 -55 -45 -64 -47 -45 -10
29 56 126 127 126 92z m-11245 -235 c-19 -38 -47 -83 -61 -100 l-25 -30 6 70
c11 121 32 193 73 249 l37 51 3 -85 c3 -80 1 -89 -33 -155z m6710 215 c-3 -5
-12 -10 -18 -10 -7 0 -6 4 3 10 19 12 23 12 15 0z m4249 -159 c-26 -98 -26
-102 -9 -121 27 -30 11 -36 -49 -17 -65 21 -96 22 -96 2 0 -17 -36 -27 -169
-50 -114 -20 -331 -68 -426 -96 -38 -11 -78 -23 -88 -26 -16 -4 -17 -2 -8 14
5 11 23 34 40 51 23 25 37 32 68 32 22 0 77 11 124 25 117 35 361 85 415 85
64 0 107 23 134 73 38 71 82 138 87 133 2 -2 -8 -50 -23 -105z m-4234 30 c0
-22 -10 -38 -37 -60 -63 -52 -72 -33 -22 42 36 54 59 61 59 18z m4530 13 c0
-23 -28 -46 -72 -59 -28 -8 -54 -15 -57 -15 -3 0 19 18 49 40 50 36 80 49 80
34z m-4686 -155 c-24 -27 -29 -16 -8 16 10 16 20 23 22 16 2 -7 -4 -21 -14
-32z m4728 -18 l16 -49 -106 -20 c-58 -11 -111 -18 -119 -15 -22 9 -11 54 18
75 31 23 149 67 164 61 7 -2 18 -26 27 -52z m-11442 -132 c-8 -52 -49 -148
-83 -193 -13 -18 -14 -16 -20 26 -12 90 17 213 72 306 l26 43 7 -63 c3 -35 3
-88 -2 -119z m6882 115 c1 -31 -4 -42 -32 -66 -19 -15 -43 -28 -53 -28 -18 0
-19 5 -13 48 4 37 14 54 42 81 31 29 38 31 46 18 5 -9 9 -33 10 -53z m13138
-14 c-30 -10 -129 -41 -220 -70 -321 -99 -581 -200 -1130 -438 -396 -171 -558
-232 -825 -309 -178 -51 -477 -120 -677 -157 -235 -44 -519 -65 -1128 -84
-308 -9 -1000 -1 -923 11 28 5 89 7 135 6 156 -5 986 115 1332 192 50 11 159
35 241 53 83 18 434 103 780 189 347 86 718 177 825 202 201 46 410 111 410
127 0 19 -30 17 -120 -7 -411 -110 -959 -231 -1830 -404 -719 -143 -1400 -253
-1632 -265 l-103 -6 60 21 c33 11 184 51 336 89 329 82 609 161 1106 311 761
229 932 266 1928 418 394 60 453 68 820 100 394 36 414 37 560 38 l110 1 -55
-18z m-13280 -61 c0 -44 -14 -65 -64 -94 -85 -49 -89 -24 -10 63 31 34 60 62
65 62 5 0 9 -14 9 -31z m4287 -11 c5 -7 18 -35 27 -61 23 -62 77 -130 197
-249 164 -163 324 -281 509 -376 58 -30 114 -59 124 -64 27 -14 10 -22 -89
-42 -112 -22 -229 -38 -750 -101 -66 -8 -228 -30 -360 -49 -132 -19 -269 -37
-305 -41 -36 -4 -150 -22 -254 -41 -104 -19 -252 -40 -330 -49 -205 -21 -654
-37 -1096 -39 -848 -3 -1560 61 -2625 236 -81 13 -447 15 -645 3 l-95 -5 58
30 c149 79 977 420 1019 420 20 0 33 -11 57 -48 38 -60 149 -167 217 -210 245
-154 889 -286 1399 -286 229 1 360 20 681 99 497 123 830 264 1089 460 77 59
181 138 231 176 l92 70 188 51 c224 60 540 127 605 127 26 1 51 -5 56 -11z
m-4260 -164 c7 -27 10 -57 7 -67 -3 -9 -32 -31 -64 -47 l-59 -30 -11 41 c-20
74 -11 101 45 131 28 15 54 26 60 25 5 -2 15 -26 22 -53z m-223 1 c-6 -15 -44
-41 -44 -30 0 3 6 14 12 25 15 23 40 27 32 5z m-6713 -180 c2 -38 -4 -59 -53
-172 -23 -53 -44 -90 -50 -87 -25 16 16 246 64 356 l23 53 7 -60 c4 -33 8 -73
9 -90z m6738 84 c17 -49 14 -87 -8 -99 -29 -15 -43 -12 -37 8 4 10 -1 27 -9
38 -19 25 -19 43 2 66 24 26 40 22 52 -13z m53 -146 c41 -47 64 -133 35 -133
-15 0 -107 103 -107 119 0 11 29 30 46 31 6 0 18 -8 26 -17z m-6703 -195 c59
-140 61 -160 21 -247 -45 -98 -53 -102 -86 -50 -14 23 -39 71 -55 107 -30 65
-30 65 -13 116 24 74 71 176 81 176 5 0 28 -46 52 -102z m6821 0 c0 -4 -7 -8
-15 -8 -16 0 -38 34 -28 44 7 7 43 -23 43 -36z m-7076 -60 c17 -63 -10 -238
-34 -223 -6 4 -10 46 -10 94 0 116 26 193 44 129z m120 -290 c33 -77 46 -120
42 -138 -8 -41 -54 -140 -64 -140 -23 0 -97 228 -86 263 19 61 46 127 53 127
4 0 29 -50 55 -112z m4211 22 c-3 -5 -12 -10 -18 -10 -7 0 -6 4 3 10 19 12 23
12 15 0z m1845 -30 c52 -5 154 -14 225 -21 72 -6 140 -18 152 -25 12 -8 36
-14 53 -14 17 0 137 -16 268 -35 552 -83 752 -106 1137 -130 474 -29 736 -36
1208 -32 262 3 479 1 482 -3 11 -17 -70 -31 -360 -60 -293 -30 -305 -30 -550
-20 -137 5 -293 15 -345 20 -52 5 -230 19 -395 30 -165 11 -381 29 -480 39
-99 11 -252 27 -340 36 -372 37 -1326 182 -1406 214 -32 13 221 14 351 1z
m-6271 -82 c0 -101 -11 -169 -23 -150 -14 22 -19 174 -7 205 20 50 31 30 30
-55z m15451 62 c0 -5 -4 -10 -10 -10 -5 0 -10 5 -10 10 0 6 5 10 10 10 6 0 10
-4 10 -10z m-11070 -4 c0 -2 -7 -7 -16 -10 -8 -3 -12 -2 -9 4 6 10 25 14 25 6z
m-5609 -88 c-16 -46 -43 -117 -60 -158 -49 -113 -155 -393 -205 -539 -24 -70
-53 -146 -64 -167 -11 -22 -32 -79 -47 -129 -37 -122 -249 -723 -323 -915
-114 -296 -220 -517 -422 -880 -194 -348 -591 -941 -598 -893 -6 39 178 572
266 770 22 48 54 126 72 173 18 47 85 198 148 335 63 138 138 306 167 375 86
204 255 559 378 795 169 324 258 506 255 516 -11 32 -377 -600 -727 -1251
-141 -262 -402 -909 -572 -1414 -29 -88 -54 -155 -56 -150 -4 13 130 735 163
874 129 553 339 1040 626 1449 283 404 985 1291 1020 1291 4 0 -6 -37 -21 -82z
m1322 -201 c20 -51 37 -105 37 -120 0 -30 -37 -134 -51 -142 -12 -8 -28 34
-45 125 -13 62 -13 89 -3 153 6 42 14 77 18 77 4 0 23 -42 44 -93z m-155 -75
c11 -33 -2 -206 -20 -249 l-11 -28 -9 45 c-5 25 -7 83 -4 130 9 129 23 162 44
102z m12215 11 c-7 -2 -19 -2 -25 0 -7 3 -2 5 12 5 14 0 19 -2 13 -5z m360
-60 c-7 -2 -19 -2 -25 0 -7 3 -2 5 12 5 14 0 19 -2 13 -5z m-4411 -39 c114
-40 585 -232 657 -268 25 -13 107 -49 181 -81 74 -32 230 -99 345 -150 116
-51 221 -96 235 -100 44 -13 794 -368 970 -459 36 -19 101 -48 145 -66 129
-51 538 -276 780 -430 113 -72 155 -93 155 -80 0 11 -178 145 -318 239 -171
114 -402 240 -902 490 -538 269 -689 339 -1237 572 -199 84 -360 155 -358 157
8 8 743 -235 1090 -361 159 -57 596 -236 655 -267 19 -10 76 -35 125 -56 162
-66 648 -310 747 -375 54 -35 144 -93 200 -129 213 -134 382 -263 687 -525
152 -130 162 -140 134 -143 -29 -3 -230 55 -493 141 -134 44 -552 213 -600
242 -14 8 -56 31 -95 50 -38 19 -77 39 -85 44 -8 5 -40 18 -70 30 -30 12 -147
68 -260 125 -167 85 -200 105 -180 110 14 3 52 10 85 16 66 11 89 25 65 40
-16 11 -48 7 -155 -16 -69 -16 -71 -15 -125 8 -30 14 -113 58 -185 98 -963
542 -1619 881 -2061 1065 -143 60 -257 114 -242 115 3 0 53 -16 110 -36z
m8188 17 c74 -6 196 -18 270 -27 74 -8 189 -19 255 -24 302 -25 465 -61 860
-190 257 -84 680 -249 718 -280 21 -18 21 -18 -18 -29 -89 -25 -288 -61 -420
-75 -237 -26 -497 -35 -1389 -47 -1384 -20 -1490 -9 -2536 246 -517 127 -670
161 -1190 264 -490 98 -649 138 -444 111 112 -14 448 -37 1034 -70 372 -21
621 -40 785 -60 502 -61 872 -103 935 -105 68 -3 409 -32 470 -40 68 -10 648
-44 910 -55 316 -12 491 -24 740 -50 102 -11 205 -19 230 -19 l45 1 -62 14
c-163 35 -528 78 -1014 119 -539 45 -1310 122 -1955 195 -193 22 -420 44 -505
50 -85 6 -215 17 -289 24 -192 18 -140 22 480 42 289 9 527 18 530 21 10 9
1428 -5 1560 -16z m-5788 -42 c226 -87 782 -278 1018 -351 386 -119 805 -216
1357 -314 l212 -37 -30 -60 c-17 -32 -28 -61 -26 -64 3 -2 16 1 28 8 24 12 27
10 81 -63 37 -50 47 36 12 104 -13 25 -13 29 1 34 30 12 411 -88 496 -131 25
-12 86 -37 135 -55 49 -18 181 -77 294 -132 218 -105 839 -438 840 -450 0 -10
-9 -8 -700 118 -1060 194 -1331 251 -1815 379 -276 73 -387 109 -515 165 -36
15 -90 38 -120 50 -135 54 -955 494 -1070 575 -25 17 -82 53 -127 80 -46 27
-81 50 -79 52 1 2 90 -38 197 -88 107 -50 235 -108 284 -129 50 -20 144 -61
210 -90 592 -259 1099 -414 1895 -580 322 -67 590 -130 659 -154 24 -9 47 -16
52 -16 14 0 10 48 -6 80 -18 35 -40 38 -71 9 -36 -34 -51 -19 -56 55 -5 79
-24 108 -53 80 -14 -14 -16 -29 -12 -71 7 -64 10 -63 -123 -24 l-95 28 3 61
c3 51 1 63 -14 69 -23 9 -44 -22 -44 -65 l0 -35 -56 7 c-77 9 -500 108 -719
168 -99 27 -252 69 -340 93 -205 56 -347 105 -604 210 -295 120 -409 165 -551
220 -226 87 -719 312 -688 314 3 1 66 -22 140 -50z m-10267 -51 c20 -30 35
-65 35 -81 0 -16 -16 -67 -36 -113 -42 -97 -46 -97 -89 -2 -22 49 -26 70 -22
109 8 62 41 139 61 139 9 0 31 -24 51 -52z m-215 -78 c20 -54 21 -65 11 -125
-7 -36 -17 -78 -23 -93 l-11 -27 -7 25 c-10 31 -12 264 -3 273 10 10 9 11 33
-53z m115 -213 c18 -32 25 -58 25 -96 0 -62 -20 -191 -30 -191 -3 0 -19 28
-36 61 -23 50 -28 73 -27 124 2 70 19 145 33 145 5 0 21 -20 35 -43z m-235
-89 c0 -76 -5 -72 -14 10 -5 44 -4 62 3 57 6 -3 11 -34 11 -67z m429 -127 c5
-10 0 -51 -15 -106 -12 -49 -23 -100 -23 -112 -1 -33 -25 -28 -57 9 -27 33
-27 34 -21 143 4 60 10 120 13 132 6 22 7 22 51 -14 24 -20 48 -43 52 -52z
m-339 10 c0 -11 -4 -23 -10 -26 -6 -4 -10 5 -10 19 0 14 5 26 10 26 6 0 10 -9
10 -19z m-13 -118 c-3 -10 -5 -2 -5 17 0 19 2 27 5 18 2 -10 2 -26 0 -35z
m8528 -71 c-43 -38 -720 -274 -1110 -387 -83 -24 -258 -82 -390 -128 -221 -78
-371 -127 -389 -127 -4 0 4 14 18 31 41 48 32 88 -18 75 -15 -4 -34 -26 -56
-67 -26 -49 -41 -65 -74 -80 -43 -19 -86 -25 -86 -11 0 4 16 23 35 42 39 37
48 86 19 97 -26 10 -46 -9 -89 -82 -49 -83 -78 -106 -141 -112 l-49 -5 73 71
c54 52 73 77 70 93 -2 12 -9 23 -16 26 -17 5 -97 -80 -142 -152 l-35 -55 -85
-16 c-47 -8 -125 -20 -175 -25 -246 -27 -665 -70 -785 -80 -74 -6 -202 -18
-285 -25 -234 -23 -441 -44 -451 -46 -5 -1 -18 -1 -29 1 -13 1 -7 6 20 16 58
21 431 123 490 133 28 5 70 17 95 26 25 9 108 30 185 46 77 16 343 79 590 140
472 116 554 135 880 200 557 111 989 209 1008 228 14 14 4 23 -25 24 -28 0
-463 -88 -500 -102 -15 -6 -29 -6 -35 0 -5 5 -22 5 -42 -1 -18 -5 -175 -32
-349 -60 -497 -81 -816 -138 -948 -170 -67 -17 -129 -30 -138 -30 -8 0 -30 -6
-48 -14 -18 -8 -87 -26 -153 -41 -121 -27 -826 -236 -1160 -345 -182 -59 -382
-113 -465 -125 -80 -11 -23 11 200 75 259 74 864 276 1592 530 332 116 884
280 944 280 12 0 12 -3 2 -20 -10 -16 -9 -24 8 -47 24 -31 65 -57 107 -67 l29
-7 -19 32 c-10 17 -37 51 -59 74 l-41 43 101 16 c335 52 868 100 1386 125 230
11 546 13 535 3z m-8968 -330 c-13 -15 -102 -139 -197 -277 -341 -493 -478
-663 -799 -989 -231 -233 -450 -430 -709 -639 -155 -124 -487 -378 -512 -391
-8 -5 63 67 157 159 150 145 432 439 933 975 74 79 225 239 335 355 268 282
311 333 291 341 -9 3 -28 -2 -44 -11 -34 -22 -512 -502 -1111 -1118 -250 -256
-461 -469 -468 -471 -21 -8 -1 24 37 59 18 17 63 71 101 122 64 87 114 145
459 547 388 453 698 765 972 978 250 195 570 417 576 398 2 -6 -7 -24 -21 -38z
m554 -218 c11 -13 10 -17 -4 -26 -10 -5 -31 -36 -48 -70 -79 -156 -385 -631
-454 -703 -26 -28 -40 -39 -31 -25 9 14 48 79 87 145 40 66 129 215 199 330
70 116 146 245 169 288 44 78 58 89 82 61z m8540 -374 c155 -11 367 -37 784
-95 176 -25 432 -58 569 -75 137 -16 250 -31 252 -33 6 -5 -454 -94 -527 -102
-50 -5 -59 -3 -87 19 -16 15 -41 26 -55 26 -30 0 -57 -33 -57 -68 0 -37 -23
-21 -40 28 -16 46 -43 64 -72 48 -25 -13 -22 -41 8 -77 l26 -31 -27 -10 c-44
-17 -53 -12 -105 54 -56 71 -65 77 -98 65 -16 -6 -33 -4 -52 6 -39 20 -49 19
-59 -9 -12 -30 2 -91 28 -127 12 -16 21 -31 21 -34 0 -3 -19 -5 -42 -5 -24 -1
-61 -7 -83 -15 -22 -8 -57 -15 -78 -15 -20 0 -106 -16 -190 -35 -83 -18 -235
-50 -337 -69 -102 -19 -237 -44 -300 -56 -63 -12 -140 -26 -170 -32 -175 -32
-523 -51 -850 -45 -353 7 -640 36 -1250 127 -217 32 -449 66 -515 75 -145 20
-386 69 -440 90 l-40 15 65 -6 c156 -14 402 -23 765 -28 215 -3 476 -11 580
-17 259 -16 755 2 1290 46 99 8 272 22 385 30 242 19 741 71 822 87 84 16 121
5 176 -51 26 -26 55 -58 64 -72 16 -23 17 -23 35 -6 17 17 17 20 -16 81 -33
62 -34 86 -5 86 8 0 14 5 14 11 0 8 -26 9 -87 5 -49 -3 -227 -15 -398 -26
-170 -11 -483 -31 -695 -45 -726 -47 -1248 -58 -1875 -41 -337 10 -339 10
-240 22 133 16 438 67 660 110 380 74 896 156 1155 185 103 11 876 30 935 22
17 -2 87 -8 156 -13z m-4425 -249 c138 -21 231 -42 296 -68 59 -24 41 -25 -53
-2 -226 54 -264 60 -491 69 -137 5 -234 13 -245 20 -29 18 338 4 493 -19z
m509 -35 c88 -12 89 -12 47 -20 -51 -9 -134 0 -177 19 l-30 13 35 0 c19 0 76
-5 125 -12z m-495 -50 c278 -42 577 -126 883 -246 111 -43 396 -155 632 -249
237 -93 501 -194 588 -225 332 -118 770 -238 1077 -296 91 -17 206 -42 255
-55 50 -13 142 -33 205 -45 179 -33 913 -196 1135 -251 285 -72 797 -192 1009
-236 221 -46 199 -51 -147 -29 -133 9 -379 20 -547 26 -168 6 -333 14 -367 16
l-61 5 10 29 c15 45 7 84 -19 88 -33 5 -47 -29 -35 -85 l10 -46 -241 6 c-387
11 -652 39 -945 102 -156 34 -240 58 -607 175 -613 196 -1013 310 -1084 310
-19 0 -48 4 -65 10 -17 5 -97 25 -178 45 -81 19 -164 42 -185 51 -21 8 -51 17
-68 20 -72 9 -276 121 -845 462 -493 295 -473 282 -468 288 7 7 439 -133 555
-180 62 -25 222 -97 355 -160 134 -62 297 -137 363 -166 189 -83 694 -248 883
-289 51 -11 168 -41 260 -66 562 -156 1223 -326 1432 -370 154 -32 463 -78
493 -72 20 3 19 4 -8 16 -16 7 -174 41 -350 76 -371 74 -562 120 -840 203
-309 92 -768 227 -892 261 -375 105 -1081 373 -1331 506 -143 76 -598 236
-885 311 -138 36 -256 67 -262 69 -30 10 204 3 285 -9z m5030 -27 c15 -26 13
-29 -19 -29 -32 0 -48 24 -30 46 13 16 36 8 49 -17z m-9750 -184 c-7 -9 -15
-13 -18 -10 -3 2 1 11 8 20 7 9 15 13 18 10 3 -2 -1 -11 -8 -20z m-132 -164
c-7 -12 -16 -21 -21 -21 -8 0 -2 14 16 38 16 20 20 6 5 -17z m-1738 -319 c0
-5 -9 -17 -21 -28 -21 -19 -21 -19 -8 9 12 26 29 37 29 19z m3215 -967 c485
-82 601 -118 779 -242 163 -113 205 -161 329 -378 83 -146 110 -226 115 -345
3 -88 0 -121 -18 -190 -32 -117 -94 -276 -131 -335 -18 -28 -54 -86 -80 -130
-26 -44 -67 -100 -90 -125 -23 -25 -60 -70 -82 -100 -101 -135 -296 -300 -562
-475 -228 -151 -306 -194 -476 -269 -191 -83 -296 -117 -524 -166 -383 -84
-855 -95 -1295 -29 -297 45 -585 120 -764 200 -59 26 -60 25 104 74 303 89
372 128 184 103 -49 -7 -107 -12 -129 -13 -38 0 -39 1 -48 42 -5 29 -17 49
-36 62 -16 11 -31 18 -34 15 -3 -4 5 -31 19 -62 14 -31 23 -61 20 -68 -4 -12
-97 -38 -178 -49 -41 -6 -48 -5 -61 16 -20 30 -47 115 -50 154 -2 28 0 30 62
43 l65 15 -24 19 c-18 15 -36 19 -68 16 -40 -3 -47 0 -69 29 -35 45 -60 44
-55 -2 4 -30 1 -36 -23 -45 -14 -5 -42 -10 -60 -10 -31 0 -35 4 -45 38 -5 20
-13 60 -16 88 -8 63 -1 68 86 70 36 1 82 9 102 18 53 23 129 38 174 34 37 -3
38 -5 55 -61 18 -62 43 -97 67 -97 15 0 15 11 -4 136 l-6 41 91 13 c50 7 93
11 96 9 2 -3 13 -42 24 -88 13 -59 16 -83 7 -86 -6 -2 -44 -11 -85 -21 -68
-15 -73 -18 -55 -31 13 -10 40 -13 88 -11 l70 3 30 -52 c46 -82 75 -82 49 -1
-9 26 -13 54 -10 62 3 8 25 20 49 26 84 22 93 26 88 35 -3 6 -40 9 -82 8 l-77
-2 -6 31 c-4 17 -10 63 -14 102 l-6 71 -37 9 c-26 6 -61 4 -120 -7 -112 -23
-108 -24 -108 26 0 60 -18 115 -41 127 -32 18 -39 3 -39 -85 l0 -84 -37 -10
c-59 -14 -147 -21 -161 -12 -9 5 -12 30 -10 87 l3 79 80 20 c116 30 113 28 75
55 -30 22 -37 23 -93 13 l-59 -9 6 55 c4 31 10 59 14 62 12 11 173 61 178 56
3 -3 8 -25 11 -49 10 -77 59 -108 173 -108 l70 0 0 -34 c0 -25 7 -40 26 -55
41 -32 47 -27 42 41 -7 101 -53 123 -202 99 l-49 -8 6 65 c4 36 11 70 16 75 6
6 8 42 4 87 -7 93 -3 98 102 133 l75 26 0 -49 c0 -27 -5 -61 -12 -76 -11 -23
-10 -28 7 -40 28 -21 62 -17 170 16 54 17 99 30 101 30 2 0 4 -34 4 -75 0 -43
6 -90 14 -110 14 -33 18 -35 60 -35 25 0 80 11 123 25 61 19 80 22 90 12 7 -7
21 -55 32 -106 31 -139 45 -141 37 -6 -3 61 -9 120 -12 133 -8 27 -25 28 -162
5 -122 -21 -122 -21 -122 75 0 59 -1 63 -32 82 -59 36 -102 43 -169 25 -33 -8
-62 -15 -65 -15 -9 0 9 219 22 266 18 66 64 108 142 129 166 46 312 105 312
127 0 11 -61 6 -109 -8 l-24 -7 6 62 c4 34 11 69 15 77 5 9 49 29 98 45 49 17
93 34 99 40 20 20 27 7 20 -41 -6 -46 -5 -50 14 -50 16 0 23 10 32 45 11 44
26 60 93 108 14 10 26 25 26 34 0 12 -7 14 -35 9 -19 -4 -35 -5 -35 -2 0 3 12
36 26 75 l26 69 100 37 c55 20 101 35 103 33 8 -8 -27 -109 -50 -142 l-24 -36
27 -7 c42 -11 135 -8 160 6 25 13 29 39 7 47 -8 3 -36 1 -62 -4 -26 -6 -49 -9
-51 -7 -9 9 41 134 59 151 17 15 179 77 185 71 1 -1 -3 -26 -9 -55 -13 -60 -1
-86 31 -66 13 9 17 26 17 77 0 90 -7 95 -97 74 -40 -10 -76 -17 -80 -17 -15 0
-8 32 14 72 17 29 37 46 83 68 71 34 145 49 145 30 0 -6 -9 -23 -20 -37 -28
-36 -26 -55 7 -51 21 2 33 14 52 51 31 61 55 77 126 84 l56 6 -7 -29 c-16 -66
-40 -97 -87 -108 -33 -8 -27 -23 18 -42 28 -12 38 -11 84 7 58 22 171 37 171
23 0 -5 -10 -37 -22 -71 -17 -47 -20 -65 -11 -74 17 -17 43 -3 43 23 0 13 13
51 29 85 l29 61 89 7 c171 14 206 20 211 34 4 12 -17 13 -132 8 -107 -4 -136
-3 -136 7 0 14 54 86 73 98 7 4 111 8 232 8 206 0 234 -2 430 -35z m-745 19
c0 -4 -10 -24 -22 -46 -27 -47 -55 -64 -123 -73 -28 -3 -60 -8 -72 -11 -29 -6
-30 13 -3 66 22 43 30 50 74 61 39 9 146 11 146 3z m-752 -141 c-21 -47 -60
-111 -74 -124 -39 -34 -184 -75 -184 -51 0 18 41 72 73 96 20 15 66 40 104 56
71 31 87 35 81 23z m-301 -154 c-18 -48 -89 -104 -169 -133 -39 -15 -73 -24
-76 -21 -14 14 44 66 138 123 57 34 106 62 111 62 4 0 2 -14 -4 -31z m-67
-154 c0 -2 -9 -29 -20 -59 -18 -46 -27 -57 -63 -74 -63 -29 -156 -57 -164 -48
-4 4 4 28 17 54 22 41 35 52 110 89 76 38 120 52 120 38z m-232 -17 c-5 -16
-249 -160 -257 -152 -10 10 58 62 149 115 86 49 115 59 108 37z m-75 -155
c-20 -41 -75 -77 -169 -109 -112 -38 -68 15 93 111 48 29 89 49 91 44 2 -5 -5
-26 -15 -46z m-2119 -138 c-4 -8 -8 -15 -10 -15 -2 0 -4 7 -4 15 0 8 4 15 10
15 5 0 7 -7 4 -15z m1796 -25 c-24 -18 -60 -33 -60 -24 0 7 64 44 75 44 6 0
-1 -9 -15 -20z m265 -12 c-20 -91 -31 -103 -118 -138 -45 -17 -88 -35 -96 -38
-12 -4 -13 4 -8 46 10 82 36 108 146 143 80 26 84 25 76 -13z m-278 -124 c-4
-20 -16 -47 -27 -59 -23 -24 -158 -91 -166 -82 -6 6 12 76 24 95 12 17 133 81
156 82 16 0 18 -5 13 -36z m-244 -126 c-7 -26 -20 -39 -59 -60 -62 -34 -132
-59 -138 -49 -7 11 56 69 134 125 69 50 79 48 63 -16z m202 -60 c-14 -99 -12
-96 -73 -118 -73 -28 -118 -35 -126 -21 -9 15 14 87 33 105 16 14 148 75 164
76 5 0 6 -19 2 -42z m-241 -100 c-4 -24 -12 -53 -20 -64 -13 -21 -147 -84
-178 -84 -26 0 -18 36 15 70 25 24 173 120 186 120 2 0 0 -19 -3 -42z m-226
10 c-3 -7 -13 -15 -24 -17 -16 -3 -17 -1 -5 13 16 19 34 21 29 4z m-33 -150
c-10 -47 -28 -63 -101 -92 -76 -31 -84 -32 -84 -8 0 24 37 58 107 98 75 43 87
43 78 2z m228 -50 c-9 -65 -16 -73 -95 -96 -83 -25 -118 -28 -118 -9 0 37 54
74 217 146 0 1 -1 -18 -4 -41z m-267 -105 c-9 -39 -42 -65 -108 -88 -59 -20
-72 -18 -63 6 5 14 150 106 169 108 4 1 5 -11 2 -26z m-226 -11 c0 -19 -28
-44 -45 -41 -18 4 -18 6 5 27 24 23 40 28 40 14z m196 -136 c3 -8 0 -32 -6
-54 -10 -39 -13 -41 -64 -53 -64 -14 -86 -8 -86 24 0 29 21 50 80 76 53 24 69
26 76 7z m-6 -268 c0 -76 -4 -81 -81 -92 -54 -8 -55 -7 -65 88 -7 72 -6 74 71
92 65 15 75 4 75 -88z m-211 -70 l1 -46 -48 -12 c-83 -19 -113 -16 -139 15
-23 26 -23 28 -6 47 10 11 54 42 98 69 l80 50 7 -38 c4 -21 7 -59 7 -85z m41
-155 c6 -21 13 -60 17 -87 l6 -48 -24 12 c-13 8 -56 43 -96 79 l-72 66 32 6
c18 4 53 7 79 8 46 1 47 0 58 -36z m212 -185 c18 -16 64 -125 55 -134 -7 -7
-49 21 -120 79 -51 42 -51 53 -2 60 17 2 35 5 41 6 5 0 17 -5 26 -11z"/>
<path d="M15663 13794 c-8 -22 22 -44 59 -44 34 0 37 22 6 44 -29 21 -57 20
-65 0z"/>
<path d="M15954 13705 c-9 -21 12 -89 31 -105 29 -24 37 3 18 60 -19 56 -38
74 -49 45z"/>
<path d="M15621 13592 c-11 -22 -35 -46 -60 -60 -63 -36 -50 -74 21 -64 l41 5
-6 -36 c-4 -27 -1 -42 14 -62 35 -43 46 -33 51 48 3 63 7 78 31 106 31 37 31
54 0 59 -12 2 -29 12 -39 23 -24 27 -31 24 -53 -19z"/>
<path d="M17207 13314 c-16 -16 -6 -54 19 -71 25 -16 27 -16 41 3 7 10 13 30
11 44 -2 20 -9 26 -33 28 -17 2 -34 0 -38 -4z"/>
<path d="M15346 13285 c-16 -42 1 -115 26 -115 7 0 9 18 5 56 -6 60 -20 87
-31 59z"/>
<path d="M15640 13241 c0 -65 69 -241 106 -272 16 -13 17 -11 10 36 -9 65 -49
236 -59 253 -5 6 -19 12 -33 12 -20 0 -24 -5 -24 -29z"/>
<path d="M16823 13239 c-19 -19 5 -55 64 -99 71 -54 88 -60 78 -29 -30 100
-104 166 -142 128z"/>
<path d="M15070 13107 c0 -33 23 -52 39 -33 18 22 9 51 -17 54 -18 3 -22 -1
-22 -21z"/>
<path d="M15172 13070 c-39 -9 -46 -15 -37 -29 10 -17 40 -13 66 7 27 23 16
31 -29 22z"/>
<path d="M16397 13063 c-4 -3 -7 -20 -7 -36 0 -32 63 -139 102 -173 l21 -19
-6 46 c-10 77 -67 189 -96 189 -4 0 -11 -3 -14 -7z"/>
<path d="M15350 12993 c0 -77 42 -142 70 -108 20 24 -18 129 -47 133 -19 3
-23 -1 -23 -25z"/>
<path d="M14870 12773 c0 -35 36 -96 51 -87 21 13 -15 114 -41 114 -6 0 -10
-12 -10 -27z"/>
<path d="M17364 12659 c-191 -184 -274 -238 -515 -332 -150 -59 -197 -82 -236
-120 -42 -39 -44 -62 -5 -53 57 14 648 317 704 361 93 73 182 194 176 238 -3
19 -21 4 -124 -94z"/>
<path d="M15001 12702 c-35 -17 -53 -42 -30 -42 6 0 31 10 55 21 23 12 49 19
57 16 8 -3 25 -34 36 -70 12 -35 28 -73 36 -83 14 -18 14 -18 15 3 0 37 -21
127 -36 151 -18 28 -83 30 -133 4z"/>
<path d="M15487 12664 c-8 -8 9 -42 36 -71 25 -27 37 -29 37 -5 -1 27 -60 89
-73 76z"/>
<path d="M14687 12575 c-17 -20 -49 -46 -69 -56 -21 -11 -38 -24 -38 -29 0
-18 39 -21 75 -5 51 21 55 20 55 -19 0 -40 46 -86 104 -106 32 -10 42 -9 76 9
22 11 46 18 53 15 7 -2 31 -27 51 -54 58 -76 69 -65 40 38 -17 61 -36 86 -72
97 -18 5 -25 2 -29 -14 -3 -12 -26 -31 -56 -46 -49 -24 -52 -24 -69 -8 -28 29
-45 107 -30 145 13 36 5 50 -36 63 -18 5 -29 -1 -55 -30z"/>
<path d="M14526 12353 c9 -26 18 -64 21 -83 10 -69 43 -78 103 -27 56 45 53
61 -9 52 l-49 -7 -28 53 c-39 70 -59 77 -38 12z"/>
<path d="M15210 12375 c0 -9 8 -30 17 -48 15 -28 18 -29 21 -11 4 26 -14 74
-28 74 -5 0 -10 -7 -10 -15z"/>
<path d="M16280 12103 c-23 -9 -60 -45 -60 -59 0 -7 9 -18 21 -24 52 -28 206
50 158 81 -15 9 -95 11 -119 2z"/>
<path d="M21180 14139 c-58 -38 -94 -47 -217 -55 -57 -4 -103 -11 -103 -15 0
-13 71 -29 133 -29 56 0 57 -1 51 -25 -5 -22 -3 -25 19 -25 13 0 50 14 81 30
37 20 69 30 91 28 47 -3 50 4 20 40 -19 23 -24 37 -19 56 8 32 0 32 -56 -5z"/>
<path d="M21491 14074 c21 -20 158 -33 346 -34 130 0 178 8 137 24 -29 11
-238 26 -369 26 -117 0 -128 -1 -114 -16z"/>
<path d="M20618 13888 c-23 -34 -53 -73 -67 -86 -41 -38 -16 -44 149 -38 l145
5 0 -47 c0 -40 3 -47 21 -50 16 -2 25 7 39 39 24 53 45 65 124 74 61 7 63 8
40 21 -13 7 -52 21 -87 30 -59 16 -67 16 -110 1 -26 -9 -85 -21 -131 -27 -109
-15 -116 -8 -73 69 38 69 38 71 12 71 -13 0 -34 -21 -62 -62z"/>
<path d="M21422 13842 c-17 -11 58 -32 115 -32 36 0 73 14 63 24 -10 9 -166
17 -178 8z"/>
<path d="M21035 13610 c-16 -7 -11 -9 22 -9 23 -1 45 4 48 9 8 12 -42 12 -70
0z"/>
<path d="M22278 13496 c-46 -16 -89 -47 -162 -116 -73 -69 -93 -96 -101 -143
-10 -51 11 -49 50 4 32 44 97 97 213 173 39 26 72 52 72 57 0 5 0 12 1 16 1
15 -39 20 -73 9z"/>
<path d="M20780 13463 c-1 -5 -5 -27 -9 -51 -8 -40 -7 -44 16 -53 47 -18 97
-5 63 16 -5 3 -10 16 -10 28 0 28 -26 67 -46 67 -8 0 -14 -3 -14 -7z"/>
<path d="M22395 13206 c-16 -11 -19 -24 -17 -66 2 -55 20 -105 37 -105 17 0
36 76 33 130 -3 55 -18 67 -53 41z"/>
<path d="M20807 13192 c-6 -9 18 -81 32 -95 17 -17 14 39 -4 73 -16 31 -21 35
-28 22z"/>
<path d="M22640 12904 c-37 -43 -29 -64 17 -41 38 20 57 43 49 62 -9 25 -32
17 -66 -21z"/>
<path d="M21826 12669 c-35 -28 -49 -64 -35 -91 20 -37 81 -98 98 -98 23 0 61
41 61 66 0 25 -29 114 -43 132 -15 18 -51 14 -81 -9z"/>
<path d="M19312 12530 c-113 -27 -18 -82 103 -61 35 6 70 9 78 5 15 -5 57 -94
57 -120 0 -8 -9 -14 -20 -14 -11 0 -20 -4 -20 -8 0 -14 23 -32 40 -32 19 0 53
-36 94 -97 20 -30 36 -43 52 -43 33 0 74 21 74 38 0 12 -10 13 -50 8 l-49 -7
-26 50 c-14 28 -25 52 -25 54 0 2 39 7 86 11 105 8 136 15 131 30 -2 7 -45 12
-120 14 l-115 3 -31 54 c-58 102 -147 142 -259 115z"/>
<path d="M21117 12363 c-36 -35 47 -133 112 -133 29 0 33 13 16 53 -25 59
-101 107 -128 80z"/>
<path d="M22740 12336 c-14 -8 -146 -62 -295 -121 -148 -59 -279 -114 -290
-122 -38 -28 91 -5 230 41 197 66 415 175 415 208 0 12 -32 9 -60 -6z"/>
<path d="M22195 12295 c-14 -13 -25 -29 -25 -35 0 -18 39 -50 61 -50 58 0 78
49 36 88 -30 28 -42 28 -72 -3z"/>
<path d="M22425 12030 c-87 -18 -259 -99 -276 -132 -8 -14 -14 -16 -29 -8 -26
14 -73 -4 -68 -28 6 -30 108 -28 108 3 0 18 31 35 63 35 45 0 222 69 265 103
9 7 9 13 1 23 -6 8 -14 14 -18 13 -3 -1 -24 -5 -46 -9z"/>
<path d="M9386 13399 c-46 -36 -28 -113 34 -139 35 -15 64 -2 85 40 20 39 19
62 -6 94 -26 33 -75 35 -113 5z"/>
<path d="M9915 13254 c-14 -15 -15 -19 -2 -31 12 -12 19 -13 36 -4 25 14 28
36 5 45 -21 8 -20 8 -39 -10z"/>
<path d="M9683 13234 c-7 -19 5 -43 30 -58 34 -22 73 28 47 59 -17 20 -69 19
-77 -1z"/>
<path d="M8814 12749 c-3 -6 -1 -16 4 -21 13 -13 45 8 36 23 -7 12 -31 11 -40
-2z"/>
<path d="M9512 12631 c-31 -19 -47 -201 -18 -201 18 0 24 16 36 115 10 79 6
101 -18 86z"/>
<path d="M9210 12544 c-6 -14 -10 -43 -10 -65 0 -34 3 -39 24 -39 21 0 24 6
31 55 3 30 4 59 0 65 -11 18 -35 10 -45 -16z"/>
<path d="M8986 12519 c-19 -28 -22 -93 -3 -87 19 7 44 85 30 99 -8 8 -15 4
-27 -12z"/>
<path d="M8752 12503 c-28 -25 -35 -55 -18 -79 14 -19 15 -19 43 2 36 27 47
94 15 94 -11 0 -29 -8 -40 -17z"/>
<path d="M9813 12474 c-3 -8 -1 -20 5 -26 16 -16 42 -2 42 22 0 24 -38 28 -47
4z"/>
<path d="M9477 12313 c-19 -34 -17 -163 3 -163 11 0 32 102 28 137 -3 26 -22
42 -31 26z"/>
<path d="M9175 12269 c-4 -6 -9 -38 -13 -71 -4 -49 -2 -60 9 -56 16 5 52 105
45 125 -6 16 -32 17 -41 2z"/>
<path d="M8932 12228 c-25 -80 -21 -147 6 -115 15 18 33 112 26 132 -10 24
-22 17 -32 -17z"/>
<path d="M8710 12237 c-33 -17 -60 -66 -62 -116 -2 -54 15 -73 41 -46 23 24
65 155 54 166 -5 5 -19 3 -33 -4z"/>
<path d="M9670 11901 c-129 -34 -208 -67 -193 -82 15 -15 341 8 371 27 28 18
28 48 0 68 -30 22 -56 20 -178 -13z"/>
<path d="M9660 11648 c0 -46 22 -88 45 -88 42 0 19 122 -23 128 -20 3 -22 -1
-22 -40z"/>
<path d="M9079 11444 c-10 -13 -10 -17 2 -24 17 -11 45 13 35 29 -10 15 -21
14 -37 -5z"/>
<path d="M9160 11401 c0 -21 26 -36 36 -20 9 15 -3 39 -21 39 -8 0 -15 -9 -15
-19z"/>
<path d="M8915 11370 c-9 -14 13 -50 31 -50 8 0 17 7 20 15 11 29 -35 61 -51
35z"/>
<path d="M9242 11304 c-46 -27 -59 -61 -19 -48 31 10 64 33 71 49 9 25 -9 25
-52 -1z"/>
<path d="M8907 11233 c-4 -3 -7 -15 -7 -26 0 -16 5 -18 28 -13 58 15 67 12 70
-16 2 -18 -4 -33 -17 -45 -42 -36 -17 -69 30 -40 17 10 22 9 38 -12 22 -28 38
-13 21 20 -9 17 -8 25 7 41 17 19 17 21 -14 48 -42 38 -136 64 -156 43z"/>
<path d="M9230 11135 c-19 -20 -57 -46 -85 -60 -27 -13 -76 -41 -108 -61 -51
-33 -61 -36 -79 -25 -26 16 -36 4 -29 -37 l6 -32 73 35 c160 77 292 168 292
201 0 25 -36 15 -70 -21z"/>
<path d="M8600 11040 c-83 -57 -121 -90 -103 -90 23 0 214 113 210 124 -8 24
-35 15 -107 -34z"/>
<path d="M24945 11950 c-11 -18 5 -66 30 -90 21 -20 25 -21 31 -7 9 25 -18
101 -38 105 -9 2 -19 -2 -23 -8z"/>
<path d="M25035 11930 c-10 -17 4 -48 26 -55 28 -9 34 0 23 33 -10 28 -37 41
-49 22z"/>
<path d="M24748 11908 c-7 -19 15 -91 30 -96 10 -3 12 9 10 49 -2 40 -7 55
-19 57 -9 2 -19 -3 -21 -10z"/>
<path d="M17471 10122 c-19 -4 -36 -13 -39 -19 -4 -15 129 -17 208 -4 43 7 44
7 15 14 -52 11 -149 15 -184 9z"/>
<path d="M23191 10717 c-35 -18 -48 -43 -35 -64 10 -16 30 -18 170 -18 166 0
233 9 202 26 -20 11 -207 55 -268 63 -28 4 -54 1 -69 -7z"/>
<path d="M23763 10654 c-7 -19 21 -44 49 -44 22 0 22 4 2 35 -19 29 -42 32
-51 9z"/>
<path d="M23949 10620 c-24 -20 -24 -20 -5 -35 23 -17 69 -20 97 -5 27 15 24
27 -11 45 -38 20 -53 19 -81 -5z"/>
<path d="M19844 10485 c-16 -38 -19 -125 -5 -125 12 0 66 68 82 103 17 37 6
57 -31 57 -26 0 -33 -6 -46 -35z"/>
<path d="M13862 10308 c-20 -20 -14 -45 19 -73 40 -33 53 -28 57 20 3 29 -1
43 -14 52 -22 16 -46 17 -62 1z"/>
<path d="M13742 10288 c-25 -25 -5 -65 41 -81 39 -14 30 60 -11 82 -13 7 -22
7 -30 -1z"/>
<path d="M12727 9742 c-16 -18 -22 -40 -19 -74 5 -50 337 12 337 62 0 24 -39
23 -108 -4 -35 -14 -68 -26 -73 -26 -6 0 -23 14 -39 30 -33 34 -73 39 -98 12z"/>
<path d="M12485 9690 c-35 -13 -48 -36 -35 -59 21 -39 67 -51 115 -29 31 14
32 38 3 65 -29 26 -57 34 -83 23z"/>
<path d="M15772 7808 c-66 -54 -112 -118 -84 -118 10 0 118 74 149 102 24 22
20 48 -7 48 -9 0 -35 -15 -58 -32z"/>
<path d="M15849 7721 c-51 -34 -87 -87 -70 -104 27 -27 146 62 139 106 -5 31
-20 30 -69 -2z"/>
<path d="M7180 7191 c0 -19 38 -31 97 -31 65 0 104 15 62 24 -57 12 -159 16
-159 7z"/>
<path d="M6745 7130 c-8 -13 3 -30 20 -30 8 0 30 -13 48 -30 43 -37 55 -38 63
-3 10 37 -32 73 -86 73 -21 0 -42 -4 -45 -10z"/>
<path d="M8265 7019 c-8 -12 23 -49 41 -49 20 0 26 17 14 40 -11 21 -44 27
-55 9z"/>
<path d="M7049 6993 c-12 -33 -8 -75 8 -80 7 -3 16 12 23 35 16 63 -9 101 -31
45z"/>
<path d="M6564 6976 c-9 -37 2 -58 28 -54 19 2 23 9 23 38 0 29 -4 36 -22 38
-17 3 -24 -3 -29 -22z"/>
<path d="M6664 6889 c-11 -18 8 -28 61 -31 46 -3 50 -5 55 -32 3 -16 11 -31
17 -33 15 -5 36 44 29 64 -13 33 -145 59 -162 32z"/>
<path d="M6285 6811 c-3 -5 -29 -15 -58 -21 -74 -15 -89 -26 -52 -40 20 -8 37
-8 58 0 17 5 31 10 33 10 1 0 4 -12 6 -27 5 -42 21 -37 50 17 27 48 27 50 9
60 -24 12 -38 13 -46 1z"/>
<path d="M6523 6698 c-6 -7 -14 -23 -17 -36 -4 -12 -21 -29 -38 -38 -34 -18
-31 -24 33 -62 l36 -22 20 24 c15 17 37 26 74 31 112 15 114 42 4 47 -69 3
-70 4 -75 32 -6 33 -22 43 -37 24z"/>
<path d="M5989 6586 c-28 -61 34 -117 113 -100 58 13 59 30 1 39 -54 8 -73 19
-73 45 0 10 -7 23 -15 30 -12 10 -17 8 -26 -14z"/>
<path d="M7841 6544 c-20 -15 -23 -23 -19 -66 5 -51 34 -94 53 -80 25 17 55
67 55 91 0 29 -32 71 -53 71 -7 0 -23 -7 -36 -16z"/>
<path d="M5700 6506 c0 -34 -19 -84 -36 -90 -21 -8 -17 -21 11 -34 41 -19 91
-15 119 11 l26 22 -60 57 c-53 51 -60 55 -60 34z"/>
<path d="M6241 6446 c-17 -20 -10 -81 9 -81 10 0 16 12 18 39 4 44 -9 64 -27
42z"/>
<path d="M8336 6421 c-24 -26 -34 -76 -42 -198 -8 -121 3 -134 42 -49 29 64
67 207 62 238 -4 30 -39 35 -62 9z"/>
<path d="M6502 6277 c5 -81 15 -108 29 -86 10 16 12 120 3 143 -3 9 -13 16
-21 16 -13 0 -15 -12 -11 -73z"/>
<path d="M6315 6330 c-3 -5 1 -10 9 -10 9 0 19 0 23 -1 4 0 9 4 11 10 5 14
-35 14 -43 1z"/>
<path d="M5946 6291 c-27 -28 -28 -51 -4 -51 7 0 22 -10 34 -21 l23 -21 26 20
c14 11 39 24 55 27 17 4 32 10 34 14 4 6 -119 61 -136 61 -2 0 -17 -13 -32
-29z"/>
<path d="M6240 6145 c1 -33 7 -73 15 -90 14 -29 15 -26 12 47 -1 45 -8 83 -15
90 -9 9 -12 0 -12 -47z"/>
<path d="M8613 6148 c-11 -13 -35 -50 -53 -83 -18 -33 -52 -88 -76 -122 -45
-64 -50 -73 -35 -73 12 0 185 209 205 248 27 52 -2 73 -41 30z"/>
<path d="M7465 5976 c-30 -30 -32 -57 -6 -80 44 -40 106 12 85 71 -13 38 -46
42 -79 9z"/>
<path d="M7970 5721 c0 -23 54 -71 81 -71 27 0 24 14 -12 55 -34 39 -69 47
-69 16z"/>
<path d="M5694 5686 c-11 -8 -33 -16 -49 -18 -50 -5 -38 -32 16 -36 44 -3 48
-6 72 -50 l27 -47 0 48 c0 34 5 52 20 64 19 17 19 17 -8 35 -33 22 -51 23 -78
4z"/>
<path d="M7939 5568 c-35 -28 -24 -78 17 -78 23 0 55 39 52 63 -4 26 -44 35
-69 15z"/>
<path d="M2530 5373 c-113 -62 -465 -300 -525 -355 -52 -48 -94 -112 -95 -145
-1 -42 102 26 259 171 58 54 176 151 263 218 87 66 161 124 164 130 13 20 -4
16 -66 -19z"/>
</g>
</svg>
