<svg width="16" height="16" viewBox="0 0 16 16" fill="none" xmlns="http://www.w3.org/2000/svg">
<g clip-path="url(#clip0_291_499)">
<path d="M6.5 13.4999V9.49991H9.5V13.4999H13.5V7.49991C13.5001 7.43422 13.4872 7.36918 13.4621 7.30848C13.437 7.24778 13.4002 7.19262 13.3538 7.14615L8.35375 2.14615C8.30731 2.09967 8.25217 2.06279 8.19147 2.03763C8.13077 2.01246 8.06571 1.99951 8 1.99951C7.93429 1.99951 7.86923 2.01246 7.80853 2.03763C7.74783 2.06279 7.69269 2.09967 7.64625 2.14615L2.64625 7.14615C2.59983 7.19262 2.56303 7.24778 2.53793 7.30848C2.51284 7.36918 2.49995 7.43422 2.5 7.49991V13.4999H6.5Z" stroke="#EBEB47" stroke-linecap="round" stroke-linejoin="round"/>
</g>
<defs>
<clipPath id="clip0_291_499">
<rect width="16" height="16" fill="white"/>
</clipPath>
</defs>
</svg>
