<svg width="561" height="325" viewBox="0 0 561 325" fill="none" xmlns="http://www.w3.org/2000/svg">
<path d="M240.551 33.428H200.614V75.8518L232.859 121.914C240.215 117.31 248.284 113.741 256.864 111.411L240.551 33.428Z" fill="url(#paint0_radial_67_175)"/>
<path d="M293.601 109.232C289.315 108.604 284.93 108.279 280.469 108.279C275.768 108.279 271.152 108.64 266.646 109.335L250.062 30.0513L280.113 0L310.165 30.0513L293.601 109.232Z" fill="url(#paint1_radial_67_175)"/>
<path d="M328.094 121.924C320.542 117.195 312.237 113.557 303.4 111.231L319.675 33.428H360.319V76.5404L328.094 121.924Z" fill="url(#paint2_radial_67_175)"/>
<path d="M356.207 149.764C350.819 141.346 344.067 133.885 336.262 127.694L365.969 85.856L393.042 112.929L356.207 149.764Z" fill="url(#paint3_radial_67_175)"/>
<path d="M224.691 127.683C216.745 133.982 209.89 141.597 204.454 150.199L167.184 112.929L194.935 85.1775L224.691 127.683Z" fill="url(#paint4_radial_67_175)"/>
<path d="M245.667 193.134H200.768C203.348 151.36 238.045 118.279 280.469 118.279C322.892 118.279 357.589 151.36 360.17 193.134H314.559C312.686 179.49 303.576 168.432 294.669 157.617C289.15 150.917 283.708 144.312 280.113 137.243C276.518 144.312 271.076 150.917 265.557 157.617C256.649 168.432 247.54 179.49 245.667 193.134Z" fill="url(#paint5_radial_67_175)"/>
<path fill-rule="evenodd" clip-rule="evenodd" d="M280.113 222.93C293.836 222.93 304.908 211.847 304.908 198.238C304.908 189.246 300.516 181.215 293.379 171.951C291.234 169.168 289.245 166.758 287.161 164.233C285.532 162.26 283.846 160.217 281.983 157.871C281.36 157.088 280.736 156.291 280.113 155.48C279.491 156.291 278.866 157.088 278.244 157.871C276.38 160.217 274.694 162.26 273.066 164.233C270.982 166.758 268.992 169.168 266.848 171.951C259.711 181.215 255.318 189.246 255.318 198.238C255.318 211.847 266.391 222.93 280.113 222.93Z" fill="url(#paint6_radial_67_175)"/>
<path d="M114.981 313.322V284.906C114.981 281.407 114.085 278.975 112.293 277.61C110.586 276.159 108.453 275.434 105.893 275.434C103.333 275.434 101.072 275.903 99.109 276.842C98.4859 277.14 97.8885 277.446 97.317 277.762V322.41C96.3783 322.666 95.013 322.922 93.221 323.178C91.5143 323.434 89.637 323.562 87.589 323.562C83.4077 323.562 80.3357 322.836 78.373 321.386C76.4957 319.935 75.557 317.247 75.557 313.322V239.082C76.4957 238.826 77.8183 238.57 79.525 238.314C81.317 238.058 83.237 237.93 85.285 237.93C89.5517 237.93 92.6237 238.655 94.501 240.106C96.3783 241.471 97.317 244.159 97.317 248.17V260.901C98.4635 260.467 99.7008 260.063 101.029 259.69C103.76 258.836 106.746 258.41 109.989 258.41C118.352 258.41 124.88 260.543 129.573 264.81C134.352 268.991 136.741 275.263 136.741 283.626V322.41C135.802 322.666 134.437 322.922 132.645 323.178C130.938 323.434 129.061 323.562 127.013 323.562C122.832 323.562 119.76 322.836 117.797 321.386C115.92 319.935 114.981 317.247 114.981 313.322Z" fill="#D9D9D9"/>
<path d="M114.981 313.322V284.906C114.981 281.407 114.085 278.975 112.293 277.61C110.586 276.159 108.453 275.434 105.893 275.434C103.333 275.434 101.072 275.903 99.109 276.842C98.4859 277.14 97.8885 277.446 97.317 277.762V322.41C96.3783 322.666 95.013 322.922 93.221 323.178C91.5143 323.434 89.637 323.562 87.589 323.562C83.4077 323.562 80.3357 322.836 78.373 321.386C76.4957 319.935 75.557 317.247 75.557 313.322V239.082C76.4957 238.826 77.8183 238.57 79.525 238.314C81.317 238.058 83.237 237.93 85.285 237.93C89.5517 237.93 92.6237 238.655 94.501 240.106C96.3783 241.471 97.317 244.159 97.317 248.17V260.901C98.4635 260.467 99.7008 260.063 101.029 259.69C103.76 258.836 106.746 258.41 109.989 258.41C118.352 258.41 124.88 260.543 129.573 264.81C134.352 268.991 136.741 275.263 136.741 283.626V322.41C135.802 322.666 134.437 322.922 132.645 323.178C130.938 323.434 129.061 323.562 127.013 323.562C122.832 323.562 119.76 322.836 117.797 321.386C115.92 319.935 114.981 317.247 114.981 313.322Z" fill="url(#paint7_radial_67_175)"/>
<path d="M64.768 256.234C64.768 258.367 64.2133 260.287 63.104 261.994C61.9947 263.615 60.7147 264.895 59.264 265.834C57.1307 264.383 54.784 263.146 52.224 262.122C49.664 261.098 46.72 260.586 43.392 260.586C39.04 260.586 35.328 261.524 32.256 263.402C29.2693 265.194 26.9653 267.839 25.344 271.338C23.808 274.751 23.04 278.89 23.04 283.754C23.04 291.263 24.9173 296.98 28.672 300.906C32.512 304.831 37.8027 306.794 44.544 306.794C48.0427 306.794 50.9867 306.324 53.376 305.386C55.8507 304.447 58.1973 303.38 60.416 302.186C61.8667 303.295 62.976 304.703 63.744 306.41C64.5973 308.116 65.024 310.079 65.024 312.298C65.024 314.26 64.512 316.052 63.488 317.674C62.464 319.295 60.7147 320.66 58.24 321.77C56.704 322.452 54.528 323.135 51.712 323.818C48.896 324.5 45.4827 324.842 41.472 324.842C33.792 324.842 26.7947 323.391 20.48 320.49C14.2507 317.588 9.25867 313.108 5.504 307.05C1.83467 300.991 0 293.226 0 283.754C0 274.879 1.792 267.412 5.376 261.354C8.96 255.21 13.7813 250.559 19.84 247.402C25.984 244.159 32.7253 242.538 40.064 242.538C45.2693 242.538 49.7067 243.135 53.376 244.33C57.0453 245.524 59.8613 247.146 61.824 249.194C63.7867 251.242 64.768 253.588 64.768 256.234Z" fill="#D9D9D9"/>
<path d="M64.768 256.234C64.768 258.367 64.2133 260.287 63.104 261.994C61.9947 263.615 60.7147 264.895 59.264 265.834C57.1307 264.383 54.784 263.146 52.224 262.122C49.664 261.098 46.72 260.586 43.392 260.586C39.04 260.586 35.328 261.524 32.256 263.402C29.2693 265.194 26.9653 267.839 25.344 271.338C23.808 274.751 23.04 278.89 23.04 283.754C23.04 291.263 24.9173 296.98 28.672 300.906C32.512 304.831 37.8027 306.794 44.544 306.794C48.0427 306.794 50.9867 306.324 53.376 305.386C55.8507 304.447 58.1973 303.38 60.416 302.186C61.8667 303.295 62.976 304.703 63.744 306.41C64.5973 308.116 65.024 310.079 65.024 312.298C65.024 314.26 64.512 316.052 63.488 317.674C62.464 319.295 60.7147 320.66 58.24 321.77C56.704 322.452 54.528 323.135 51.712 323.818C48.896 324.5 45.4827 324.842 41.472 324.842C33.792 324.842 26.7947 323.391 20.48 320.49C14.2507 317.588 9.25867 313.108 5.504 307.05C1.83467 300.991 0 293.226 0 283.754C0 274.879 1.792 267.412 5.376 261.354C8.96 255.21 13.7813 250.559 19.84 247.402C25.984 244.159 32.7253 242.538 40.064 242.538C45.2693 242.538 49.7067 243.135 53.376 244.33C57.0453 245.524 59.8613 247.146 61.824 249.194C63.7867 251.242 64.768 253.588 64.768 256.234Z" fill="url(#paint8_radial_67_175)"/>
<path fill-rule="evenodd" clip-rule="evenodd" d="M210.336 309.098C213.152 304.148 214.56 298.26 214.56 291.434C214.56 284.778 213.152 278.975 210.336 274.026C207.52 269.076 203.595 265.236 198.56 262.506C193.611 259.775 187.765 258.41 181.024 258.41C174.368 258.41 168.523 259.775 163.488 262.506C158.453 265.151 154.528 268.948 151.712 273.898C148.896 278.847 147.488 284.692 147.488 291.434C147.488 298.346 148.853 304.276 151.584 309.226C154.4 314.175 158.325 317.972 163.36 320.618C168.395 323.263 174.283 324.586 181.024 324.586C187.851 324.586 193.739 323.263 198.688 320.618C203.723 317.887 207.605 314.047 210.336 309.098ZM172.704 279.658C174.752 276.842 177.525 275.434 181.024 275.434C184.522 275.434 187.253 276.842 189.216 279.658C191.264 282.474 192.288 286.399 192.288 291.434C192.288 296.639 191.306 300.65 189.344 303.466C187.381 306.196 184.608 307.562 181.024 307.562C177.44 307.562 174.666 306.196 172.704 303.466C170.741 300.735 169.76 296.724 169.76 291.434C169.76 286.314 170.741 282.388 172.704 279.658Z" fill="#D9D9D9"/>
<path fill-rule="evenodd" clip-rule="evenodd" d="M210.336 309.098C213.152 304.148 214.56 298.26 214.56 291.434C214.56 284.778 213.152 278.975 210.336 274.026C207.52 269.076 203.595 265.236 198.56 262.506C193.611 259.775 187.765 258.41 181.024 258.41C174.368 258.41 168.523 259.775 163.488 262.506C158.453 265.151 154.528 268.948 151.712 273.898C148.896 278.847 147.488 284.692 147.488 291.434C147.488 298.346 148.853 304.276 151.584 309.226C154.4 314.175 158.325 317.972 163.36 320.618C168.395 323.263 174.283 324.586 181.024 324.586C187.851 324.586 193.739 323.263 198.688 320.618C203.723 317.887 207.605 314.047 210.336 309.098ZM172.704 279.658C174.752 276.842 177.525 275.434 181.024 275.434C184.522 275.434 187.253 276.842 189.216 279.658C191.264 282.474 192.288 286.399 192.288 291.434C192.288 296.639 191.306 300.65 189.344 303.466C187.381 306.196 184.608 307.562 181.024 307.562C177.44 307.562 174.666 306.196 172.704 303.466C170.741 300.735 169.76 296.724 169.76 291.434C169.76 286.314 170.741 282.388 172.704 279.658Z" fill="url(#paint9_radial_67_175)"/>
<path d="M229.144 313.194C226.499 309.268 225.176 304.148 225.176 297.834V260.586C226.115 260.33 227.437 260.074 229.144 259.818C230.936 259.562 232.856 259.434 234.904 259.434C239.171 259.434 242.243 260.159 244.12 261.61C245.997 262.975 246.936 265.663 246.936 269.674V297.834C246.936 301.247 247.789 303.722 249.496 305.258C251.288 306.794 253.763 307.562 256.92 307.562C258.883 307.562 260.504 307.391 261.784 307.05C263.064 306.708 264.003 306.367 264.6 306.026V260.586C265.539 260.33 266.861 260.074 268.568 259.818C270.36 259.562 272.28 259.434 274.328 259.434C278.595 259.434 281.667 260.159 283.544 261.61C285.421 262.975 286.36 265.663 286.36 269.674V309.226C286.36 311.359 285.891 313.236 284.952 314.858C284.099 316.394 282.776 317.716 280.984 318.826C277.997 320.703 274.413 322.111 270.232 323.05C266.136 324.074 261.656 324.586 256.792 324.586C250.648 324.586 245.187 323.69 240.408 321.898C235.629 320.02 231.875 317.119 229.144 313.194Z" fill="#D9D9D9"/>
<path d="M229.144 313.194C226.499 309.268 225.176 304.148 225.176 297.834V260.586C226.115 260.33 227.437 260.074 229.144 259.818C230.936 259.562 232.856 259.434 234.904 259.434C239.171 259.434 242.243 260.159 244.12 261.61C245.997 262.975 246.936 265.663 246.936 269.674V297.834C246.936 301.247 247.789 303.722 249.496 305.258C251.288 306.794 253.763 307.562 256.92 307.562C258.883 307.562 260.504 307.391 261.784 307.05C263.064 306.708 264.003 306.367 264.6 306.026V260.586C265.539 260.33 266.861 260.074 268.568 259.818C270.36 259.562 272.28 259.434 274.328 259.434C278.595 259.434 281.667 260.159 283.544 261.61C285.421 262.975 286.36 265.663 286.36 269.674V309.226C286.36 311.359 285.891 313.236 284.952 314.858C284.099 316.394 282.776 317.716 280.984 318.826C277.997 320.703 274.413 322.111 270.232 323.05C266.136 324.074 261.656 324.586 256.792 324.586C250.648 324.586 245.187 323.69 240.408 321.898C235.629 320.02 231.875 317.119 229.144 313.194Z" fill="url(#paint10_radial_67_175)"/>
<path d="M321.436 322.41V278.634C323.228 277.61 325.319 276.842 327.708 276.33C330.097 275.818 332.359 275.562 334.492 275.562C335.943 275.562 337.265 275.604 338.46 275.69C339.655 275.775 340.679 275.903 341.532 276.074C342.129 275.135 342.641 274.026 343.068 272.746C343.495 271.38 343.708 269.93 343.708 268.394C343.708 261.823 339.057 258.538 329.756 258.538C325.489 258.538 321.351 259.007 317.34 259.946C313.329 260.884 309.831 262.25 306.844 264.042C304.711 265.407 302.961 267.028 301.596 268.906C300.316 270.698 299.676 272.831 299.676 275.306V313.322C299.676 317.247 300.615 319.935 302.492 321.386C304.455 322.836 307.527 323.562 311.708 323.562C313.756 323.562 315.633 323.434 317.34 323.178C319.132 322.922 320.497 322.666 321.436 322.41Z" fill="#D9D9D9"/>
<path d="M321.436 322.41V278.634C323.228 277.61 325.319 276.842 327.708 276.33C330.097 275.818 332.359 275.562 334.492 275.562C335.943 275.562 337.265 275.604 338.46 275.69C339.655 275.775 340.679 275.903 341.532 276.074C342.129 275.135 342.641 274.026 343.068 272.746C343.495 271.38 343.708 269.93 343.708 268.394C343.708 261.823 339.057 258.538 329.756 258.538C325.489 258.538 321.351 259.007 317.34 259.946C313.329 260.884 309.831 262.25 306.844 264.042C304.711 265.407 302.961 267.028 301.596 268.906C300.316 270.698 299.676 272.831 299.676 275.306V313.322C299.676 317.247 300.615 319.935 302.492 321.386C304.455 322.836 307.527 323.562 311.708 323.562C313.756 323.562 315.633 323.434 317.34 323.178C319.132 322.922 320.497 322.666 321.436 322.41Z" fill="url(#paint11_radial_67_175)"/>
<path fill-rule="evenodd" clip-rule="evenodd" d="M414.31 291.434C414.31 298.26 412.902 304.148 410.086 309.098C407.355 314.047 403.473 317.887 398.438 320.618C393.489 323.263 387.601 324.586 380.774 324.586C374.033 324.586 368.145 323.263 363.11 320.618C358.075 317.972 354.15 314.175 351.334 309.226C348.603 304.276 347.238 298.346 347.238 291.434C347.238 284.692 348.646 278.847 351.462 273.898C354.278 268.948 358.203 265.151 363.238 262.506C368.273 259.775 374.118 258.41 380.774 258.41C387.515 258.41 393.361 259.775 398.31 262.506C403.345 265.236 407.27 269.076 410.086 274.026C412.902 278.975 414.31 284.778 414.31 291.434ZM380.774 275.434C377.275 275.434 374.502 276.842 372.454 279.658C370.491 282.388 369.51 286.314 369.51 291.434C369.51 296.724 370.491 300.735 372.454 303.466C374.416 306.196 377.19 307.562 380.774 307.562C384.358 307.562 387.131 306.196 389.094 303.466C391.056 300.65 392.038 296.639 392.038 291.434C392.038 286.399 391.014 282.474 388.966 279.658C387.003 276.842 384.272 275.434 380.774 275.434Z" fill="#D9D9D9"/>
<path fill-rule="evenodd" clip-rule="evenodd" d="M414.31 291.434C414.31 298.26 412.902 304.148 410.086 309.098C407.355 314.047 403.473 317.887 398.438 320.618C393.489 323.263 387.601 324.586 380.774 324.586C374.033 324.586 368.145 323.263 363.11 320.618C358.075 317.972 354.15 314.175 351.334 309.226C348.603 304.276 347.238 298.346 347.238 291.434C347.238 284.692 348.646 278.847 351.462 273.898C354.278 268.948 358.203 265.151 363.238 262.506C368.273 259.775 374.118 258.41 380.774 258.41C387.515 258.41 393.361 259.775 398.31 262.506C403.345 265.236 407.27 269.076 410.086 274.026C412.902 278.975 414.31 284.778 414.31 291.434ZM380.774 275.434C377.275 275.434 374.502 276.842 372.454 279.658C370.491 282.388 369.51 286.314 369.51 291.434C369.51 296.724 370.491 300.735 372.454 303.466C374.416 306.196 377.19 307.562 380.774 307.562C384.358 307.562 387.131 306.196 389.094 303.466C391.056 300.65 392.038 296.639 392.038 291.434C392.038 286.399 391.014 282.474 388.966 279.658C387.003 276.842 384.272 275.434 380.774 275.434Z" fill="url(#paint12_radial_67_175)"/>
<path d="M424.926 260.586V297.834C424.926 304.148 426.249 309.268 428.894 313.194C431.625 317.119 435.379 320.02 440.158 321.898C444.937 323.69 450.398 324.586 456.542 324.586C461.406 324.586 465.886 324.074 469.982 323.05C474.163 322.111 477.747 320.703 480.734 318.826C482.526 317.716 483.849 316.394 484.702 314.858C485.641 313.236 486.11 311.359 486.11 309.226V269.674C486.11 265.663 485.171 262.975 483.294 261.61C481.417 260.159 478.345 259.434 474.078 259.434C472.03 259.434 470.11 259.562 468.318 259.818C466.611 260.074 465.289 260.33 464.35 260.586V306.026C463.753 306.367 462.814 306.708 461.534 307.05C460.254 307.391 458.633 307.562 456.67 307.562C453.513 307.562 451.038 306.794 449.246 305.258C447.539 303.722 446.686 301.247 446.686 297.834V269.674C446.686 265.663 445.747 262.975 443.87 261.61C441.993 260.159 438.921 259.434 434.654 259.434C432.606 259.434 430.686 259.562 428.894 259.818C427.187 260.074 425.865 260.33 424.926 260.586Z" fill="#D9D9D9"/>
<path d="M424.926 260.586V297.834C424.926 304.148 426.249 309.268 428.894 313.194C431.625 317.119 435.379 320.02 440.158 321.898C444.937 323.69 450.398 324.586 456.542 324.586C461.406 324.586 465.886 324.074 469.982 323.05C474.163 322.111 477.747 320.703 480.734 318.826C482.526 317.716 483.849 316.394 484.702 314.858C485.641 313.236 486.11 311.359 486.11 309.226V269.674C486.11 265.663 485.171 262.975 483.294 261.61C481.417 260.159 478.345 259.434 474.078 259.434C472.03 259.434 470.11 259.562 468.318 259.818C466.611 260.074 465.289 260.33 464.35 260.586V306.026C463.753 306.367 462.814 306.708 461.534 307.05C460.254 307.391 458.633 307.562 456.67 307.562C453.513 307.562 451.038 306.794 449.246 305.258C447.539 303.722 446.686 301.247 446.686 297.834V269.674C446.686 265.663 445.747 262.975 443.87 261.61C441.993 260.159 438.921 259.434 434.654 259.434C432.606 259.434 430.686 259.562 428.894 259.818C427.187 260.074 425.865 260.33 424.926 260.586Z" fill="url(#paint13_radial_67_175)"/>
<path d="M543.458 259.434L521.442 281.939V248.17C521.442 244.159 520.503 241.471 518.626 240.106C516.749 238.655 513.677 237.93 509.41 237.93C507.362 237.93 505.442 238.058 503.65 238.314C501.943 238.57 500.621 238.826 499.682 239.082V313.322C499.682 317.247 500.621 319.935 502.498 321.386C504.461 322.836 507.533 323.562 511.714 323.562C513.762 323.562 515.639 323.434 517.346 323.178C519.138 322.922 520.503 322.666 521.442 322.41V299.146L534.114 314.986C536.589 318.143 538.893 320.404 541.026 321.77C543.245 323.05 545.677 323.69 548.322 323.69C551.991 323.69 554.807 322.623 556.77 320.49C558.733 318.271 559.885 315.199 560.226 311.274L539.692 290.837L547.17 284.394C550.925 281.151 553.698 278.548 555.49 276.586C557.282 274.623 558.178 272.362 558.178 269.802C558.178 266.815 556.813 264.34 554.082 262.378C551.437 260.415 547.895 259.434 543.458 259.434Z" fill="#D9D9D9"/>
<path d="M543.458 259.434L521.442 281.939V248.17C521.442 244.159 520.503 241.471 518.626 240.106C516.749 238.655 513.677 237.93 509.41 237.93C507.362 237.93 505.442 238.058 503.65 238.314C501.943 238.57 500.621 238.826 499.682 239.082V313.322C499.682 317.247 500.621 319.935 502.498 321.386C504.461 322.836 507.533 323.562 511.714 323.562C513.762 323.562 515.639 323.434 517.346 323.178C519.138 322.922 520.503 322.666 521.442 322.41V299.146L534.114 314.986C536.589 318.143 538.893 320.404 541.026 321.77C543.245 323.05 545.677 323.69 548.322 323.69C551.991 323.69 554.807 322.623 556.77 320.49C558.733 318.271 559.885 315.199 560.226 311.274L539.692 290.837L547.17 284.394C550.925 281.151 553.698 278.548 555.49 276.586C557.282 274.623 558.178 272.362 558.178 269.802C558.178 266.815 556.813 264.34 554.082 262.378C551.437 260.415 547.895 259.434 543.458 259.434Z" fill="url(#paint14_radial_67_175)"/>
<path d="M114.981 313.322V284.906C114.981 281.407 114.085 278.975 112.293 277.61C110.586 276.159 108.453 275.434 105.893 275.434C103.333 275.434 101.072 275.903 99.109 276.842C98.4859 277.14 97.8885 277.446 97.317 277.762V322.41C96.3783 322.666 95.013 322.922 93.221 323.178C91.5143 323.434 89.637 323.562 87.589 323.562C83.4077 323.562 80.3357 322.836 78.373 321.386C76.4957 319.935 75.557 317.247 75.557 313.322V239.082C76.4957 238.826 77.8183 238.57 79.525 238.314C81.317 238.058 83.237 237.93 85.285 237.93C89.5517 237.93 92.6237 238.655 94.501 240.106C96.3783 241.471 97.317 244.159 97.317 248.17V260.901C98.4635 260.467 99.7008 260.063 101.029 259.69C103.76 258.836 106.746 258.41 109.989 258.41C118.352 258.41 124.88 260.543 129.573 264.81C134.352 268.991 136.741 275.263 136.741 283.626V322.41C135.802 322.666 134.437 322.922 132.645 323.178C130.938 323.434 129.061 323.562 127.013 323.562C122.832 323.562 119.76 322.836 117.797 321.386C115.92 319.935 114.981 317.247 114.981 313.322Z" fill="#D9D9D9"/>
<path d="M114.981 313.322V284.906C114.981 281.407 114.085 278.975 112.293 277.61C110.586 276.159 108.453 275.434 105.893 275.434C103.333 275.434 101.072 275.903 99.109 276.842C98.4859 277.14 97.8885 277.446 97.317 277.762V322.41C96.3783 322.666 95.013 322.922 93.221 323.178C91.5143 323.434 89.637 323.562 87.589 323.562C83.4077 323.562 80.3357 322.836 78.373 321.386C76.4957 319.935 75.557 317.247 75.557 313.322V239.082C76.4957 238.826 77.8183 238.57 79.525 238.314C81.317 238.058 83.237 237.93 85.285 237.93C89.5517 237.93 92.6237 238.655 94.501 240.106C96.3783 241.471 97.317 244.159 97.317 248.17V260.901C98.4635 260.467 99.7008 260.063 101.029 259.69C103.76 258.836 106.746 258.41 109.989 258.41C118.352 258.41 124.88 260.543 129.573 264.81C134.352 268.991 136.741 275.263 136.741 283.626V322.41C135.802 322.666 134.437 322.922 132.645 323.178C130.938 323.434 129.061 323.562 127.013 323.562C122.832 323.562 119.76 322.836 117.797 321.386C115.92 319.935 114.981 317.247 114.981 313.322Z" fill="url(#paint15_radial_67_175)"/>
<path d="M64.768 256.234C64.768 258.367 64.2133 260.287 63.104 261.994C61.9947 263.615 60.7147 264.895 59.264 265.834C57.1307 264.383 54.784 263.146 52.224 262.122C49.664 261.098 46.72 260.586 43.392 260.586C39.04 260.586 35.328 261.524 32.256 263.402C29.2693 265.194 26.9653 267.839 25.344 271.338C23.808 274.751 23.04 278.89 23.04 283.754C23.04 291.263 24.9173 296.98 28.672 300.906C32.512 304.831 37.8027 306.794 44.544 306.794C48.0427 306.794 50.9867 306.324 53.376 305.386C55.8507 304.447 58.1973 303.38 60.416 302.186C61.8667 303.295 62.976 304.703 63.744 306.41C64.5973 308.116 65.024 310.079 65.024 312.298C65.024 314.26 64.512 316.052 63.488 317.674C62.464 319.295 60.7147 320.66 58.24 321.77C56.704 322.452 54.528 323.135 51.712 323.818C48.896 324.5 45.4827 324.842 41.472 324.842C33.792 324.842 26.7947 323.391 20.48 320.49C14.2507 317.588 9.25867 313.108 5.504 307.05C1.83467 300.991 0 293.226 0 283.754C0 274.879 1.792 267.412 5.376 261.354C8.96 255.21 13.7813 250.559 19.84 247.402C25.984 244.159 32.7253 242.538 40.064 242.538C45.2693 242.538 49.7067 243.135 53.376 244.33C57.0453 245.524 59.8613 247.146 61.824 249.194C63.7867 251.242 64.768 253.588 64.768 256.234Z" fill="#D9D9D9"/>
<path d="M64.768 256.234C64.768 258.367 64.2133 260.287 63.104 261.994C61.9947 263.615 60.7147 264.895 59.264 265.834C57.1307 264.383 54.784 263.146 52.224 262.122C49.664 261.098 46.72 260.586 43.392 260.586C39.04 260.586 35.328 261.524 32.256 263.402C29.2693 265.194 26.9653 267.839 25.344 271.338C23.808 274.751 23.04 278.89 23.04 283.754C23.04 291.263 24.9173 296.98 28.672 300.906C32.512 304.831 37.8027 306.794 44.544 306.794C48.0427 306.794 50.9867 306.324 53.376 305.386C55.8507 304.447 58.1973 303.38 60.416 302.186C61.8667 303.295 62.976 304.703 63.744 306.41C64.5973 308.116 65.024 310.079 65.024 312.298C65.024 314.26 64.512 316.052 63.488 317.674C62.464 319.295 60.7147 320.66 58.24 321.77C56.704 322.452 54.528 323.135 51.712 323.818C48.896 324.5 45.4827 324.842 41.472 324.842C33.792 324.842 26.7947 323.391 20.48 320.49C14.2507 317.588 9.25867 313.108 5.504 307.05C1.83467 300.991 0 293.226 0 283.754C0 274.879 1.792 267.412 5.376 261.354C8.96 255.21 13.7813 250.559 19.84 247.402C25.984 244.159 32.7253 242.538 40.064 242.538C45.2693 242.538 49.7067 243.135 53.376 244.33C57.0453 245.524 59.8613 247.146 61.824 249.194C63.7867 251.242 64.768 253.588 64.768 256.234Z" fill="url(#paint16_radial_67_175)"/>
<path fill-rule="evenodd" clip-rule="evenodd" d="M210.336 309.098C213.152 304.148 214.56 298.26 214.56 291.434C214.56 284.778 213.152 278.975 210.336 274.026C207.52 269.076 203.595 265.236 198.56 262.506C193.611 259.775 187.765 258.41 181.024 258.41C174.368 258.41 168.523 259.775 163.488 262.506C158.453 265.151 154.528 268.948 151.712 273.898C148.896 278.847 147.488 284.692 147.488 291.434C147.488 298.346 148.853 304.276 151.584 309.226C154.4 314.175 158.325 317.972 163.36 320.618C168.395 323.263 174.283 324.586 181.024 324.586C187.851 324.586 193.739 323.263 198.688 320.618C203.723 317.887 207.605 314.047 210.336 309.098ZM172.704 279.658C174.752 276.842 177.525 275.434 181.024 275.434C184.522 275.434 187.253 276.842 189.216 279.658C191.264 282.474 192.288 286.399 192.288 291.434C192.288 296.639 191.306 300.65 189.344 303.466C187.381 306.196 184.608 307.562 181.024 307.562C177.44 307.562 174.666 306.196 172.704 303.466C170.741 300.735 169.76 296.724 169.76 291.434C169.76 286.314 170.741 282.388 172.704 279.658Z" fill="#D9D9D9"/>
<path fill-rule="evenodd" clip-rule="evenodd" d="M210.336 309.098C213.152 304.148 214.56 298.26 214.56 291.434C214.56 284.778 213.152 278.975 210.336 274.026C207.52 269.076 203.595 265.236 198.56 262.506C193.611 259.775 187.765 258.41 181.024 258.41C174.368 258.41 168.523 259.775 163.488 262.506C158.453 265.151 154.528 268.948 151.712 273.898C148.896 278.847 147.488 284.692 147.488 291.434C147.488 298.346 148.853 304.276 151.584 309.226C154.4 314.175 158.325 317.972 163.36 320.618C168.395 323.263 174.283 324.586 181.024 324.586C187.851 324.586 193.739 323.263 198.688 320.618C203.723 317.887 207.605 314.047 210.336 309.098ZM172.704 279.658C174.752 276.842 177.525 275.434 181.024 275.434C184.522 275.434 187.253 276.842 189.216 279.658C191.264 282.474 192.288 286.399 192.288 291.434C192.288 296.639 191.306 300.65 189.344 303.466C187.381 306.196 184.608 307.562 181.024 307.562C177.44 307.562 174.666 306.196 172.704 303.466C170.741 300.735 169.76 296.724 169.76 291.434C169.76 286.314 170.741 282.388 172.704 279.658Z" fill="url(#paint17_radial_67_175)"/>
<path d="M229.144 313.194C226.499 309.268 225.176 304.148 225.176 297.834V260.586C226.115 260.33 227.437 260.074 229.144 259.818C230.936 259.562 232.856 259.434 234.904 259.434C239.171 259.434 242.243 260.159 244.12 261.61C245.997 262.975 246.936 265.663 246.936 269.674V297.834C246.936 301.247 247.789 303.722 249.496 305.258C251.288 306.794 253.763 307.562 256.92 307.562C258.883 307.562 260.504 307.391 261.784 307.05C263.064 306.708 264.003 306.367 264.6 306.026V260.586C265.539 260.33 266.861 260.074 268.568 259.818C270.36 259.562 272.28 259.434 274.328 259.434C278.595 259.434 281.667 260.159 283.544 261.61C285.421 262.975 286.36 265.663 286.36 269.674V309.226C286.36 311.359 285.891 313.236 284.952 314.858C284.099 316.394 282.776 317.716 280.984 318.826C277.997 320.703 274.413 322.111 270.232 323.05C266.136 324.074 261.656 324.586 256.792 324.586C250.648 324.586 245.187 323.69 240.408 321.898C235.629 320.02 231.875 317.119 229.144 313.194Z" fill="#D9D9D9"/>
<path d="M229.144 313.194C226.499 309.268 225.176 304.148 225.176 297.834V260.586C226.115 260.33 227.437 260.074 229.144 259.818C230.936 259.562 232.856 259.434 234.904 259.434C239.171 259.434 242.243 260.159 244.12 261.61C245.997 262.975 246.936 265.663 246.936 269.674V297.834C246.936 301.247 247.789 303.722 249.496 305.258C251.288 306.794 253.763 307.562 256.92 307.562C258.883 307.562 260.504 307.391 261.784 307.05C263.064 306.708 264.003 306.367 264.6 306.026V260.586C265.539 260.33 266.861 260.074 268.568 259.818C270.36 259.562 272.28 259.434 274.328 259.434C278.595 259.434 281.667 260.159 283.544 261.61C285.421 262.975 286.36 265.663 286.36 269.674V309.226C286.36 311.359 285.891 313.236 284.952 314.858C284.099 316.394 282.776 317.716 280.984 318.826C277.997 320.703 274.413 322.111 270.232 323.05C266.136 324.074 261.656 324.586 256.792 324.586C250.648 324.586 245.187 323.69 240.408 321.898C235.629 320.02 231.875 317.119 229.144 313.194Z" fill="url(#paint18_radial_67_175)"/>
<path d="M321.436 322.41V278.634C323.228 277.61 325.319 276.842 327.708 276.33C330.097 275.818 332.359 275.562 334.492 275.562C335.943 275.562 337.265 275.604 338.46 275.69C339.655 275.775 340.679 275.903 341.532 276.074C342.129 275.135 342.641 274.026 343.068 272.746C343.495 271.38 343.708 269.93 343.708 268.394C343.708 261.823 339.057 258.538 329.756 258.538C325.489 258.538 321.351 259.007 317.34 259.946C313.329 260.884 309.831 262.25 306.844 264.042C304.711 265.407 302.961 267.028 301.596 268.906C300.316 270.698 299.676 272.831 299.676 275.306V313.322C299.676 317.247 300.615 319.935 302.492 321.386C304.455 322.836 307.527 323.562 311.708 323.562C313.756 323.562 315.633 323.434 317.34 323.178C319.132 322.922 320.497 322.666 321.436 322.41Z" fill="#D9D9D9"/>
<path d="M321.436 322.41V278.634C323.228 277.61 325.319 276.842 327.708 276.33C330.097 275.818 332.359 275.562 334.492 275.562C335.943 275.562 337.265 275.604 338.46 275.69C339.655 275.775 340.679 275.903 341.532 276.074C342.129 275.135 342.641 274.026 343.068 272.746C343.495 271.38 343.708 269.93 343.708 268.394C343.708 261.823 339.057 258.538 329.756 258.538C325.489 258.538 321.351 259.007 317.34 259.946C313.329 260.884 309.831 262.25 306.844 264.042C304.711 265.407 302.961 267.028 301.596 268.906C300.316 270.698 299.676 272.831 299.676 275.306V313.322C299.676 317.247 300.615 319.935 302.492 321.386C304.455 322.836 307.527 323.562 311.708 323.562C313.756 323.562 315.633 323.434 317.34 323.178C319.132 322.922 320.497 322.666 321.436 322.41Z" fill="url(#paint19_radial_67_175)"/>
<path fill-rule="evenodd" clip-rule="evenodd" d="M414.31 291.434C414.31 298.26 412.902 304.148 410.086 309.098C407.355 314.047 403.473 317.887 398.438 320.618C393.489 323.263 387.601 324.586 380.774 324.586C374.033 324.586 368.145 323.263 363.11 320.618C358.075 317.972 354.15 314.175 351.334 309.226C348.603 304.276 347.238 298.346 347.238 291.434C347.238 284.692 348.646 278.847 351.462 273.898C354.278 268.948 358.203 265.151 363.238 262.506C368.273 259.775 374.118 258.41 380.774 258.41C387.515 258.41 393.361 259.775 398.31 262.506C403.345 265.236 407.27 269.076 410.086 274.026C412.902 278.975 414.31 284.778 414.31 291.434ZM380.774 275.434C377.275 275.434 374.502 276.842 372.454 279.658C370.491 282.388 369.51 286.314 369.51 291.434C369.51 296.724 370.491 300.735 372.454 303.466C374.416 306.196 377.19 307.562 380.774 307.562C384.358 307.562 387.131 306.196 389.094 303.466C391.056 300.65 392.038 296.639 392.038 291.434C392.038 286.399 391.014 282.474 388.966 279.658C387.003 276.842 384.272 275.434 380.774 275.434Z" fill="#D9D9D9"/>
<path fill-rule="evenodd" clip-rule="evenodd" d="M414.31 291.434C414.31 298.26 412.902 304.148 410.086 309.098C407.355 314.047 403.473 317.887 398.438 320.618C393.489 323.263 387.601 324.586 380.774 324.586C374.033 324.586 368.145 323.263 363.11 320.618C358.075 317.972 354.15 314.175 351.334 309.226C348.603 304.276 347.238 298.346 347.238 291.434C347.238 284.692 348.646 278.847 351.462 273.898C354.278 268.948 358.203 265.151 363.238 262.506C368.273 259.775 374.118 258.41 380.774 258.41C387.515 258.41 393.361 259.775 398.31 262.506C403.345 265.236 407.27 269.076 410.086 274.026C412.902 278.975 414.31 284.778 414.31 291.434ZM380.774 275.434C377.275 275.434 374.502 276.842 372.454 279.658C370.491 282.388 369.51 286.314 369.51 291.434C369.51 296.724 370.491 300.735 372.454 303.466C374.416 306.196 377.19 307.562 380.774 307.562C384.358 307.562 387.131 306.196 389.094 303.466C391.056 300.65 392.038 296.639 392.038 291.434C392.038 286.399 391.014 282.474 388.966 279.658C387.003 276.842 384.272 275.434 380.774 275.434Z" fill="url(#paint20_radial_67_175)"/>
<path d="M424.926 260.586V297.834C424.926 304.148 426.249 309.268 428.894 313.194C431.625 317.119 435.379 320.02 440.158 321.898C444.937 323.69 450.398 324.586 456.542 324.586C461.406 324.586 465.886 324.074 469.982 323.05C474.163 322.111 477.747 320.703 480.734 318.826C482.526 317.716 483.849 316.394 484.702 314.858C485.641 313.236 486.11 311.359 486.11 309.226V269.674C486.11 265.663 485.171 262.975 483.294 261.61C481.417 260.159 478.345 259.434 474.078 259.434C472.03 259.434 470.11 259.562 468.318 259.818C466.611 260.074 465.289 260.33 464.35 260.586V306.026C463.753 306.367 462.814 306.708 461.534 307.05C460.254 307.391 458.633 307.562 456.67 307.562C453.513 307.562 451.038 306.794 449.246 305.258C447.539 303.722 446.686 301.247 446.686 297.834V269.674C446.686 265.663 445.747 262.975 443.87 261.61C441.993 260.159 438.921 259.434 434.654 259.434C432.606 259.434 430.686 259.562 428.894 259.818C427.187 260.074 425.865 260.33 424.926 260.586Z" fill="#D9D9D9"/>
<path d="M424.926 260.586V297.834C424.926 304.148 426.249 309.268 428.894 313.194C431.625 317.119 435.379 320.02 440.158 321.898C444.937 323.69 450.398 324.586 456.542 324.586C461.406 324.586 465.886 324.074 469.982 323.05C474.163 322.111 477.747 320.703 480.734 318.826C482.526 317.716 483.849 316.394 484.702 314.858C485.641 313.236 486.11 311.359 486.11 309.226V269.674C486.11 265.663 485.171 262.975 483.294 261.61C481.417 260.159 478.345 259.434 474.078 259.434C472.03 259.434 470.11 259.562 468.318 259.818C466.611 260.074 465.289 260.33 464.35 260.586V306.026C463.753 306.367 462.814 306.708 461.534 307.05C460.254 307.391 458.633 307.562 456.67 307.562C453.513 307.562 451.038 306.794 449.246 305.258C447.539 303.722 446.686 301.247 446.686 297.834V269.674C446.686 265.663 445.747 262.975 443.87 261.61C441.993 260.159 438.921 259.434 434.654 259.434C432.606 259.434 430.686 259.562 428.894 259.818C427.187 260.074 425.865 260.33 424.926 260.586Z" fill="url(#paint21_radial_67_175)"/>
<path d="M543.458 259.434L521.442 281.939V248.17C521.442 244.159 520.503 241.471 518.626 240.106C516.749 238.655 513.677 237.93 509.41 237.93C507.362 237.93 505.442 238.058 503.65 238.314C501.943 238.57 500.621 238.826 499.682 239.082V313.322C499.682 317.247 500.621 319.935 502.498 321.386C504.461 322.836 507.533 323.562 511.714 323.562C513.762 323.562 515.639 323.434 517.346 323.178C519.138 322.922 520.503 322.666 521.442 322.41V299.146L534.114 314.986C536.589 318.143 538.893 320.404 541.026 321.77C543.245 323.05 545.677 323.69 548.322 323.69C551.991 323.69 554.807 322.623 556.77 320.49C558.733 318.271 559.885 315.199 560.226 311.274L539.692 290.837L547.17 284.394C550.925 281.151 553.698 278.548 555.49 276.586C557.282 274.623 558.178 272.362 558.178 269.802C558.178 266.815 556.813 264.34 554.082 262.378C551.437 260.415 547.895 259.434 543.458 259.434Z" fill="#D9D9D9"/>
<path d="M543.458 259.434L521.442 281.939V248.17C521.442 244.159 520.503 241.471 518.626 240.106C516.749 238.655 513.677 237.93 509.41 237.93C507.362 237.93 505.442 238.058 503.65 238.314C501.943 238.57 500.621 238.826 499.682 239.082V313.322C499.682 317.247 500.621 319.935 502.498 321.386C504.461 322.836 507.533 323.562 511.714 323.562C513.762 323.562 515.639 323.434 517.346 323.178C519.138 322.922 520.503 322.666 521.442 322.41V299.146L534.114 314.986C536.589 318.143 538.893 320.404 541.026 321.77C543.245 323.05 545.677 323.69 548.322 323.69C551.991 323.69 554.807 322.623 556.77 320.49C558.733 318.271 559.885 315.199 560.226 311.274L539.692 290.837L547.17 284.394C550.925 281.151 553.698 278.548 555.49 276.586C557.282 274.623 558.178 272.362 558.178 269.802C558.178 266.815 556.813 264.34 554.082 262.378C551.437 260.415 547.895 259.434 543.458 259.434Z" fill="url(#paint22_radial_67_175)"/>
<g style="mix-blend-mode:overlay" filter="url(#filter0_f_67_175)">
<path d="M549.582 271.191C548.113 272.8 545.624 275.158 541.942 278.338M541.941 278.339L534.47 284.776C532.782 286.23 531.777 288.322 531.697 290.549C531.617 292.776 532.469 294.935 534.048 296.507L551.536 313.912" stroke="url(#paint23_linear_67_175)" stroke-width="4" stroke-linecap="round" stroke-linejoin="round" style="mix-blend-mode:overlay"/>
<path d="M513.312 246.32C513.38 246.714 513.442 247.313 513.442 248.169V281.939L513.442 299.146V315.523" stroke="url(#paint24_linear_67_175)" stroke-width="4" stroke-linecap="round" stroke-linejoin="round" style="mix-blend-mode:overlay"/>
<path d="M478.11 309.225V269.673C478.11 268.817 478.048 268.218 477.98 267.824" stroke="url(#paint25_linear_67_175)" stroke-width="4" stroke-linecap="round" stroke-linejoin="round" style="mix-blend-mode:overlay"/>
<path d="M443.894 311.204C439.822 307.539 438.686 302.402 438.686 297.833V269.673C438.686 268.817 438.624 268.218 438.557 267.824" stroke="url(#paint26_linear_67_175)" stroke-width="4" stroke-linecap="round" stroke-linejoin="round" style="mix-blend-mode:overlay"/>
<path d="M394.496 269.538C398.226 271.56 401.06 274.339 403.133 277.982C405.155 281.535 406.31 285.928 406.31 291.433C406.31 297.149 405.138 301.617 403.133 305.141C403.116 305.172 403.098 305.202 403.082 305.233C401.104 308.817 398.344 311.563 394.645 313.574" stroke="url(#paint27_linear_67_175)" stroke-width="4" stroke-linecap="round" stroke-linejoin="round" style="mix-blend-mode:overlay"/>
<path d="M313.436 278.633V315.522" stroke="url(#paint28_linear_67_175)" stroke-width="4" stroke-linecap="round" stroke-linejoin="round" style="mix-blend-mode:overlay"/>
<path d="M365.984 274.952L365.958 274.988C362.627 279.623 361.51 285.461 361.51 291.433C361.51 297.508 362.601 303.465 365.958 308.135" stroke="url(#paint29_linear_67_175)" stroke-width="4" stroke-linecap="round" stroke-linejoin="round" style="mix-blend-mode:overlay"/>
<path d="M313.436 278.633V315.522" stroke="url(#paint30_linear_67_175)" stroke-width="4" stroke-linecap="round" stroke-linejoin="round" style="mix-blend-mode:overlay"/>
<path d="M278.36 309.225V269.673C278.36 268.817 278.298 268.218 278.23 267.824" stroke="url(#paint31_linear_67_175)" stroke-width="4" stroke-linecap="round" stroke-linejoin="round" style="mix-blend-mode:overlay"/>
<path d="M244.144 311.204C240.072 307.539 238.936 302.402 238.936 297.833V269.673C238.936 268.817 238.874 268.218 238.807 267.824" stroke="url(#paint32_linear_67_175)" stroke-width="4" stroke-linecap="round" stroke-linejoin="round" style="mix-blend-mode:overlay"/>
<path d="M194.895 313.574C198.594 311.563 201.354 308.817 203.332 305.233C203.348 305.202 203.366 305.172 203.383 305.141C205.388 301.617 206.56 297.149 206.56 291.433C206.56 285.928 205.405 281.535 203.383 277.982C201.31 274.339 198.476 271.56 194.746 269.538" stroke="url(#paint33_linear_67_175)" stroke-width="4" stroke-linecap="round" stroke-linejoin="round" style="mix-blend-mode:overlay"/>
<path d="M166.208 274.988C162.877 279.623 161.76 285.461 161.76 291.433C161.76 297.508 162.851 303.464 166.208 308.134" stroke="url(#paint34_linear_67_175)" stroke-width="4" stroke-linecap="round" stroke-linejoin="round" style="mix-blend-mode:overlay"/>
<path d="M124.305 270.83C126.839 273.047 128.741 276.794 128.741 283.625V315.523" stroke="url(#paint35_linear_67_175)" stroke-width="4" stroke-linecap="round" stroke-linejoin="round" style="mix-blend-mode:overlay"/>
<path d="M89.3169 315.522V277.761L89.317 260.901V248.169C89.317 247.313 89.2548 246.714 89.1875 246.32" stroke="url(#paint36_linear_67_175)" stroke-width="4" stroke-linecap="round" stroke-linejoin="round" style="mix-blend-mode:overlay"/>
<path d="M22.8909 306.435C17.2425 300.53 15.04 292.525 15.04 283.754C15.04 278.083 15.9312 272.76 18.0487 268.055C18.0608 268.028 18.0731 268.001 18.0856 267.974C20.3008 263.194 23.6199 259.262 28.112 256.559" stroke="url(#paint37_linear_67_175)" stroke-width="4" stroke-linecap="round" stroke-linejoin="round" style="mix-blend-mode:overlay"/>
</g>
<defs>
<filter id="filter0_f_67_175" x="9.04004" y="240.319" width="548.497" height="81.2031" filterUnits="userSpaceOnUse" color-interpolation-filters="sRGB">
<feFlood flood-opacity="0" result="BackgroundImageFix"/>
<feBlend mode="normal" in="SourceGraphic" in2="BackgroundImageFix" result="shape"/>
<feGaussianBlur stdDeviation="2" result="effect1_foregroundBlur_67_175"/>
</filter>
<radialGradient id="paint0_radial_67_175" cx="0" cy="0" r="1" gradientUnits="userSpaceOnUse" gradientTransform="translate(280.467 150) rotate(-90) scale(150 212.495)">
<stop stop-color="#CECE00"/>
<stop offset="1" stop-color="#006600"/>
</radialGradient>
<radialGradient id="paint1_radial_67_175" cx="0" cy="0" r="1" gradientUnits="userSpaceOnUse" gradientTransform="translate(280.467 150) rotate(-90) scale(150 212.495)">
<stop stop-color="#CECE00"/>
<stop offset="1" stop-color="#006600"/>
</radialGradient>
<radialGradient id="paint2_radial_67_175" cx="0" cy="0" r="1" gradientUnits="userSpaceOnUse" gradientTransform="translate(280.467 150) rotate(-90) scale(150 212.495)">
<stop stop-color="#CECE00"/>
<stop offset="1" stop-color="#006600"/>
</radialGradient>
<radialGradient id="paint3_radial_67_175" cx="0" cy="0" r="1" gradientUnits="userSpaceOnUse" gradientTransform="translate(280.467 150) rotate(-90) scale(150 212.495)">
<stop stop-color="#CECE00"/>
<stop offset="1" stop-color="#006600"/>
</radialGradient>
<radialGradient id="paint4_radial_67_175" cx="0" cy="0" r="1" gradientUnits="userSpaceOnUse" gradientTransform="translate(280.467 150) rotate(-90) scale(150 212.495)">
<stop stop-color="#CECE00"/>
<stop offset="1" stop-color="#006600"/>
</radialGradient>
<radialGradient id="paint5_radial_67_175" cx="0" cy="0" r="1" gradientUnits="userSpaceOnUse" gradientTransform="translate(280.469 193.134) rotate(-90) scale(74.855 159.402)">
<stop stop-color="#FFFF00"/>
<stop offset="1" stop-color="#FF8000"/>
</radialGradient>
<radialGradient id="paint6_radial_67_175" cx="0" cy="0" r="1" gradientUnits="userSpaceOnUse" gradientTransform="translate(280.113 222.93) rotate(-90) scale(67.4492 49.59)">
<stop stop-color="#FFFF00"/>
<stop offset="1" stop-color="#FF8000"/>
</radialGradient>
<radialGradient id="paint7_radial_67_175" cx="0" cy="0" r="1" gradientUnits="userSpaceOnUse" gradientTransform="translate(280.113 280.93) rotate(90) scale(44 230.349)">
<stop stop-color="#CECE00"/>
<stop offset="1" stop-color="#006600"/>
</radialGradient>
<radialGradient id="paint8_radial_67_175" cx="0" cy="0" r="1" gradientUnits="userSpaceOnUse" gradientTransform="translate(280.113 280.93) rotate(90) scale(44 230.349)">
<stop stop-color="#CECE00"/>
<stop offset="1" stop-color="#006600"/>
</radialGradient>
<radialGradient id="paint9_radial_67_175" cx="0" cy="0" r="1" gradientUnits="userSpaceOnUse" gradientTransform="translate(280.113 280.93) rotate(90) scale(44 230.349)">
<stop stop-color="#CECE00"/>
<stop offset="1" stop-color="#006600"/>
</radialGradient>
<radialGradient id="paint10_radial_67_175" cx="0" cy="0" r="1" gradientUnits="userSpaceOnUse" gradientTransform="translate(280.113 280.93) rotate(90) scale(44 230.349)">
<stop stop-color="#CECE00"/>
<stop offset="1" stop-color="#006600"/>
</radialGradient>
<radialGradient id="paint11_radial_67_175" cx="0" cy="0" r="1" gradientUnits="userSpaceOnUse" gradientTransform="translate(280.113 280.93) rotate(90) scale(44 230.349)">
<stop stop-color="#CECE00"/>
<stop offset="1" stop-color="#006600"/>
</radialGradient>
<radialGradient id="paint12_radial_67_175" cx="0" cy="0" r="1" gradientUnits="userSpaceOnUse" gradientTransform="translate(280.113 280.93) rotate(90) scale(44 230.349)">
<stop stop-color="#CECE00"/>
<stop offset="1" stop-color="#006600"/>
</radialGradient>
<radialGradient id="paint13_radial_67_175" cx="0" cy="0" r="1" gradientUnits="userSpaceOnUse" gradientTransform="translate(280.113 280.93) rotate(90) scale(44 230.349)">
<stop stop-color="#CECE00"/>
<stop offset="1" stop-color="#006600"/>
</radialGradient>
<radialGradient id="paint14_radial_67_175" cx="0" cy="0" r="1" gradientUnits="userSpaceOnUse" gradientTransform="translate(280.113 280.93) rotate(90) scale(44 230.349)">
<stop stop-color="#CECE00"/>
<stop offset="1" stop-color="#006600"/>
</radialGradient>
<radialGradient id="paint15_radial_67_175" cx="0" cy="0" r="1" gradientUnits="userSpaceOnUse" gradientTransform="translate(280.113 280.93) rotate(90) scale(44 230.349)">
<stop stop-color="#CECE00"/>
<stop offset="1" stop-color="#006600"/>
</radialGradient>
<radialGradient id="paint16_radial_67_175" cx="0" cy="0" r="1" gradientUnits="userSpaceOnUse" gradientTransform="translate(280.113 280.93) rotate(90) scale(44 230.349)">
<stop stop-color="#CECE00"/>
<stop offset="1" stop-color="#006600"/>
</radialGradient>
<radialGradient id="paint17_radial_67_175" cx="0" cy="0" r="1" gradientUnits="userSpaceOnUse" gradientTransform="translate(280.113 280.93) rotate(90) scale(44 230.349)">
<stop stop-color="#CECE00"/>
<stop offset="1" stop-color="#006600"/>
</radialGradient>
<radialGradient id="paint18_radial_67_175" cx="0" cy="0" r="1" gradientUnits="userSpaceOnUse" gradientTransform="translate(280.113 280.93) rotate(90) scale(44 230.349)">
<stop stop-color="#CECE00"/>
<stop offset="1" stop-color="#006600"/>
</radialGradient>
<radialGradient id="paint19_radial_67_175" cx="0" cy="0" r="1" gradientUnits="userSpaceOnUse" gradientTransform="translate(280.113 280.93) rotate(90) scale(44 230.349)">
<stop stop-color="#CECE00"/>
<stop offset="1" stop-color="#006600"/>
</radialGradient>
<radialGradient id="paint20_radial_67_175" cx="0" cy="0" r="1" gradientUnits="userSpaceOnUse" gradientTransform="translate(280.113 280.93) rotate(90) scale(44 230.349)">
<stop stop-color="#CECE00"/>
<stop offset="1" stop-color="#006600"/>
</radialGradient>
<radialGradient id="paint21_radial_67_175" cx="0" cy="0" r="1" gradientUnits="userSpaceOnUse" gradientTransform="translate(280.113 280.93) rotate(90) scale(44 230.349)">
<stop stop-color="#CECE00"/>
<stop offset="1" stop-color="#006600"/>
</radialGradient>
<radialGradient id="paint22_radial_67_175" cx="0" cy="0" r="1" gradientUnits="userSpaceOnUse" gradientTransform="translate(280.113 280.93) rotate(90) scale(44 230.349)">
<stop stop-color="#CECE00"/>
<stop offset="1" stop-color="#006600"/>
</radialGradient>
<linearGradient id="paint23_linear_67_175" x1="541.569" y1="271.191" x2="541.569" y2="313.912" gradientUnits="userSpaceOnUse">
<stop offset="0.1" stop-color="white" stop-opacity="0"/>
<stop offset="0.5" stop-color="white"/>
<stop offset="0.9" stop-color="white" stop-opacity="0"/>
</linearGradient>
<linearGradient id="paint24_linear_67_175" x1="513.377" y1="246.32" x2="513.377" y2="315.523" gradientUnits="userSpaceOnUse">
<stop offset="0.1" stop-color="white" stop-opacity="0"/>
<stop offset="0.5" stop-color="white"/>
<stop offset="0.9" stop-color="white" stop-opacity="0"/>
</linearGradient>
<linearGradient id="paint25_linear_67_175" x1="478.045" y1="267.824" x2="478.045" y2="309.225" gradientUnits="userSpaceOnUse">
<stop offset="0.1" stop-color="white" stop-opacity="0"/>
<stop offset="0.5" stop-color="white"/>
<stop offset="0.9" stop-color="white" stop-opacity="0"/>
</linearGradient>
<linearGradient id="paint26_linear_67_175" x1="441.214" y1="267.824" x2="441.214" y2="311.204" gradientUnits="userSpaceOnUse">
<stop offset="0.1" stop-color="white" stop-opacity="0"/>
<stop offset="0.5" stop-color="white"/>
<stop offset="0.9" stop-color="white" stop-opacity="0"/>
</linearGradient>
<linearGradient id="paint27_linear_67_175" x1="400.377" y1="269.538" x2="400.377" y2="313.574" gradientUnits="userSpaceOnUse">
<stop offset="0.1" stop-color="white" stop-opacity="0"/>
<stop offset="0.5" stop-color="white"/>
<stop offset="0.9" stop-color="white" stop-opacity="0"/>
</linearGradient>
<linearGradient id="paint28_linear_67_175" x1="313.934" y1="278.633" x2="313.934" y2="315.522" gradientUnits="userSpaceOnUse">
<stop offset="0.1" stop-color="white" stop-opacity="0"/>
<stop offset="0.5" stop-color="white"/>
<stop offset="0.9" stop-color="white" stop-opacity="0"/>
</linearGradient>
<linearGradient id="paint29_linear_67_175" x1="363.737" y1="274.952" x2="363.737" y2="308.135" gradientUnits="userSpaceOnUse">
<stop offset="0.1" stop-color="white" stop-opacity="0"/>
<stop offset="0.5" stop-color="white"/>
<stop offset="0.9" stop-color="white" stop-opacity="0"/>
</linearGradient>
<linearGradient id="paint30_linear_67_175" x1="313.934" y1="278.633" x2="313.934" y2="315.522" gradientUnits="userSpaceOnUse">
<stop offset="0.1" stop-color="white" stop-opacity="0"/>
<stop offset="0.5" stop-color="white"/>
<stop offset="0.9" stop-color="white" stop-opacity="0"/>
</linearGradient>
<linearGradient id="paint31_linear_67_175" x1="278.295" y1="267.824" x2="278.295" y2="309.225" gradientUnits="userSpaceOnUse">
<stop offset="0.1" stop-color="white" stop-opacity="0"/>
<stop offset="0.5" stop-color="white"/>
<stop offset="0.9" stop-color="white" stop-opacity="0"/>
</linearGradient>
<linearGradient id="paint32_linear_67_175" x1="241.464" y1="267.824" x2="241.464" y2="311.204" gradientUnits="userSpaceOnUse">
<stop offset="0.1" stop-color="white" stop-opacity="0"/>
<stop offset="0.5" stop-color="white"/>
<stop offset="0.9" stop-color="white" stop-opacity="0"/>
</linearGradient>
<linearGradient id="paint33_linear_67_175" x1="200.627" y1="269.538" x2="200.627" y2="313.574" gradientUnits="userSpaceOnUse">
<stop offset="0.1" stop-color="white" stop-opacity="0"/>
<stop offset="0.5" stop-color="white"/>
<stop offset="0.9" stop-color="white" stop-opacity="0"/>
</linearGradient>
<linearGradient id="paint34_linear_67_175" x1="163.974" y1="274.988" x2="163.974" y2="308.134" gradientUnits="userSpaceOnUse">
<stop offset="0.1" stop-color="white" stop-opacity="0"/>
<stop offset="0.5" stop-color="white"/>
<stop offset="0.9" stop-color="white" stop-opacity="0"/>
</linearGradient>
<linearGradient id="paint35_linear_67_175" x1="126.513" y1="270.83" x2="126.513" y2="315.523" gradientUnits="userSpaceOnUse">
<stop offset="0.1" stop-color="white" stop-opacity="0"/>
<stop offset="0.5" stop-color="white"/>
<stop offset="0.9" stop-color="white" stop-opacity="0"/>
</linearGradient>
<linearGradient id="paint36_linear_67_175" x1="89.252" y1="246.32" x2="89.252" y2="315.522" gradientUnits="userSpaceOnUse">
<stop offset="0.1" stop-color="white" stop-opacity="0"/>
<stop offset="0.5" stop-color="white"/>
<stop offset="0.9" stop-color="white" stop-opacity="0"/>
</linearGradient>
<linearGradient id="paint37_linear_67_175" x1="21.5468" y1="256.559" x2="21.5468" y2="306.435" gradientUnits="userSpaceOnUse">
<stop offset="0.1" stop-color="white" stop-opacity="0"/>
<stop offset="0.5" stop-color="white"/>
<stop offset="0.9" stop-color="white" stop-opacity="0"/>
</linearGradient>
</defs>
</svg>
