<svg width="1089" height="315" viewBox="0 0 1089 315" fill="none" xmlns="http://www.w3.org/2000/svg">
<path fill-rule="evenodd" clip-rule="evenodd" d="M439.695 108.8C393.755 87.6605 382.795 44.6805 382.975 20.1505C382.995 17.1305 386.345 15.5305 388.905 17.1305C414.995 33.4005 461.195 54.6905 483.205 46.6505C490.465 44.0005 495.765 35.7105 501.395 26.9005C513.455 8.04047 527.055 -13.2095 564.625 13.3405C567.375 15.2805 566.465 19.6005 563.355 20.8905C543.535 29.1105 542.435 48.4305 541.255 69.2805C540.275 86.5805 539.225 104.94 527.385 118.89C515.905 132.41 501.215 136.22 486.595 140.02C466.685 145.19 446.875 150.33 435.395 179.9C434.515 182.17 431.855 183.29 429.775 182.03C410.405 170.24 400.425 148.81 396.465 134.5C395.595 131.34 398.975 128.79 402.185 129.46C417.145 132.61 432.205 123.14 440.945 115.08C442.975 113.2 442.225 109.95 439.705 108.8H439.695ZM933.725 23.6205C936.345 26.1405 937.395 29.8805 936.465 33.4005C933.785 43.5005 927.265 55.8705 918.985 68.3905C910.575 81.1105 899.875 94.7005 888.195 107.33C879.465 116.77 870.075 125.79 860.565 133.54C874.155 128.26 890.475 124.08 909.295 124.74C933.385 125.58 960.595 134.29 990.705 156.89C993.865 159.26 995.325 163.26 994.455 167.11C993.575 170.96 990.525 173.93 986.645 174.7C985.205 174.99 983.715 175.28 982.175 175.6C952.465 181.6 905.015 191.18 858.975 162.52C856.515 172.88 857.725 184.49 864.315 193.32C864.635 193.74 864.905 194.18 865.145 194.64C870.585 192.74 876.325 191.79 882.385 191.79C895.355 191.79 905.765 196.31 913.615 205.36C921.635 214.23 925.895 224.48 927.695 238.38C929.045 248.82 927.695 256.56 925.645 265.26C922.405 279.6 916.005 291.12 906.445 299.82C896.885 308.35 886.045 312.62 873.935 312.62C863.695 312.62 854.905 310.14 847.565 305.2C840.395 300.25 834.935 293.68 831.185 285.49C827.425 277.3 825.555 268.42 825.555 258.87C825.555 245.9 828.025 234.38 832.975 224.31C836.805 216.39 841.755 209.84 847.835 204.68C837.095 189.84 835.915 171.76 839.885 156.52C832.625 156.61 823.205 157.16 812.395 158.5C805.915 159.31 799.005 160.39 791.835 161.81C787.445 167.48 784.405 175.07 782.515 183.1C781.645 186.81 781.055 190.45 780.675 193.79C787.455 195.93 793.265 199.79 798.105 205.36C806.125 214.23 810.385 224.48 812.185 238.38C813.535 248.82 812.105 256.56 810.135 265.26C806.895 279.6 800.495 291.12 790.935 299.82C781.375 308.35 770.535 312.62 758.425 312.62C748.185 312.62 739.395 310.14 732.055 305.2C724.885 300.25 719.425 293.68 715.675 285.49C711.915 277.3 710.045 268.42 710.045 258.87C710.045 245.9 712.515 234.38 717.465 224.31C722.415 214.07 729.245 206.13 737.945 200.5C744.935 195.84 752.535 193.05 760.735 192.13C761.195 187.87 761.925 183.25 763.035 178.53C763.815 175.21 764.805 171.74 766.055 168.25C751.595 172.66 737.045 178.56 723.635 186.35C718.855 189.12 712.735 187.5 709.965 182.73C707.195 177.96 708.815 171.83 713.585 169.06C736.395 155.81 761.635 147.72 784.385 142.92C790.375 141.66 796.215 140.62 801.815 139.77C806.445 105.72 836.185 48.4305 923.815 21.2905C927.285 20.2105 931.075 21.1105 933.695 23.6305L933.725 23.6205ZM876.065 149.3C885.855 146.26 896.675 144.32 908.605 144.73C923.045 145.23 939.645 149.22 958.415 159.63C933.635 163.5 904.695 164.52 876.065 149.29V149.3ZM823.275 134.34C828.185 132 833.565 128.77 839.305 124.66C850.655 116.54 862.485 105.67 873.505 93.7505C884.515 81.8505 894.535 69.1005 902.295 57.3605C904.375 54.2105 906.265 51.1905 907.945 48.3105C851.335 72.2005 829.545 109.93 823.275 134.34ZM1046.27 295.73C1042.68 282.08 1039.95 268.25 1038.07 254.26C1053.26 227.64 1065.47 201.78 1074.68 176.69C1083.9 151.6 1088.51 129.67 1088.51 110.9C1088.51 97.4205 1086.03 87.3505 1081.08 80.6905C1076.3 74.0305 1070.24 70.7105 1062.9 70.7105C1047.72 70.7105 1035.51 82.6605 1026.3 106.55C1017.25 130.44 1011.11 158.52 1007.86 190.77C995.415 192.31 984.145 196.83 974.075 204.34C964.005 211.68 956.065 221.15 950.265 232.76C944.465 244.37 941.565 256.99 941.565 270.65C941.565 283.11 944.895 293.26 951.545 301.11C958.375 308.79 966.995 312.63 977.405 312.63C984.235 312.63 990.205 311.26 995.325 308.53C1000.61 305.8 1006.5 300.42 1012.98 292.4L1013.24 293.42C1015.63 301.44 1018.19 306.9 1020.92 309.8C1023.82 312.7 1027.92 314.15 1033.21 314.15C1042.6 314.15 1047.29 310.31 1047.29 302.63C1047.29 300.24 1046.95 297.94 1046.27 295.72V295.73ZM1046.01 133.68C1050.45 108.42 1055.14 95.7905 1060.09 95.7905C1061.62 95.7905 1062.9 97.5805 1063.93 101.17C1065.12 104.75 1065.72 109.79 1065.72 116.27C1065.72 141.87 1056.25 175.15 1037.31 216.11C1038.84 186.41 1041.74 158.94 1046.01 133.68ZM996.095 282.93C993.025 285.49 989.775 286.77 986.365 286.77C977.835 286.77 973.565 280.54 973.565 268.08C973.565 256.3 976.635 245.55 982.785 235.82C988.925 226.09 996.695 219.86 1006.07 217.13C1005.9 220.03 1005.82 224.13 1005.82 229.42C1005.82 242.73 1006.67 255.62 1008.38 268.08C1003.43 275.42 999.335 280.37 996.095 282.93ZM412.865 297.61C413.835 299.39 414.935 301.06 416.165 302.64C422.305 310.32 430.245 314.16 439.975 314.16C452.945 314.16 462.075 306.82 467.365 292.14L467.105 296.24C467.105 302.55 468.475 307.16 471.205 310.06C474.105 312.79 478.455 314.16 484.265 314.16C490.075 314.16 494.505 312.79 497.065 310.06C499.795 307.16 501.165 302.46 501.165 295.98C501.165 284.2 501.675 273.62 502.705 264.24C503.725 254.68 505.185 244.7 507.055 234.29C508.765 224.56 509.615 217.73 509.615 213.81C509.615 209.89 509.075 207.72 506.755 204.88C497.855 194 483.085 193.39 475.565 193.08H475.315C463.535 193.08 452.355 196.82 441.775 204.33C431.365 211.67 423.005 221.48 416.685 233.77C410.655 245.34 407.505 257.61 407.235 270.58C403.575 274.5 400.375 277.59 397.645 279.85C392.695 283.95 387.575 285.99 382.285 285.99C377.335 285.99 373.065 284.62 369.485 281.89C366.075 278.99 364.025 275.23 363.345 270.63C374.955 264.49 383.145 257.49 387.925 249.64C392.705 241.79 395.095 233.17 395.095 223.78C395.095 215.25 392.445 208.08 387.155 202.28C382.035 196.48 375.205 193.58 366.675 193.58C357.455 193.58 347.565 198.44 336.975 208.17C326.395 217.73 317.005 233.17 308.815 254.51C308.815 245.12 309.075 235.99 309.585 227.12C332.285 202.37 348.665 180.78 358.735 162.35C368.805 143.75 373.835 125.83 373.835 108.59C373.835 97.8405 371.355 89.1305 366.415 82.4805C361.635 75.6505 355.325 72.2405 347.475 72.2405C332.795 72.2405 320.165 81.9705 309.585 101.42C299.175 120.71 291.235 144.6 285.775 173.1C280.485 201.6 277.835 228.99 277.835 255.28C277.835 258.71 277.855 261.96 277.895 265.02C272.405 271.4 267.845 276.26 264.245 279.6C259.635 283.87 255.795 286 252.725 286C249.485 286 247.175 284.63 245.815 281.9C244.455 279.17 243.765 275.24 243.765 270.12C243.765 263.46 245.815 250.75 249.905 231.98C253.145 216.45 254.765 206.55 254.765 202.28C254.765 196.48 250.415 193.58 241.705 193.58C236.075 193.58 231.975 194.6 229.415 196.65C226.855 198.7 224.805 202.45 223.275 207.91C220.205 218.32 217.645 229.58 215.595 241.7C213.715 253.65 212.775 263.46 212.775 271.14C212.775 284.11 215.255 294.52 220.195 302.37C225.315 310.22 233.425 314.15 244.515 314.15C255.605 314.15 267.455 308.19 279.895 296.27C280.825 301.5 282.185 305.58 283.965 308.52C286.525 312.27 290.445 314.15 295.745 314.15C301.045 314.15 304.875 312.78 307.265 310.05C309.825 307.15 312.045 301.69 313.925 293.67C316.655 282.58 320.405 271.82 325.185 261.41C329.965 250.83 335.085 242.21 340.545 235.55C346.175 228.89 351.295 225.57 355.905 225.57C357.785 225.57 359.315 226.34 360.515 227.87C361.885 229.41 362.565 231.71 362.565 234.78C362.565 240.07 360.945 244.59 357.705 248.35C354.465 251.93 349.085 255.35 341.575 258.59C334.745 261.49 331.335 266.27 331.335 272.93C331.335 285.39 335.345 295.37 343.365 302.88C351.385 310.39 361.965 314.14 375.105 314.14C385.855 314.14 395.155 311.32 403.005 305.69C406.305 303.32 409.595 300.62 412.865 297.59V297.61ZM342.075 97.5805C339.005 97.5805 335.585 102.02 331.835 110.89C328.085 119.59 324.415 131.45 320.825 146.47C317.415 161.32 314.595 177.53 312.375 195.11C322.955 182.65 331.665 169.08 338.485 154.41C345.485 139.73 348.985 126.42 348.985 114.47C348.985 109.01 348.385 104.83 347.195 101.93C345.995 99.0305 344.295 97.5805 342.075 97.5805ZM34.5546 311.6C47.0146 313.31 58.1946 314.16 68.0947 314.16C95.2346 314.16 118.615 308.87 138.235 298.29C157.865 287.71 172.795 272.86 183.035 253.75C193.275 234.46 198.395 211.94 198.395 186.17C198.395 166.37 194.295 149.48 186.105 135.48C177.915 121.49 166.225 110.9 151.035 103.74C135.845 96.4005 117.845 92.7305 97.0146 92.7305C82.3346 92.7305 67.0647 94.8605 51.1946 99.1305C35.3246 103.23 21.4946 109.28 9.72465 117.31C6.48465 119.53 4.17465 122 2.81465 124.73C1.44465 127.29 0.764648 130.62 0.764648 134.71C0.764648 138.29 1.61465 141.37 3.32465 143.93C5.03465 146.32 7.33465 147.51 10.2346 147.51C12.7946 147.51 15.1846 146.74 17.4046 145.21C28.1546 138.21 40.1846 132.58 53.5046 128.31C66.9846 124.04 80.5546 121.91 94.2047 121.91C115.365 121.91 131.755 127.46 143.355 138.55C154.965 149.64 160.765 165.34 160.765 185.65C160.765 215.86 153.345 240.01 138.495 258.1C123.815 276.19 101.545 285.24 71.6747 285.24C65.1847 285.24 59.3846 284.98 54.2646 284.47C56.1446 263.65 59.2947 241.8 63.7346 218.93C68.1747 195.89 72.6046 177.54 77.0446 163.89C78.0646 160.82 78.5846 158.09 78.5846 155.7C78.5846 149.9 73.3746 147 62.9646 147C57.1646 147 52.4647 147.85 48.8847 149.56C45.3046 151.27 42.9146 154.25 41.7146 158.52C35.4046 181.56 30.0246 205.54 25.5846 230.46C21.1446 255.21 18.3346 276.03 17.1346 292.92C16.7946 299.06 17.9046 303.5 20.4646 306.23C23.0246 308.96 27.7146 310.75 34.5446 311.61L34.5546 311.6ZM230.435 171.82C234.015 175.06 239.395 176.68 246.565 176.68C253.735 176.68 259.795 174.72 264.225 170.79C268.665 166.69 270.885 161.23 270.885 154.41C270.885 148.78 268.925 144.43 264.995 141.35C261.075 138.28 255.955 136.74 249.635 136.74C242.635 136.74 236.745 138.79 231.975 142.88C227.365 146.8 225.065 151.75 225.065 157.73C225.065 163.71 226.855 168.4 230.445 171.81L230.435 171.82ZM463.015 278.32C459.095 284.98 454.735 288.3 449.955 288.3C446.715 288.3 444.065 287.02 442.015 284.46C440.135 281.73 439.195 277.8 439.195 272.68C439.195 263.12 440.985 254.08 444.575 245.54C448.155 237.01 452.935 230.18 458.915 225.06C464.885 219.77 471.375 217.04 478.375 216.87L473.515 242.73C470.445 259.8 466.945 271.66 463.015 278.31V278.32ZM748.935 99.1205C753.715 99.8005 756.955 101.25 758.665 103.47C760.545 105.69 761.485 108.59 761.485 112.17C761.485 123.95 755.165 129.41 742.545 128.55L733.585 127.78C723.515 126.93 713.445 126.24 703.375 125.73C693.475 125.22 683.065 124.96 672.145 124.96H660.625C658.575 150.22 656.445 173.26 654.225 194.08L698.255 193.31C704.575 193.31 708.755 194.42 710.795 196.64C713.015 198.86 714.125 201.85 714.125 205.6C714.125 211.4 712.415 216.01 709.005 219.42C705.595 222.66 700.725 224.28 694.415 224.28H650.635L649.095 235.29C645.515 263.45 637.835 283.5 626.055 295.45C614.445 307.4 598.405 313.37 577.925 313.37C566.325 313.37 555.655 310.89 545.925 305.95C536.195 300.83 529.025 294.69 524.425 287.52C522.545 284.62 521.605 281.12 521.605 277.02C521.605 272.92 522.545 269.34 524.425 266.27C526.475 263.2 528.945 261.66 531.845 261.66C533.895 261.66 535.855 262.34 537.735 263.71C539.785 265.07 542.345 267.72 545.415 271.65C553.605 282.4 563.765 287.78 575.875 287.78C585.605 287.78 593.715 283.85 600.195 276C606.855 267.98 611.115 255.43 612.995 238.37L614.535 224.29H602.245C598.325 224.29 594.905 223.18 592.005 220.96C589.275 218.74 587.905 215.58 587.905 211.49C587.905 206.2 589.265 202.19 592.005 199.46C594.735 196.56 598.745 195.11 604.035 195.11C608.815 195.11 613.505 195.02 618.115 194.85C620.165 176.08 622.385 153.29 624.775 126.5C606.345 128.21 593.375 131.19 585.865 135.46C578.355 139.73 574.605 146.04 574.605 154.4C574.605 160.2 576.315 165.75 579.725 171.04C580.745 172.58 581.265 174.11 581.265 175.65C581.265 178.72 579.555 181.45 576.145 183.84C572.735 186.06 568.895 187.17 564.625 187.17C560.015 187.17 556.095 185.8 552.845 183.07C550.795 181.36 548.835 177.86 546.955 172.57C545.075 167.28 544.135 161.39 544.135 154.91C544.135 133.75 554.975 118.39 576.645 108.83C598.485 99.2705 630.315 94.4905 672.135 94.4905C701.145 94.4905 726.745 96.0305 748.935 99.1005V99.1205ZM785.085 255.5C782.715 274.47 770.265 288.65 757.275 287.18C744.285 285.71 735.675 269.15 738.045 250.18C740.415 231.21 752.865 217.03 765.855 218.5C778.845 219.97 787.455 236.53 785.085 255.5ZM901.475 255.5C899.105 274.47 886.655 288.65 873.665 287.18C860.675 285.71 852.065 269.15 854.435 250.18C856.805 231.21 869.255 217.03 882.245 218.5C895.235 219.97 903.845 236.53 901.475 255.5Z" fill="#0A5C26"/>
</svg>
