<svg width="387" height="344" viewBox="0 0 387 344" fill="none" xmlns="http://www.w3.org/2000/svg">
<path d="M319 219.282C319 288.162 262.588 344 193 344C123.412 344 67 288.162 67 219.282C67 129.712 156.406 71.4239 193 0C229.594 71.4239 319 129.712 319 219.282Z" fill="#005C00"/>
<g style="mix-blend-mode:overlay" filter="url(#filter0_if_67_69)">
<path fill-rule="evenodd" clip-rule="evenodd" d="M193 320.705C253.906 320.705 303 271.877 303 211.987C303 172.783 283.535 139.437 257.082 105.351C249.318 95.345 241.604 86.0566 233.749 76.5981C227.818 69.4562 221.807 62.2174 215.632 54.4997C207.75 44.6476 200.023 34.506 193 24C185.977 34.506 178.25 44.6476 170.368 54.4997C164.193 62.2174 158.182 69.4563 152.251 76.5981C144.396 86.0566 136.682 95.345 128.918 105.351C102.465 139.437 83 172.783 83 211.987C83 271.877 132.094 320.705 193 320.705Z" fill="#808080"/>
</g>
<path d="M52.288 173.4C43.072 173.4 35.136 171.608 28.48 168.024C21.9093 164.44 16.832 159.448 13.248 153.048C9.74933 146.648 8 139.309 8 131.032C8 120.28 10.0053 110.893 14.016 102.872C18.112 94.8507 23.9147 88.6213 31.424 84.184C39.0187 79.6613 48.1067 77.4 58.688 77.4C63.808 77.4 67.4347 78.4667 69.568 80.6C71.7013 82.648 72.768 85.6773 72.768 89.688C72.768 90.2853 72.7253 90.84 72.64 91.352C72.64 91.864 72.5973 92.4613 72.512 93.144C75.7547 90.584 79.2533 89.304 83.008 89.304C86.1653 89.304 89.1947 90.2853 92.096 92.248C94.9973 94.1253 97.344 97.0693 99.136 101.08C101.013 105.091 101.952 110.168 101.952 116.312C101.952 125.443 100.544 133.549 97.728 140.632C94.9973 147.715 91.2427 153.688 86.464 158.552C81.7707 163.416 76.48 167.128 70.592 169.688C64.704 172.163 58.6027 173.4 52.288 173.4ZM53.312 154.712C57.4933 154.712 61.2907 153.091 64.704 149.848C68.2027 146.52 70.592 142.253 71.872 137.048C68.8853 133.379 66.752 129.709 65.472 126.04C64.2773 122.285 63.68 118.573 63.68 114.904C63.68 111.064 64.1493 107.651 65.088 104.664C66.0267 101.677 67.264 99.1173 68.8 96.984C67.264 96.728 65.728 96.6 64.192 96.6C59.4133 96.6 55.232 97.624 51.648 99.672C48.1493 101.72 45.2053 104.451 42.816 107.864C40.512 111.192 38.7627 114.861 37.568 118.872C36.4587 122.797 35.904 126.68 35.904 130.52C35.904 134.872 36.544 138.883 37.824 142.552C39.1893 146.221 41.152 149.165 43.712 151.384C46.3573 153.603 49.5573 154.712 53.312 154.712Z" fill="#AACC00"/>
<path d="M132.469 173.4C127.178 173.4 123.04 172.461 120.053 170.584C117.152 168.792 115.104 166.36 113.909 163.288C112.8 160.131 112.245 156.589 112.245 152.664C112.245 148.141 112.714 143.405 113.653 138.456C114.592 133.421 115.53 128.557 116.469 123.864C117.408 119.085 117.877 114.904 117.877 111.32C117.877 106.029 116.981 102.147 115.189 99.672C118.688 97.7947 122.314 96.3013 126.069 95.192C129.909 93.9973 132.981 93.4 135.285 93.4C138.784 93.4 141.301 94.1253 142.837 95.576C144.458 96.9413 145.269 99.2453 145.269 102.488C145.269 104.28 145.013 106.755 144.501 109.912C143.989 112.984 143.349 116.355 142.581 120.024C141.813 123.693 141.002 127.405 140.149 131.16C139.381 134.829 138.741 138.157 138.229 141.144C137.717 144.131 137.461 146.477 137.461 148.184C137.461 151.341 138.272 153.731 139.893 155.352C141.6 156.973 143.648 157.784 146.037 157.784C148.768 157.784 151.626 156.76 154.613 154.712C157.6 152.664 160.074 149.677 162.037 145.752C162.378 143.875 162.805 141.528 163.317 138.712C163.914 135.896 164.554 132.909 165.237 129.752C166.005 126.509 166.688 123.437 167.285 120.536C167.968 117.549 168.565 115.032 169.077 112.984L161.397 102.744C165.066 100.099 168.992 97.88 173.173 96.088C177.354 94.296 181.621 93.4 185.973 93.4C189.813 93.4 192.544 94.1253 194.165 95.576C195.872 96.9413 196.725 99.2453 196.725 102.488C196.725 104.28 196.384 106.755 195.701 109.912C195.104 113.069 194.336 116.611 193.397 120.536C192.544 124.376 191.648 128.387 190.709 132.568C189.77 136.749 188.96 140.845 188.277 144.856C187.68 148.781 187.381 152.323 187.381 155.48C187.381 158.04 187.68 160.344 188.277 162.392C188.96 164.355 189.984 165.933 191.349 167.128C186.57 171.309 181.493 173.4 176.117 173.4C170.656 173.4 166.858 172.163 164.725 169.688C162.592 167.213 161.525 164.269 161.525 160.856L160.245 160.216C157.429 164.397 153.504 167.64 148.469 169.944C143.434 172.248 138.101 173.4 132.469 173.4Z" fill="#AACC00"/>
<path d="M244.043 173.4C236.107 173.4 229.408 171.992 223.947 169.176C218.486 166.36 214.347 162.435 211.531 157.4C208.8 152.28 207.435 146.392 207.435 139.736C207.435 132.824 208.672 126.552 211.147 120.92C213.707 115.203 217.248 110.296 221.771 106.2C226.294 102.104 231.542 98.9467 237.515 96.728C243.574 94.5093 250.102 93.4 257.099 93.4C265.376 93.4 271.478 95.2347 275.403 98.904C279.328 102.573 281.291 107.181 281.291 112.728C281.291 117.507 279.712 122.029 276.555 126.296C273.483 130.477 268.491 133.891 261.579 136.536C254.667 139.096 245.451 140.419 233.931 140.504C234.187 145.965 235.424 150.275 237.643 153.432C239.947 156.504 242.806 158.04 246.219 158.04C247.926 158.04 249.718 157.656 251.595 156.888C253.472 156.035 255.051 154.584 256.331 152.536C257.611 150.403 258.251 147.501 258.251 143.832C264.054 143.832 268.619 144.472 271.947 145.752C275.275 147.032 276.939 149.336 276.939 152.664C276.939 155.736 275.616 158.893 272.971 162.136C270.326 165.293 266.528 167.981 261.579 170.2C256.715 172.333 250.87 173.4 244.043 173.4ZM235.083 130.264C241.312 129.752 246.304 128.6 250.059 126.808C253.814 125.016 256.544 122.968 258.251 120.664C259.958 118.36 260.811 116.227 260.811 114.264C260.811 112.557 260.299 111.149 259.275 110.04C258.251 108.931 256.8 108.376 254.923 108.376C251.851 108.376 248.992 109.443 246.347 111.576C243.702 113.709 241.398 116.483 239.435 119.896C237.558 123.224 236.107 126.68 235.083 130.264Z" fill="#AACC00"/>
<path d="M316.008 173.4C311.656 173.4 307.603 172.248 303.848 169.944C300.179 167.555 297.192 164.141 294.888 159.704C292.669 155.181 291.56 149.72 291.56 143.32C291.56 138.029 292.541 132.653 294.504 127.192C296.552 121.645 299.624 116.568 303.72 111.96C307.816 107.352 312.979 103.64 319.208 100.824C325.437 98.008 332.819 96.6 341.352 96.6C342.717 96.6 344.04 96.6427 345.32 96.728C346.685 96.8133 348.093 96.9413 349.544 97.112C349.629 96.5147 349.8 95.448 350.056 93.912C350.397 92.2907 350.611 91.1813 350.696 90.584L343.528 80.344C348.051 77.6987 352.36 75.48 356.456 73.688C360.552 71.896 364.648 71 368.744 71C372.328 71 374.803 71.7253 376.168 73.176C377.619 74.5413 378.344 76.8453 378.344 80.088C378.344 83.0747 377.96 86.8293 377.192 91.352C376.424 95.7893 375.485 100.653 374.376 105.944C373.267 111.149 372.115 116.525 370.92 122.072C369.811 127.619 368.872 132.952 368.104 138.072C367.336 143.192 366.952 147.843 366.952 152.024C366.952 156.035 367.251 159.277 367.848 161.752C368.531 164.141 369.555 165.933 370.92 167.128C366.141 171.309 361.064 173.4 355.688 173.4C352.019 173.4 349.117 172.717 346.984 171.352C344.936 169.987 343.443 168.323 342.504 166.36C341.565 164.397 341.096 162.563 341.096 160.856L339.816 160.216C336.403 164.739 332.605 168.067 328.424 170.2C324.243 172.333 320.104 173.4 316.008 173.4ZM328.808 154.2C331.027 154.2 333.288 153.645 335.592 152.536C337.896 151.427 340.072 149.677 342.12 147.288C342.717 140.973 343.485 134.445 344.424 127.704C345.363 120.877 346.515 114.264 347.88 107.864C342.675 107.864 338.024 108.803 333.928 110.68C329.917 112.472 326.547 114.904 323.816 117.976C321.171 120.963 319.123 124.248 317.672 127.832C316.307 131.416 315.624 134.957 315.624 138.456C315.624 143.491 316.904 147.373 319.464 150.104C322.109 152.835 325.224 154.2 328.808 154.2Z" fill="#AACC00"/>
<path d="M100.096 301.528C94.3787 301.528 90.3253 299.907 87.936 296.664C85.632 293.336 84.48 288.344 84.48 281.688C84.48 277.421 85.1627 271.021 86.528 262.488C87.9787 253.869 89.984 242.477 92.544 228.312L85.76 214.616C89.7707 212.056 94.0373 209.88 98.56 208.088C103.083 206.211 107.605 205.272 112.128 205.272C115.029 205.272 117.163 205.955 118.528 207.32C119.979 208.685 120.96 210.392 121.472 212.44C125.739 212.269 131.029 211.587 137.344 210.392C143.659 209.197 149.973 207.704 156.288 205.912C156.971 209.752 157.312 212.995 157.312 215.64C157.312 219.395 156.331 222.595 154.368 225.24C152.405 227.885 149.76 229.891 146.432 231.256C143.189 232.536 139.563 233.176 135.552 233.176C132.907 233.176 130.347 232.835 127.872 232.152C125.483 231.469 122.965 230.488 120.32 229.208C119.808 232.365 119.168 235.821 118.4 239.576C117.632 243.245 116.907 246.957 116.224 250.712C117.589 251.053 118.955 251.309 120.32 251.48C121.685 251.651 123.051 251.736 124.416 251.736C126.123 251.395 128.043 250.968 130.176 250.456C132.395 249.859 134.315 249.304 135.936 248.792C136.277 249.901 136.448 251.053 136.448 252.248C136.533 253.357 136.576 254.253 136.576 254.936C136.576 259.032 135.168 262.019 132.352 263.896C129.621 265.773 126.379 266.712 122.624 266.712C120.917 266.712 119.339 266.627 117.888 266.456C116.437 266.2 114.987 265.901 113.536 265.56C112.597 270.936 112.128 274.819 112.128 277.208C112.128 281.56 112.427 285.229 113.024 288.216C113.707 291.203 114.688 293.72 115.968 295.768C110.848 299.608 105.557 301.528 100.096 301.528Z" fill="#AACC00"/>
<path d="M185.543 301.4C177.607 301.4 170.908 299.992 165.447 297.176C159.986 294.36 155.847 290.435 153.031 285.4C150.3 280.28 148.935 274.392 148.935 267.736C148.935 260.824 150.172 254.552 152.647 248.92C155.207 243.203 158.748 238.296 163.271 234.2C167.794 230.104 173.042 226.947 179.015 224.728C185.074 222.509 191.602 221.4 198.599 221.4C206.876 221.4 212.978 223.235 216.903 226.904C220.828 230.573 222.791 235.181 222.791 240.728C222.791 245.507 221.212 250.029 218.055 254.296C214.983 258.477 209.991 261.891 203.079 264.536C196.167 267.096 186.951 268.419 175.431 268.504C175.687 273.965 176.924 278.275 179.143 281.432C181.447 284.504 184.306 286.04 187.719 286.04C189.426 286.04 191.218 285.656 193.095 284.888C194.972 284.035 196.551 282.584 197.831 280.536C199.111 278.403 199.751 275.501 199.751 271.832C205.554 271.832 210.119 272.472 213.447 273.752C216.775 275.032 218.439 277.336 218.439 280.664C218.439 283.736 217.116 286.893 214.471 290.136C211.826 293.293 208.028 295.981 203.079 298.2C198.215 300.333 192.37 301.4 185.543 301.4ZM176.583 258.264C182.812 257.752 187.804 256.6 191.559 254.808C195.314 253.016 198.044 250.968 199.751 248.664C201.458 246.36 202.311 244.227 202.311 242.264C202.311 240.557 201.799 239.149 200.775 238.04C199.751 236.931 198.3 236.376 196.423 236.376C193.351 236.376 190.492 237.443 187.847 239.576C185.202 241.709 182.898 244.483 180.935 247.896C179.058 251.224 177.607 254.68 176.583 258.264Z" fill="#AACC00"/>
<path d="M264.804 301.4C256.783 301.4 250.383 300.76 245.604 299.48C240.911 298.285 237.54 296.621 235.492 294.488C233.444 292.355 232.42 290.008 232.42 287.448C232.42 285.485 232.932 283.224 233.956 280.664C235.065 278.104 236.644 275.672 238.692 273.368C240.143 275.331 242.063 277.165 244.452 278.872C246.927 280.493 249.615 281.816 252.516 282.84C255.417 283.779 258.233 284.248 260.964 284.248C263.951 284.248 266.639 283.565 269.028 282.2C271.417 280.749 272.996 278.317 273.764 274.904C260.623 273.368 251.193 270.467 245.476 266.2C239.759 261.848 236.9 255.832 236.9 248.152C236.9 243.288 238.052 239.149 240.356 235.736C242.66 232.323 245.732 229.592 249.572 227.544C253.497 225.411 257.935 223.875 262.884 222.936C267.919 221.912 273.124 221.4 278.5 221.4C283.535 221.4 288.015 222.083 291.94 223.448C295.865 224.728 298.937 226.477 301.156 228.696C303.375 230.915 304.484 233.475 304.484 236.376C304.484 240.472 302.991 243.587 300.004 245.72C297.103 247.853 293.775 248.92 290.02 248.92C287.46 248.92 284.772 248.067 281.956 246.36C279.14 244.653 276.879 242.008 275.172 238.424C272.015 239.363 269.497 240.728 267.62 242.52C265.743 244.227 264.079 246.701 262.628 249.944C272.356 251.395 280.079 253.229 285.796 255.448C291.513 257.667 295.609 260.483 298.084 263.896C300.644 267.224 301.924 271.363 301.924 276.312C301.924 280.237 301.028 283.651 299.236 286.552C297.529 289.453 295.268 291.843 292.452 293.72C289.636 295.597 286.564 297.091 283.236 298.2C279.908 299.395 276.623 300.205 273.38 300.632C270.137 301.144 267.279 301.4 264.804 301.4Z" fill="#AACC00"/>
<path d="M52.288 173.4C43.072 173.4 35.136 171.608 28.48 168.024C21.9093 164.44 16.832 159.448 13.248 153.048C9.74933 146.648 8 139.309 8 131.032C8 120.28 10.0053 110.893 14.016 102.872C18.112 94.8507 23.9147 88.6213 31.424 84.184C39.0187 79.6613 48.1067 77.4 58.688 77.4C63.808 77.4 67.4347 78.4667 69.568 80.6C71.7013 82.648 72.768 85.6773 72.768 89.688C72.768 90.2853 72.7253 90.84 72.64 91.352C72.64 91.864 72.5973 92.4613 72.512 93.144C75.7547 90.584 79.2533 89.304 83.008 89.304C86.1653 89.304 89.1947 90.2853 92.096 92.248C94.9973 94.1253 97.344 97.0693 99.136 101.08C101.013 105.091 101.952 110.168 101.952 116.312C101.952 125.443 100.544 133.549 97.728 140.632C94.9973 147.715 91.2427 153.688 86.464 158.552C81.7707 163.416 76.48 167.128 70.592 169.688C64.704 172.163 58.6027 173.4 52.288 173.4ZM53.312 154.712C57.4933 154.712 61.2907 153.091 64.704 149.848C68.2027 146.52 70.592 142.253 71.872 137.048C68.8853 133.379 66.752 129.709 65.472 126.04C64.2773 122.285 63.68 118.573 63.68 114.904C63.68 111.064 64.1493 107.651 65.088 104.664C66.0267 101.677 67.264 99.1173 68.8 96.984C67.264 96.728 65.728 96.6 64.192 96.6C59.4133 96.6 55.232 97.624 51.648 99.672C48.1493 101.72 45.2053 104.451 42.816 107.864C40.512 111.192 38.7627 114.861 37.568 118.872C36.4587 122.797 35.904 126.68 35.904 130.52C35.904 134.872 36.544 138.883 37.824 142.552C39.1893 146.221 41.152 149.165 43.712 151.384C46.3573 153.603 49.5573 154.712 53.312 154.712Z" fill="#AACC00"/>
<path d="M132.469 173.4C127.178 173.4 123.04 172.461 120.053 170.584C117.152 168.792 115.104 166.36 113.909 163.288C112.8 160.131 112.245 156.589 112.245 152.664C112.245 148.141 112.714 143.405 113.653 138.456C114.592 133.421 115.53 128.557 116.469 123.864C117.408 119.085 117.877 114.904 117.877 111.32C117.877 106.029 116.981 102.147 115.189 99.672C118.688 97.7947 122.314 96.3013 126.069 95.192C129.909 93.9973 132.981 93.4 135.285 93.4C138.784 93.4 141.301 94.1253 142.837 95.576C144.458 96.9413 145.269 99.2453 145.269 102.488C145.269 104.28 145.013 106.755 144.501 109.912C143.989 112.984 143.349 116.355 142.581 120.024C141.813 123.693 141.002 127.405 140.149 131.16C139.381 134.829 138.741 138.157 138.229 141.144C137.717 144.131 137.461 146.477 137.461 148.184C137.461 151.341 138.272 153.731 139.893 155.352C141.6 156.973 143.648 157.784 146.037 157.784C148.768 157.784 151.626 156.76 154.613 154.712C157.6 152.664 160.074 149.677 162.037 145.752C162.378 143.875 162.805 141.528 163.317 138.712C163.914 135.896 164.554 132.909 165.237 129.752C166.005 126.509 166.688 123.437 167.285 120.536C167.968 117.549 168.565 115.032 169.077 112.984L161.397 102.744C165.066 100.099 168.992 97.88 173.173 96.088C177.354 94.296 181.621 93.4 185.973 93.4C189.813 93.4 192.544 94.1253 194.165 95.576C195.872 96.9413 196.725 99.2453 196.725 102.488C196.725 104.28 196.384 106.755 195.701 109.912C195.104 113.069 194.336 116.611 193.397 120.536C192.544 124.376 191.648 128.387 190.709 132.568C189.77 136.749 188.96 140.845 188.277 144.856C187.68 148.781 187.381 152.323 187.381 155.48C187.381 158.04 187.68 160.344 188.277 162.392C188.96 164.355 189.984 165.933 191.349 167.128C186.57 171.309 181.493 173.4 176.117 173.4C170.656 173.4 166.858 172.163 164.725 169.688C162.592 167.213 161.525 164.269 161.525 160.856L160.245 160.216C157.429 164.397 153.504 167.64 148.469 169.944C143.434 172.248 138.101 173.4 132.469 173.4Z" fill="#AACC00"/>
<path d="M244.043 173.4C236.107 173.4 229.408 171.992 223.947 169.176C218.486 166.36 214.347 162.435 211.531 157.4C208.8 152.28 207.435 146.392 207.435 139.736C207.435 132.824 208.672 126.552 211.147 120.92C213.707 115.203 217.248 110.296 221.771 106.2C226.294 102.104 231.542 98.9467 237.515 96.728C243.574 94.5093 250.102 93.4 257.099 93.4C265.376 93.4 271.478 95.2347 275.403 98.904C279.328 102.573 281.291 107.181 281.291 112.728C281.291 117.507 279.712 122.029 276.555 126.296C273.483 130.477 268.491 133.891 261.579 136.536C254.667 139.096 245.451 140.419 233.931 140.504C234.187 145.965 235.424 150.275 237.643 153.432C239.947 156.504 242.806 158.04 246.219 158.04C247.926 158.04 249.718 157.656 251.595 156.888C253.472 156.035 255.051 154.584 256.331 152.536C257.611 150.403 258.251 147.501 258.251 143.832C264.054 143.832 268.619 144.472 271.947 145.752C275.275 147.032 276.939 149.336 276.939 152.664C276.939 155.736 275.616 158.893 272.971 162.136C270.326 165.293 266.528 167.981 261.579 170.2C256.715 172.333 250.87 173.4 244.043 173.4ZM235.083 130.264C241.312 129.752 246.304 128.6 250.059 126.808C253.814 125.016 256.544 122.968 258.251 120.664C259.958 118.36 260.811 116.227 260.811 114.264C260.811 112.557 260.299 111.149 259.275 110.04C258.251 108.931 256.8 108.376 254.923 108.376C251.851 108.376 248.992 109.443 246.347 111.576C243.702 113.709 241.398 116.483 239.435 119.896C237.558 123.224 236.107 126.68 235.083 130.264Z" fill="#AACC00"/>
<path d="M316.008 173.4C311.656 173.4 307.603 172.248 303.848 169.944C300.179 167.555 297.192 164.141 294.888 159.704C292.669 155.181 291.56 149.72 291.56 143.32C291.56 138.029 292.541 132.653 294.504 127.192C296.552 121.645 299.624 116.568 303.72 111.96C307.816 107.352 312.979 103.64 319.208 100.824C325.437 98.008 332.819 96.6 341.352 96.6C342.717 96.6 344.04 96.6427 345.32 96.728C346.685 96.8133 348.093 96.9413 349.544 97.112C349.629 96.5147 349.8 95.448 350.056 93.912C350.397 92.2907 350.611 91.1813 350.696 90.584L343.528 80.344C348.051 77.6987 352.36 75.48 356.456 73.688C360.552 71.896 364.648 71 368.744 71C372.328 71 374.803 71.7253 376.168 73.176C377.619 74.5413 378.344 76.8453 378.344 80.088C378.344 83.0747 377.96 86.8293 377.192 91.352C376.424 95.7893 375.485 100.653 374.376 105.944C373.267 111.149 372.115 116.525 370.92 122.072C369.811 127.619 368.872 132.952 368.104 138.072C367.336 143.192 366.952 147.843 366.952 152.024C366.952 156.035 367.251 159.277 367.848 161.752C368.531 164.141 369.555 165.933 370.92 167.128C366.141 171.309 361.064 173.4 355.688 173.4C352.019 173.4 349.117 172.717 346.984 171.352C344.936 169.987 343.443 168.323 342.504 166.36C341.565 164.397 341.096 162.563 341.096 160.856L339.816 160.216C336.403 164.739 332.605 168.067 328.424 170.2C324.243 172.333 320.104 173.4 316.008 173.4ZM328.808 154.2C331.027 154.2 333.288 153.645 335.592 152.536C337.896 151.427 340.072 149.677 342.12 147.288C342.717 140.973 343.485 134.445 344.424 127.704C345.363 120.877 346.515 114.264 347.88 107.864C342.675 107.864 338.024 108.803 333.928 110.68C329.917 112.472 326.547 114.904 323.816 117.976C321.171 120.963 319.123 124.248 317.672 127.832C316.307 131.416 315.624 134.957 315.624 138.456C315.624 143.491 316.904 147.373 319.464 150.104C322.109 152.835 325.224 154.2 328.808 154.2Z" fill="#AACC00"/>
<path d="M100.096 301.528C94.3787 301.528 90.3253 299.907 87.936 296.664C85.632 293.336 84.48 288.344 84.48 281.688C84.48 277.421 85.1627 271.021 86.528 262.488C87.9787 253.869 89.984 242.477 92.544 228.312L85.76 214.616C89.7707 212.056 94.0373 209.88 98.56 208.088C103.083 206.211 107.605 205.272 112.128 205.272C115.029 205.272 117.163 205.955 118.528 207.32C119.979 208.685 120.96 210.392 121.472 212.44C125.739 212.269 131.029 211.587 137.344 210.392C143.659 209.197 149.973 207.704 156.288 205.912C156.971 209.752 157.312 212.995 157.312 215.64C157.312 219.395 156.331 222.595 154.368 225.24C152.405 227.885 149.76 229.891 146.432 231.256C143.189 232.536 139.563 233.176 135.552 233.176C132.907 233.176 130.347 232.835 127.872 232.152C125.483 231.469 122.965 230.488 120.32 229.208C119.808 232.365 119.168 235.821 118.4 239.576C117.632 243.245 116.907 246.957 116.224 250.712C117.589 251.053 118.955 251.309 120.32 251.48C121.685 251.651 123.051 251.736 124.416 251.736C126.123 251.395 128.043 250.968 130.176 250.456C132.395 249.859 134.315 249.304 135.936 248.792C136.277 249.901 136.448 251.053 136.448 252.248C136.533 253.357 136.576 254.253 136.576 254.936C136.576 259.032 135.168 262.019 132.352 263.896C129.621 265.773 126.379 266.712 122.624 266.712C120.917 266.712 119.339 266.627 117.888 266.456C116.437 266.2 114.987 265.901 113.536 265.56C112.597 270.936 112.128 274.819 112.128 277.208C112.128 281.56 112.427 285.229 113.024 288.216C113.707 291.203 114.688 293.72 115.968 295.768C110.848 299.608 105.557 301.528 100.096 301.528Z" fill="#AACC00"/>
<path d="M185.543 301.4C177.607 301.4 170.908 299.992 165.447 297.176C159.986 294.36 155.847 290.435 153.031 285.4C150.3 280.28 148.935 274.392 148.935 267.736C148.935 260.824 150.172 254.552 152.647 248.92C155.207 243.203 158.748 238.296 163.271 234.2C167.794 230.104 173.042 226.947 179.015 224.728C185.074 222.509 191.602 221.4 198.599 221.4C206.876 221.4 212.978 223.235 216.903 226.904C220.828 230.573 222.791 235.181 222.791 240.728C222.791 245.507 221.212 250.029 218.055 254.296C214.983 258.477 209.991 261.891 203.079 264.536C196.167 267.096 186.951 268.419 175.431 268.504C175.687 273.965 176.924 278.275 179.143 281.432C181.447 284.504 184.306 286.04 187.719 286.04C189.426 286.04 191.218 285.656 193.095 284.888C194.972 284.035 196.551 282.584 197.831 280.536C199.111 278.403 199.751 275.501 199.751 271.832C205.554 271.832 210.119 272.472 213.447 273.752C216.775 275.032 218.439 277.336 218.439 280.664C218.439 283.736 217.116 286.893 214.471 290.136C211.826 293.293 208.028 295.981 203.079 298.2C198.215 300.333 192.37 301.4 185.543 301.4ZM176.583 258.264C182.812 257.752 187.804 256.6 191.559 254.808C195.314 253.016 198.044 250.968 199.751 248.664C201.458 246.36 202.311 244.227 202.311 242.264C202.311 240.557 201.799 239.149 200.775 238.04C199.751 236.931 198.3 236.376 196.423 236.376C193.351 236.376 190.492 237.443 187.847 239.576C185.202 241.709 182.898 244.483 180.935 247.896C179.058 251.224 177.607 254.68 176.583 258.264Z" fill="#AACC00"/>
<path d="M264.804 301.4C256.783 301.4 250.383 300.76 245.604 299.48C240.911 298.285 237.54 296.621 235.492 294.488C233.444 292.355 232.42 290.008 232.42 287.448C232.42 285.485 232.932 283.224 233.956 280.664C235.065 278.104 236.644 275.672 238.692 273.368C240.143 275.331 242.063 277.165 244.452 278.872C246.927 280.493 249.615 281.816 252.516 282.84C255.417 283.779 258.233 284.248 260.964 284.248C263.951 284.248 266.639 283.565 269.028 282.2C271.417 280.749 272.996 278.317 273.764 274.904C260.623 273.368 251.193 270.467 245.476 266.2C239.759 261.848 236.9 255.832 236.9 248.152C236.9 243.288 238.052 239.149 240.356 235.736C242.66 232.323 245.732 229.592 249.572 227.544C253.497 225.411 257.935 223.875 262.884 222.936C267.919 221.912 273.124 221.4 278.5 221.4C283.535 221.4 288.015 222.083 291.94 223.448C295.865 224.728 298.937 226.477 301.156 228.696C303.375 230.915 304.484 233.475 304.484 236.376C304.484 240.472 302.991 243.587 300.004 245.72C297.103 247.853 293.775 248.92 290.02 248.92C287.46 248.92 284.772 248.067 281.956 246.36C279.14 244.653 276.879 242.008 275.172 238.424C272.015 239.363 269.497 240.728 267.62 242.52C265.743 244.227 264.079 246.701 262.628 249.944C272.356 251.395 280.079 253.229 285.796 255.448C291.513 257.667 295.609 260.483 298.084 263.896C300.644 267.224 301.924 271.363 301.924 276.312C301.924 280.237 301.028 283.651 299.236 286.552C297.529 289.453 295.268 291.843 292.452 293.72C289.636 295.597 286.564 297.091 283.236 298.2C279.908 299.395 276.623 300.205 273.38 300.632C270.137 301.144 267.279 301.4 264.804 301.4Z" fill="#AACC00"/>
<g style="mix-blend-mode:overlay" filter="url(#filter1_if_67_69)">
<path fill-rule="evenodd" clip-rule="evenodd" d="M66.6764 90.6917C66.6885 90.5827 66.7036 90.4739 66.7216 90.3656C66.7453 90.2239 66.768 90.0031 66.768 89.688C66.768 86.7097 65.9946 85.4869 65.4128 84.9283C65.3834 84.9001 65.3542 84.8715 65.3254 84.8426C64.885 84.4023 63.2572 83.4 58.688 83.4C48.9734 83.4 40.992 85.4695 34.4939 89.3391L34.4764 89.3496C27.9864 93.1846 22.9668 98.5461 19.3712 105.578C15.8594 112.612 14 121.039 14 131.032C14 138.429 15.5532 144.745 18.4981 150.143C21.5149 155.519 25.7544 159.7 31.3384 162.749C36.9458 165.765 43.8564 167.4 52.288 167.4C57.7829 167.4 63.0833 166.33 68.2333 164.171C73.3468 161.942 77.9804 158.703 82.1463 154.386L82.184 154.347C86.3261 150.131 89.6605 144.878 92.1297 138.474C92.1337 138.463 92.1378 138.453 92.142 138.442C92.1455 138.433 92.149 138.424 92.1525 138.415C94.6385 132.163 95.952 124.83 95.952 116.312C95.952 110.727 95.0913 106.592 93.7019 103.624C93.6911 103.601 93.6804 103.577 93.67 103.554C93.6659 103.545 93.6619 103.537 93.658 103.528C92.2119 100.291 90.5304 98.3815 88.8365 97.2854C88.8177 97.2732 88.7989 97.261 88.7803 97.2486C88.7649 97.2384 88.7495 97.2281 88.7342 97.2177C86.7124 95.85 84.8374 95.304 83.008 95.304C80.7396 95.304 78.5265 96.0402 76.2299 97.8533C75.7055 98.2673 75.1267 98.583 74.5191 98.7986C74.3297 99.3957 74.0455 99.9672 73.6692 100.49C72.571 102.015 71.5942 103.974 70.812 106.463C70.0922 108.753 69.68 111.541 69.68 114.904C69.68 117.887 70.1601 120.959 71.164 124.14C72.1747 127.004 73.9093 130.046 76.5254 133.26C77.7136 134.72 78.1479 136.653 77.6984 138.481C76.1759 144.672 73.2583 149.992 68.8393 154.195L68.8365 154.198C64.4602 158.356 59.2291 160.712 53.312 160.712C48.2797 160.712 43.6795 159.188 39.8563 155.981C39.8455 155.972 39.8347 155.963 39.8239 155.954C39.81 155.942 39.7962 155.93 39.7824 155.918C36.351 152.944 33.8618 149.109 32.2007 144.644C32.1863 144.606 32.1724 144.567 32.1588 144.528C30.6323 140.152 29.904 135.465 29.904 130.52C29.904 126.095 30.5441 121.664 31.7941 117.24C31.8018 117.213 31.8096 117.186 31.8177 117.159C33.187 112.562 35.2062 108.315 37.8828 104.449L37.9006 104.423C40.7714 100.322 44.3514 96.9908 48.6169 94.4939C48.635 94.4834 48.653 94.4729 48.6712 94.4625C53.2961 91.8197 58.5356 90.6 64.192 90.6C65.0213 90.6 65.8495 90.6307 66.6764 90.6917ZM123.206 165.479L123.246 165.504C124.911 166.551 127.781 167.4 132.469 167.4C137.255 167.4 141.735 166.427 145.972 164.488C146.508 164.243 147.025 163.987 147.524 163.719C147.032 163.762 146.536 163.784 146.037 163.784C142.135 163.784 138.601 162.4 135.761 159.702C135.723 159.667 135.687 159.631 135.65 159.595C132.534 156.479 131.461 152.32 131.461 148.184C131.461 145.973 131.783 143.237 132.315 140.13C132.842 137.057 133.497 133.656 134.276 129.931C134.283 129.897 134.291 129.864 134.298 129.83C135.144 126.108 135.947 122.43 136.708 118.795C137.461 115.196 138.085 111.912 138.58 108.939C139.073 105.901 139.269 103.8 139.269 102.488C139.269 101.336 139.121 100.661 139.001 100.319C138.964 100.214 138.933 100.15 138.915 100.117C138.853 100.063 138.791 100.008 138.731 99.9512C138.695 99.926 138.53 99.8229 138.136 99.7094C137.563 99.5445 136.648 99.4 135.285 99.4C133.874 99.4 131.476 99.7935 127.851 100.921C127.824 100.93 127.797 100.938 127.769 100.946C126.135 101.429 124.526 101.994 122.943 102.641C123.618 105.339 123.877 108.287 123.877 111.32C123.877 115.402 123.345 119.986 122.356 125.02L122.352 125.041C121.419 129.707 120.486 134.545 119.551 139.556L119.548 139.574C118.671 144.196 118.245 148.556 118.245 152.664C118.245 155.981 118.707 158.803 119.535 161.201C120.243 162.971 121.403 164.366 123.206 165.479ZM163.161 154.966L164.208 155.489C166.241 156.506 167.525 158.583 167.525 160.856C167.525 162.901 168.12 164.437 169.269 165.77C169.688 166.256 171.268 167.4 176.117 167.4C178.412 167.4 180.729 166.859 183.095 165.619C182.92 165.208 182.758 164.789 182.61 164.363C182.577 164.267 182.546 164.17 182.517 164.072C181.732 161.382 181.381 158.499 181.381 155.48C181.381 151.955 181.714 148.105 182.345 143.953C182.351 143.919 182.356 143.884 182.362 143.849C183.063 139.73 183.894 135.532 184.855 131.254C185.793 127.076 186.688 123.07 187.54 119.234C187.547 119.203 187.554 119.172 187.562 119.141C188.483 115.286 189.23 111.84 189.806 108.797C189.815 108.746 189.826 108.695 189.837 108.644C190.489 105.628 190.725 103.643 190.725 102.488C190.725 101.363 190.573 100.722 190.459 100.412C190.422 100.314 190.394 100.258 190.377 100.229C190.309 100.174 190.242 100.117 190.177 100.058C190.148 100.038 189.93 99.8942 189.361 99.7429C188.641 99.5518 187.546 99.4 185.973 99.4C182.47 99.4 179.005 100.116 175.537 101.603C173.655 102.409 171.833 103.31 170.069 104.306L173.877 109.384C174.961 110.829 175.336 112.686 174.898 114.439C174.402 116.421 173.82 118.875 173.148 121.81C172.545 124.74 171.858 127.829 171.089 131.077C170.419 134.175 169.791 137.106 169.205 139.872L167.94 146.825C167.839 147.385 167.658 147.927 167.404 148.435C166.201 150.84 164.793 153.032 163.161 154.966ZM190.361 100.205C190.361 100.205 190.364 100.208 190.368 100.215C190.363 100.209 190.361 100.205 190.361 100.205ZM263.626 150.069C263.188 152.051 262.495 153.924 261.476 155.623C261.466 155.639 261.457 155.655 261.447 155.67C261.438 155.686 261.428 155.701 261.419 155.716C259.623 158.589 257.203 160.93 254.078 162.35C254.008 162.382 253.938 162.412 253.867 162.441C251.402 163.45 248.837 164.04 246.219 164.04C240.662 164.04 236.118 161.398 232.843 157.032C232.806 156.982 232.769 156.932 232.734 156.882C229.641 152.481 228.226 146.932 227.938 140.785C227.861 139.154 228.452 137.563 229.575 136.378C230.114 135.809 230.752 135.358 231.451 135.04C231.083 134.76 230.745 134.436 230.445 134.07C229.196 132.548 228.773 130.509 229.314 128.616C230.471 124.567 232.106 120.676 234.209 116.948L234.234 116.905C236.509 112.949 239.273 109.573 242.58 106.906C246.172 104.009 250.333 102.376 254.923 102.376C258.038 102.376 261.258 103.342 263.684 105.97C265.866 108.334 266.811 111.261 266.811 114.264C266.811 117.984 265.206 121.355 263.072 124.235C260.578 127.603 256.911 130.186 252.643 132.223C251.855 132.599 251.034 132.948 250.182 133.27C253.758 132.679 256.844 131.889 259.465 130.921C265.721 128.522 269.565 125.676 271.72 122.744L271.732 122.727C274.214 119.373 275.291 116.08 275.291 112.728C275.291 108.782 273.974 105.781 271.306 103.287C268.962 101.096 264.651 99.4 257.099 99.4C250.751 99.4 244.931 100.404 239.59 102.358C234.306 104.322 229.728 107.089 225.799 110.647C221.913 114.166 218.861 118.381 216.632 123.352C214.536 128.13 213.435 133.56 213.435 139.736C213.435 145.528 214.612 150.404 216.797 154.523C218.999 158.437 222.231 161.54 226.697 163.843C231.096 166.112 236.794 167.4 244.043 167.4C250.256 167.4 255.23 166.428 259.147 164.715C263.488 162.766 266.441 160.575 268.347 158.312C270.413 155.77 270.939 153.921 270.939 152.664C270.939 152.332 270.898 152.144 270.873 152.06C270.851 151.986 270.834 151.962 270.827 151.954C270.819 151.943 270.773 151.879 270.632 151.778C270.484 151.672 270.222 151.517 269.793 151.352C268.316 150.784 266.291 150.329 263.626 150.069ZM355.954 95.0226C355.709 96.492 355.556 97.455 355.484 97.9605C355.14 100.365 353.413 102.238 351.215 102.876C351.711 103.208 352.16 103.615 352.544 104.09C353.683 105.498 354.126 107.345 353.748 109.116C352.415 115.365 351.288 121.833 350.368 128.521L350.367 128.531C349.439 135.192 348.682 141.632 348.093 147.853C347.977 149.086 347.481 150.253 346.676 151.193C345.467 152.602 344.177 153.88 342.798 154.999L343.779 155.489C345.812 156.506 347.096 158.583 347.096 160.856C347.096 161.456 347.262 162.402 347.917 163.771C348.325 164.625 349.023 165.489 350.26 166.325C351.099 166.846 352.728 167.4 355.688 167.4C358.029 167.4 360.391 166.838 362.807 165.544C362.527 164.843 362.286 164.126 362.079 163.4C362.056 163.321 362.035 163.24 362.016 163.16C361.262 160.039 360.952 156.271 360.952 152.024C360.952 147.484 361.368 142.53 362.17 137.182C362.954 131.958 363.91 126.528 365.037 120.895C365.042 120.866 365.048 120.838 365.055 120.809C366.247 115.27 367.398 109.902 368.505 104.705C369.602 99.4755 370.526 94.6866 371.279 90.3348C372.015 85.9942 372.344 82.6077 372.344 80.088C372.344 78.8827 372.205 78.138 372.077 77.7297C372.034 77.5947 371.998 77.5126 371.977 77.4699C371.959 77.4524 371.941 77.4347 371.924 77.417C371.867 77.3911 371.764 77.3497 371.6 77.3018C371.078 77.1486 370.169 77 368.744 77C365.549 77 362.269 77.6941 358.861 79.1849C356.738 80.1137 354.539 81.1711 352.263 82.36L355.611 87.1432C356.485 88.3911 356.851 89.9246 356.636 91.4325C356.522 92.2312 356.278 93.4785 355.954 95.0226ZM332.224 159.9C331.1 160.097 329.96 160.2 328.808 160.2C323.493 160.2 318.853 158.097 315.155 154.279C315.132 154.255 315.109 154.232 315.087 154.208C311.168 150.027 309.624 144.479 309.624 138.456C309.624 134.16 310.465 129.897 312.065 125.696C312.075 125.67 312.085 125.644 312.095 125.619C312.1 125.606 312.105 125.593 312.11 125.581C313.825 121.344 316.241 117.479 319.324 113.998L319.332 113.99C322.66 110.245 326.732 107.327 331.455 105.213C334.044 104.029 336.776 103.172 339.633 102.621C332.515 102.798 326.576 104.078 321.68 106.291C316.134 108.798 311.683 112.033 308.204 115.946C304.59 120.012 301.92 124.439 300.142 129.245C298.396 134.11 297.56 138.792 297.56 143.32C297.56 149.012 298.542 153.501 300.245 157.001C302.119 160.589 304.414 163.135 307.055 164.872C309.857 166.576 312.804 167.4 316.008 167.4C319.026 167.4 322.236 166.621 325.697 164.855C327.923 163.72 330.106 162.096 332.224 159.9Z" fill="#808080"/>
</g>
<g style="mix-blend-mode:overlay" filter="url(#filter2_if_67_69)">
<path fill-rule="evenodd" clip-rule="evenodd" d="M93.6213 216.968L97.921 225.649C98.4929 226.803 98.6779 228.111 98.4488 229.379C95.8932 243.52 93.8939 254.878 92.4493 263.46C91.0968 271.917 90.4805 277.922 90.4805 281.688C90.4805 287.752 91.5483 291.285 92.8163 293.171C93.6733 294.287 95.5258 295.528 100.096 295.528C102.773 295.528 105.499 294.903 108.306 293.505C107.862 292.238 107.487 290.918 107.175 289.553C107.167 289.516 107.159 289.478 107.151 289.44C107.147 289.425 107.144 289.409 107.141 289.393C106.441 285.893 106.128 281.802 106.128 277.208C106.128 274.254 106.684 269.925 107.626 264.528C107.91 262.901 108.853 261.462 110.231 260.552C111.61 259.642 113.303 259.341 114.911 259.719C116.194 260.021 117.476 260.287 118.756 260.516C119.898 260.643 121.185 260.712 122.624 260.712C125.333 260.712 127.352 260.052 128.953 258.952C128.977 258.936 129 258.92 129.024 258.904C129.612 258.512 130.193 257.921 130.446 256.559C128.695 256.969 127.076 257.323 125.593 257.619C125.206 257.697 124.812 257.736 124.416 257.736C122.8 257.736 121.187 257.635 119.576 257.434C117.966 257.232 116.363 256.931 114.769 256.533C111.702 255.766 109.756 252.75 110.321 249.639C111.012 245.838 111.747 242.078 112.525 238.361C113.278 234.676 113.902 231.306 114.398 228.248C114.701 226.377 115.87 224.76 117.551 223.885C119.233 223.011 121.228 222.982 122.934 223.807C125.313 224.958 127.498 225.803 129.495 226.375C131.426 226.906 133.44 227.176 135.552 227.176C138.904 227.176 141.756 226.645 144.192 225.69C146.586 224.701 148.304 223.344 149.55 221.665C150.64 220.195 151.312 218.295 151.312 215.64C151.312 214.983 151.286 214.262 151.232 213.475C146.977 214.544 142.72 215.481 138.46 216.287C131.985 217.512 126.38 218.248 121.712 218.435C118.872 218.549 116.341 216.653 115.652 213.895C115.401 212.892 114.979 212.219 114.416 211.689C114.386 211.661 114.357 211.633 114.328 211.604C114.221 211.542 113.661 211.272 112.128 211.272C108.459 211.272 104.715 212.03 100.861 213.63C100.831 213.642 100.801 213.654 100.771 213.666C98.3003 214.645 95.9177 215.746 93.6213 216.968ZM200.966 258.921C207.221 256.522 211.066 253.676 213.22 250.744L213.232 250.727C215.714 247.373 216.791 244.08 216.791 240.728C216.791 236.782 215.474 233.781 212.806 231.287C210.462 229.096 206.151 227.4 198.599 227.4C192.252 227.4 186.433 228.403 181.092 230.357C175.807 232.322 171.228 235.089 167.299 238.647C163.414 242.166 160.361 246.381 158.132 251.353C156.036 256.131 154.935 261.56 154.935 267.736C154.935 273.528 156.112 278.404 158.297 282.523C160.5 286.437 163.731 289.54 168.197 291.843C172.597 294.112 178.294 295.4 185.543 295.4C191.757 295.4 196.732 294.428 200.649 292.714C204.989 290.765 207.942 288.575 209.847 286.312C211.913 283.77 212.439 281.921 212.439 280.664C212.439 280.332 212.398 280.144 212.373 280.06C212.352 279.986 212.334 279.962 212.328 279.954C212.32 279.943 212.273 279.879 212.132 279.778C211.984 279.672 211.722 279.517 211.294 279.352C209.817 278.784 207.791 278.329 205.127 278.069C204.689 280.051 203.996 281.924 202.976 283.623C202.958 283.654 202.939 283.685 202.919 283.716C201.124 286.589 198.703 288.93 195.578 290.35C195.545 290.365 195.511 290.38 195.478 290.395C195.441 290.411 195.404 290.426 195.367 290.441C192.902 291.45 190.337 292.04 187.719 292.04C182.162 292.04 177.618 289.398 174.343 285.032C174.306 284.982 174.27 284.932 174.234 284.882C171.142 280.481 169.726 274.931 169.438 268.785C169.362 267.154 169.953 265.563 171.075 264.378C171.614 263.809 172.253 263.358 172.952 263.04C172.584 262.76 172.245 262.436 171.946 262.07C170.696 260.548 170.273 258.509 170.814 256.616C171.971 252.567 173.607 248.676 175.71 244.948L175.734 244.905C178.009 240.949 180.774 237.573 184.081 234.905C187.673 232.009 191.834 230.376 196.423 230.376C199.538 230.376 202.759 231.342 205.184 233.97C207.367 236.334 208.311 239.261 208.311 242.264C208.311 245.984 206.707 249.355 204.573 252.235C202.078 255.603 198.412 258.186 194.144 260.223C193.355 260.599 192.535 260.948 191.683 261.27C195.258 260.679 198.345 259.889 200.966 258.921ZM247.085 293.665C247.109 293.672 247.133 293.678 247.157 293.684C251.215 294.771 257.026 295.4 264.804 295.4C266.884 295.4 269.418 295.183 272.445 294.705C272.496 294.697 272.547 294.69 272.598 294.683C275.383 294.317 278.252 293.614 281.209 292.553C281.252 292.537 281.296 292.522 281.339 292.508C284.18 291.561 286.768 290.299 289.124 288.728C291.191 287.35 292.82 285.626 294.065 283.51C294.087 283.473 294.109 283.436 294.132 283.399C295.254 281.581 295.924 279.295 295.924 276.312C295.924 272.441 294.944 269.654 293.329 267.554C293.294 267.509 293.26 267.464 293.227 267.418C291.672 265.273 288.73 263.022 283.626 261.042C278.495 259.05 271.261 257.298 261.744 255.878C259.887 255.602 258.267 254.472 257.366 252.826C256.464 251.18 256.385 249.207 257.152 247.494C258.803 243.802 260.874 240.563 263.531 238.129C266.247 235.556 269.658 233.804 273.463 232.673C276.295 231.831 279.319 233.176 280.59 235.844C281.897 238.591 283.442 240.244 285.066 241.229C287.208 242.527 288.829 242.92 290.02 242.92C292.555 242.92 294.625 242.228 296.45 240.886C296.472 240.87 296.495 240.854 296.517 240.838C297.726 239.974 298.484 238.795 298.484 236.376C298.484 235.204 298.108 234.133 296.914 232.939C295.54 231.565 293.38 230.228 290.08 229.152C290.043 229.14 290.006 229.128 289.969 229.115C286.796 228.011 283.001 227.4 278.5 227.4C273.508 227.4 268.704 227.875 264.08 228.816C264.054 228.821 264.028 228.826 264.002 228.831C259.587 229.668 255.752 231.015 252.438 232.816L252.396 232.838C249.369 234.452 247.055 236.537 245.33 239.093C243.809 241.346 242.9 244.263 242.9 248.152C242.9 254.097 244.992 258.281 249.088 261.409C253.512 264.699 261.633 267.445 274.461 268.945C276.15 269.142 277.676 270.047 278.66 271.435C279.643 272.822 279.991 274.562 279.618 276.221C278.588 280.799 276.258 284.83 272.142 287.329C272.097 287.356 272.051 287.383 272.005 287.409C268.633 289.337 264.904 290.248 260.964 290.248C257.538 290.248 254.099 289.658 250.67 288.549C250.619 288.532 250.569 288.515 250.52 288.498C247.182 287.32 244.058 285.787 241.164 283.891C241.097 283.847 241.031 283.801 240.965 283.754C240.499 283.422 240.045 283.082 239.602 282.735C239.566 282.814 239.53 282.894 239.495 282.973C238.674 285.047 238.42 286.503 238.42 287.448C238.42 288.218 238.666 289.13 239.821 290.333C240.744 291.294 242.854 292.589 247.085 293.665Z" fill="#808080"/>
</g>
<path d="M371.181 222.947C372.376 224.142 372.546 225.507 371.693 227.043C369.986 229.262 368.28 231.395 366.573 233.443C364.866 235.491 363.16 237.539 361.453 239.587C359.746 241.635 358.466 243.171 357.613 244.195C356.76 245.219 355.906 246.243 355.053 247.267C354.37 248.462 353.176 250.083 351.469 252.131C350.957 252.814 350.274 253.155 349.421 253.155C348.568 253.326 347.8 253.07 347.117 252.387L329.965 236.259C328.77 235.065 328.685 233.785 329.709 232.419C333.122 228.153 336.536 223.971 339.949 219.875C343.192 215.779 346.434 211.598 349.677 207.331C350.189 206.649 350.872 206.222 351.725 206.051C352.749 205.881 353.602 206.137 354.285 206.819L371.181 222.947Z" fill="#B20000"/>
<g style="mix-blend-mode:overlay" filter="url(#filter3_if_67_69)">
<path fill-rule="evenodd" clip-rule="evenodd" d="M333.899 233.803L349.397 248.375C350.653 246.821 351.449 245.694 351.877 244.946L352.051 244.64L363.751 230.6C365.217 228.841 366.684 227.016 368.153 225.123L352.625 210.301C349.564 214.319 346.503 218.262 343.441 222.129L343.41 222.168L343.378 222.207C340.219 225.998 337.059 229.863 333.899 233.803Z" fill="#808080"/>
</g>
<defs>
<filter id="filter0_if_67_69" x="67" y="8" width="252" height="328.705" filterUnits="userSpaceOnUse" color-interpolation-filters="sRGB">
<feFlood flood-opacity="0" result="BackgroundImageFix"/>
<feBlend mode="normal" in="SourceGraphic" in2="BackgroundImageFix" result="shape"/>
<feColorMatrix in="SourceAlpha" type="matrix" values="0 0 0 0 0 0 0 0 0 0 0 0 0 0 0 0 0 0 127 0" result="hardAlpha"/>
<feOffset dx="8" dy="-4"/>
<feComposite in2="hardAlpha" operator="arithmetic" k2="-1" k3="1"/>
<feColorMatrix type="matrix" values="0 0 0 0 1 0 0 0 0 1 0 0 0 0 1 0 0 0 1 0"/>
<feBlend mode="normal" in2="shape" result="effect1_innerShadow_67_69"/>
<feGaussianBlur stdDeviation="8" result="effect2_foregroundBlur_67_69"/>
</filter>
<filter id="filter1_if_67_69" x="8" y="71" width="370.344" height="102.4" filterUnits="userSpaceOnUse" color-interpolation-filters="sRGB">
<feFlood flood-opacity="0" result="BackgroundImageFix"/>
<feBlend mode="normal" in="SourceGraphic" in2="BackgroundImageFix" result="shape"/>
<feColorMatrix in="SourceAlpha" type="matrix" values="0 0 0 0 0 0 0 0 0 0 0 0 0 0 0 0 0 0 127 0" result="hardAlpha"/>
<feOffset dx="4" dy="4"/>
<feComposite in2="hardAlpha" operator="arithmetic" k2="-1" k3="1"/>
<feColorMatrix type="matrix" values="0 0 0 0 1 0 0 0 0 1 0 0 0 0 1 0 0 0 1 0"/>
<feBlend mode="normal" in2="shape" result="effect1_innerShadow_67_69"/>
<feGaussianBlur stdDeviation="3" result="effect2_foregroundBlur_67_69"/>
</filter>
<filter id="filter2_if_67_69" x="84.4805" y="205.272" width="220.004" height="96.2559" filterUnits="userSpaceOnUse" color-interpolation-filters="sRGB">
<feFlood flood-opacity="0" result="BackgroundImageFix"/>
<feBlend mode="normal" in="SourceGraphic" in2="BackgroundImageFix" result="shape"/>
<feColorMatrix in="SourceAlpha" type="matrix" values="0 0 0 0 0 0 0 0 0 0 0 0 0 0 0 0 0 0 127 0" result="hardAlpha"/>
<feOffset dx="4" dy="4"/>
<feComposite in2="hardAlpha" operator="arithmetic" k2="-1" k3="1"/>
<feColorMatrix type="matrix" values="0 0 0 0 1 0 0 0 0 1 0 0 0 0 1 0 0 0 1 0"/>
<feBlend mode="normal" in2="shape" result="effect1_innerShadow_67_69"/>
<feGaussianBlur stdDeviation="3" result="effect2_foregroundBlur_67_69"/>
</filter>
<filter id="filter3_if_67_69" x="327.899" y="204.301" width="46.2539" height="50.0737" filterUnits="userSpaceOnUse" color-interpolation-filters="sRGB">
<feFlood flood-opacity="0" result="BackgroundImageFix"/>
<feBlend mode="normal" in="SourceGraphic" in2="BackgroundImageFix" result="shape"/>
<feColorMatrix in="SourceAlpha" type="matrix" values="0 0 0 0 0 0 0 0 0 0 0 0 0 0 0 0 0 0 127 0" result="hardAlpha"/>
<feOffset dx="4" dy="4"/>
<feComposite in2="hardAlpha" operator="arithmetic" k2="-1" k3="1"/>
<feColorMatrix type="matrix" values="0 0 0 0 1 0 0 0 0 1 0 0 0 0 1 0 0 0 1 0"/>
<feBlend mode="normal" in2="shape" result="effect1_innerShadow_67_69"/>
<feGaussianBlur stdDeviation="3" result="effect2_foregroundBlur_67_69"/>
</filter>
</defs>
</svg>
