<svg width="32" height="32" viewBox="0 0 32 32" fill="none" xmlns="http://www.w3.org/2000/svg">
<g clip-path="url(#clip0_230_336)">
<path d="M5.64375 28.7638C5.4981 28.8863 5.3205 28.9647 5.13183 28.9898C4.94315 29.0149 4.75124 28.9856 4.57862 28.9054C4.40601 28.8252 4.25987 28.6974 4.15738 28.537C4.05488 28.3766 4.00028 28.1903 4 28V8C4 7.73478 4.10536 7.48043 4.29289 7.29289C4.48043 7.10536 4.73478 7 5 7H27C27.2652 7 27.5196 7.10536 27.7071 7.29289C27.8946 7.48043 28 7.73478 28 8V24C28 24.2652 27.8946 24.5196 27.7071 24.7071C27.5196 24.8946 27.2652 25 27 25H10L5.64375 28.7638Z" fill="#EBEB47" stroke="#08451C" stroke-linecap="round" stroke-linejoin="round"/>
<path d="M16 17C16.5523 17 17 16.5523 17 16C17 15.4477 16.5523 15 16 15C15.4477 15 15 15.4477 15 16C15 16.5523 15.4477 17 16 17Z" fill="#08451C"/>
<path d="M10.5 17C11.0523 17 11.5 16.5523 11.5 16C11.5 15.4477 11.0523 15 10.5 15C9.94772 15 9.5 15.4477 9.5 16C9.5 16.5523 9.94772 17 10.5 17Z" fill="#08451C"/>
<path d="M21.5 17C22.0523 17 22.5 16.5523 22.5 16C22.5 15.4477 22.0523 15 21.5 15C20.9477 15 20.5 15.4477 20.5 16C20.5 16.5523 20.9477 17 21.5 17Z" fill="#08451C"/>
</g>
<defs>
<clipPath id="clip0_230_336">
<rect width="32" height="32" fill="white"/>
</clipPath>
</defs>
</svg>
