<svg width="24" height="24" viewBox="0 0 24 24" fill="none" xmlns="http://www.w3.org/2000/svg">
<g clip-path="url(#clip0_175_463)">
<path d="M12 21C16.9706 21 21 16.9706 21 12C21 7.02944 16.9706 3 12 3C7.02944 3 3 7.02944 3 12C3 16.9706 7.02944 21 12 21Z" fill="#F9F9D2"/>
<path d="M12.6875 16.875C12.6875 17.2547 12.3797 17.5625 12 17.5625C11.6203 17.5625 11.3125 17.2547 11.3125 16.875C11.3125 16.4953 11.6203 16.1875 12 16.1875C12.3797 16.1875 12.6875 16.4953 12.6875 16.875Z" fill="#08451C" stroke="#08451C" stroke-width="0.125"/>
<path d="M12 13.5V12.75C13.6566 12.75 15 11.5744 15 10.125C15 8.67562 13.6566 7.5 12 7.5C10.3434 7.5 9 8.67562 9 10.125V10.5" stroke="#08451C" stroke-linecap="round" stroke-linejoin="round"/>
</g>
<defs>
<clipPath id="clip0_175_463">
<rect width="24" height="24" fill="white"/>
</clipPath>
</defs>
</svg>
