<svg width="16" height="16" viewBox="0 0 16 16" fill="none" xmlns="http://www.w3.org/2000/svg">
<g clip-path="url(#clip0_291_514)">
<path d="M13.5 3H2.5C2.22386 3 2 3.22386 2 3.5V12.5C2 12.7761 2.22386 13 2.5 13H13.5C13.7761 13 14 12.7761 14 12.5V3.5C14 3.22386 13.7761 3 13.5 3Z" stroke="#FAFAD1" stroke-linecap="round" stroke-linejoin="round"/>
<path d="M10.5 5.5C10.5 6.16304 10.2366 6.79893 9.76777 7.26777C9.29893 7.73661 8.66304 8 8 8C7.33696 8 6.70107 7.73661 6.23223 7.26777C5.76339 6.79893 5.5 6.16304 5.5 5.5" stroke="#FAFAD1" stroke-linecap="round" stroke-linejoin="round"/>
</g>
<defs>
<clipPath id="clip0_291_514">
<rect width="16" height="16" fill="white"/>
</clipPath>
</defs>
</svg>
