<svg width="18" height="16" viewBox="0 0 18 16" fill="none" xmlns="http://www.w3.org/2000/svg">
<path fill-rule="evenodd" clip-rule="evenodd" d="M5.13949 4.44375C5.48449 4.44375 5.76449 4.72375 5.76449 5.06875C5.76449 5.41375 5.48449 5.69375 5.13949 5.69375H4.35533C3.01033 5.69375 1.91699 6.78625 1.91699 8.13042V12.2013C1.91699 13.5504 3.01366 14.6471 4.36283 14.6471H13.6462C14.9895 14.6471 16.0837 13.5529 16.0837 12.2096V8.13958C16.0837 6.79042 14.9862 5.69375 13.6387 5.69375H12.862C12.517 5.69375 12.237 5.41375 12.237 5.06875C12.237 4.72375 12.517 4.44375 12.862 4.44375H13.6387C15.6762 4.44375 17.3337 6.10208 17.3337 8.13958V12.2096C17.3337 14.2429 15.6787 15.8971 13.6462 15.8971H4.36283C2.32533 15.8971 0.666992 14.2396 0.666992 12.2013V8.13042C0.666992 6.09708 2.32116 4.44375 4.35533 4.44375H5.13949ZM9.00099 0.5C9.34599 0.5 9.62599 0.78 9.62599 1.125L9.62533 9.64667L10.9885 8.27833C11.2318 8.03333 11.6268 8.03333 11.8718 8.27667C12.116 8.52 12.1168 8.91583 11.8735 9.16083L9.44911 11.5947C9.42544 11.6191 9.3998 11.6415 9.37245 11.6617L9.44349 11.6C9.41666 11.6272 9.38753 11.6517 9.35657 11.6732C9.33767 11.6862 9.31847 11.698 9.29862 11.7088C9.28905 11.714 9.279 11.7191 9.26883 11.724C9.25066 11.7326 9.23199 11.7404 9.2129 11.7473C9.20333 11.7507 9.19377 11.7538 9.18414 11.7568C9.16068 11.7641 9.13654 11.7699 9.11189 11.7743C9.10636 11.7753 9.1013 11.7761 9.09622 11.7769C9.07635 11.78 9.05561 11.7822 9.0346 11.7833C9.02326 11.7839 9.01214 11.7842 9.00099 11.7842L8.96782 11.7817L8.91622 11.7785C8.91254 11.778 8.90888 11.7774 8.90522 11.7769L9.00099 11.7842C8.96375 11.7842 8.92681 11.7808 8.89058 11.7744C8.86551 11.7699 8.84143 11.7641 8.81794 11.7569C8.80855 11.7539 8.79933 11.7509 8.7902 11.7476C8.77104 11.7408 8.75213 11.733 8.73371 11.7242C8.72253 11.7189 8.7114 11.7133 8.70045 11.7072C8.68505 11.6987 8.67021 11.6897 8.65579 11.6802C8.64592 11.6737 8.63604 11.6667 8.62636 11.6594C8.60255 11.6415 8.58009 11.622 8.55912 11.601L8.55849 11.6L6.12849 9.16083C5.88516 8.91583 5.88599 8.52 6.13016 8.27667C6.37516 8.03333 6.77016 8.03333 7.01349 8.27833L8.37533 9.64667L8.37599 1.125C8.37599 0.78 8.65599 0.5 9.00099 0.5Z" fill="#EBEB47"/>
</svg>
