<svg width="1351" height="1101" viewBox="0 0 1351 1101" fill="none" xmlns="http://www.w3.org/2000/svg">
<g filter="url(#filter0_ii_288_439)">
<path d="M353.4 624.5C368.8 626.833 380.467 629.4 388.4 632.2C396.333 635 403.333 638.733 409.4 643.4C420.6 651.8 426.2 663 426.2 677C426.2 682.6 425.967 686.567 425.5 688.9C422.233 710.367 418.033 730.433 412.9 749.1C410.1 759.367 403.1 769.633 391.9 779.9C380.7 790.633 366.7 800.433 349.9 809.3C333.567 818.633 316.067 825.867 297.4 831C279.2 836.6 261.933 839.4 245.6 839.4C220.867 839.4 198.933 835.9 179.8 828.9C161.133 821.9 146.433 812.567 135.7 800.9C122.633 786.433 113.3 770.333 107.7 752.6C102.567 734.867 100 717.6 100 700.8C100 695.2 100.7 686.567 102.1 674.9C103.5 662.767 106.767 649 111.9 633.6C118.357 613.367 126.801 597.105 137.229 584.814C138.806 582.956 141.391 582.359 143.672 583.215L145.359 583.847C148.509 585.028 150.042 588.556 148.69 591.637C147.382 594.614 145.619 598.569 143.4 603.5C139.2 612.367 135.467 622.4 132.2 633.6C129.4 644.333 128 655.067 128 665.8C128 696.133 140.6 719.933 165.8 737.2C188.2 752.6 215.5 760.3 247.7 760.3C278.5 760.3 305.333 756.567 328.2 749.1C341.733 744.433 353.4 739.067 363.2 733C372.402 727.304 380.163 719.756 386.485 710.357C387.284 709.169 387.699 707.627 386.847 706.476C385.2 704.25 381.284 702.591 375.1 701.5C367.633 699.633 357.133 698 343.6 696.6L327.5 694.5C304.167 691.233 287.133 684.467 276.4 674.2C267.067 664.867 262.4 651.1 262.4 632.9C262.4 618.433 265.2 602.8 270.8 586C276.867 568.733 285.033 552.633 295.3 537.7C306.967 520.433 320.033 506.667 334.5 496.4C349.433 486.133 364.6 481 380 481C396.8 481 409.867 487.067 419.2 499.2C429 511.333 433.9 526.267 433.9 544C433.9 559.448 430.769 573.018 424.507 584.709C423.814 586.003 422.631 586.956 421.239 587.42L414.74 589.587C410.786 590.905 406.734 587.886 406.595 583.72C406.2 571.895 404.101 563.322 400.3 558C395.633 551 387.7 547.5 376.5 547.5C362.967 547.5 350.6 551.7 339.4 560.1C329.02 567.773 316.675 579.81 302.366 596.212C301.418 597.299 300.871 598.697 300.989 600.134C301.614 607.793 305.552 613.115 312.8 616.1C320.733 618.9 334.267 621.7 353.4 624.5Z" fill="#633636"/>
<path d="M618.284 509.7C635.551 521.367 649.784 535.833 660.984 553.1C672.184 570.367 677.784 590.2 677.784 612.6C677.784 644.333 665.884 669.067 642.084 686.8C632.284 694.267 620.151 700.333 605.684 705C591.684 709.2 576.284 711.3 559.484 711.3C508.151 711.3 482.484 689.6 482.484 646.2C482.484 639.2 482.718 631.967 483.184 624.5C483.468 619.68 490.906 617.259 494.616 620.349C500.758 625.464 508.148 629.414 516.784 632.2C531.718 636.4 549.684 638.5 570.684 638.5C583.751 638.5 598.218 638.033 614.084 637.1C625.407 636.101 635.066 634.983 643.062 633.746C647.282 633.094 649.278 628.301 646.783 624.835C637.868 612.448 628.135 601.369 617.584 591.6C604.984 579.467 593.084 570.367 581.884 564.3C572.754 558.974 565.33 555.664 559.611 554.37C557.411 553.872 555.244 555.011 554.068 556.935L551.112 561.773C549.506 564.401 546.172 565.386 543.396 564.054L530.784 558C525.184 555.2 520.284 550.767 516.084 544.7C512.351 538.633 511.418 533.267 513.284 528.6L536.309 477.704C538.038 473.883 543.304 472.724 546.979 474.744C548.601 475.636 550.436 476.555 552.484 477.5C558.551 479.833 562.751 481.467 565.084 482.4C587.484 491.733 605.218 500.833 618.284 509.7Z" fill="#633636"/>
<path d="M1122.49 631.5C1125.81 631.5 1128.49 634.186 1128.49 637.5V699.7C1128.49 703.014 1125.81 705.7 1122.49 705.7H1083.69C1057.56 705.7 1036.32 698 1019.99 682.6C1004.12 667.2 994.558 643.4 991.291 611.2L987.655 574.471C987.187 569.749 978.235 569.239 976.775 573.754C966.748 604.758 948.72 632.407 922.691 656.7C893.041 684.497 854.422 705.856 806.834 720.775C806.147 720.99 805.423 721.079 804.705 721.037L711.39 715.643C704.997 715.274 703.521 706.392 709.422 703.905C748.89 687.272 781.246 671.77 806.491 657.4C849.026 634.775 880.591 611.273 901.188 586.894C902.4 585.459 902.836 583.527 902.365 581.709C898.129 565.355 891.605 548.586 882.791 531.4C873.458 512.733 863.425 495.933 852.691 481C835.512 457.116 817.015 437.935 797.201 423.456C793.906 421.048 789.293 422.782 788.231 426.723C787.026 431.202 781.394 432.653 778.174 429.315L730.432 379.826C728.978 378.32 728.415 376.164 728.946 374.139L745.17 312.248C746.119 308.629 750.113 306.748 753.461 308.418C791.046 327.174 825.289 355.534 856.191 393.5C877.191 419.633 894.458 447.4 907.991 476.8C919.12 500.977 926.462 522.944 930.017 542.702C930.913 547.679 936.962 549.66 939.942 545.575C948.402 533.979 956.185 518.054 963.291 497.8C973.558 466.533 977.991 435.733 976.591 405.4L969.051 280.643C968.949 278.959 969.561 277.311 970.737 276.101L1006.99 238.779C1010.63 235.035 1016.98 237.42 1017.29 242.631C1026.63 402.552 1032.67 500.441 1035.39 536.3C1038.19 573.633 1044.26 599.067 1053.59 612.6C1058.26 619.6 1064.32 624.5 1071.79 627.3C1079.26 630.1 1088.82 631.5 1100.49 631.5H1122.49Z" fill="#633636"/>
<path d="M1250.14 623.8C1250.14 635 1247.81 645.5 1243.14 655.3C1238.48 664.633 1232.88 672.333 1226.34 678.4C1217.94 686.333 1207.21 692.867 1194.14 698C1181.08 703.133 1170.11 705.7 1161.24 705.7H1116.44C1106.18 705.7 1097.54 702.2 1090.54 695.2C1083.08 687.733 1079.34 678.867 1079.34 668.6C1079.34 658.333 1083.08 649.7 1090.54 642.7C1097.54 635.233 1106.18 631.5 1116.44 631.5H1155.64C1178.04 631.5 1195.78 628.467 1208.84 622.4C1213.05 620.646 1216.74 618.628 1219.89 616.347C1221.76 614.995 1222.47 612.579 1221.76 610.385C1214.55 588.227 1198.87 570.591 1174.71 557.476C1172.2 556.111 1170.89 553.212 1171.64 550.452L1188.41 489.173C1189.5 485.182 1194.21 483.472 1197.48 486.006C1212.39 497.557 1224.11 511.055 1232.64 526.5C1244.31 547.967 1250.14 573.167 1250.14 602.1V623.8Z" fill="#633636"/>
<path d="M1197 806.434C1197 830.462 1176.85 849.94 1152 849.94C1127.15 849.94 1107 830.462 1107 806.434C1107 779.106 1131.43 767.775 1146.3 742.003C1148.61 737.999 1155.39 737.999 1157.7 742.003C1172.57 767.775 1197 779.106 1197 806.434Z" fill="#633636"/>
<path d="M263 957.434C263 981.462 242.853 1000.94 218 1000.94C193.147 1000.94 173 981.462 173 957.434C173 930.106 197.426 918.775 212.295 893.003C214.605 888.999 221.395 888.999 223.705 893.003C238.574 918.775 263 930.106 263 957.434Z" fill="#633636"/>
<path d="M367 937.434C367 961.462 346.853 980.94 322 980.94C297.147 980.94 277 961.462 277 937.434C277 910.106 301.426 898.775 316.295 873.003C318.605 868.999 325.395 868.999 327.705 873.003C342.574 898.775 367 910.106 367 937.434Z" fill="#633636"/>
</g>
<g filter="url(#filter1_ii_288_439)">
<path d="M503.445 172.785C503.445 206.669 592.107 314.313 640.762 367.267C649.755 377.053 646.914 392.661 634.193 396.548C549.32 422.484 379.608 422.484 294.736 396.548C282.015 392.661 279.238 377.111 288.363 367.448C346.753 305.619 425.484 207.763 425.484 172.785C425.484 162.434 424.381 157.039 421.001 154.549C413.743 149.203 403.461 147.39 402.21 138.472C400.726 127.893 401.988 118.413 405.994 114.413C425.003 95.4363 503.445 94.9562 522.935 114.413C526.97 118.442 528.221 127.105 526.686 137.843C525.373 147.025 514.456 148.812 507.465 154.921C504.446 157.559 503.445 162.922 503.445 172.785Z" fill="#CC6633"/>
</g>
<g filter="url(#filter2_ii_288_439)">
<path d="M419.501 320.434C419.501 344.462 439.648 363.94 464.501 363.94C489.354 363.94 509.501 344.462 509.501 320.434C509.501 293.106 485.075 281.775 470.206 256.003C467.896 251.999 461.106 251.999 458.796 256.003C443.927 281.775 419.501 293.106 419.501 320.434Z" fill="#FFAA00"/>
</g>
<g filter="url(#filter3_ii_288_439)">
<path d="M559.335 216.735C556.881 217.31 554.596 215.404 554.839 212.895C557.608 184.341 582.201 129.701 663.752 102.088C666.63 101.114 669.424 103.611 668.585 106.53C657.835 143.915 616.407 203.356 559.335 216.735Z" fill="#0A5C26"/>
</g>
<g filter="url(#filter4_ii_288_439)">
<path d="M594.434 224.531C591.953 222.83 592.34 219.127 595.114 217.962C622.93 206.275 662.108 198.893 712.196 233.182C715.051 235.136 714.114 239.507 710.72 240.179C679.942 246.274 636.275 253.224 594.434 224.531Z" fill="#0A5C26"/>
</g>
<defs>
<filter id="filter0_ii_288_439" x="76" y="212.956" width="1198.14" height="811.985" filterUnits="userSpaceOnUse" color-interpolation-filters="sRGB">
<feFlood flood-opacity="0" result="BackgroundImageFix"/>
<feBlend mode="normal" in="SourceGraphic" in2="BackgroundImageFix" result="shape"/>
<feColorMatrix in="SourceAlpha" type="matrix" values="0 0 0 0 0 0 0 0 0 0 0 0 0 0 0 0 0 0 127 0" result="hardAlpha"/>
<feOffset dx="-24" dy="24"/>
<feGaussianBlur stdDeviation="24"/>
<feComposite in2="hardAlpha" operator="arithmetic" k2="-1" k3="1"/>
<feColorMatrix type="matrix" values="0 0 0 0 1 0 0 0 0 1 0 0 0 0 1 0 0 0 0.2 0"/>
<feBlend mode="plus-lighter" in2="shape" result="effect1_innerShadow_288_439"/>
<feColorMatrix in="SourceAlpha" type="matrix" values="0 0 0 0 0 0 0 0 0 0 0 0 0 0 0 0 0 0 127 0" result="hardAlpha"/>
<feOffset dx="24" dy="-24"/>
<feGaussianBlur stdDeviation="24"/>
<feComposite in2="hardAlpha" operator="arithmetic" k2="-1" k3="1"/>
<feColorMatrix type="matrix" values="0 0 0 0 0 0 0 0 0 0 0 0 0 0 0 0 0 0 0.2 0"/>
<feBlend mode="plus-darker" in2="effect1_innerShadow_288_439" result="effect2_innerShadow_288_439"/>
</filter>
<filter id="filter1_ii_288_439" x="259" y="76" width="411" height="364" filterUnits="userSpaceOnUse" color-interpolation-filters="sRGB">
<feFlood flood-opacity="0" result="BackgroundImageFix"/>
<feBlend mode="normal" in="SourceGraphic" in2="BackgroundImageFix" result="shape"/>
<feColorMatrix in="SourceAlpha" type="matrix" values="0 0 0 0 0 0 0 0 0 0 0 0 0 0 0 0 0 0 127 0" result="hardAlpha"/>
<feOffset dx="-24" dy="24"/>
<feGaussianBlur stdDeviation="24"/>
<feComposite in2="hardAlpha" operator="arithmetic" k2="-1" k3="1"/>
<feColorMatrix type="matrix" values="0 0 0 0 1 0 0 0 0 1 0 0 0 0 1 0 0 0 0.2 0"/>
<feBlend mode="plus-lighter" in2="shape" result="effect1_innerShadow_288_439"/>
<feColorMatrix in="SourceAlpha" type="matrix" values="0 0 0 0 0 0 0 0 0 0 0 0 0 0 0 0 0 0 127 0" result="hardAlpha"/>
<feOffset dx="24" dy="-24"/>
<feGaussianBlur stdDeviation="24"/>
<feComposite in2="hardAlpha" operator="arithmetic" k2="-1" k3="1"/>
<feColorMatrix type="matrix" values="0 0 0 0 0 0 0 0 0 0 0 0 0 0 0 0 0 0 0.2 0"/>
<feBlend mode="plus-darker" in2="effect1_innerShadow_288_439" result="effect2_innerShadow_288_439"/>
</filter>
<filter id="filter2_ii_288_439" x="403.501" y="237" width="122" height="142.94" filterUnits="userSpaceOnUse" color-interpolation-filters="sRGB">
<feFlood flood-opacity="0" result="BackgroundImageFix"/>
<feBlend mode="normal" in="SourceGraphic" in2="BackgroundImageFix" result="shape"/>
<feColorMatrix in="SourceAlpha" type="matrix" values="0 0 0 0 0 0 0 0 0 0 0 0 0 0 0 0 0 0 127 0" result="hardAlpha"/>
<feOffset dx="-16" dy="16"/>
<feGaussianBlur stdDeviation="16"/>
<feComposite in2="hardAlpha" operator="arithmetic" k2="-1" k3="1"/>
<feColorMatrix type="matrix" values="0 0 0 0 1 0 0 0 0 1 0 0 0 0 1 0 0 0 0.2 0"/>
<feBlend mode="plus-lighter" in2="shape" result="effect1_innerShadow_288_439"/>
<feColorMatrix in="SourceAlpha" type="matrix" values="0 0 0 0 0 0 0 0 0 0 0 0 0 0 0 0 0 0 127 0" result="hardAlpha"/>
<feOffset dx="16" dy="-16"/>
<feGaussianBlur stdDeviation="16"/>
<feComposite in2="hardAlpha" operator="arithmetic" k2="-1" k3="1"/>
<feColorMatrix type="matrix" values="0 0 0 0 0 0 0 0 0 0 0 0 0 0 0 0 0 0 0.2 0"/>
<feBlend mode="color-burn" in2="effect1_innerShadow_288_439" result="effect2_innerShadow_288_439"/>
</filter>
<filter id="filter3_ii_288_439" x="530.821" y="77.8733" width="161.915" height="162.965" filterUnits="userSpaceOnUse" color-interpolation-filters="sRGB">
<feFlood flood-opacity="0" result="BackgroundImageFix"/>
<feBlend mode="normal" in="SourceGraphic" in2="BackgroundImageFix" result="shape"/>
<feColorMatrix in="SourceAlpha" type="matrix" values="0 0 0 0 0 0 0 0 0 0 0 0 0 0 0 0 0 0 127 0" result="hardAlpha"/>
<feOffset dx="-24" dy="24"/>
<feGaussianBlur stdDeviation="24"/>
<feComposite in2="hardAlpha" operator="arithmetic" k2="-1" k3="1"/>
<feColorMatrix type="matrix" values="0 0 0 0 1 0 0 0 0 1 0 0 0 0 1 0 0 0 0.2 0"/>
<feBlend mode="plus-lighter" in2="shape" result="effect1_innerShadow_288_439"/>
<feColorMatrix in="SourceAlpha" type="matrix" values="0 0 0 0 0 0 0 0 0 0 0 0 0 0 0 0 0 0 127 0" result="hardAlpha"/>
<feOffset dx="24" dy="-24"/>
<feGaussianBlur stdDeviation="24"/>
<feComposite in2="hardAlpha" operator="arithmetic" k2="-1" k3="1"/>
<feColorMatrix type="matrix" values="0 0 0 0 0 0 0 0 0 0 0 0 0 0 0 0 0 0 0.2 0"/>
<feBlend mode="plus-darker" in2="effect1_innerShadow_288_439" result="effect2_innerShadow_288_439"/>
</filter>
<filter id="filter4_ii_288_439" x="568.783" y="184.203" width="169.104" height="85.4116" filterUnits="userSpaceOnUse" color-interpolation-filters="sRGB">
<feFlood flood-opacity="0" result="BackgroundImageFix"/>
<feBlend mode="normal" in="SourceGraphic" in2="BackgroundImageFix" result="shape"/>
<feColorMatrix in="SourceAlpha" type="matrix" values="0 0 0 0 0 0 0 0 0 0 0 0 0 0 0 0 0 0 127 0" result="hardAlpha"/>
<feOffset dx="-24" dy="24"/>
<feGaussianBlur stdDeviation="24"/>
<feComposite in2="hardAlpha" operator="arithmetic" k2="-1" k3="1"/>
<feColorMatrix type="matrix" values="0 0 0 0 1 0 0 0 0 1 0 0 0 0 1 0 0 0 0.2 0"/>
<feBlend mode="plus-lighter" in2="shape" result="effect1_innerShadow_288_439"/>
<feColorMatrix in="SourceAlpha" type="matrix" values="0 0 0 0 0 0 0 0 0 0 0 0 0 0 0 0 0 0 127 0" result="hardAlpha"/>
<feOffset dx="24" dy="-24"/>
<feGaussianBlur stdDeviation="24"/>
<feComposite in2="hardAlpha" operator="arithmetic" k2="-1" k3="1"/>
<feColorMatrix type="matrix" values="0 0 0 0 0 0 0 0 0 0 0 0 0 0 0 0 0 0 0.2 0"/>
<feBlend mode="plus-darker" in2="effect1_innerShadow_288_439" result="effect2_innerShadow_288_439"/>
</filter>
</defs>
</svg>
