<svg width="1697" height="840" viewBox="0 0 1697 840" fill="none" xmlns="http://www.w3.org/2000/svg">
<path d="M975.055 172.785C975.055 206.669 886.393 314.313 837.738 367.267C828.745 377.053 831.586 392.661 844.307 396.548C929.18 422.484 1098.89 422.484 1183.76 396.548C1196.49 392.661 1199.26 377.111 1190.14 367.448C1131.75 305.619 1053.02 207.763 1053.02 172.785C1053.02 162.434 1054.12 157.039 1057.5 154.549C1064.76 149.203 1075.04 147.39 1076.29 138.472C1077.77 127.893 1076.51 118.413 1072.51 114.413C1053.5 95.4363 975.055 94.9562 955.565 114.413C951.53 118.442 950.279 127.105 951.814 137.843C953.127 147.025 964.044 148.812 971.035 154.921C974.054 157.559 975.055 162.922 975.055 172.785Z" fill="#CC6633"/>
<path d="M110 735C104.477 735 100 730.523 100 725V724.71C100 719.302 104.305 714.913 109.698 714.511C116.595 713.996 122.362 713.16 127 712C134 710.334 139.333 707.5 143 703.5C147 699.5 149.667 693.834 151 686.5C152.333 679.167 153 669.667 153 658V427C153 415.333 152.5 406 151.5 399C150.5 391.667 148.333 386 145 382C142 377.667 137.667 374.833 132 373.5C128.64 372.45 124.553 371.599 119.738 370.946C114.549 370.242 110.5 365.95 110.5 360.713V360C110.5 354.477 114.977 350 120.5 350H271C321.333 350 360 358.167 387 374.5C414.333 390.5 428 413.5 428 443.5C428 482.973 399.778 510.892 343.335 527.26C342.846 527.401 342.5 527.851 342.5 528.36C342.5 528.99 343.012 529.5 343.642 529.504C361.519 529.612 377.638 532.278 392 537.5C407 542.5 419.667 549.667 430 559C440.333 568.333 448.333 579.333 454 592C459.667 604.667 462.5 618.5 462.5 633.5C462.5 650.5 458.333 665.334 450 678C442 690.667 430.333 701.334 415 710C385.333 726.667 344.5 735 292.5 735H110ZM296 704.5C349.667 704.5 376.5 680.333 376.5 632C376.5 602.333 366.833 580.667 347.5 567C337.5 560 324.5 555 308.5 552C292.833 549 273.5 547.5 250.5 547.5H236.5C230.977 547.5 226.5 551.977 226.5 557.5V647.5C226.5 668.167 231.833 682.834 242.5 691.5C253.167 700.167 271 704.5 296 704.5ZM256 517.5C271 517.5 284 516.167 295 513.5C306 510.5 315.333 506.333 323 501C339 490 347 472.833 347 449.5C347 425.167 341 407.667 329 397C317 386 297.667 380.5 271 380.5H235.5C229.5 380.5 226.5 383.333 226.5 389V507.5C226.5 513.023 230.977 517.5 236.5 517.5H256Z" fill="#633636"/>
<path d="M590.438 653C590.438 666.334 590.938 677 591.938 685C592.938 693 594.938 699.167 597.938 703.5C600.938 707.834 605.271 710.834 610.938 712.5C614.568 713.354 619.019 714.003 624.292 714.447C629.661 714.899 633.938 719.273 633.938 724.661V725C633.938 730.523 629.46 735 623.938 735H486.438C480.915 735 476.438 730.523 476.438 725V724.649C476.438 719.266 480.709 714.91 486.064 714.354C491.081 713.834 495.372 713.049 498.938 712C504.938 710 509.438 707 512.438 703C515.771 698.667 517.938 692.834 518.938 685.5C520.271 677.834 520.938 668.167 520.938 656.5V595C520.938 575.667 520.604 559.833 519.938 547.5C519.271 534.833 518.438 526.167 517.438 521.5C515.771 513.167 511.938 507.667 505.938 505C501.485 502.905 494.049 501.633 483.628 501.184C478.557 500.965 474.438 496.885 474.438 491.809C474.438 487.306 477.7 483.466 482.143 482.738L578.821 466.903C584.908 465.906 590.438 470.603 590.438 476.771V653Z" fill="#633636"/>
<path d="M766.102 653C766.102 666.334 766.602 677 767.602 685C768.602 693 770.602 699.167 773.602 703.5C776.602 707.834 780.935 710.834 786.602 712.5C790.232 713.354 794.683 714.003 799.956 714.447C805.326 714.899 809.602 719.273 809.602 724.661V725C809.602 730.523 805.124 735 799.602 735H662.102C656.579 735 652.102 730.523 652.102 725V724.649C652.102 719.266 656.373 714.91 661.728 714.354C666.745 713.834 671.036 713.049 674.602 712C680.602 710 685.102 707 688.102 703C691.435 698.667 693.602 692.834 694.602 685.5C695.935 677.834 696.602 668.167 696.602 656.5V450C696.602 430.667 696.268 414.833 695.602 402.5C694.935 389.833 694.102 381.167 693.102 376.5C691.435 368.167 687.602 362.667 681.602 360C677.149 357.905 669.713 356.633 659.292 356.184C654.221 355.965 650.102 351.885 650.102 346.809C650.102 342.306 653.364 338.466 657.807 337.738L754.485 321.903C760.572 320.906 766.102 325.603 766.102 331.771V653Z" fill="#633636"/>
<path d="M982.336 608C982.336 600.734 974.831 595.901 968.289 599.061C947.15 609.275 930.666 618.922 918.836 628C904.836 638.667 897.836 649.834 897.836 661.5C897.836 671.167 900.503 678.834 905.836 684.5C911.169 690.167 917.836 693 925.836 693C933.836 693 941.336 691.667 948.336 689C955.336 686 961.336 682.167 966.336 677.5C971.336 672.834 975.169 667.334 977.836 661C980.836 654.334 982.336 647.333 982.336 640V608ZM976.307 568.609C979.967 567.025 982.336 563.419 982.336 559.431V545C982.336 525.667 978.836 511.667 971.836 503C965.169 494 954.669 489.5 940.336 489.5C930.669 489.5 923.336 492.167 918.336 497.5C913.336 502.5 908.669 511 904.336 523C901.336 531.333 897.003 537.833 891.336 542.5C886.003 547.167 878.503 549.5 868.836 549.5C859.503 549.5 852.336 546.667 847.336 541C842.336 535.333 839.836 527.333 839.836 517C839.836 501 848.503 488.333 865.836 479C883.503 469.667 910.003 465 945.336 465C982.669 465 1009.34 471.833 1025.34 485.5C1041.34 498.833 1049.34 521.333 1049.34 553V662.5C1049.34 690.834 1055 705 1066.34 705C1068.95 705 1071.48 704.631 1073.93 703.891C1079.53 702.197 1086.36 703.382 1089.05 708.584C1090.48 711.341 1090.48 714.673 1088.66 717.19C1084.04 723.598 1077.6 728.868 1069.34 733C1059.67 737.667 1048.67 740 1036.34 740C1021 740 1009.34 735.334 1001.34 726C993.585 716.957 989.589 704.315 989.348 688.075C989.335 687.205 988.631 686.5 987.761 686.5C987.19 686.5 986.663 686.811 986.382 687.308C976.779 704.243 964.43 717.141 949.336 726C934.003 735 916.503 739.5 896.836 739.5C875.836 739.5 859.003 733.667 846.336 722C833.669 710 827.336 694.5 827.336 675.5C827.336 660.834 833.836 647.167 846.836 634.5C859.836 621.5 881.503 608.834 911.836 596.5L976.307 568.609Z" fill="#633636"/>
<path d="M1317.95 704.394C1317.95 703.624 1317.32 703 1316.55 703C1316.16 703 1315.79 703.162 1315.53 703.444C1292.59 727.815 1262.89 740 1226.45 740C1207.45 740 1189.95 736.667 1173.95 730C1158.28 723.334 1144.61 714 1132.95 702C1121.61 690 1112.78 675.834 1106.45 659.5C1100.11 642.834 1096.95 624.5 1096.95 604.5C1096.95 584.5 1100.11 566 1106.45 549C1113.11 532 1121.95 517.333 1132.95 505C1144.28 492.333 1157.61 482.5 1172.95 475.5C1188.61 468.5 1205.45 465 1223.45 465C1240.11 465 1254.78 467.5 1267.45 472.5C1280.26 477.43 1291.46 485.762 1301.04 497.496C1301.3 497.813 1301.68 498 1302.09 498C1302.84 498 1303.45 497.395 1303.45 496.647V455.5C1303.45 435.833 1303.11 419 1302.45 405C1302.11 390.667 1301.45 381.333 1300.45 377C1298.78 370 1293.61 365 1284.95 362C1278.13 359.272 1268.18 357.661 1255.11 357.165C1250.05 356.973 1245.95 352.896 1245.95 347.832C1245.95 343.322 1249.23 339.481 1253.68 338.777L1360.88 321.828C1366.95 320.868 1372.45 325.56 1372.45 331.705V606C1372.45 631 1372.61 650.334 1372.95 664C1373.61 677.334 1374.61 687.5 1375.95 694.5C1376.61 698.834 1377.61 702.334 1378.95 705C1380.28 707.667 1382.28 709.834 1384.95 711.5C1387.61 712.834 1391.11 713.834 1395.45 714.5C1397.68 714.66 1400.18 714.781 1402.95 714.864C1408.47 715.03 1412.95 719.509 1412.95 725.032C1412.95 730.331 1408.81 734.739 1403.52 735.046L1328.52 739.388C1322.78 739.72 1317.95 735.155 1317.95 729.405V704.394ZM1302.45 591.5C1302.45 578.833 1301.11 567.167 1298.45 556.5C1295.78 545.5 1291.78 535.833 1286.45 527.5C1280.45 517.833 1272.78 510.5 1263.45 505.5C1254.11 500.5 1244.11 498 1233.45 498C1213.78 498 1198.78 507 1188.45 525C1178.11 543 1172.95 569.167 1172.95 603.5C1172.95 638.167 1178.11 664.834 1188.45 683.5C1198.78 702.167 1213.61 711.5 1232.95 711.5C1243.95 711.5 1254.45 708.667 1264.45 703C1274.45 697.334 1282.61 689.667 1288.95 680C1293.61 672.667 1296.95 663.667 1298.95 653C1301.28 642 1302.45 628 1302.45 611V591.5Z" fill="#633636"/>
<path d="M1553.11 653C1553.11 666.334 1553.61 677 1554.61 685C1555.61 693 1557.61 699.167 1560.61 703.5C1563.61 707.834 1567.95 710.834 1573.61 712.5C1577.24 713.354 1581.7 714.003 1586.97 714.447C1592.34 714.899 1596.61 719.273 1596.61 724.661V725C1596.61 730.523 1592.14 735 1586.61 735H1449.11C1443.59 735 1439.11 730.523 1439.11 725V724.649C1439.11 719.266 1443.38 714.91 1448.74 714.354C1453.76 713.834 1458.05 713.049 1461.61 712C1467.61 710 1472.11 707 1475.11 703C1478.45 698.667 1480.61 692.834 1481.61 685.5C1482.95 677.834 1483.61 668.167 1483.61 656.5V595C1483.61 575.667 1483.28 559.833 1482.61 547.5C1481.95 534.833 1481.11 526.167 1480.11 521.5C1478.45 513.167 1474.61 507.667 1468.61 505C1464.16 502.905 1456.72 501.633 1446.3 501.184C1441.23 500.965 1437.11 496.885 1437.11 491.809C1437.11 487.306 1440.38 483.466 1444.82 482.738L1541.5 466.903C1547.58 465.906 1553.11 470.603 1553.11 476.771V653Z" fill="#633636"/>
<path d="M1552 401.494C1552 425.522 1531.85 445 1507 445C1482.15 445 1462 425.522 1462 401.494C1462 374.166 1486.43 362.835 1501.3 337.063C1503.61 333.059 1510.39 333.059 1512.7 337.063C1527.57 362.835 1552 374.166 1552 401.494Z" fill="#633636"/>
<path d="M590.5 401.494C590.5 425.522 570.353 445 545.5 445C520.647 445 500.5 425.522 500.5 401.494C500.5 374.166 524.926 362.835 539.795 337.063C542.105 333.059 548.895 333.059 551.205 337.063C566.074 362.835 590.5 374.166 590.5 401.494Z" fill="#633636"/>
<path d="M1059 320.434C1059 344.462 1038.85 363.94 1014 363.94C989.147 363.94 969 344.462 969 320.434C969 293.106 993.426 281.775 1008.3 256.003C1010.61 251.999 1017.39 251.999 1019.7 256.003C1034.57 281.775 1059 293.106 1059 320.434Z" fill="#FFAA00"/>
<path d="M919.169 216.735C921.623 217.31 923.908 215.404 923.665 212.895C920.896 184.341 896.303 129.701 814.751 102.088C811.874 101.114 809.079 103.611 809.919 106.53C820.669 143.915 862.097 203.356 919.169 216.735Z" fill="#0A5C26"/>
<path d="M884.067 224.53C886.548 222.829 886.161 219.126 883.387 217.961C855.571 206.274 816.393 198.892 766.305 233.181C763.449 235.135 764.387 239.506 767.781 240.178C798.559 246.273 842.226 253.223 884.067 224.53Z" fill="#0A5C26"/>
</svg>
