<svg width="393" height="408" viewBox="0 0 393 408" fill="none" xmlns="http://www.w3.org/2000/svg">
<path d="M156.575 53.428H116.638V95.8518L148.883 141.914C156.239 137.31 164.308 133.741 172.888 131.411L156.575 53.428Z" fill="url(#paint0_radial_64_115)"/>
<path d="M209.625 129.232C205.339 128.604 200.954 128.279 196.493 128.279C191.792 128.279 187.176 128.64 182.67 129.335L166.085 50.0513L196.137 20L226.188 50.0513L209.625 129.232Z" fill="url(#paint1_radial_64_115)"/>
<path d="M244.118 141.924C236.566 137.195 228.261 133.557 219.424 131.231L235.699 53.428H276.343V96.5404L244.118 141.924Z" fill="url(#paint2_radial_64_115)"/>
<path d="M272.231 169.764C266.843 161.346 260.091 153.885 252.285 147.694L281.993 105.856L309.066 132.929L272.231 169.764Z" fill="url(#paint3_radial_64_115)"/>
<path d="M140.715 147.683C132.769 153.982 125.914 161.597 120.478 170.199L83.208 132.929L110.959 105.177L140.715 147.683Z" fill="url(#paint4_radial_64_115)"/>
<path d="M161.691 213.134H116.792C119.373 171.36 154.07 138.279 196.493 138.279C238.916 138.279 273.613 171.36 276.194 213.134H230.583C228.71 199.49 219.601 188.432 210.693 177.617C205.174 170.917 199.733 164.312 196.137 157.243C192.542 164.312 187.1 170.917 181.582 177.617C172.674 188.432 163.564 199.49 161.691 213.134Z" fill="url(#paint5_radial_64_115)"/>
<path fill-rule="evenodd" clip-rule="evenodd" d="M196.137 242.93C209.859 242.93 220.932 231.847 220.932 218.238C220.932 209.246 216.54 201.215 209.402 191.951C207.258 189.168 205.268 186.758 203.184 184.233C201.556 182.26 199.87 180.217 198.006 177.871C197.384 177.088 196.759 176.291 196.137 175.48C195.514 176.291 194.89 177.088 194.267 177.871C192.404 180.217 190.718 182.26 189.089 184.233C187.005 186.758 185.016 189.168 182.871 191.951C175.734 201.215 171.342 209.246 171.342 218.238C171.342 231.847 182.415 242.93 196.137 242.93Z" fill="url(#paint6_radial_64_115)"/>
<path d="M82.688 360.554C85.376 360.426 87.84 359.498 90.08 357.77C92.384 355.978 93.92 353.738 94.688 351.05L107.552 303.05C107.808 302.09 107.936 301.162 107.936 300.266C107.936 298.602 107.552 297.066 106.784 295.658C105.568 293.354 103.744 291.818 101.312 291.05C100.48 290.858 99.68 290.762 98.912 290.762C97.312 290.762 95.808 291.178 94.4 292.01C92.224 293.354 90.752 295.338 89.984 297.962L75.776 351.05C75.584 351.946 75.488 352.778 75.488 353.546C75.488 355.146 75.904 356.554 76.736 357.77C78.08 359.498 80.064 360.426 82.688 360.554ZM90.752 365.93H38.432C31.84 365.93 27.104 364.01 24.224 360.17C21.408 356.33 20 352.394 20 348.362C20 346.378 20.288 344.266 20.864 342.026L32.768 297.674C33.408 295.626 34.464 294.602 35.936 294.602C37.472 294.602 39.04 295.338 40.64 296.81L53.792 308.618L42.368 351.05C42.176 351.946 42.08 352.778 42.08 353.546C42.08 355.146 42.528 356.554 43.424 357.77C44.768 359.626 46.72 360.554 49.28 360.554H58.112C55.04 357.226 53.504 353.162 53.504 348.362C53.504 346.378 53.76 344.266 54.272 342.026L57.728 329.258C60.288 319.722 62.816 310.154 65.312 300.554C67.296 293.898 70.528 289.194 75.008 286.442C79.552 283.626 83.84 282.218 87.872 282.218C89.856 282.218 91.904 282.506 94.016 283.082L104.96 286.25L126.656 292.49C130.24 293.706 132.032 296.042 132.032 299.498C132.032 300.266 131.936 301.098 131.744 301.994C129.568 310.442 126.016 323.786 121.088 342.026C119.104 348.81 115.168 354.506 109.28 359.114C103.456 363.658 97.28 365.93 90.752 365.93Z" fill="url(#paint7_radial_64_115)"/>
<path d="M161.37 387.242H150.042C150.426 386.026 150.778 384.81 151.098 383.594C151.482 382.378 152.218 381.77 153.306 381.77C155.674 381.77 158.01 381.002 160.314 379.466C162.682 377.93 164.346 375.594 165.306 372.458L166.938 365.93H148.026C141.434 365.93 136.73 364.01 133.914 360.17C131.098 356.33 129.69 352.33 129.69 348.17C129.69 346.25 129.946 344.202 130.458 342.026L141.69 300.266C142.33 298.026 143.514 296.234 145.242 294.89C147.034 293.546 149.082 292.874 151.386 292.874H186.522C193.114 292.874 197.818 294.794 200.634 298.634C203.45 302.474 204.858 306.442 204.858 310.538C204.858 312.522 204.602 314.602 204.09 316.778L191.706 363.338C189.722 370.058 185.818 375.722 179.994 380.33C174.17 384.938 167.962 387.242 161.37 387.242ZM158.97 360.554C161.594 360.554 164.058 359.658 166.362 357.866C168.666 356.01 170.202 353.738 170.97 351.05L182.586 307.754C182.778 306.858 182.874 306.026 182.874 305.258C182.874 303.658 182.426 302.25 181.53 301.034C180.186 299.178 178.234 298.25 175.674 298.25C173.05 298.25 170.586 299.178 168.282 301.034C165.978 302.826 164.442 305.066 163.674 307.754L152.058 351.05C151.866 351.946 151.77 352.778 151.77 353.546C151.77 355.146 152.186 356.554 153.018 357.77C154.362 359.626 156.346 360.554 158.97 360.554Z" fill="url(#paint8_radial_64_115)"/>
<path d="M272.146 358.154C273.554 359.754 275.506 360.554 278.002 360.554C280.37 360.554 282.706 359.786 285.01 358.25C287.378 356.65 289.042 354.282 290.002 351.146C291.602 345.066 293.202 339.018 294.802 333.002C296.978 324.746 299.186 316.49 301.426 308.234C302.066 305.994 303.25 304.202 304.978 302.858C306.77 301.514 308.818 300.842 311.122 300.842H327.346C324.402 311.85 321.458 322.826 318.514 333.77L313.906 351.05C313.266 353.738 313.586 356.01 314.866 357.866C316.21 359.658 318.194 360.554 320.818 360.554C323.186 360.554 325.522 359.786 327.826 358.25C330.194 356.65 331.858 354.282 332.818 351.146L346.354 300.362C346.994 298.122 348.178 296.33 349.906 294.986C351.698 293.642 353.746 292.97 356.05 292.97H372.274L359.218 342.026C357.234 348.81 353.298 354.506 347.41 359.114C341.586 363.658 335.378 365.93 328.786 365.93H309.874C305.522 365.93 301.842 364.874 298.834 362.762C294.61 364.874 290.322 365.93 285.97 365.93H267.058C260.53 365.93 255.57 363.658 252.178 359.114C248.786 354.506 247.922 348.81 249.586 342.026L257.842 311.114C258.482 308.49 258.194 306.058 256.978 303.818C255.826 301.514 254.034 299.978 251.602 299.21C249.106 298.57 246.77 298.922 244.594 300.266C242.482 301.546 241.042 303.498 240.274 306.122C236.946 318.474 233.65 330.794 230.386 343.082C228.594 349.802 226.802 356.554 225.01 363.338C223.026 370.058 219.122 375.722 213.298 380.33C207.474 384.938 201.266 387.242 194.674 387.242H183.346L184.402 383.594C184.786 382.378 185.522 381.77 186.61 381.77C188.978 381.77 191.346 381.002 193.714 379.466C196.082 377.93 197.714 375.594 198.61 372.458L215.602 308.81C217.522 302.09 221.202 297.066 226.642 293.738C232.082 290.41 237.938 289.578 244.21 291.242C247.794 292.266 251.346 293.29 254.866 294.314L276.946 300.65C281.362 302.186 283.058 305.354 282.034 310.154L271.09 351.05V351.146L270.898 352.106C270.386 354.73 270.802 356.746 272.146 358.154Z" fill="url(#paint9_radial_64_115)"/>
<path d="M89.9842 275.786C91.0082 277.194 92.7042 277.898 95.0722 277.898C97.5042 277.898 99.7442 277.066 101.792 275.402C103.904 273.738 105.344 271.69 106.112 269.258C106.304 268.49 106.4 267.754 106.4 267.05C106.4 265.578 105.888 264.138 104.864 262.73C103.84 261.322 102.144 260.618 99.7762 260.618C97.3442 260.618 95.0722 261.45 92.9602 263.114C90.9122 264.778 89.5042 266.826 88.7362 269.258C88.5442 270.026 88.4482 270.762 88.4482 271.466C88.4482 272.938 88.9602 274.378 89.9842 275.786Z" fill="url(#paint10_radial_64_115)"/>
<path d="M109.376 275.786C110.4 277.194 112.096 277.898 114.464 277.898C116.832 277.898 119.072 277.066 121.184 275.402C123.296 273.738 124.704 271.69 125.408 269.258C125.6 268.426 125.696 267.626 125.696 266.858C125.696 265.45 125.184 264.074 124.16 262.73C123.2 261.322 121.504 260.618 119.072 260.618C116.704 260.618 114.464 261.45 112.352 263.114C110.24 264.778 108.832 266.826 108.128 269.258C107.936 270.026 107.84 270.762 107.84 271.466C107.84 272.938 108.352 274.378 109.376 275.786Z" fill="url(#paint11_radial_64_115)"/>
<path d="M328.882 272.81C326.77 274.474 324.53 275.306 322.162 275.306C319.794 275.306 318.002 274.474 316.786 272.81C315.954 271.658 315.538 270.346 315.538 268.874C315.538 268.17 315.634 267.434 315.826 266.666C316.53 264.17 317.938 262.09 320.05 260.426C322.162 258.762 324.402 257.93 326.77 257.93C329.138 257.93 330.93 258.762 332.146 260.426C332.978 261.578 333.394 262.89 333.394 264.362C333.394 265.066 333.298 265.834 333.106 266.666C332.402 269.098 330.994 271.146 328.882 272.81Z" fill="url(#paint12_radial_64_115)"/>
<path d="M314.578 290.569C312.53 292.233 310.29 293.065 307.858 293.065C305.49 293.065 303.698 292.233 302.482 290.569C301.65 289.417 301.234 288.105 301.234 286.633C301.234 285.929 301.33 285.193 301.522 284.425C302.29 281.929 303.698 279.849 305.746 278.185C307.858 276.521 310.13 275.689 312.562 275.689C314.93 275.689 316.722 276.521 317.938 278.185C318.706 279.273 319.09 280.553 319.09 282.025C319.09 282.793 318.994 283.593 318.802 284.425C318.098 286.857 316.69 288.905 314.578 290.569Z" fill="url(#paint13_radial_64_115)"/>
<path d="M333.97 290.569C331.858 292.233 329.618 293.065 327.25 293.065C324.818 293.065 323.026 292.233 321.874 290.569C321.042 289.417 320.626 288.105 320.626 286.633C320.626 285.929 320.722 285.193 320.914 284.425C321.618 281.929 323.026 279.849 325.138 278.185C327.25 276.521 329.49 275.689 331.858 275.689C334.226 275.689 336.018 276.521 337.234 278.185C338.066 279.337 338.482 280.649 338.482 282.121C338.482 282.825 338.386 283.593 338.194 284.425C337.49 286.857 336.082 288.905 333.97 290.569Z" fill="url(#paint14_radial_64_115)"/>
<g style="mix-blend-mode:overlay" filter="url(#filter0_f_64_115)">
<path d="M37.689 359.919C36.6026 357.958 36.0801 355.792 36.0801 353.545C36.0801 352.283 36.2371 351.025 36.5013 349.792C36.523 349.691 36.5474 349.59 36.5744 349.489L47.0397 310.618L37.7456 302.274" stroke="url(#paint15_linear_64_115)" stroke-width="4" stroke-linecap="round" stroke-linejoin="round" style="mix-blend-mode:overlay"/>
<path d="M71.0394 359.929C69.9811 357.946 69.4883 355.776 69.4883 353.545C69.4883 352.283 69.6453 351.025 69.9095 349.792C69.9306 349.694 69.9542 349.596 69.9803 349.498L84.1883 296.41C84.2003 296.365 84.2128 296.321 84.2259 296.276C85.1556 293.099 86.857 290.369 89.3313 288.289" stroke="url(#paint16_linear_64_115)" stroke-width="4" stroke-linecap="round" stroke-linejoin="round" style="mix-blend-mode:overlay"/>
<path d="M97.3691 358.884C100.118 357.995 102.849 356.52 105.583 354.387C110.526 350.519 113.697 345.881 115.313 340.398C120.205 322.289 123.732 309.039 125.899 300.63C126.001 300.125 126.032 299.753 126.032 299.497C126.032 299.152 125.987 298.964 125.964 298.889" stroke="url(#paint17_linear_64_115)" stroke-width="4" stroke-linecap="round" stroke-linejoin="round" style="mix-blend-mode:overlay"/>
<path d="M147.316 359.921C146.261 357.939 145.77 355.772 145.77 353.546C145.77 352.283 145.927 351.025 146.191 349.792C146.213 349.693 146.237 349.593 146.263 349.495L157.879 306.199M157.905 306.105C158.687 303.366 160.024 300.945 161.85 298.874" stroke="url(#paint18_linear_64_115)" stroke-width="4" stroke-linecap="round" stroke-linejoin="round" style="mix-blend-mode:overlay"/>
<path d="M168.151 380.145C170.877 379.24 173.577 377.756 176.271 375.624C181.163 371.754 184.311 367.14 185.929 361.713L198.268 315.323C198.674 313.573 198.858 311.983 198.858 310.537C198.858 307.917 197.984 305.166 195.795 302.182" stroke="url(#paint19_linear_64_115)" stroke-width="4" stroke-linecap="round" stroke-linejoin="round" style="mix-blend-mode:overlay"/>
<path d="M239.594 296.481C237.115 298.546 235.439 301.284 234.516 304.436M201.552 380.113C204.245 379.205 206.913 377.73 209.576 375.624C214.466 371.754 217.614 367.142 219.233 361.717C221.018 354.958 222.804 348.231 224.589 341.535C227.854 329.242 231.152 316.917 234.481 304.56" stroke="url(#paint20_linear_64_115)" stroke-width="4" stroke-linecap="round" stroke-linejoin="round" style="mix-blend-mode:overlay"/>
<path d="M266.064 359.907C264.538 357.073 264.442 353.861 265.009 350.956L265.015 350.929L265.132 350.342C265.166 350.058 265.22 349.776 265.294 349.498L276.193 308.769C276.327 308.093 276.336 307.638 276.313 307.363C276.301 307.221 276.281 307.131 276.267 307.082" stroke="url(#paint21_linear_64_115)" stroke-width="4" stroke-linecap="round" stroke-linejoin="round" style="mix-blend-mode:overlay"/>
<path d="M308.069 349.66C307.248 353.107 307.405 356.686 309.105 359.915M308.109 349.503L312.72 332.211C314.99 323.773 317.26 315.317 319.529 306.841" stroke="url(#paint22_linear_64_115)" stroke-width="4" stroke-linecap="round" stroke-linejoin="round" style="mix-blend-mode:overlay"/>
<path d="M335.698 358.809C338.393 357.912 341.058 356.458 343.713 354.387C348.653 350.521 351.823 345.886 353.44 340.407L364.468 298.969" stroke="url(#paint23_linear_64_115)" stroke-width="4" stroke-linecap="round" stroke-linejoin="round" style="mix-blend-mode:overlay"/>
</g>
<defs>
<filter id="filter0_f_64_115" x="30.0801" y="282.289" width="340.389" height="103.857" filterUnits="userSpaceOnUse" color-interpolation-filters="sRGB">
<feFlood flood-opacity="0" result="BackgroundImageFix"/>
<feBlend mode="normal" in="SourceGraphic" in2="BackgroundImageFix" result="shape"/>
<feGaussianBlur stdDeviation="2" result="effect1_foregroundBlur_64_115"/>
</filter>
<radialGradient id="paint0_radial_64_115" cx="0" cy="0" r="1" gradientUnits="userSpaceOnUse" gradientTransform="translate(196.49 170) rotate(-90) scale(150 212.495)">
<stop stop-color="#CECE00"/>
<stop offset="1" stop-color="#006600"/>
</radialGradient>
<radialGradient id="paint1_radial_64_115" cx="0" cy="0" r="1" gradientUnits="userSpaceOnUse" gradientTransform="translate(196.49 170) rotate(-90) scale(150 212.495)">
<stop stop-color="#CECE00"/>
<stop offset="1" stop-color="#006600"/>
</radialGradient>
<radialGradient id="paint2_radial_64_115" cx="0" cy="0" r="1" gradientUnits="userSpaceOnUse" gradientTransform="translate(196.49 170) rotate(-90) scale(150 212.495)">
<stop stop-color="#CECE00"/>
<stop offset="1" stop-color="#006600"/>
</radialGradient>
<radialGradient id="paint3_radial_64_115" cx="0" cy="0" r="1" gradientUnits="userSpaceOnUse" gradientTransform="translate(196.49 170) rotate(-90) scale(150 212.495)">
<stop stop-color="#CECE00"/>
<stop offset="1" stop-color="#006600"/>
</radialGradient>
<radialGradient id="paint4_radial_64_115" cx="0" cy="0" r="1" gradientUnits="userSpaceOnUse" gradientTransform="translate(196.49 170) rotate(-90) scale(150 212.495)">
<stop stop-color="#CECE00"/>
<stop offset="1" stop-color="#006600"/>
</radialGradient>
<radialGradient id="paint5_radial_64_115" cx="0" cy="0" r="1" gradientUnits="userSpaceOnUse" gradientTransform="translate(196.493 213.134) rotate(-90) scale(74.855 159.402)">
<stop stop-color="#FFFF00"/>
<stop offset="1" stop-color="#FF8000"/>
</radialGradient>
<radialGradient id="paint6_radial_64_115" cx="0" cy="0" r="1" gradientUnits="userSpaceOnUse" gradientTransform="translate(196.137 242.93) rotate(-90) scale(67.4492 49.59)">
<stop stop-color="#FFFF00"/>
<stop offset="1" stop-color="#FF8000"/>
</radialGradient>
<radialGradient id="paint7_radial_64_115" cx="0" cy="0" r="1" gradientUnits="userSpaceOnUse" gradientTransform="translate(196.137 322.586) rotate(90) scale(64.656 176.137)">
<stop stop-color="#CECE00"/>
<stop offset="1" stop-color="#006600"/>
</radialGradient>
<radialGradient id="paint8_radial_64_115" cx="0" cy="0" r="1" gradientUnits="userSpaceOnUse" gradientTransform="translate(196.137 322.586) rotate(90) scale(64.656 176.137)">
<stop stop-color="#CECE00"/>
<stop offset="1" stop-color="#006600"/>
</radialGradient>
<radialGradient id="paint9_radial_64_115" cx="0" cy="0" r="1" gradientUnits="userSpaceOnUse" gradientTransform="translate(196.137 322.586) rotate(90) scale(64.656 176.137)">
<stop stop-color="#CECE00"/>
<stop offset="1" stop-color="#006600"/>
</radialGradient>
<radialGradient id="paint10_radial_64_115" cx="0" cy="0" r="1" gradientUnits="userSpaceOnUse" gradientTransform="translate(97.4242 277.898) rotate(-90) scale(17.28 17.952)">
<stop stop-color="#FFFF00"/>
<stop offset="1" stop-color="#FF8000"/>
</radialGradient>
<radialGradient id="paint11_radial_64_115" cx="0" cy="0" r="1" gradientUnits="userSpaceOnUse" gradientTransform="translate(116.768 277.898) rotate(-90) scale(17.28 17.856)">
<stop stop-color="#FFFF00"/>
<stop offset="1" stop-color="#FF8000"/>
</radialGradient>
<radialGradient id="paint12_radial_64_115" cx="0" cy="0" r="1" gradientUnits="userSpaceOnUse" gradientTransform="translate(324.466 275.306) rotate(-90) scale(17.376 17.856)">
<stop stop-color="#FFFF00"/>
<stop offset="1" stop-color="#FF8000"/>
</radialGradient>
<radialGradient id="paint13_radial_64_115" cx="0" cy="0" r="1" gradientUnits="userSpaceOnUse" gradientTransform="translate(310.162 293.065) rotate(-90) scale(17.376 17.856)">
<stop stop-color="#FFFF00"/>
<stop offset="1" stop-color="#FF8000"/>
</radialGradient>
<radialGradient id="paint14_radial_64_115" cx="0" cy="0" r="1" gradientUnits="userSpaceOnUse" gradientTransform="translate(329.554 293.065) rotate(-90) scale(17.376 17.856)">
<stop stop-color="#FFFF00"/>
<stop offset="1" stop-color="#FF8000"/>
</radialGradient>
<linearGradient id="paint15_linear_64_115" x1="41.5354" y1="302.274" x2="41.5354" y2="359.919" gradientUnits="userSpaceOnUse">
<stop offset="0.1" stop-color="white" stop-opacity="0"/>
<stop offset="0.5" stop-color="white"/>
<stop offset="0.9" stop-color="white" stop-opacity="0"/>
</linearGradient>
<linearGradient id="paint16_linear_64_115" x1="79.3654" y1="288.289" x2="79.3654" y2="359.929" gradientUnits="userSpaceOnUse">
<stop offset="0.1" stop-color="white" stop-opacity="0"/>
<stop offset="0.5" stop-color="white"/>
<stop offset="0.9" stop-color="white" stop-opacity="0"/>
</linearGradient>
<linearGradient id="paint17_linear_64_115" x1="111.636" y1="298.889" x2="111.636" y2="358.884" gradientUnits="userSpaceOnUse">
<stop offset="0.1" stop-color="white" stop-opacity="0"/>
<stop offset="0.5" stop-color="white"/>
<stop offset="0.9" stop-color="white" stop-opacity="0"/>
</linearGradient>
<linearGradient id="paint18_linear_64_115" x1="153.774" y1="298.874" x2="153.774" y2="359.921" gradientUnits="userSpaceOnUse">
<stop offset="0.1" stop-color="white" stop-opacity="0"/>
<stop offset="0.5" stop-color="white"/>
<stop offset="0.9" stop-color="white" stop-opacity="0"/>
</linearGradient>
<linearGradient id="paint19_linear_64_115" x1="183.436" y1="302.182" x2="183.436" y2="380.145" gradientUnits="userSpaceOnUse">
<stop offset="0.1" stop-color="white" stop-opacity="0"/>
<stop offset="0.5" stop-color="white"/>
<stop offset="0.9" stop-color="white" stop-opacity="0"/>
</linearGradient>
<linearGradient id="paint20_linear_64_115" x1="220.488" y1="296.481" x2="220.488" y2="380.113" gradientUnits="userSpaceOnUse">
<stop offset="0.1" stop-color="white" stop-opacity="0"/>
<stop offset="0.5" stop-color="white"/>
<stop offset="0.9" stop-color="white" stop-opacity="0"/>
</linearGradient>
<linearGradient id="paint21_linear_64_115" x1="270.481" y1="307.082" x2="270.481" y2="359.907" gradientUnits="userSpaceOnUse">
<stop offset="0.1" stop-color="white" stop-opacity="0"/>
<stop offset="0.5" stop-color="white"/>
<stop offset="0.9" stop-color="white" stop-opacity="0"/>
</linearGradient>
<linearGradient id="paint22_linear_64_115" x1="313.532" y1="306.841" x2="313.532" y2="359.915" gradientUnits="userSpaceOnUse">
<stop offset="0.1" stop-color="white" stop-opacity="0"/>
<stop offset="0.5" stop-color="white"/>
<stop offset="0.9" stop-color="white" stop-opacity="0"/>
</linearGradient>
<linearGradient id="paint23_linear_64_115" x1="350.019" y1="298.969" x2="350.019" y2="358.809" gradientUnits="userSpaceOnUse">
<stop offset="0.1" stop-color="white" stop-opacity="0"/>
<stop offset="0.5" stop-color="white"/>
<stop offset="0.9" stop-color="white" stop-opacity="0"/>
</linearGradient>
</defs>
</svg>
