<svg width="599" height="346" viewBox="0 0 599 346" fill="none" xmlns="http://www.w3.org/2000/svg">
<path d="M222.503 33.2545L254.996 33.231C272.941 33.218 287.478 47.7548 287.465 65.7C287.452 83.6451 272.894 98.2031 254.948 98.2161C237.003 98.2291 222.466 83.6922 222.48 65.7471L222.503 33.2545Z" fill="url(#paint0_diamond_64_256)"/>
<path d="M222.503 33.254L254.996 33.2305C272.941 33.2175 287.478 47.7543 287.465 65.6995C287.452 83.6446 272.894 98.2026 254.948 98.2156C237.003 98.2286 222.466 83.6918 222.48 65.7466L222.503 33.254Z" fill="url(#paint1_diamond_64_256)"/>
<path d="M222.503 186.745L254.996 186.769C272.941 186.782 287.478 172.245 287.465 154.3C287.452 136.355 272.894 121.797 254.948 121.784C237.003 121.771 222.466 136.308 222.48 154.253L222.503 186.745Z" fill="url(#paint2_diamond_64_256)"/>
<path d="M375.994 33.2545L343.502 33.231C325.557 33.218 311.02 47.7548 311.033 65.7C311.046 83.6451 325.604 98.2031 343.549 98.2161C361.494 98.2291 376.031 83.6922 376.018 65.7471L375.994 33.2545Z" fill="url(#paint3_diamond_64_256)"/>
<path d="M375.994 186.745L343.502 186.769C325.557 186.782 311.02 172.245 311.033 154.3C311.046 136.355 325.604 121.797 343.549 121.784C361.494 121.771 376.031 136.308 376.018 154.253L375.994 186.745Z" fill="url(#paint4_diamond_64_256)"/>
<path fill-rule="evenodd" clip-rule="evenodd" d="M389.248 110L366.289 87.0076C355.874 76.5777 340.144 74.7145 327.831 81.4181C334.535 69.1042 332.672 53.3741 322.241 42.959L299.249 20L276.257 42.959C265.826 53.3745 263.963 69.1056 270.668 81.4197C258.354 74.7142 242.623 76.5768 232.207 87.0076L209.248 110L232.207 132.992C242.623 143.423 258.354 145.286 270.668 138.58C263.963 150.894 265.826 166.625 276.257 177.041L299.249 200L322.241 177.041C332.672 166.626 334.535 150.896 327.831 138.582C340.144 145.285 355.874 143.422 366.289 132.992L389.248 110ZM314.812 94.4364C305.14 99.705 293.354 99.7045 283.683 94.4348C288.952 104.107 288.952 115.894 283.683 125.566C293.354 120.296 305.14 120.296 314.812 125.564C309.544 115.893 309.544 104.108 314.812 94.4364Z" fill="url(#paint5_diamond_64_256)"/>
<g style="mix-blend-mode:overlay" filter="url(#filter0_f_64_256)">
<path d="M369.999 39.25L370.018 65.7513C370.029 80.3793 358.181 92.2265 343.553 92.2159" stroke="url(#paint6_linear_64_256)" stroke-width="4" stroke-linecap="round" stroke-linejoin="round" style="mix-blend-mode:overlay"/>
<path d="M254.946 92.2156C269.581 92.205 281.456 80.33 281.467 65.6951C281.477 51.0671 269.63 39.2199 255.002 39.2305" stroke="url(#paint7_linear_64_256)" stroke-width="4" stroke-linecap="round" stroke-linejoin="round" style="mix-blend-mode:overlay"/>
<path d="M254.946 180.75C269.581 180.739 281.456 168.864 281.467 154.229C281.477 139.601 269.63 127.754 255.002 127.765" stroke="url(#paint8_linear_64_256)" stroke-width="4" stroke-linecap="round" stroke-linejoin="round" style="mix-blend-mode:overlay"/>
<path d="M369.997 180.75L370.016 154.249C370.027 139.621 358.179 127.773 343.551 127.784" stroke="url(#paint9_linear_64_256)" stroke-width="4" stroke-linecap="round" stroke-linejoin="round" style="mix-blend-mode:overlay"/>
</g>
<path fill-rule="evenodd" clip-rule="evenodd" d="M389.248 110L366.289 87.0076C355.874 76.5777 340.144 74.7145 327.831 81.4181C334.535 69.1042 332.672 53.3741 322.241 42.959L299.249 20L276.257 42.959C265.826 53.3745 263.963 69.1056 270.668 81.4197C258.354 74.7142 242.623 76.5768 232.207 87.0076L209.248 110L232.207 132.992C242.623 143.423 258.354 145.286 270.668 138.58C263.963 150.894 265.826 166.625 276.257 177.041L299.249 200L322.241 177.041C332.672 166.626 334.535 150.896 327.831 138.582C340.144 145.285 355.874 143.422 366.289 132.992L389.248 110ZM314.812 94.4364C305.14 99.705 293.354 99.7045 283.683 94.4348C288.952 104.107 288.952 115.894 283.683 125.566C293.354 120.296 305.14 120.296 314.812 125.564C309.544 115.893 309.544 104.108 314.812 94.4364Z" fill="url(#paint10_diamond_64_256)"/>
<g style="mix-blend-mode:overlay" filter="url(#filter1_f_64_256)">
<path d="M360.628 127.339L377.942 110L360.628 92.6602" stroke="url(#paint11_linear_64_256)" stroke-width="4" stroke-linecap="round" stroke-linejoin="round" style="mix-blend-mode:overlay"/>
<path d="M276.658 121.739C280.628 114.453 280.628 105.549 276.658 98.2627" stroke="url(#paint12_linear_64_256)" stroke-width="4" stroke-linecap="round" stroke-linejoin="round" style="mix-blend-mode:overlay"/>
<path d="M299.249 188.695L316.589 171.38C324.441 163.539 325.857 151.688 320.804 142.407" stroke="url(#paint13_linear_64_256)" stroke-width="4" stroke-linecap="round" stroke-linejoin="round" style="mix-blend-mode:overlay"/>
<path d="M320.804 77.593C325.857 68.3122 324.441 56.461 316.589 48.6202L299.249 31.3057" stroke="url(#paint14_linear_64_256)" stroke-width="4" stroke-linecap="round" stroke-linejoin="round" style="mix-blend-mode:overlay"/>
</g>
<path d="M555 324V275.36C555 273.653 554.957 271.477 554.872 268.832C554.872 266.187 554.744 263.627 554.488 261.152C554.317 258.592 554.061 256.544 553.72 255.008L554.104 253.984H577.528V324H555Z" fill="#D9D9D9"/>
<path d="M555 324V275.36C555 273.653 554.957 271.477 554.872 268.832C554.872 266.187 554.744 263.627 554.488 261.152C554.317 258.592 554.061 256.544 553.72 255.008L554.104 253.984H577.528V324H555Z" fill="url(#paint15_radial_64_256)"/>
<path d="M20 324V231.84H38.176L76.32 270.411V231.84H98.976V324H76.32V300.239L42.784 266.342V324H20Z" fill="#D9D9D9"/>
<path d="M20 324V231.84H38.176L76.32 270.411V231.84H98.976V324H76.32V300.239L42.784 266.342V324H20Z" fill="url(#paint16_radial_64_256)"/>
<path fill-rule="evenodd" clip-rule="evenodd" d="M114.404 288.8C114.404 280.523 115.94 273.696 119.012 268.32C122.084 262.859 126.308 258.805 131.684 256.16C137.145 253.429 143.417 252.064 150.5 252.064C157.497 252.064 163.727 253.429 169.188 256.16C174.649 258.805 178.916 262.859 181.988 268.32C185.06 273.696 186.596 280.523 186.596 288.8C186.596 296.992 185.06 303.819 181.988 309.28C178.916 314.656 174.649 318.709 169.188 321.44C163.727 324.085 157.497 325.408 150.5 325.408C143.417 325.408 137.145 324.085 131.684 321.44C126.223 318.709 121.956 314.656 118.884 309.28C115.897 303.819 114.404 296.992 114.404 288.8ZM140.516 303.904C138.383 300.491 137.316 295.456 137.316 288.8C137.316 282.059 138.383 276.981 140.516 273.568C142.735 270.155 146.063 268.448 150.5 268.448C154.937 268.448 158.223 270.155 160.356 273.568C162.575 276.981 163.684 282.059 163.684 288.8C163.684 295.456 162.575 300.491 160.356 303.904C158.223 307.317 154.937 309.024 150.5 309.024C146.063 309.024 142.735 307.317 140.516 303.904Z" fill="#D9D9D9"/>
<path fill-rule="evenodd" clip-rule="evenodd" d="M114.404 288.8C114.404 280.523 115.94 273.696 119.012 268.32C122.084 262.859 126.308 258.805 131.684 256.16C137.145 253.429 143.417 252.064 150.5 252.064C157.497 252.064 163.727 253.429 169.188 256.16C174.649 258.805 178.916 262.859 181.988 268.32C185.06 273.696 186.596 280.523 186.596 288.8C186.596 296.992 185.06 303.819 181.988 309.28C178.916 314.656 174.649 318.709 169.188 321.44C163.727 324.085 157.497 325.408 150.5 325.408C143.417 325.408 137.145 324.085 131.684 321.44C126.223 318.709 121.956 314.656 118.884 309.28C115.897 303.819 114.404 296.992 114.404 288.8ZM140.516 303.904C138.383 300.491 137.316 295.456 137.316 288.8C137.316 282.059 138.383 276.981 140.516 273.568C142.735 270.155 146.063 268.448 150.5 268.448C154.937 268.448 158.223 270.155 160.356 273.568C162.575 276.981 163.684 282.059 163.684 288.8C163.684 295.456 162.575 300.491 160.356 303.904C158.223 307.317 154.937 309.024 150.5 309.024C146.063 309.024 142.735 307.317 140.516 303.904Z" fill="url(#paint17_radial_64_256)"/>
<path d="M223.632 324.128C227.899 325.067 232.251 325.536 236.688 325.536C240.699 325.536 244.667 325.195 248.592 324.512C252.603 323.915 256.4 323.104 259.984 322.08C263.653 321.056 266.896 319.947 269.712 318.752L270.096 317.728C269.755 316.192 269.456 314.144 269.2 311.584C269.029 309.024 268.901 306.421 268.816 303.776V253.984H245.264L244.88 255.008C245.221 256.544 245.477 258.592 245.648 261.152C245.904 263.627 246.075 266.187 246.16 268.832C246.245 271.477 246.288 273.653 246.288 275.36V297.504C246.288 300.576 246.416 303.136 246.672 305.184C246.73 305.65 246.797 306.096 246.873 306.522C246.351 306.67 245.815 306.822 245.264 306.976C243.131 307.488 240.869 307.744 238.48 307.744C235.493 307.744 232.891 307.36 230.672 306.592C228.539 305.739 226.832 304.245 225.552 302.112C224.357 299.893 223.76 296.821 223.76 292.896V253.984H200.336L199.824 255.008C200.251 256.544 200.549 258.592 200.72 261.152C200.891 263.627 201.019 266.187 201.104 268.832C201.189 271.477 201.232 273.653 201.232 275.36V293.536C201.232 300.021 202.213 305.355 204.176 309.536C206.139 313.632 208.784 316.875 212.112 319.264C215.525 321.568 219.365 323.189 223.632 324.128Z" fill="#D9D9D9"/>
<path d="M223.632 324.128C227.899 325.067 232.251 325.536 236.688 325.536C240.699 325.536 244.667 325.195 248.592 324.512C252.603 323.915 256.4 323.104 259.984 322.08C263.653 321.056 266.896 319.947 269.712 318.752L270.096 317.728C269.755 316.192 269.456 314.144 269.2 311.584C269.029 309.024 268.901 306.421 268.816 303.776V253.984H245.264L244.88 255.008C245.221 256.544 245.477 258.592 245.648 261.152C245.904 263.627 246.075 266.187 246.16 268.832C246.245 271.477 246.288 273.653 246.288 275.36V297.504C246.288 300.576 246.416 303.136 246.672 305.184C246.73 305.65 246.797 306.096 246.873 306.522C246.351 306.67 245.815 306.822 245.264 306.976C243.131 307.488 240.869 307.744 238.48 307.744C235.493 307.744 232.891 307.36 230.672 306.592C228.539 305.739 226.832 304.245 225.552 302.112C224.357 299.893 223.76 296.821 223.76 292.896V253.984H200.336L199.824 255.008C200.251 256.544 200.549 258.592 200.72 261.152C200.891 263.627 201.019 266.187 201.104 268.832C201.189 271.477 201.232 273.653 201.232 275.36V293.536C201.232 300.021 202.213 305.355 204.176 309.536C206.139 313.632 208.784 316.875 212.112 319.264C215.525 321.568 219.365 323.189 223.632 324.128Z" fill="url(#paint18_radial_64_256)"/>
<path fill-rule="evenodd" clip-rule="evenodd" d="M317.568 325.536C306.304 325.536 297.813 323.872 292.096 320.544C286.379 317.131 283.52 311.328 283.52 303.136C283.52 297.931 284.8 293.707 287.36 290.464C290.005 287.221 293.632 284.875 298.24 283.424C302.848 281.888 308.096 281.12 313.984 281.12C316.885 281.12 319.531 281.291 321.92 281.632C323.149 281.807 324.343 282.005 325.504 282.226V281.632C325.504 278.133 324.907 275.445 323.712 273.568C322.517 271.691 320.683 270.453 318.208 269.856C315.819 269.173 312.789 268.832 309.12 268.832C305.451 268.832 301.952 269.173 298.624 269.856C295.381 270.453 292.736 271.221 290.688 272.16H289.408V255.008C292.48 254.155 295.893 253.472 299.648 252.96C303.488 252.363 307.541 252.064 311.808 252.064C317.013 252.064 321.792 252.533 326.144 253.472C330.496 254.411 334.251 256.032 337.408 258.336C340.651 260.555 343.125 263.669 344.832 267.68C346.539 271.605 347.392 276.683 347.392 282.912V298.4C347.392 300.192 347.435 302.411 347.52 305.056C347.605 307.701 347.733 310.304 347.904 312.864C348.075 315.424 348.373 317.472 348.8 319.008L348.288 320.032C345.301 321.141 342.144 322.123 338.816 322.976C335.488 323.744 332.032 324.341 328.448 324.768C324.864 325.28 321.237 325.536 317.568 325.536ZM325.504 295.285C324.908 295.167 324.268 295.053 323.584 294.944C321.451 294.603 319.403 294.432 317.44 294.432C312.917 294.432 309.547 295.072 307.328 296.352C305.195 297.632 304.128 299.765 304.128 302.752C304.128 305.739 305.195 307.829 307.328 309.024C309.547 310.219 312.661 310.816 316.672 310.816C319.317 310.816 321.877 310.56 324.352 310.048C325.129 309.86 325.867 309.635 326.568 309.372C326.27 308.353 326.044 307.298 325.888 306.208C325.717 304.928 325.589 303.435 325.504 301.728V295.285Z" fill="#D9D9D9"/>
<path fill-rule="evenodd" clip-rule="evenodd" d="M317.568 325.536C306.304 325.536 297.813 323.872 292.096 320.544C286.379 317.131 283.52 311.328 283.52 303.136C283.52 297.931 284.8 293.707 287.36 290.464C290.005 287.221 293.632 284.875 298.24 283.424C302.848 281.888 308.096 281.12 313.984 281.12C316.885 281.12 319.531 281.291 321.92 281.632C323.149 281.807 324.343 282.005 325.504 282.226V281.632C325.504 278.133 324.907 275.445 323.712 273.568C322.517 271.691 320.683 270.453 318.208 269.856C315.819 269.173 312.789 268.832 309.12 268.832C305.451 268.832 301.952 269.173 298.624 269.856C295.381 270.453 292.736 271.221 290.688 272.16H289.408V255.008C292.48 254.155 295.893 253.472 299.648 252.96C303.488 252.363 307.541 252.064 311.808 252.064C317.013 252.064 321.792 252.533 326.144 253.472C330.496 254.411 334.251 256.032 337.408 258.336C340.651 260.555 343.125 263.669 344.832 267.68C346.539 271.605 347.392 276.683 347.392 282.912V298.4C347.392 300.192 347.435 302.411 347.52 305.056C347.605 307.701 347.733 310.304 347.904 312.864C348.075 315.424 348.373 317.472 348.8 319.008L348.288 320.032C345.301 321.141 342.144 322.123 338.816 322.976C335.488 323.744 332.032 324.341 328.448 324.768C324.864 325.28 321.237 325.536 317.568 325.536ZM325.504 295.285C324.908 295.167 324.268 295.053 323.584 294.944C321.451 294.603 319.403 294.432 317.44 294.432C312.917 294.432 309.547 295.072 307.328 296.352C305.195 297.632 304.128 299.765 304.128 302.752C304.128 305.739 305.195 307.829 307.328 309.024C309.547 310.219 312.661 310.816 316.672 310.816C319.317 310.816 321.877 310.56 324.352 310.048C325.129 309.86 325.867 309.635 326.568 309.372C326.27 308.353 326.044 307.298 325.888 306.208C325.717 304.928 325.589 303.435 325.504 301.728V295.285Z" fill="url(#paint19_radial_64_256)"/>
<path d="M365.875 278.944V324H388.403V280.48C388.403 276.483 388.141 273.317 387.618 270.981C388.197 270.851 388.799 270.732 389.427 270.624C391.902 270.112 394.547 269.856 397.363 269.856C398.984 269.856 400.606 269.984 402.227 270.24C403.934 270.411 405.512 270.667 406.963 271.008H408.371V253.344C405.896 252.917 403.55 252.661 401.331 252.576C399.198 252.491 397.491 252.448 396.211 252.448C391.688 252.448 387.507 252.704 383.667 253.216C379.912 253.643 376.456 254.197 373.299 254.88C370.227 255.563 367.454 256.331 364.979 257.184L364.595 258.208C364.936 259.744 365.192 261.835 365.363 264.48C365.619 267.04 365.747 269.685 365.747 272.416C365.832 275.061 365.875 277.237 365.875 278.944Z" fill="#D9D9D9"/>
<path d="M365.875 278.944V324H388.403V280.48C388.403 276.483 388.141 273.317 387.618 270.981C388.197 270.851 388.799 270.732 389.427 270.624C391.902 270.112 394.547 269.856 397.363 269.856C398.984 269.856 400.606 269.984 402.227 270.24C403.934 270.411 405.512 270.667 406.963 271.008H408.371V253.344C405.896 252.917 403.55 252.661 401.331 252.576C399.198 252.491 397.491 252.448 396.211 252.448C391.688 252.448 387.507 252.704 383.667 253.216C379.912 253.643 376.456 254.197 373.299 254.88C370.227 255.563 367.454 256.331 364.979 257.184L364.595 258.208C364.936 259.744 365.192 261.835 365.363 264.48C365.619 267.04 365.747 269.685 365.747 272.416C365.832 275.061 365.875 277.237 365.875 278.944Z" fill="url(#paint20_radial_64_256)"/>
<path fill-rule="evenodd" clip-rule="evenodd" d="M448.443 325.536C437.179 325.536 428.688 323.872 422.971 320.544C417.254 317.131 414.395 311.328 414.395 303.136C414.395 297.931 415.675 293.707 418.235 290.464C420.88 287.221 424.507 284.875 429.115 283.424C433.723 281.888 438.971 281.12 444.859 281.12C447.76 281.12 450.406 281.291 452.795 281.632C454.024 281.807 455.218 282.005 456.379 282.226V281.632C456.379 278.133 455.782 275.445 454.587 273.568C453.392 271.691 451.558 270.453 449.083 269.856C446.694 269.173 443.664 268.832 439.995 268.832C436.326 268.832 432.827 269.173 429.499 269.856C426.256 270.453 423.611 271.221 421.563 272.16H420.283V255.008C423.355 254.155 426.768 253.472 430.523 252.96C434.363 252.363 438.416 252.064 442.683 252.064C447.888 252.064 452.667 252.533 457.019 253.472C461.371 254.411 465.126 256.032 468.283 258.336C471.526 260.555 474 263.669 475.707 267.68C477.414 271.605 478.267 276.683 478.267 282.912V298.4C478.267 300.192 478.31 302.411 478.395 305.056C478.48 307.701 478.608 310.304 478.779 312.864C478.95 315.424 479.248 317.472 479.675 319.008L479.163 320.032C476.176 321.141 473.019 322.123 469.691 322.976C466.363 323.744 462.907 324.341 459.323 324.768C455.739 325.28 452.112 325.536 448.443 325.536ZM454.459 294.944C455.143 295.053 455.783 295.167 456.379 295.285V301.728C456.464 303.435 456.592 304.928 456.763 306.208C456.919 307.298 457.146 308.353 457.443 309.372C456.742 309.635 456.004 309.86 455.227 310.048C452.752 310.56 450.192 310.816 447.547 310.816C443.536 310.816 440.422 310.219 438.203 309.024C436.07 307.829 435.003 305.739 435.003 302.752C435.003 299.765 436.07 297.632 438.203 296.352C440.422 295.072 443.792 294.432 448.315 294.432C450.278 294.432 452.326 294.603 454.459 294.944Z" fill="#D9D9D9"/>
<path fill-rule="evenodd" clip-rule="evenodd" d="M448.443 325.536C437.179 325.536 428.688 323.872 422.971 320.544C417.254 317.131 414.395 311.328 414.395 303.136C414.395 297.931 415.675 293.707 418.235 290.464C420.88 287.221 424.507 284.875 429.115 283.424C433.723 281.888 438.971 281.12 444.859 281.12C447.76 281.12 450.406 281.291 452.795 281.632C454.024 281.807 455.218 282.005 456.379 282.226V281.632C456.379 278.133 455.782 275.445 454.587 273.568C453.392 271.691 451.558 270.453 449.083 269.856C446.694 269.173 443.664 268.832 439.995 268.832C436.326 268.832 432.827 269.173 429.499 269.856C426.256 270.453 423.611 271.221 421.563 272.16H420.283V255.008C423.355 254.155 426.768 253.472 430.523 252.96C434.363 252.363 438.416 252.064 442.683 252.064C447.888 252.064 452.667 252.533 457.019 253.472C461.371 254.411 465.126 256.032 468.283 258.336C471.526 260.555 474 263.669 475.707 267.68C477.414 271.605 478.267 276.683 478.267 282.912V298.4C478.267 300.192 478.31 302.411 478.395 305.056C478.48 307.701 478.608 310.304 478.779 312.864C478.95 315.424 479.248 317.472 479.675 319.008L479.163 320.032C476.176 321.141 473.019 322.123 469.691 322.976C466.363 323.744 462.907 324.341 459.323 324.768C455.739 325.28 452.112 325.536 448.443 325.536ZM454.459 294.944C455.143 295.053 455.783 295.167 456.379 295.285V301.728C456.464 303.435 456.592 304.928 456.763 306.208C456.919 307.298 457.146 308.353 457.443 309.372C456.742 309.635 456.004 309.86 455.227 310.048C452.752 310.56 450.192 310.816 447.547 310.816C443.536 310.816 440.422 310.219 438.203 309.024C436.07 307.829 435.003 305.739 435.003 302.752C435.003 299.765 436.07 297.632 438.203 296.352C440.422 295.072 443.792 294.432 448.315 294.432C450.278 294.432 452.326 294.603 454.459 294.944Z" fill="url(#paint21_radial_64_256)"/>
<path d="M513.045 322.592C517.738 324.213 523.2 325.024 529.429 325.024C532.16 325.024 534.549 324.853 536.597 324.512C538.645 324.256 540.608 323.829 542.485 323.232V305.568H541.077C539.968 305.995 538.688 306.379 537.237 306.72C535.786 307.061 534.293 307.232 532.757 307.232C528.661 307.232 525.632 306.421 523.669 304.8C521.792 303.093 520.853 300.277 520.853 296.352V271.392H539.285V253.984H520.853V236.448H498.325V253.984H486.933V271.392H498.325V298.016C498.325 304.757 499.605 310.133 502.165 314.144C504.81 318.069 508.437 320.885 513.045 322.592Z" fill="#D9D9D9"/>
<path d="M513.045 322.592C517.738 324.213 523.2 325.024 529.429 325.024C532.16 325.024 534.549 324.853 536.597 324.512C538.645 324.256 540.608 323.829 542.485 323.232V305.568H541.077C539.968 305.995 538.688 306.379 537.237 306.72C535.786 307.061 534.293 307.232 532.757 307.232C528.661 307.232 525.632 306.421 523.669 304.8C521.792 303.093 520.853 300.277 520.853 296.352V271.392H539.285V253.984H520.853V236.448H498.325V253.984H486.933V271.392H498.325V298.016C498.325 304.757 499.605 310.133 502.165 314.144C504.81 318.069 508.437 320.885 513.045 322.592Z" fill="url(#paint22_radial_64_256)"/>
<path d="M555 324V275.36C555 273.653 554.957 271.477 554.872 268.832C554.872 266.187 554.744 263.627 554.488 261.152C554.317 258.592 554.061 256.544 553.72 255.008L554.104 253.984H577.528V324H555Z" fill="url(#paint23_radial_64_256)"/>
<path d="M20 324V231.84H38.176L76.32 270.411V231.84H98.976V324H76.32V300.239L42.784 266.342V324H20Z" fill="url(#paint24_radial_64_256)"/>
<path fill-rule="evenodd" clip-rule="evenodd" d="M114.404 288.8C114.404 280.523 115.94 273.696 119.012 268.32C122.084 262.859 126.308 258.805 131.684 256.16C137.145 253.429 143.417 252.064 150.5 252.064C157.497 252.064 163.727 253.429 169.188 256.16C174.649 258.805 178.916 262.859 181.988 268.32C185.06 273.696 186.596 280.523 186.596 288.8C186.596 296.992 185.06 303.819 181.988 309.28C178.916 314.656 174.649 318.709 169.188 321.44C163.727 324.085 157.497 325.408 150.5 325.408C143.417 325.408 137.145 324.085 131.684 321.44C126.223 318.709 121.956 314.656 118.884 309.28C115.897 303.819 114.404 296.992 114.404 288.8ZM140.516 303.904C138.383 300.491 137.316 295.456 137.316 288.8C137.316 282.059 138.383 276.981 140.516 273.568C142.735 270.155 146.063 268.448 150.5 268.448C154.937 268.448 158.223 270.155 160.356 273.568C162.575 276.981 163.684 282.059 163.684 288.8C163.684 295.456 162.575 300.491 160.356 303.904C158.223 307.317 154.937 309.024 150.5 309.024C146.063 309.024 142.735 307.317 140.516 303.904Z" fill="url(#paint25_radial_64_256)"/>
<path d="M223.632 324.128C227.899 325.067 232.251 325.536 236.688 325.536C240.699 325.536 244.667 325.195 248.592 324.512C252.603 323.915 256.4 323.104 259.984 322.08C263.653 321.056 266.896 319.947 269.712 318.752L270.096 317.728C269.755 316.192 269.456 314.144 269.2 311.584C269.029 309.024 268.901 306.421 268.816 303.776V253.984H245.264L244.88 255.008C245.221 256.544 245.477 258.592 245.648 261.152C245.904 263.627 246.075 266.187 246.16 268.832C246.245 271.477 246.288 273.653 246.288 275.36V297.504C246.288 300.576 246.416 303.136 246.672 305.184C246.73 305.65 246.797 306.096 246.873 306.522C246.351 306.67 245.815 306.822 245.264 306.976C243.131 307.488 240.869 307.744 238.48 307.744C235.493 307.744 232.891 307.36 230.672 306.592C228.539 305.739 226.832 304.245 225.552 302.112C224.357 299.893 223.76 296.821 223.76 292.896V253.984H200.336L199.824 255.008C200.251 256.544 200.549 258.592 200.72 261.152C200.891 263.627 201.019 266.187 201.104 268.832C201.189 271.477 201.232 273.653 201.232 275.36V293.536C201.232 300.021 202.213 305.355 204.176 309.536C206.139 313.632 208.784 316.875 212.112 319.264C215.525 321.568 219.365 323.189 223.632 324.128Z" fill="url(#paint26_radial_64_256)"/>
<path fill-rule="evenodd" clip-rule="evenodd" d="M317.568 325.536C306.304 325.536 297.813 323.872 292.096 320.544C286.379 317.131 283.52 311.328 283.52 303.136C283.52 297.931 284.8 293.707 287.36 290.464C290.005 287.221 293.632 284.875 298.24 283.424C302.848 281.888 308.096 281.12 313.984 281.12C316.885 281.12 319.531 281.291 321.92 281.632C323.149 281.807 324.343 282.005 325.504 282.226V281.632C325.504 278.133 324.907 275.445 323.712 273.568C322.517 271.691 320.683 270.453 318.208 269.856C315.819 269.173 312.789 268.832 309.12 268.832C305.451 268.832 301.952 269.173 298.624 269.856C295.381 270.453 292.736 271.221 290.688 272.16H289.408V255.008C292.48 254.155 295.893 253.472 299.648 252.96C303.488 252.363 307.541 252.064 311.808 252.064C317.013 252.064 321.792 252.533 326.144 253.472C330.496 254.411 334.251 256.032 337.408 258.336C340.651 260.555 343.125 263.669 344.832 267.68C346.539 271.605 347.392 276.683 347.392 282.912V298.4C347.392 300.192 347.435 302.411 347.52 305.056C347.605 307.701 347.733 310.304 347.904 312.864C348.075 315.424 348.373 317.472 348.8 319.008L348.288 320.032C345.301 321.141 342.144 322.123 338.816 322.976C335.488 323.744 332.032 324.341 328.448 324.768C324.864 325.28 321.237 325.536 317.568 325.536ZM325.504 295.285C324.908 295.167 324.268 295.053 323.584 294.944C321.451 294.603 319.403 294.432 317.44 294.432C312.917 294.432 309.547 295.072 307.328 296.352C305.195 297.632 304.128 299.765 304.128 302.752C304.128 305.739 305.195 307.829 307.328 309.024C309.547 310.219 312.661 310.816 316.672 310.816C319.317 310.816 321.877 310.56 324.352 310.048C325.129 309.86 325.867 309.635 326.568 309.372C326.27 308.353 326.044 307.298 325.888 306.208C325.717 304.928 325.589 303.435 325.504 301.728V295.285Z" fill="url(#paint27_radial_64_256)"/>
<path d="M365.875 278.944V324H388.403V280.48C388.403 276.483 388.141 273.317 387.618 270.981C388.197 270.851 388.799 270.732 389.427 270.624C391.902 270.112 394.547 269.856 397.363 269.856C398.984 269.856 400.606 269.984 402.227 270.24C403.934 270.411 405.512 270.667 406.963 271.008H408.371V253.344C405.896 252.917 403.55 252.661 401.331 252.576C399.198 252.491 397.491 252.448 396.211 252.448C391.688 252.448 387.507 252.704 383.667 253.216C379.912 253.643 376.456 254.197 373.299 254.88C370.227 255.563 367.454 256.331 364.979 257.184L364.595 258.208C364.936 259.744 365.192 261.835 365.363 264.48C365.619 267.04 365.747 269.685 365.747 272.416C365.832 275.061 365.875 277.237 365.875 278.944Z" fill="url(#paint28_radial_64_256)"/>
<path fill-rule="evenodd" clip-rule="evenodd" d="M448.443 325.536C437.179 325.536 428.688 323.872 422.971 320.544C417.254 317.131 414.395 311.328 414.395 303.136C414.395 297.931 415.675 293.707 418.235 290.464C420.88 287.221 424.507 284.875 429.115 283.424C433.723 281.888 438.971 281.12 444.859 281.12C447.76 281.12 450.406 281.291 452.795 281.632C454.024 281.807 455.218 282.005 456.379 282.226V281.632C456.379 278.133 455.782 275.445 454.587 273.568C453.392 271.691 451.558 270.453 449.083 269.856C446.694 269.173 443.664 268.832 439.995 268.832C436.326 268.832 432.827 269.173 429.499 269.856C426.256 270.453 423.611 271.221 421.563 272.16H420.283V255.008C423.355 254.155 426.768 253.472 430.523 252.96C434.363 252.363 438.416 252.064 442.683 252.064C447.888 252.064 452.667 252.533 457.019 253.472C461.371 254.411 465.126 256.032 468.283 258.336C471.526 260.555 474 263.669 475.707 267.68C477.414 271.605 478.267 276.683 478.267 282.912V298.4C478.267 300.192 478.31 302.411 478.395 305.056C478.48 307.701 478.608 310.304 478.779 312.864C478.95 315.424 479.248 317.472 479.675 319.008L479.163 320.032C476.176 321.141 473.019 322.123 469.691 322.976C466.363 323.744 462.907 324.341 459.323 324.768C455.739 325.28 452.112 325.536 448.443 325.536ZM454.459 294.944C455.143 295.053 455.783 295.167 456.379 295.285V301.728C456.464 303.435 456.592 304.928 456.763 306.208C456.919 307.298 457.146 308.353 457.443 309.372C456.742 309.635 456.004 309.86 455.227 310.048C452.752 310.56 450.192 310.816 447.547 310.816C443.536 310.816 440.422 310.219 438.203 309.024C436.07 307.829 435.003 305.739 435.003 302.752C435.003 299.765 436.07 297.632 438.203 296.352C440.422 295.072 443.792 294.432 448.315 294.432C450.278 294.432 452.326 294.603 454.459 294.944Z" fill="url(#paint29_radial_64_256)"/>
<path d="M513.045 322.592C517.738 324.213 523.2 325.024 529.429 325.024C532.16 325.024 534.549 324.853 536.597 324.512C538.645 324.256 540.608 323.829 542.485 323.232V305.568H541.077C539.968 305.995 538.688 306.379 537.237 306.72C535.786 307.061 534.293 307.232 532.757 307.232C528.661 307.232 525.632 306.421 523.669 304.8C521.792 303.093 520.853 300.277 520.853 296.352V271.392H539.285V253.984H520.853V236.448H498.325V253.984H486.933V271.392H498.325V298.016C498.325 304.757 499.605 310.133 502.165 314.144C504.81 318.069 508.437 320.885 513.045 322.592Z" fill="url(#paint30_radial_64_256)"/>
<g style="mix-blend-mode:overlay" filter="url(#filter2_f_64_256)">
<path d="M36.7842 266.342V318" stroke="url(#paint31_linear_64_256)" stroke-width="4" stroke-linejoin="round"/>
<path d="M92.9761 318V237.84" stroke="url(#paint32_linear_64_256)" stroke-width="4" stroke-linejoin="round"/>
<path d="M135.428 307.084C132.426 302.281 131.316 295.922 131.316 288.8C131.316 281.61 132.42 275.2 135.428 270.388" stroke="url(#paint33_linear_64_256)" stroke-width="4" stroke-linejoin="round"/>
<path d="M166.539 316.056C170.903 313.866 174.283 310.663 176.769 306.32C179.197 301.994 180.596 296.259 180.596 288.8C180.596 281.227 179.187 275.511 176.779 271.297M176.759 271.261C174.266 266.83 170.895 263.653 166.572 261.56" stroke="url(#paint34_linear_64_256)" stroke-width="4" stroke-linejoin="round"/>
<path d="M228.444 312.163C224.99 310.782 222.303 308.358 220.407 305.199C220.359 305.12 220.313 305.039 220.269 304.957C218.413 301.509 217.76 297.312 217.76 292.896V259.984" stroke="url(#paint35_linear_64_256)" stroke-width="4" stroke-linejoin="round"/>
<path d="M263.515 314.704C263.413 313.904 263.318 313.062 263.23 312.181C263.224 312.115 263.218 312.05 263.214 311.984C263.038 309.353 262.907 306.682 262.82 303.97C262.817 303.905 262.816 303.841 262.816 303.776V259.984" stroke="url(#paint36_linear_64_256)" stroke-width="4" stroke-linejoin="round"/>
<path d="M304.396 314.259C299.92 311.752 298.128 307.342 298.128 302.752C298.128 298.153 299.913 293.804 304.241 291.207" stroke="url(#paint37_linear_64_256)" stroke-width="4" stroke-linejoin="round"/>
<path d="M342.14 315.795C342.049 314.98 341.975 314.134 341.917 313.263C341.742 310.633 341.611 307.962 341.523 305.25C341.437 302.567 341.392 300.279 341.392 298.4V282.912C341.392 277.162 340.594 272.981 339.33 270.073L339.311 270.03C338.002 266.953 336.217 264.791 334.02 263.288" stroke="url(#paint38_linear_64_256)" stroke-width="4" stroke-linejoin="round"/>
<path d="M382.403 318V280.48C382.403 276.673 382.148 274.007 381.764 272.293" stroke="url(#paint39_linear_64_256)" stroke-width="4" stroke-linejoin="round"/>
<path d="M402.371 264.197V258.641" stroke="url(#paint40_linear_64_256)" stroke-width="4" stroke-linejoin="round"/>
<path d="M435.271 314.259C430.795 311.752 429.003 307.342 429.003 302.752C429.003 298.153 430.788 293.804 435.116 291.207" stroke="url(#paint41_linear_64_256)" stroke-width="4" stroke-linejoin="round"/>
<path d="M473.015 315.795C472.924 314.98 472.85 314.134 472.792 313.263C472.617 310.633 472.486 307.961 472.398 305.25C472.312 302.567 472.267 300.279 472.267 298.4V282.912C472.267 277.162 471.469 272.981 470.205 270.073L470.186 270.03C468.877 266.953 467.092 264.791 464.895 263.288" stroke="url(#paint42_linear_64_256)" stroke-width="4" stroke-linejoin="round"/>
<path d="M519.633 309.239C515.958 305.898 514.853 301.051 514.853 296.352V271.392" stroke="url(#paint43_linear_64_256)" stroke-width="4" stroke-linejoin="round"/>
<path d="M536.485 312.965V318.473" stroke="url(#paint44_linear_64_256)" stroke-width="4" stroke-linejoin="round"/>
<path d="M514.853 253.984V242.448" stroke="url(#paint45_linear_64_256)" stroke-width="4" stroke-linejoin="round"/>
<path d="M533.285 265.392V259.984" stroke="url(#paint46_linear_64_256)" stroke-width="4" stroke-linejoin="round"/>
<path d="M571.528 259.984V318" stroke="url(#paint47_linear_64_256)" stroke-width="4" stroke-linecap="round" stroke-linejoin="round"/>
</g>
<path d="M554.281 244.215L566.393 244.224C573.082 244.229 578.501 238.81 578.496 232.121C578.491 225.432 573.065 220.005 566.375 220C559.686 219.995 554.267 225.414 554.272 232.103L554.281 244.215Z" fill="url(#paint48_linear_64_256)"/>
<g style="mix-blend-mode:overlay" filter="url(#filter3_f_64_256)">
<path d="M566.397 238.224C569.769 238.227 572.499 235.497 572.496 232.125C572.494 228.746 569.75 226.002 566.371 226" stroke="url(#paint49_linear_64_256)" stroke-width="4" stroke-linecap="round"/>
</g>
<defs>
<filter id="filter0_f_64_256" x="248.946" y="33.2305" width="127.072" height="153.52" filterUnits="userSpaceOnUse" color-interpolation-filters="sRGB">
<feFlood flood-opacity="0" result="BackgroundImageFix"/>
<feBlend mode="normal" in="SourceGraphic" in2="BackgroundImageFix" result="shape"/>
<feGaussianBlur stdDeviation="2" result="effect1_foregroundBlur_64_256"/>
</filter>
<filter id="filter1_f_64_256" x="270.657" y="25.3057" width="113.285" height="169.389" filterUnits="userSpaceOnUse" color-interpolation-filters="sRGB">
<feFlood flood-opacity="0" result="BackgroundImageFix"/>
<feBlend mode="normal" in="SourceGraphic" in2="BackgroundImageFix" result="shape"/>
<feGaussianBlur stdDeviation="2" result="effect1_foregroundBlur_64_256"/>
</filter>
<filter id="filter2_f_64_256" x="30.7842" y="233.84" width="546.744" height="90.1606" filterUnits="userSpaceOnUse" color-interpolation-filters="sRGB">
<feFlood flood-opacity="0" result="BackgroundImageFix"/>
<feBlend mode="normal" in="SourceGraphic" in2="BackgroundImageFix" result="shape"/>
<feGaussianBlur stdDeviation="2" result="effect1_foregroundBlur_64_256"/>
</filter>
<filter id="filter3_f_64_256" x="560.371" y="220" width="18.125" height="24.2241" filterUnits="userSpaceOnUse" color-interpolation-filters="sRGB">
<feFlood flood-opacity="0" result="BackgroundImageFix"/>
<feBlend mode="normal" in="SourceGraphic" in2="BackgroundImageFix" result="shape"/>
<feGaussianBlur stdDeviation="2" result="effect1_foregroundBlur_64_256"/>
</filter>
<radialGradient id="paint0_diamond_64_256" cx="0" cy="0" r="1" gradientUnits="userSpaceOnUse" gradientTransform="translate(287.465 98.2161) rotate(-135) scale(91.9029 74.4246)">
<stop stop-color="#006600"/>
<stop offset="0.8" stop-color="#009900"/>
</radialGradient>
<radialGradient id="paint1_diamond_64_256" cx="0" cy="0" r="1" gradientUnits="userSpaceOnUse" gradientTransform="translate(287.465 98.2156) rotate(-135) scale(91.9029 74.4246)">
<stop stop-color="#006600"/>
<stop offset="0.8" stop-color="#009900"/>
</radialGradient>
<radialGradient id="paint2_diamond_64_256" cx="0" cy="0" r="1" gradientUnits="userSpaceOnUse" gradientTransform="translate(287.465 121.784) rotate(135) scale(91.9029 74.4246)">
<stop stop-color="#006600"/>
<stop offset="0.8" stop-color="#009900"/>
</radialGradient>
<radialGradient id="paint3_diamond_64_256" cx="0" cy="0" r="1" gradientUnits="userSpaceOnUse" gradientTransform="translate(311.033 98.2161) rotate(-45) scale(91.9029 74.4246)">
<stop stop-color="#006600"/>
<stop offset="0.8" stop-color="#009900"/>
</radialGradient>
<radialGradient id="paint4_diamond_64_256" cx="0" cy="0" r="1" gradientUnits="userSpaceOnUse" gradientTransform="translate(311.033 121.784) rotate(45) scale(91.9029 74.4246)">
<stop stop-color="#006600"/>
<stop offset="0.8" stop-color="#009900"/>
</radialGradient>
<radialGradient id="paint5_diamond_64_256" cx="0" cy="0" r="1" gradientUnits="userSpaceOnUse" gradientTransform="translate(299.248 110) rotate(-90) scale(90 90)">
<stop stop-color="#FF8000"/>
<stop offset="0.8" stop-color="#FFD300"/>
</radialGradient>
<linearGradient id="paint6_linear_64_256" x1="356.786" y1="39.25" x2="356.786" y2="92.2159" gradientUnits="userSpaceOnUse">
<stop offset="0.1" stop-color="white" stop-opacity="0"/>
<stop offset="0.5" stop-color="white"/>
<stop offset="0.9" stop-color="white" stop-opacity="0"/>
</linearGradient>
<linearGradient id="paint7_linear_64_256" x1="268.207" y1="39.2305" x2="268.207" y2="92.2156" gradientUnits="userSpaceOnUse">
<stop offset="0.1" stop-color="white" stop-opacity="0"/>
<stop offset="0.5" stop-color="white"/>
<stop offset="0.9" stop-color="white" stop-opacity="0"/>
</linearGradient>
<linearGradient id="paint8_linear_64_256" x1="268.207" y1="127.765" x2="268.207" y2="180.75" gradientUnits="userSpaceOnUse">
<stop offset="0.1" stop-color="white" stop-opacity="0"/>
<stop offset="0.5" stop-color="white"/>
<stop offset="0.9" stop-color="white" stop-opacity="0"/>
</linearGradient>
<linearGradient id="paint9_linear_64_256" x1="356.784" y1="180.75" x2="356.784" y2="127.784" gradientUnits="userSpaceOnUse">
<stop offset="0.1" stop-color="white" stop-opacity="0"/>
<stop offset="0.5" stop-color="white"/>
<stop offset="0.9" stop-color="white" stop-opacity="0"/>
</linearGradient>
<radialGradient id="paint10_diamond_64_256" cx="0" cy="0" r="1" gradientUnits="userSpaceOnUse" gradientTransform="translate(299.248 110) rotate(-90) scale(90 90)">
<stop stop-color="#FF8000"/>
<stop offset="0.8" stop-color="#FFD300"/>
</radialGradient>
<linearGradient id="paint11_linear_64_256" x1="369.285" y1="92.6602" x2="369.285" y2="127.339" gradientUnits="userSpaceOnUse">
<stop offset="0.1" stop-color="white" stop-opacity="0"/>
<stop offset="0.5" stop-color="white"/>
<stop offset="0.9" stop-color="white" stop-opacity="0"/>
</linearGradient>
<linearGradient id="paint12_linear_64_256" x1="278.146" y1="98.2627" x2="278.146" y2="121.739" gradientUnits="userSpaceOnUse">
<stop offset="0.1" stop-color="white" stop-opacity="0"/>
<stop offset="0.5" stop-color="white"/>
<stop offset="0.9" stop-color="white" stop-opacity="0"/>
</linearGradient>
<linearGradient id="paint13_linear_64_256" x1="311.508" y1="142.407" x2="311.508" y2="188.695" gradientUnits="userSpaceOnUse">
<stop offset="0.1" stop-color="white" stop-opacity="0"/>
<stop offset="0.5" stop-color="white"/>
<stop offset="0.9" stop-color="white" stop-opacity="0"/>
</linearGradient>
<linearGradient id="paint14_linear_64_256" x1="311.508" y1="31.3057" x2="311.508" y2="77.593" gradientUnits="userSpaceOnUse">
<stop offset="0.1" stop-color="white" stop-opacity="0"/>
<stop offset="0.5" stop-color="white"/>
<stop offset="0.9" stop-color="white" stop-opacity="0"/>
</linearGradient>
<radialGradient id="paint15_radial_64_256" cx="0" cy="0" r="1" gradientUnits="userSpaceOnUse" gradientTransform="translate(299.148 325.536) rotate(-90) scale(108.035 558.296)">
<stop stop-color="#FF8000"/>
<stop offset="1" stop-color="#FFD300"/>
</radialGradient>
<radialGradient id="paint16_radial_64_256" cx="0" cy="0" r="1" gradientUnits="userSpaceOnUse" gradientTransform="translate(299.148 325.536) rotate(-90) scale(108.035 558.296)">
<stop stop-color="#FF8000"/>
<stop offset="1" stop-color="#FFD300"/>
</radialGradient>
<radialGradient id="paint17_radial_64_256" cx="0" cy="0" r="1" gradientUnits="userSpaceOnUse" gradientTransform="translate(299.148 325.536) rotate(-90) scale(108.035 558.296)">
<stop stop-color="#FF8000"/>
<stop offset="1" stop-color="#FFD300"/>
</radialGradient>
<radialGradient id="paint18_radial_64_256" cx="0" cy="0" r="1" gradientUnits="userSpaceOnUse" gradientTransform="translate(299.148 325.536) rotate(-90) scale(108.035 558.296)">
<stop stop-color="#FF8000"/>
<stop offset="1" stop-color="#FFD300"/>
</radialGradient>
<radialGradient id="paint19_radial_64_256" cx="0" cy="0" r="1" gradientUnits="userSpaceOnUse" gradientTransform="translate(299.148 325.536) rotate(-90) scale(108.035 558.296)">
<stop stop-color="#FF8000"/>
<stop offset="1" stop-color="#FFD300"/>
</radialGradient>
<radialGradient id="paint20_radial_64_256" cx="0" cy="0" r="1" gradientUnits="userSpaceOnUse" gradientTransform="translate(299.148 325.536) rotate(-90) scale(108.035 558.296)">
<stop stop-color="#FF8000"/>
<stop offset="1" stop-color="#FFD300"/>
</radialGradient>
<radialGradient id="paint21_radial_64_256" cx="0" cy="0" r="1" gradientUnits="userSpaceOnUse" gradientTransform="translate(299.148 325.536) rotate(-90) scale(108.035 558.296)">
<stop stop-color="#FF8000"/>
<stop offset="1" stop-color="#FFD300"/>
</radialGradient>
<radialGradient id="paint22_radial_64_256" cx="0" cy="0" r="1" gradientUnits="userSpaceOnUse" gradientTransform="translate(299.148 325.536) rotate(-90) scale(108.035 558.296)">
<stop stop-color="#FF8000"/>
<stop offset="1" stop-color="#FFD300"/>
</radialGradient>
<radialGradient id="paint23_radial_64_256" cx="0" cy="0" r="1" gradientUnits="userSpaceOnUse" gradientTransform="translate(298.764 325.536) rotate(-90) scale(96.441 557.528)">
<stop stop-color="#FF8000"/>
<stop offset="1" stop-color="#FFD300"/>
</radialGradient>
<radialGradient id="paint24_radial_64_256" cx="0" cy="0" r="1" gradientUnits="userSpaceOnUse" gradientTransform="translate(298.764 325.536) rotate(-90) scale(96.441 557.528)">
<stop stop-color="#FF8000"/>
<stop offset="1" stop-color="#FFD300"/>
</radialGradient>
<radialGradient id="paint25_radial_64_256" cx="0" cy="0" r="1" gradientUnits="userSpaceOnUse" gradientTransform="translate(298.764 325.536) rotate(-90) scale(96.441 557.528)">
<stop stop-color="#FF8000"/>
<stop offset="1" stop-color="#FFD300"/>
</radialGradient>
<radialGradient id="paint26_radial_64_256" cx="0" cy="0" r="1" gradientUnits="userSpaceOnUse" gradientTransform="translate(298.764 325.536) rotate(-90) scale(96.441 557.528)">
<stop stop-color="#FF8000"/>
<stop offset="1" stop-color="#FFD300"/>
</radialGradient>
<radialGradient id="paint27_radial_64_256" cx="0" cy="0" r="1" gradientUnits="userSpaceOnUse" gradientTransform="translate(298.764 325.536) rotate(-90) scale(96.441 557.528)">
<stop stop-color="#FF8000"/>
<stop offset="1" stop-color="#FFD300"/>
</radialGradient>
<radialGradient id="paint28_radial_64_256" cx="0" cy="0" r="1" gradientUnits="userSpaceOnUse" gradientTransform="translate(298.764 325.536) rotate(-90) scale(96.441 557.528)">
<stop stop-color="#FF8000"/>
<stop offset="1" stop-color="#FFD300"/>
</radialGradient>
<radialGradient id="paint29_radial_64_256" cx="0" cy="0" r="1" gradientUnits="userSpaceOnUse" gradientTransform="translate(298.764 325.536) rotate(-90) scale(96.441 557.528)">
<stop stop-color="#FF8000"/>
<stop offset="1" stop-color="#FFD300"/>
</radialGradient>
<radialGradient id="paint30_radial_64_256" cx="0" cy="0" r="1" gradientUnits="userSpaceOnUse" gradientTransform="translate(298.764 325.536) rotate(-90) scale(96.441 557.528)">
<stop stop-color="#FF8000"/>
<stop offset="1" stop-color="#FFD300"/>
</radialGradient>
<linearGradient id="paint31_linear_64_256" x1="37.2842" y1="266.342" x2="37.2842" y2="318" gradientUnits="userSpaceOnUse">
<stop stop-color="white" stop-opacity="0"/>
<stop offset="0.5" stop-color="white"/>
<stop offset="1" stop-color="white" stop-opacity="0"/>
</linearGradient>
<linearGradient id="paint32_linear_64_256" x1="93.4761" y1="237.84" x2="93.4761" y2="318" gradientUnits="userSpaceOnUse">
<stop stop-color="white" stop-opacity="0"/>
<stop offset="0.5" stop-color="white"/>
<stop offset="1" stop-color="white" stop-opacity="0"/>
</linearGradient>
<linearGradient id="paint33_linear_64_256" x1="133.372" y1="270.388" x2="133.372" y2="307.084" gradientUnits="userSpaceOnUse">
<stop stop-color="white" stop-opacity="0"/>
<stop offset="0.5" stop-color="white"/>
<stop offset="1" stop-color="white" stop-opacity="0"/>
</linearGradient>
<linearGradient id="paint34_linear_64_256" x1="173.567" y1="261.56" x2="173.567" y2="316.056" gradientUnits="userSpaceOnUse">
<stop stop-color="white" stop-opacity="0"/>
<stop offset="0.5" stop-color="white"/>
<stop offset="1" stop-color="white" stop-opacity="0"/>
</linearGradient>
<linearGradient id="paint35_linear_64_256" x1="223.102" y1="259.984" x2="223.102" y2="312.163" gradientUnits="userSpaceOnUse">
<stop stop-color="white" stop-opacity="0"/>
<stop offset="0.5" stop-color="white"/>
<stop offset="1" stop-color="white" stop-opacity="0"/>
</linearGradient>
<linearGradient id="paint36_linear_64_256" x1="263.166" y1="259.984" x2="263.166" y2="314.704" gradientUnits="userSpaceOnUse">
<stop stop-color="white" stop-opacity="0"/>
<stop offset="0.5" stop-color="white"/>
<stop offset="1" stop-color="white" stop-opacity="0"/>
</linearGradient>
<linearGradient id="paint37_linear_64_256" x1="301.262" y1="291.207" x2="301.262" y2="314.259" gradientUnits="userSpaceOnUse">
<stop stop-color="white" stop-opacity="0"/>
<stop offset="0.5" stop-color="white"/>
<stop offset="1" stop-color="white" stop-opacity="0"/>
</linearGradient>
<linearGradient id="paint38_linear_64_256" x1="338.08" y1="263.288" x2="338.08" y2="315.795" gradientUnits="userSpaceOnUse">
<stop stop-color="white" stop-opacity="0"/>
<stop offset="0.5" stop-color="white"/>
<stop offset="1" stop-color="white" stop-opacity="0"/>
</linearGradient>
<linearGradient id="paint39_linear_64_256" x1="382.083" y1="272.293" x2="382.083" y2="318" gradientUnits="userSpaceOnUse">
<stop stop-color="white" stop-opacity="0"/>
<stop offset="0.5" stop-color="white"/>
<stop offset="1" stop-color="white" stop-opacity="0"/>
</linearGradient>
<linearGradient id="paint40_linear_64_256" x1="402.871" y1="258.641" x2="402.871" y2="264.197" gradientUnits="userSpaceOnUse">
<stop stop-color="white" stop-opacity="0"/>
<stop offset="0.5" stop-color="white"/>
<stop offset="1" stop-color="white" stop-opacity="0"/>
</linearGradient>
<linearGradient id="paint41_linear_64_256" x1="432.137" y1="291.207" x2="432.137" y2="314.259" gradientUnits="userSpaceOnUse">
<stop stop-color="white" stop-opacity="0"/>
<stop offset="0.5" stop-color="white"/>
<stop offset="1" stop-color="white" stop-opacity="0"/>
</linearGradient>
<linearGradient id="paint42_linear_64_256" x1="468.955" y1="263.288" x2="468.955" y2="315.795" gradientUnits="userSpaceOnUse">
<stop stop-color="white" stop-opacity="0"/>
<stop offset="0.5" stop-color="white"/>
<stop offset="1" stop-color="white" stop-opacity="0"/>
</linearGradient>
<linearGradient id="paint43_linear_64_256" x1="517.243" y1="271.392" x2="517.243" y2="309.239" gradientUnits="userSpaceOnUse">
<stop stop-color="white" stop-opacity="0"/>
<stop offset="0.5" stop-color="white"/>
<stop offset="1" stop-color="white" stop-opacity="0"/>
</linearGradient>
<linearGradient id="paint44_linear_64_256" x1="536.985" y1="312.965" x2="536.985" y2="318.473" gradientUnits="userSpaceOnUse">
<stop stop-color="white" stop-opacity="0"/>
<stop offset="0.5" stop-color="white"/>
<stop offset="1" stop-color="white" stop-opacity="0"/>
</linearGradient>
<linearGradient id="paint45_linear_64_256" x1="515.353" y1="242.448" x2="515.353" y2="253.984" gradientUnits="userSpaceOnUse">
<stop stop-color="white" stop-opacity="0"/>
<stop offset="0.5" stop-color="white"/>
<stop offset="1" stop-color="white" stop-opacity="0"/>
</linearGradient>
<linearGradient id="paint46_linear_64_256" x1="533.785" y1="259.984" x2="533.785" y2="265.392" gradientUnits="userSpaceOnUse">
<stop stop-color="white" stop-opacity="0"/>
<stop offset="0.5" stop-color="white"/>
<stop offset="1" stop-color="white" stop-opacity="0"/>
</linearGradient>
<linearGradient id="paint47_linear_64_256" x1="572.028" y1="259.984" x2="572.028" y2="318" gradientUnits="userSpaceOnUse">
<stop stop-color="white" stop-opacity="0"/>
<stop offset="0.5" stop-color="white"/>
<stop offset="1" stop-color="white" stop-opacity="0"/>
</linearGradient>
<linearGradient id="paint48_linear_64_256" x1="566.384" y1="220" x2="566.384" y2="244.224" gradientUnits="userSpaceOnUse">
<stop stop-color="#009900"/>
<stop offset="1" stop-color="#006600"/>
</linearGradient>
<linearGradient id="paint49_linear_64_256" x1="569.433" y1="226" x2="569.433" y2="238.224" gradientUnits="userSpaceOnUse">
<stop stop-color="white" stop-opacity="0"/>
<stop offset="0.5" stop-color="white"/>
<stop offset="1" stop-color="white" stop-opacity="0"/>
</linearGradient>
</defs>
</svg>
