<svg width="421" height="395" viewBox="0 0 421 395" fill="none" xmlns="http://www.w3.org/2000/svg">
<path d="M133.287 33.2545L165.78 33.231C183.725 33.218 198.262 47.7548 198.249 65.7C198.236 83.6451 183.678 98.2031 165.733 98.2161C147.788 98.2291 133.251 83.6922 133.264 65.7471L133.287 33.2545Z" fill="url(#paint0_diamond_64_217)"/>
<path d="M133.287 33.254L165.78 33.2305C183.725 33.2175 198.262 47.7543 198.249 65.6995C198.236 83.6446 183.678 98.2026 165.733 98.2156C147.788 98.2286 133.251 83.6918 133.264 65.7466L133.287 33.254Z" fill="url(#paint1_diamond_64_217)"/>
<path d="M133.287 186.745L165.78 186.769C183.725 186.782 198.262 172.245 198.249 154.3C198.236 136.355 183.678 121.797 165.733 121.784C147.788 121.771 133.251 136.308 133.264 154.253L133.287 186.745Z" fill="url(#paint2_diamond_64_217)"/>
<path d="M286.779 33.2545L254.286 33.231C236.341 33.218 221.804 47.7548 221.817 65.7C221.83 83.6451 236.388 98.2031 254.333 98.2161C272.278 98.2291 286.815 83.6922 286.802 65.7471L286.779 33.2545Z" fill="url(#paint3_diamond_64_217)"/>
<path d="M286.779 186.745L254.286 186.769C236.341 186.782 221.804 172.245 221.817 154.3C221.83 136.355 236.388 121.797 254.333 121.784C272.278 121.771 286.815 136.308 286.802 154.253L286.779 186.745Z" fill="url(#paint4_diamond_64_217)"/>
<path fill-rule="evenodd" clip-rule="evenodd" d="M300.032 110L277.073 87.0076C266.658 76.5777 250.929 74.7145 238.615 81.4181C245.319 69.1042 243.456 53.3741 233.026 42.959L210.033 20L187.041 42.959C176.61 53.3745 174.748 69.1056 181.453 81.4197C169.138 74.7142 153.407 76.5768 142.991 87.0076L120.032 110L142.991 132.992C153.407 143.423 169.138 145.286 181.453 138.58C174.748 150.894 176.61 166.625 187.041 177.041L210.033 200L233.026 177.041C243.456 166.626 245.319 150.896 238.615 138.582C250.929 145.285 266.658 143.422 277.073 132.992L300.032 110ZM225.596 94.4364C215.924 99.705 204.139 99.7045 194.467 94.4348C199.737 104.107 199.737 115.894 194.467 125.566C204.139 120.296 215.924 120.296 225.596 125.564C220.328 115.893 220.328 104.108 225.596 94.4364Z" fill="url(#paint5_diamond_64_217)"/>
<g style="mix-blend-mode:overlay" filter="url(#filter0_f_64_217)">
<path d="M280.783 39.25L280.802 65.7513C280.813 80.3793 268.966 92.2265 254.338 92.2159" stroke="url(#paint6_linear_64_217)" stroke-width="4" stroke-linecap="round" stroke-linejoin="round" style="mix-blend-mode:overlay"/>
<path d="M165.73 92.2156C180.365 92.205 192.24 80.33 192.251 65.6951C192.262 51.0671 180.414 39.2199 165.786 39.2305" stroke="url(#paint7_linear_64_217)" stroke-width="4" stroke-linecap="round" stroke-linejoin="round" style="mix-blend-mode:overlay"/>
<path d="M165.73 180.75C180.365 180.739 192.24 168.864 192.251 154.229C192.262 139.601 180.414 127.754 165.786 127.765" stroke="url(#paint8_linear_64_217)" stroke-width="4" stroke-linecap="round" stroke-linejoin="round" style="mix-blend-mode:overlay"/>
<path d="M280.781 180.75L280.8 154.249C280.811 139.621 268.964 127.773 254.336 127.784" stroke="url(#paint9_linear_64_217)" stroke-width="4" stroke-linecap="round" stroke-linejoin="round" style="mix-blend-mode:overlay"/>
</g>
<path fill-rule="evenodd" clip-rule="evenodd" d="M300.032 110L277.073 87.0076C266.658 76.5777 250.929 74.7145 238.615 81.4181C245.319 69.1042 243.456 53.3741 233.026 42.959L210.033 20L187.041 42.959C176.61 53.3745 174.748 69.1056 181.453 81.4197C169.138 74.7142 153.407 76.5768 142.991 87.0076L120.032 110L142.991 132.992C153.407 143.423 169.138 145.286 181.453 138.58C174.748 150.894 176.61 166.625 187.041 177.041L210.033 200L233.026 177.041C243.456 166.626 245.319 150.896 238.615 138.582C250.929 145.285 266.658 143.422 277.073 132.992L300.032 110ZM225.596 94.4364C215.924 99.705 204.139 99.7045 194.467 94.4348C199.737 104.107 199.737 115.894 194.467 125.566C204.139 120.296 215.924 120.296 225.596 125.564C220.328 115.893 220.328 104.108 225.596 94.4364Z" fill="url(#paint10_diamond_64_217)"/>
<g style="mix-blend-mode:overlay" filter="url(#filter1_f_64_217)">
<path d="M271.412 127.339L288.727 110L271.412 92.6602" stroke="url(#paint11_linear_64_217)" stroke-width="4" stroke-linecap="round" stroke-linejoin="round" style="mix-blend-mode:overlay"/>
<path d="M187.442 121.739C191.412 114.453 191.412 105.549 187.442 98.2627" stroke="url(#paint12_linear_64_217)" stroke-width="4" stroke-linecap="round" stroke-linejoin="round" style="mix-blend-mode:overlay"/>
<path d="M210.033 188.695L227.373 171.38C235.225 163.539 236.641 151.688 231.589 142.407" stroke="url(#paint13_linear_64_217)" stroke-width="4" stroke-linecap="round" stroke-linejoin="round" style="mix-blend-mode:overlay"/>
<path d="M231.589 77.593C236.641 68.3122 235.225 56.461 227.373 48.6202L210.033 31.3057" stroke="url(#paint14_linear_64_217)" stroke-width="4" stroke-linecap="round" stroke-linejoin="round" style="mix-blend-mode:overlay"/>
</g>
<path d="M124.704 341.12C119.584 341.12 115.36 340.437 112.032 339.072C108.704 337.707 105.888 335.573 103.584 332.672C101.28 329.685 99.0613 325.931 96.928 321.408L88.1979 302.507C87.9333 302.569 87.6686 302.633 87.404 302.699C87.208 302.748 87.012 302.797 86.816 302.848C84.256 303.445 82.1227 304.384 80.416 305.664C78.7947 306.944 77.984 308.821 77.984 311.296C77.984 313.173 78.496 315.179 79.52 317.312C80.6293 319.445 81.952 321.621 83.488 323.84L88.096 330.496C89.7173 332.715 91.04 334.891 92.064 337.024C93.1733 339.072 93.728 340.949 93.728 342.656C93.728 348.629 91.936 354.048 88.352 358.912C84.8533 363.776 79.904 367.659 73.504 370.56C67.1893 373.461 59.8933 374.912 51.616 374.912C45.1307 374.912 39.4987 374.4 34.72 373.376C30.0267 372.437 26.4 371.456 23.84 370.432L20 369.024L25.504 350.336H26.912C28.0213 350.677 29.7707 351.232 32.16 352C34.6347 352.768 37.664 353.493 41.248 354.176C44.9173 354.858 49.0133 355.2 53.536 355.2C59.68 355.2 64.9707 354.261 69.408 352.384C72.107 351.264 74.4869 350.052 76.5478 348.749C75.1696 347.039 73.771 345.349 72.352 343.68C69.4507 340.352 66.72 337.067 64.16 333.824C61.6853 330.581 59.68 327.296 58.144 323.968C56.608 320.64 55.84 317.227 55.84 313.728C55.84 308.267 57.0773 303.616 59.552 299.776C62.112 295.851 65.44 292.523 69.536 289.792C73.7173 287.061 78.2827 284.842 83.232 283.136C88.2667 281.344 93.3013 279.936 98.336 278.912L100.384 279.936L111.392 304.768C113.269 309.035 114.933 312.448 116.384 315.008C117.92 317.568 119.499 319.403 121.12 320.512C122.741 321.536 124.789 322.048 127.264 322.048H141.814C141.653 321.465 141.515 320.825 141.399 320.128C141.058 317.568 140.887 314.496 140.887 310.912V274.944L162.007 272.64H163.415V323.712L163.671 331.136C163.842 333.525 164.098 335.488 164.439 337.024V338.048C161.879 339.072 158.764 339.84 155.095 340.352C151.426 340.864 146.903 341.12 141.527 341.12H124.704Z" fill="url(#paint15_radial_64_217)"/>
<path d="M180.481 354.944C178.262 354.603 176.044 354.176 173.825 353.664L167.937 371.328V372.608L170.497 372.992C172.118 373.333 174.124 373.632 176.513 373.888C178.988 374.229 181.334 374.4 183.553 374.4C190.124 374.4 196.012 373.419 201.217 371.456C206.508 369.493 210.988 366.379 214.657 362.112C218.412 357.845 221.27 352.256 223.233 345.344C225.196 338.517 226.177 330.197 226.177 320.384C226.177 313.216 225.921 306.133 225.409 299.136C224.897 292.139 224.257 285.739 223.489 279.936H222.081L200.321 282.24C201.174 288.128 201.942 294.4 202.625 301.056C203.308 307.627 203.649 314.581 203.649 321.92C203.649 327.637 203.393 332.757 202.881 337.28C202.369 341.717 201.601 345.557 200.577 348.8C200.107 350.467 199.573 351.983 198.974 353.35C198.158 353.668 197.242 353.986 196.225 354.304C193.58 355.157 190.55 355.584 187.137 355.584C184.918 355.584 182.7 355.371 180.481 354.944Z" fill="url(#paint16_radial_64_217)"/>
<path d="M245.431 246.144L268.599 243.84L268.983 244.864C268.642 246.4 268.386 248.32 268.215 250.624C268.13 252.928 268.044 255.275 267.959 257.664V341.12H245.431V246.144Z" fill="url(#paint17_radial_64_217)"/>
<path fill-rule="evenodd" clip-rule="evenodd" d="M287.669 297.856C285.877 302.208 284.981 306.859 284.981 311.808C284.981 318.123 286.56 323.499 289.717 327.936C292.874 332.288 297.184 335.616 302.645 337.92C308.192 340.139 314.464 341.248 321.461 341.248L332.298 341.214C331.792 344.673 331.081 347.586 330.165 349.952C329.714 351.116 329.222 352.189 328.689 353.172C327.466 353.688 326.166 354.108 324.789 354.432C321.973 355.2 318.688 355.584 314.933 355.584C312.202 355.584 308.832 355.243 304.821 354.56C300.896 353.877 297.141 352.64 293.557 350.848H292.149L285.493 368.384L288.949 369.92C291.253 370.944 294.453 371.968 298.549 372.992C302.73 374.016 307.594 374.528 313.141 374.528C321.93 374.528 329.44 372.565 335.669 368.64C341.898 364.715 346.72 358.912 350.133 351.232C351.539 348.146 352.662 344.785 353.503 341.149L362.933 341.12H377.152C382.528 341.12 387.051 340.864 390.72 340.352C394.389 339.84 397.504 339.072 400.064 338.048V337.024C399.723 335.488 399.467 333.525 399.296 331.136L399.04 323.712V272.64H397.632L376.512 274.944V310.912C376.512 314.496 376.683 317.568 377.024 320.128C377.14 320.825 377.278 321.465 377.439 322.048H355.374C355.276 315.285 354.212 309.141 352.181 303.616C350.048 297.728 347.232 292.693 343.733 288.512C340.234 284.331 336.309 281.131 331.957 278.912C327.69 276.608 323.338 275.456 318.901 275.456C314.378 275.456 310.069 276.437 305.973 278.4C301.962 280.277 298.378 282.88 295.221 286.208C292.064 289.536 289.546 293.419 287.669 297.856ZM333.197 322.56C333.081 319.417 332.71 316.388 332.085 313.472C331.317 309.802 330.08 306.389 328.373 303.232C326.666 300.074 324.49 297.258 321.845 294.784C320.45 293.389 318.903 292.133 317.203 291.016C314.426 292.517 312.133 294.456 310.325 296.832C307.424 300.672 305.973 304.81 305.973 309.248C305.973 311.381 306.57 313.472 307.765 315.52C308.96 317.568 310.794 319.274 313.269 320.64C315.744 321.92 318.901 322.56 322.741 322.56H333.197Z" fill="url(#paint18_radial_64_217)"/>
<g style="mix-blend-mode:overlay" filter="url(#filter2_f_64_217)">
<path d="M71.0269 365.095C76.6376 362.552 80.6938 359.284 83.4813 355.408M83.5218 355.353C86.3554 351.507 87.7282 347.333 87.7282 342.656C87.7282 342.245 87.5878 341.357 86.7884 339.882C86.7418 339.796 86.6973 339.709 86.655 339.62C85.813 337.866 84.6902 336.004 83.2518 334.036C83.2217 333.995 83.1921 333.953 83.163 333.911L78.555 327.255C76.8926 324.854 75.4356 322.462 74.1969 320.08C74.1674 320.023 74.1388 319.966 74.1111 319.908C72.7965 317.17 71.9842 314.275 71.9842 311.296C71.9842 307.39 73.3451 303.602 76.6983 300.955M76.8162 300.864C79.3051 298.997 82.2228 297.767 85.3824 297.021" stroke="url(#paint19_linear_64_217)" stroke-width="4" stroke-linecap="round" stroke-linejoin="round" style="mix-blend-mode:overlay"/>
<path d="M117.732 325.465C115.124 323.681 113.01 321.048 111.239 318.096M111.164 317.967C109.574 315.162 107.82 311.548 105.903 307.192M105.9 307.185L96.2905 285.508" stroke="url(#paint20_linear_64_217)" stroke-width="4" stroke-linecap="round" stroke-linejoin="round" style="mix-blend-mode:overlay"/>
<path d="M157.877 333.769C157.804 333.059 157.741 332.323 157.686 331.564C157.681 331.49 157.677 331.417 157.675 331.343L157.419 323.919C157.416 323.85 157.415 323.781 157.415 323.712V279.177" stroke="url(#paint21_linear_64_217)" stroke-width="4" stroke-linecap="round" stroke-linejoin="round" style="mix-blend-mode:overlay"/>
<path d="M218.227 286.378C218.683 290.492 219.082 294.89 219.425 299.574C219.926 306.423 220.177 313.359 220.177 320.384C220.177 329.834 219.228 337.56 217.467 343.686M217.461 343.705C215.68 349.978 213.183 354.706 210.153 358.148M210.108 358.2C207.103 361.694 203.471 364.221 199.13 365.831" stroke="url(#paint22_linear_64_217)" stroke-width="4" stroke-linecap="round" stroke-linejoin="round" style="mix-blend-mode:overlay"/>
<path d="M261.959 335.12V257.664C261.959 257.593 261.96 257.522 261.963 257.45C262.047 255.094 262.131 252.779 262.215 250.505" stroke="url(#paint23_linear_64_217)" stroke-width="4" stroke-linecap="round" stroke-linejoin="round" style="mix-blend-mode:overlay"/>
<path d="M314.351 285.738C310.867 287.621 307.904 290.106 305.55 293.199M305.538 293.215C301.92 298.004 299.973 303.393 299.973 309.248C299.973 312.559 300.914 315.683 302.582 318.544C304.42 321.693 307.131 324.106 310.371 325.894" stroke="url(#paint24_linear_64_217)" stroke-width="4" stroke-linecap="round" stroke-linejoin="round" style="mix-blend-mode:overlay"/>
<path d="M313.141 368.529C321.02 368.529 327.37 366.778 332.47 363.564C337.556 360.359 341.649 355.547 344.65 348.796M344.673 348.745C345.897 346.059 346.898 343.082 347.657 339.798" stroke="url(#paint25_linear_64_217)" stroke-width="4" stroke-linecap="round" stroke-linejoin="round" style="mix-blend-mode:overlay"/>
<path d="M349.375 322.134C349.286 315.949 348.315 310.489 346.55 305.686M346.54 305.66C344.61 300.334 342.12 295.933 339.132 292.362C336.091 288.729 332.785 286.069 329.232 284.257C329.213 284.248 329.194 284.238 329.175 284.228C329.152 284.216 329.129 284.204 329.107 284.192C325.632 282.316 322.253 281.456 318.901 281.456" stroke="url(#paint26_linear_64_217)" stroke-width="4" stroke-linecap="round" stroke-linejoin="round" style="mix-blend-mode:overlay"/>
<path d="M393.502 333.77C393.429 333.059 393.366 332.323 393.311 331.564C393.308 331.521 393.306 331.478 393.303 331.435C393.302 331.405 393.301 331.374 393.3 331.343L393.044 323.919C393.041 323.85 393.04 323.781 393.04 323.712V279.177" stroke="url(#paint27_linear_64_217)" stroke-width="4" stroke-linecap="round" stroke-linejoin="round" style="mix-blend-mode:overlay"/>
</g>
<g style="mix-blend-mode:overlay" filter="url(#filter3_f_64_217)">
<path d="M37.4082 339.216C38.8248 339.216 39.7436 338.816 40.5306 338.097C40.5664 338.065 40.6025 338.032 40.6391 338.001C40.978 337.706 41.5202 337.074 41.5202 335.104C41.5202 333.135 40.978 332.502 40.6391 332.208C40.6026 332.176 40.5664 332.144 40.5306 332.111C39.7436 331.392 38.8248 330.992 37.4082 330.992" stroke="url(#paint28_linear_64_217)" stroke-width="4" stroke-linecap="round" stroke-linejoin="round"/>
<path d="M37.4082 315.152C38.9615 315.152 39.9068 314.719 40.6586 314.033C41.1422 313.591 41.6482 312.856 41.6482 311.04C41.6482 309.07 41.106 308.438 40.7671 308.143C40.7306 308.112 40.6944 308.079 40.6586 308.047C39.8716 307.328 38.9528 306.928 37.5362 306.928" stroke="url(#paint29_linear_64_217)" stroke-width="4" stroke-linecap="round" stroke-linejoin="round"/>
<path d="M141.399 256.912C142.816 256.912 143.734 256.511 144.521 255.793C145.005 255.351 145.511 254.616 145.511 252.8C145.511 250.842 144.971 250.089 144.521 249.678C143.734 248.96 142.815 248.56 141.399 248.56" stroke="url(#paint30_linear_64_217)" stroke-width="4" stroke-linecap="round" stroke-linejoin="round"/>
<path d="M164.567 254.224C166.12 254.224 167.066 253.791 167.817 253.105C168.301 252.664 168.807 251.929 168.807 250.112C168.807 248.142 168.265 247.51 167.926 247.216C167.889 247.184 167.853 247.152 167.817 247.119C167.066 246.433 166.12 246 164.567 246" stroke="url(#paint31_linear_64_217)" stroke-width="4" stroke-linecap="round" stroke-linejoin="round"/>
<path d="M386.88 248.944C388.296 248.944 389.215 249.345 390.002 250.063C390.038 250.096 390.074 250.128 390.111 250.16C390.45 250.455 390.992 251.087 390.992 253.056C390.992 255.014 390.452 255.767 390.002 256.177C389.215 256.896 388.296 257.296 386.88 257.296" stroke="url(#paint32_linear_64_217)" stroke-width="4" stroke-linecap="round" stroke-linejoin="round"/>
</g>
<path d="M396.985 263.289L386.873 263.296C381.288 263.3 376.764 258.776 376.768 253.191C376.772 247.606 381.303 243.076 386.887 243.072C392.472 243.068 396.996 247.592 396.992 253.177L396.985 263.289Z" fill="#FF3939"/>
<path d="M396.985 263.289L386.873 263.296C381.288 263.3 376.764 258.776 376.768 253.192C376.772 247.607 381.303 243.076 386.887 243.072C392.472 243.068 396.996 247.592 396.992 253.177L396.985 263.289Z" fill="url(#paint33_linear_64_217)"/>
<path d="M171.8 260.217L161.688 260.224C156.103 260.228 151.579 255.704 151.583 250.119C151.587 244.535 156.118 240.004 161.702 240C167.287 239.996 171.811 244.52 171.807 250.105L171.8 260.217Z" fill="url(#paint34_linear_64_217)"/>
<path d="M148.504 262.904L138.392 262.912C132.807 262.916 128.283 258.392 128.287 252.807C128.291 247.222 132.822 242.692 138.407 242.688C143.991 242.683 148.515 247.207 148.511 252.792L148.504 262.904Z" fill="url(#paint35_linear_64_217)"/>
<path d="M47.6406 321.144L37.5286 321.151C31.9438 321.155 27.4198 316.631 27.4238 311.047C27.4279 305.462 31.9585 300.931 37.5432 300.927C43.128 300.923 47.652 305.447 47.6479 311.032L47.6406 321.144Z" fill="url(#paint36_linear_64_217)"/>
<path d="M47.6406 345.208L37.5286 345.216C31.9438 345.22 27.4198 340.696 27.4238 335.111C27.4279 329.526 31.9585 324.996 37.5432 324.992C43.128 324.988 47.652 329.512 47.6479 335.096L47.6406 345.208Z" fill="url(#paint37_linear_64_217)"/>
<g style="mix-blend-mode:overlay" filter="url(#filter4_f_64_217)">
<path d="M390.989 257.293L390.992 253.173C390.994 250.905 389.159 249.071 386.892 249.072" stroke="url(#paint38_linear_64_217)" stroke-width="4"/>
</g>
<g style="mix-blend-mode:overlay" filter="url(#filter5_f_64_217)">
<path d="M165.809 254.224L165.812 250.103C165.814 247.836 163.98 246.001 161.712 246.003" stroke="url(#paint39_linear_64_217)" stroke-width="4"/>
</g>
<g style="mix-blend-mode:overlay" filter="url(#filter6_f_64_217)">
<path d="M142.509 256.914L142.512 252.793C142.514 250.525 140.679 248.691 138.412 248.692" stroke="url(#paint40_linear_64_217)" stroke-width="4"/>
</g>
<g style="mix-blend-mode:overlay" filter="url(#filter7_f_64_217)">
<path d="M41.6491 315.154L41.6521 311.033C41.6538 308.765 39.8194 306.931 37.5518 306.933" stroke="url(#paint41_linear_64_217)" stroke-width="4"/>
</g>
<g style="mix-blend-mode:overlay" filter="url(#filter8_f_64_217)">
<path d="M41.6491 339.214L41.6521 335.094C41.6538 332.826 39.8194 330.992 37.5518 330.993" stroke="url(#paint42_linear_64_217)" stroke-width="4"/>
</g>
<defs>
<filter id="filter0_f_64_217" x="159.73" y="33.2305" width="127.072" height="153.52" filterUnits="userSpaceOnUse" color-interpolation-filters="sRGB">
<feFlood flood-opacity="0" result="BackgroundImageFix"/>
<feBlend mode="normal" in="SourceGraphic" in2="BackgroundImageFix" result="shape"/>
<feGaussianBlur stdDeviation="2" result="effect1_foregroundBlur_64_217"/>
</filter>
<filter id="filter1_f_64_217" x="181.441" y="25.3057" width="113.285" height="169.389" filterUnits="userSpaceOnUse" color-interpolation-filters="sRGB">
<feFlood flood-opacity="0" result="BackgroundImageFix"/>
<feBlend mode="normal" in="SourceGraphic" in2="BackgroundImageFix" result="shape"/>
<feGaussianBlur stdDeviation="2" result="effect1_foregroundBlur_64_217"/>
</filter>
<filter id="filter2_f_64_217" x="65.0264" y="244.505" width="334.476" height="130.023" filterUnits="userSpaceOnUse" color-interpolation-filters="sRGB">
<feFlood flood-opacity="0" result="BackgroundImageFix"/>
<feBlend mode="normal" in="SourceGraphic" in2="BackgroundImageFix" result="shape"/>
<feGaussianBlur stdDeviation="2" result="effect1_foregroundBlur_64_217"/>
</filter>
<filter id="filter3_f_64_217" x="31.4082" y="240" width="365.583" height="105.216" filterUnits="userSpaceOnUse" color-interpolation-filters="sRGB">
<feFlood flood-opacity="0" result="BackgroundImageFix"/>
<feBlend mode="normal" in="SourceGraphic" in2="BackgroundImageFix" result="shape"/>
<feGaussianBlur stdDeviation="2" result="effect1_foregroundBlur_64_217"/>
</filter>
<filter id="filter4_f_64_217" x="380.89" y="241.072" width="18.1021" height="22.2227" filterUnits="userSpaceOnUse" color-interpolation-filters="sRGB">
<feFlood flood-opacity="0" result="BackgroundImageFix"/>
<feBlend mode="normal" in="SourceGraphic" in2="BackgroundImageFix" result="shape"/>
<feGaussianBlur stdDeviation="3" result="effect1_foregroundBlur_64_217"/>
</filter>
<filter id="filter5_f_64_217" x="155.71" y="238.003" width="18.1021" height="22.2227" filterUnits="userSpaceOnUse" color-interpolation-filters="sRGB">
<feFlood flood-opacity="0" result="BackgroundImageFix"/>
<feBlend mode="normal" in="SourceGraphic" in2="BackgroundImageFix" result="shape"/>
<feGaussianBlur stdDeviation="3" result="effect1_foregroundBlur_64_217"/>
</filter>
<filter id="filter6_f_64_217" x="132.41" y="240.692" width="18.1021" height="22.2227" filterUnits="userSpaceOnUse" color-interpolation-filters="sRGB">
<feFlood flood-opacity="0" result="BackgroundImageFix"/>
<feBlend mode="normal" in="SourceGraphic" in2="BackgroundImageFix" result="shape"/>
<feGaussianBlur stdDeviation="3" result="effect1_foregroundBlur_64_217"/>
</filter>
<filter id="filter7_f_64_217" x="31.5503" y="298.933" width="18.1021" height="22.2227" filterUnits="userSpaceOnUse" color-interpolation-filters="sRGB">
<feFlood flood-opacity="0" result="BackgroundImageFix"/>
<feBlend mode="normal" in="SourceGraphic" in2="BackgroundImageFix" result="shape"/>
<feGaussianBlur stdDeviation="3" result="effect1_foregroundBlur_64_217"/>
</filter>
<filter id="filter8_f_64_217" x="31.5503" y="322.993" width="18.1021" height="22.2227" filterUnits="userSpaceOnUse" color-interpolation-filters="sRGB">
<feFlood flood-opacity="0" result="BackgroundImageFix"/>
<feBlend mode="normal" in="SourceGraphic" in2="BackgroundImageFix" result="shape"/>
<feGaussianBlur stdDeviation="3" result="effect1_foregroundBlur_64_217"/>
</filter>
<radialGradient id="paint0_diamond_64_217" cx="0" cy="0" r="1" gradientUnits="userSpaceOnUse" gradientTransform="translate(198.249 98.2161) rotate(-135) scale(91.9029 74.4246)">
<stop stop-color="#006600"/>
<stop offset="0.8" stop-color="#009900"/>
</radialGradient>
<radialGradient id="paint1_diamond_64_217" cx="0" cy="0" r="1" gradientUnits="userSpaceOnUse" gradientTransform="translate(198.249 98.2156) rotate(-135) scale(91.9029 74.4246)">
<stop stop-color="#006600"/>
<stop offset="0.8" stop-color="#009900"/>
</radialGradient>
<radialGradient id="paint2_diamond_64_217" cx="0" cy="0" r="1" gradientUnits="userSpaceOnUse" gradientTransform="translate(198.249 121.784) rotate(135) scale(91.9029 74.4246)">
<stop stop-color="#006600"/>
<stop offset="0.8" stop-color="#009900"/>
</radialGradient>
<radialGradient id="paint3_diamond_64_217" cx="0" cy="0" r="1" gradientUnits="userSpaceOnUse" gradientTransform="translate(221.817 98.2161) rotate(-45) scale(91.9029 74.4246)">
<stop stop-color="#006600"/>
<stop offset="0.8" stop-color="#009900"/>
</radialGradient>
<radialGradient id="paint4_diamond_64_217" cx="0" cy="0" r="1" gradientUnits="userSpaceOnUse" gradientTransform="translate(221.817 121.784) rotate(45) scale(91.9029 74.4246)">
<stop stop-color="#006600"/>
<stop offset="0.8" stop-color="#009900"/>
</radialGradient>
<radialGradient id="paint5_diamond_64_217" cx="0" cy="0" r="1" gradientUnits="userSpaceOnUse" gradientTransform="translate(210.032 110) rotate(-90) scale(90 90)">
<stop stop-color="#FF8000"/>
<stop offset="0.8" stop-color="#FFD300"/>
</radialGradient>
<linearGradient id="paint6_linear_64_217" x1="267.57" y1="39.25" x2="267.57" y2="92.2159" gradientUnits="userSpaceOnUse">
<stop offset="0.1" stop-color="white" stop-opacity="0"/>
<stop offset="0.5" stop-color="white"/>
<stop offset="0.9" stop-color="white" stop-opacity="0"/>
</linearGradient>
<linearGradient id="paint7_linear_64_217" x1="178.991" y1="39.2305" x2="178.991" y2="92.2156" gradientUnits="userSpaceOnUse">
<stop offset="0.1" stop-color="white" stop-opacity="0"/>
<stop offset="0.5" stop-color="white"/>
<stop offset="0.9" stop-color="white" stop-opacity="0"/>
</linearGradient>
<linearGradient id="paint8_linear_64_217" x1="178.991" y1="127.765" x2="178.991" y2="180.75" gradientUnits="userSpaceOnUse">
<stop offset="0.1" stop-color="white" stop-opacity="0"/>
<stop offset="0.5" stop-color="white"/>
<stop offset="0.9" stop-color="white" stop-opacity="0"/>
</linearGradient>
<linearGradient id="paint9_linear_64_217" x1="267.568" y1="180.75" x2="267.568" y2="127.784" gradientUnits="userSpaceOnUse">
<stop offset="0.1" stop-color="white" stop-opacity="0"/>
<stop offset="0.5" stop-color="white"/>
<stop offset="0.9" stop-color="white" stop-opacity="0"/>
</linearGradient>
<radialGradient id="paint10_diamond_64_217" cx="0" cy="0" r="1" gradientUnits="userSpaceOnUse" gradientTransform="translate(210.032 110) rotate(-90) scale(90 90)">
<stop stop-color="#FF8000"/>
<stop offset="0.8" stop-color="#FFD300"/>
</radialGradient>
<linearGradient id="paint11_linear_64_217" x1="280.069" y1="92.6602" x2="280.069" y2="127.339" gradientUnits="userSpaceOnUse">
<stop offset="0.1" stop-color="white" stop-opacity="0"/>
<stop offset="0.5" stop-color="white"/>
<stop offset="0.9" stop-color="white" stop-opacity="0"/>
</linearGradient>
<linearGradient id="paint12_linear_64_217" x1="188.931" y1="98.2627" x2="188.931" y2="121.739" gradientUnits="userSpaceOnUse">
<stop offset="0.1" stop-color="white" stop-opacity="0"/>
<stop offset="0.5" stop-color="white"/>
<stop offset="0.9" stop-color="white" stop-opacity="0"/>
</linearGradient>
<linearGradient id="paint13_linear_64_217" x1="222.292" y1="142.407" x2="222.292" y2="188.695" gradientUnits="userSpaceOnUse">
<stop offset="0.1" stop-color="white" stop-opacity="0"/>
<stop offset="0.5" stop-color="white"/>
<stop offset="0.9" stop-color="white" stop-opacity="0"/>
</linearGradient>
<linearGradient id="paint14_linear_64_217" x1="222.292" y1="31.3057" x2="222.292" y2="77.593" gradientUnits="userSpaceOnUse">
<stop offset="0.1" stop-color="white" stop-opacity="0"/>
<stop offset="0.5" stop-color="white"/>
<stop offset="0.9" stop-color="white" stop-opacity="0"/>
</linearGradient>
<radialGradient id="paint15_radial_64_217" cx="0" cy="0" r="1" gradientUnits="userSpaceOnUse" gradientTransform="translate(210.032 374.912) rotate(-90) scale(134.912 380.064)">
<stop stop-color="#FF8000"/>
<stop offset="1" stop-color="#FFD300"/>
</radialGradient>
<radialGradient id="paint16_radial_64_217" cx="0" cy="0" r="1" gradientUnits="userSpaceOnUse" gradientTransform="translate(210.032 374.912) rotate(-90) scale(134.912 380.064)">
<stop stop-color="#FF8000"/>
<stop offset="1" stop-color="#FFD300"/>
</radialGradient>
<radialGradient id="paint17_radial_64_217" cx="0" cy="0" r="1" gradientUnits="userSpaceOnUse" gradientTransform="translate(210.032 374.912) rotate(-90) scale(134.912 380.064)">
<stop stop-color="#FF8000"/>
<stop offset="1" stop-color="#FFD300"/>
</radialGradient>
<radialGradient id="paint18_radial_64_217" cx="0" cy="0" r="1" gradientUnits="userSpaceOnUse" gradientTransform="translate(210.032 374.912) rotate(-90) scale(134.912 380.064)">
<stop stop-color="#FF8000"/>
<stop offset="1" stop-color="#FFD300"/>
</radialGradient>
<linearGradient id="paint19_linear_64_217" x1="79.3401" y1="297.021" x2="79.3401" y2="365.095" gradientUnits="userSpaceOnUse">
<stop offset="0.1" stop-color="white" stop-opacity="0"/>
<stop offset="0.5" stop-color="white"/>
<stop offset="0.9" stop-color="white" stop-opacity="0"/>
</linearGradient>
<linearGradient id="paint20_linear_64_217" x1="106.963" y1="285.508" x2="106.963" y2="325.465" gradientUnits="userSpaceOnUse">
<stop offset="0.1" stop-color="white" stop-opacity="0"/>
<stop offset="0.5" stop-color="white"/>
<stop offset="0.9" stop-color="white" stop-opacity="0"/>
</linearGradient>
<linearGradient id="paint21_linear_64_217" x1="157.645" y1="279.177" x2="157.645" y2="333.769" gradientUnits="userSpaceOnUse">
<stop offset="0.1" stop-color="white" stop-opacity="0"/>
<stop offset="0.5" stop-color="white"/>
<stop offset="0.9" stop-color="white" stop-opacity="0"/>
</linearGradient>
<linearGradient id="paint22_linear_64_217" x1="209.607" y1="286.378" x2="209.607" y2="365.831" gradientUnits="userSpaceOnUse">
<stop offset="0.1" stop-color="white" stop-opacity="0"/>
<stop offset="0.5" stop-color="white"/>
<stop offset="0.9" stop-color="white" stop-opacity="0"/>
</linearGradient>
<linearGradient id="paint23_linear_64_217" x1="262.087" y1="250.505" x2="262.087" y2="335.12" gradientUnits="userSpaceOnUse">
<stop offset="0.1" stop-color="white" stop-opacity="0"/>
<stop offset="0.5" stop-color="white"/>
<stop offset="0.9" stop-color="white" stop-opacity="0"/>
</linearGradient>
<linearGradient id="paint24_linear_64_217" x1="307.13" y1="285.738" x2="307.13" y2="325.894" gradientUnits="userSpaceOnUse">
<stop offset="0.1" stop-color="white" stop-opacity="0"/>
<stop offset="0.5" stop-color="white"/>
<stop offset="0.9" stop-color="white" stop-opacity="0"/>
</linearGradient>
<linearGradient id="paint25_linear_64_217" x1="330.322" y1="339.798" x2="330.322" y2="368.529" gradientUnits="userSpaceOnUse">
<stop offset="0.1" stop-color="white" stop-opacity="0"/>
<stop offset="0.5" stop-color="white"/>
<stop offset="0.9" stop-color="white" stop-opacity="0"/>
</linearGradient>
<linearGradient id="paint26_linear_64_217" x1="334.07" y1="281.456" x2="334.07" y2="322.134" gradientUnits="userSpaceOnUse">
<stop offset="0.1" stop-color="white" stop-opacity="0"/>
<stop offset="0.5" stop-color="white"/>
<stop offset="0.9" stop-color="white" stop-opacity="0"/>
</linearGradient>
<linearGradient id="paint27_linear_64_217" x1="393.27" y1="279.177" x2="393.27" y2="333.77" gradientUnits="userSpaceOnUse">
<stop offset="0.1" stop-color="white" stop-opacity="0"/>
<stop offset="0.5" stop-color="white"/>
<stop offset="0.9" stop-color="white" stop-opacity="0"/>
</linearGradient>
<linearGradient id="paint28_linear_64_217" x1="37.4082" y1="330.992" x2="37.4082" y2="339.216" gradientUnits="userSpaceOnUse">
<stop offset="0.1" stop-color="white" stop-opacity="0"/>
<stop offset="0.5" stop-color="white"/>
<stop offset="0.9" stop-color="white" stop-opacity="0"/>
</linearGradient>
<linearGradient id="paint29_linear_64_217" x1="37.4082" y1="306.928" x2="37.4082" y2="315.152" gradientUnits="userSpaceOnUse">
<stop offset="0.1" stop-color="white" stop-opacity="0"/>
<stop offset="0.5" stop-color="white"/>
<stop offset="0.9" stop-color="white" stop-opacity="0"/>
</linearGradient>
<linearGradient id="paint30_linear_64_217" x1="141.399" y1="248.56" x2="141.399" y2="256.912" gradientUnits="userSpaceOnUse">
<stop offset="0.1" stop-color="white" stop-opacity="0"/>
<stop offset="0.5" stop-color="white"/>
<stop offset="0.9" stop-color="white" stop-opacity="0"/>
</linearGradient>
<linearGradient id="paint31_linear_64_217" x1="164.567" y1="246" x2="164.567" y2="254.224" gradientUnits="userSpaceOnUse">
<stop offset="0.1" stop-color="white" stop-opacity="0"/>
<stop offset="0.5" stop-color="white"/>
<stop offset="0.9" stop-color="white" stop-opacity="0"/>
</linearGradient>
<linearGradient id="paint32_linear_64_217" x1="386.88" y1="248.944" x2="386.88" y2="257.296" gradientUnits="userSpaceOnUse">
<stop offset="0.1" stop-color="white" stop-opacity="0"/>
<stop offset="0.5" stop-color="white"/>
<stop offset="0.9" stop-color="white" stop-opacity="0"/>
</linearGradient>
<linearGradient id="paint33_linear_64_217" x1="386.88" y1="243.072" x2="386.88" y2="263.296" gradientUnits="userSpaceOnUse">
<stop stop-color="#009900"/>
<stop offset="1" stop-color="#006600"/>
</linearGradient>
<linearGradient id="paint34_linear_64_217" x1="161.695" y1="260.224" x2="161.695" y2="240" gradientUnits="userSpaceOnUse">
<stop stop-color="#006600"/>
<stop offset="1" stop-color="#009900"/>
</linearGradient>
<linearGradient id="paint35_linear_64_217" x1="138.399" y1="262.912" x2="138.399" y2="242.688" gradientUnits="userSpaceOnUse">
<stop stop-color="#006600"/>
<stop offset="1" stop-color="#009900"/>
</linearGradient>
<linearGradient id="paint36_linear_64_217" x1="37.5359" y1="321.151" x2="37.5359" y2="300.927" gradientUnits="userSpaceOnUse">
<stop stop-color="#006600"/>
<stop offset="1" stop-color="#009900"/>
</linearGradient>
<linearGradient id="paint37_linear_64_217" x1="37.5359" y1="345.216" x2="37.5359" y2="324.992" gradientUnits="userSpaceOnUse">
<stop stop-color="#006600"/>
<stop offset="1" stop-color="#009900"/>
</linearGradient>
<linearGradient id="paint38_linear_64_217" x1="386.892" y1="249.072" x2="390.992" y2="257.293" gradientUnits="userSpaceOnUse">
<stop offset="0.1" stop-color="white" stop-opacity="0"/>
<stop offset="0.5" stop-color="white"/>
<stop offset="0.9" stop-color="white" stop-opacity="0"/>
</linearGradient>
<linearGradient id="paint39_linear_64_217" x1="161.712" y1="246.003" x2="165.812" y2="254.224" gradientUnits="userSpaceOnUse">
<stop offset="0.1" stop-color="white" stop-opacity="0"/>
<stop offset="0.5" stop-color="white"/>
<stop offset="0.9" stop-color="white" stop-opacity="0"/>
</linearGradient>
<linearGradient id="paint40_linear_64_217" x1="138.412" y1="248.692" x2="142.512" y2="256.914" gradientUnits="userSpaceOnUse">
<stop offset="0.1" stop-color="white" stop-opacity="0"/>
<stop offset="0.5" stop-color="white"/>
<stop offset="0.9" stop-color="white" stop-opacity="0"/>
</linearGradient>
<linearGradient id="paint41_linear_64_217" x1="37.5518" y1="306.933" x2="41.6521" y2="315.154" gradientUnits="userSpaceOnUse">
<stop offset="0.1" stop-color="white" stop-opacity="0"/>
<stop offset="0.5" stop-color="white"/>
<stop offset="0.9" stop-color="white" stop-opacity="0"/>
</linearGradient>
<linearGradient id="paint42_linear_64_217" x1="37.5518" y1="330.993" x2="41.6521" y2="339.214" gradientUnits="userSpaceOnUse">
<stop offset="0.1" stop-color="white" stop-opacity="0"/>
<stop offset="0.5" stop-color="white"/>
<stop offset="0.9" stop-color="white" stop-opacity="0"/>
</linearGradient>
</defs>
</svg>
