<svg width="48" height="48" viewBox="0 0 48 48" fill="none" xmlns="http://www.w3.org/2000/svg">
<rect width="48" height="48" rx="8" fill="#FAFAD1"/>
<g clip-path="url(#clip0_175_391)">
<path d="M15.5943 33.6856C15.5289 33.8865 15.5287 34.1029 15.5939 34.3039C15.659 34.5049 15.7862 34.68 15.9571 34.8043C16.128 34.9285 16.3338 34.9954 16.5451 34.9955C16.7564 34.9955 16.9622 34.9286 17.1331 34.8043L36.5868 20.8043C36.7559 20.6798 36.8815 20.5051 36.9457 20.3052C37.0099 20.1052 37.0096 19.8901 36.9447 19.6904C36.8798 19.4907 36.7537 19.3164 36.5843 19.1924C36.4148 19.0684 36.2106 19.0008 36.0006 18.9993H12.0006C11.7894 18.9992 11.5836 19.066 11.4127 19.19C11.2417 19.314 11.1145 19.489 11.0491 19.6898C10.9837 19.8906 10.9836 20.107 11.0488 20.3079C11.114 20.5088 11.241 20.6839 11.4118 20.8081L30.8656 34.8081C31.0365 34.9323 31.2423 34.9992 31.4536 34.9992C31.6649 34.9992 31.8707 34.9323 32.0416 34.808C32.2125 34.6838 32.3396 34.5086 32.4048 34.3076C32.47 34.1067 32.4698 33.8902 32.4043 33.6893L24.9518 10.7093C24.8908 10.5044 24.7653 10.3247 24.5939 10.1969C24.4225 10.069 24.2144 10 24.0006 10C23.7868 10 23.5787 10.069 23.4073 10.1969C23.2359 10.3247 23.1103 10.5044 23.0493 10.7093L15.5943 33.6856Z" fill="#EBEB47" stroke="#0A5C25" stroke-linecap="round" stroke-linejoin="round"/>
</g>
<defs>
<clipPath id="clip0_175_391">
<rect width="32" height="32" fill="white" transform="translate(8 8)"/>
</clipPath>
</defs>
</svg>
