<svg width="16" height="16" viewBox="0 0 16 16" fill="none" xmlns="http://www.w3.org/2000/svg">
<g clip-path="url(#clip0_291_526)">
<path d="M6.75 9.25L10 6" stroke="#FAFAD1" stroke-linecap="round" stroke-linejoin="round"/>
<path d="M13.9811 2.63635C14.0052 2.55082 14.006 2.46041 13.9836 2.37444C13.9612 2.28846 13.9162 2.21001 13.8534 2.14718C13.7905 2.08435 13.7121 2.03939 13.6261 2.01695C13.5401 1.9945 13.4497 1.99537 13.3642 2.01948L1.36419 5.65823C1.26622 5.68588 1.17903 5.74277 1.11426 5.8213C1.04949 5.89984 1.01024 5.99627 1.00174 6.09771C0.993251 6.19916 1.01592 6.30077 1.06673 6.38898C1.11754 6.47719 1.19406 6.5478 1.28607 6.59135L6.75044 9.2501L9.40919 14.7139C9.45275 14.8059 9.52335 14.8824 9.61156 14.9332C9.69977 14.984 9.80139 15.0067 9.90283 14.9982C10.0043 14.9897 10.1007 14.9504 10.1792 14.8857C10.2578 14.8209 10.3147 14.7337 10.3423 14.6357L13.9811 2.63635Z" stroke="#FAFAD1" stroke-linecap="round" stroke-linejoin="round"/>
</g>
<defs>
<clipPath id="clip0_291_526">
<rect width="16" height="16" fill="white"/>
</clipPath>
</defs>
</svg>
