<svg width="559" height="557" viewBox="0 0 559 557" fill="none" xmlns="http://www.w3.org/2000/svg">
<path d="M145.862 327.361C56.9237 267.207 34.5952 171.645 35.0057 114.821L145.862 327.361ZM145.862 327.361C136.277 331.054 127.993 331.92 121.125 330.475L121.095 330.469L121.064 330.462C106.578 327.441 92.0006 331.543 81.4766 340.313C70.3301 349.602 61.8117 366.34 67.1007 385.535L67.1068 385.557L67.1129 385.579C77.2611 422.22 103.621 481.143 158.803 514.703L158.835 514.722L158.867 514.742C185.001 530.559 213.79 514.929 222.461 492.61C233.1 465.229 246.394 451.588 259.862 443.057C274.771 433.613 292.057 428.85 315.67 422.723L315.678 422.721C316.502 422.507 317.334 422.292 318.173 422.074C350.368 413.735 393.354 402.6 426.796 363.248L426.801 363.242C461.592 322.286 464.515 269.828 466.576 232.84C466.643 231.626 466.71 230.43 466.777 229.251L466.777 229.249C468.199 204.138 469.464 186.416 474.222 172.542C478.113 161.195 483.754 154.049 495.752 149.077L495.754 149.077C511.159 142.692 520.663 129.09 523.252 115.005C525.932 100.426 521.472 82.2196 505.445 70.9077V70.9077C457.973 37.3885 415.048 26.8371 376.682 44.2049C359.194 52.1218 346.066 64.5239 336.077 76.3883C326.45 87.8225 318.289 100.577 311.715 110.852L311.233 111.604L311.228 111.613C304.488 122.151 299.482 129.871 294.499 135.815C289.612 141.643 287.212 142.668 287.14 142.699C287.139 142.7 287.138 142.7 287.139 142.7L287.131 142.703C282.309 144.462 272.875 145.558 257.556 143.371C242.791 141.262 225.442 136.532 206.737 129.773C169.326 116.255 130.23 95.9951 102.078 78.4548C102.075 78.4532 102.073 78.4516 102.07 78.4499C76.3939 62.4466 35.2768 76.6398 35.0059 114.796L145.862 327.361ZM306.88 388.845L306.958 388.825C340.354 380.152 373.903 371.439 400.126 340.583L306.88 388.845ZM306.88 388.845L306.86 388.85C261.352 400.657 216.076 412.404 189.837 479.934L306.88 388.845ZM468.936 84.4176C468.942 84.4152 468.948 84.4128 468.954 84.4104C468.948 84.4128 468.942 84.4152 468.936 84.4176ZM465.092 128.106C465.08 128.098 465.068 128.089 465.056 128.08C465.06 128.084 465.065 128.087 465.069 128.09L465.081 128.098L465.092 128.106Z" fill="white" stroke="#AACC00" stroke-width="70"/>
<path d="M180.405 327.58C77.0542 273.691 52.0828 172.973 52.5053 114.937L180.405 327.58ZM180.405 327.58C173.292 332.964 165.136 338.065 156.469 341.903C143.235 347.763 129.919 350.208 117.522 347.6L117.507 347.597L117.492 347.594C108.414 345.701 99.2422 348.288 92.6801 353.757C85.8067 359.485 80.8302 369.484 83.9719 380.886L83.975 380.897L83.978 380.908C93.5784 415.571 118.165 469.506 167.897 499.751L167.912 499.761L167.928 499.77C183.376 509.12 200.815 500.02 206.152 486.264C218.032 455.693 233.619 438.965 250.497 428.274C268.097 417.125 288.09 411.8 311.275 405.784L311.279 405.783C311.777 405.654 312.277 405.524 312.778 405.394C345.388 396.932 383.641 387.005 413.461 351.915L413.464 351.912C444.382 315.515 447.042 268.356 449.185 230.391C449.225 229.678 449.265 228.967 449.305 228.26L449.305 228.259C450.691 203.798 451.974 183.468 457.668 166.865C462.928 151.526 471.727 140.09 489.053 132.91L489.054 132.91C498.534 128.981 504.435 120.579 506.04 111.841C507.692 102.857 504.936 91.967 495.351 85.2032C495.347 85.2005 495.343 85.1977 495.339 85.195C450.137 53.282 414.057 46.4954 383.899 60.1474C369.667 66.5905 358.525 76.8968 349.464 87.6593C340.584 98.2069 332.95 110.136 326.24 120.62L325.973 121.038L325.971 121.042C319.383 131.342 313.757 140.084 307.909 147.059C302.058 154.038 297.27 157.632 293.135 159.141L293.131 159.142C284.431 162.317 271.696 163.067 255.082 160.695C238.746 158.362 220.18 153.238 200.79 146.232C162.011 132.22 121.807 111.366 92.8207 93.306C92.819 93.3049 92.8173 93.3038 92.8155 93.3027C77.052 83.474 52.6638 92.3971 52.5054 114.925L180.405 327.58Z" fill="white" stroke="#0A5C26" stroke-width="35"/>
</svg>
