<svg width="24" height="24" viewBox="0 0 24 24" fill="none" xmlns="http://www.w3.org/2000/svg">
<path d="M7.54001 22.4981C16.5959 22.4981 21.5498 14.9946 21.5498 8.49886C21.5518 8.28789 21.5488 8.07692 21.5408 7.86594C22.5049 7.1674 23.3373 6.30306 23.999 5.31326C23.0977 5.70962 22.1431 5.97139 21.1658 6.09016C22.1956 5.4748 22.9668 4.50638 23.336 3.36501C22.3691 3.93902 21.3101 4.3414 20.2059 4.55436C19.4638 3.76399 18.4817 3.2404 17.4119 3.06468C16.3421 2.88896 15.2441 3.07092 14.2882 3.58238C13.3322 4.09384 12.5716 4.90626 12.1241 5.89378C11.6766 6.8813 11.5673 7.98883 11.813 9.0448C9.85524 8.9471 7.93993 8.43874 6.19142 7.55273C4.44291 6.66672 2.9003 5.42287 1.66375 3.90194C1.0362 4.98652 0.844773 6.26922 1.12832 7.48976C1.41187 8.71031 2.14915 9.77726 3.19055 10.4741C2.40977 10.4489 1.64604 10.2392 0.961833 9.86219V9.92969C0.963742 11.0656 1.35751 12.1661 2.07668 13.0454C2.79584 13.9247 3.79636 14.5289 4.90934 14.7561C4.4868 14.8725 4.05029 14.9306 3.612 14.9286C3.30292 14.9318 2.99433 14.9031 2.69112 14.8431C3.00517 15.8214 3.61767 16.6768 4.44265 17.2893C5.26764 17.9018 6.2637 18.2406 7.29104 18.2581C5.54541 19.6274 3.3904 20.3706 1.17181 20.3684C0.780803 20.3713 0.390024 20.3488 0.00195312 20.3009C2.2538 21.7369 4.86924 22.4993 7.54001 22.4981Z" fill="#A3F5BE"/>
</svg>
