<svg width="24" height="24" viewBox="0 0 24 24" fill="none" xmlns="http://www.w3.org/2000/svg">
<path d="M12.0779 2.99902H12.2114C13.4442 3.00352 19.691 3.04852 21.3753 3.50146C21.8844 3.6397 22.3484 3.90914 22.7208 4.28288C23.0932 4.65661 23.3611 5.12153 23.4975 5.63119C23.649 6.20112 23.7555 6.95553 23.8274 7.73393L23.8424 7.88991L23.8754 8.27986L23.8874 8.43584C23.9849 9.80667 23.9969 11.0905 23.9984 11.371V11.4835C23.9969 11.7744 23.9834 13.1453 23.8754 14.5731L23.8634 14.7306L23.8499 14.8865C23.775 15.7444 23.664 16.5963 23.4975 17.2232C23.3611 17.7329 23.0932 18.1978 22.7208 18.5716C22.3484 18.9453 21.8844 19.2147 21.3753 19.353C19.6355 19.8209 13.0228 19.8539 12.1064 19.8554H11.8934C11.43 19.8554 9.51324 19.8464 7.50349 19.7774L7.24852 19.7684L7.11804 19.7624L6.86157 19.7519L6.6051 19.7414C4.94031 19.6679 3.35501 19.5495 2.6246 19.3515C2.11561 19.2134 1.65175 18.9442 1.27935 18.5707C0.906946 18.1972 0.639035 17.7326 0.502367 17.2232C0.335888 16.5978 0.224902 15.7444 0.149911 14.8865L0.137913 14.7291L0.125914 14.5731C0.0514687 13.5568 0.0104517 12.5384 0.00292969 11.5195V11.335C0.00592931 11.0125 0.0179278 9.89816 0.0989177 8.66831L0.109416 8.51383L0.113916 8.43584L0.125914 8.27986L0.15891 7.88991L0.173908 7.73393C0.245899 6.95553 0.352386 6.19962 0.503867 5.63119C0.640306 5.12153 0.908114 4.65661 1.28053 4.28288C1.65295 3.90914 2.11693 3.6397 2.6261 3.50146C3.35651 3.30649 4.94181 3.1865 6.6066 3.11151L6.86157 3.10101L7.11954 3.09201L7.24852 3.08751L7.50499 3.07701C8.93237 3.03112 10.3603 3.00563 11.7885 3.00052L12.0779 2.99902ZM9.60173 7.81342V15.0395L15.8364 11.428L9.60173 7.81342Z" fill="#A3F5BE"/>
</svg>
